<?xml version="1.0" encoding="utf-8" standalone="no"?>
<!DOCTYPE svg PUBLIC "-//W3C//DTD SVG 1.1//EN"
  "http://www.w3.org/Graphics/SVG/1.1/DTD/svg11.dtd">
<!-- Created with matplotlib (http://matplotlib.org/) -->
<svg height="288pt" version="1.1" viewBox="0 0 432 288" width="432pt" xmlns="http://www.w3.org/2000/svg" xmlns:xlink="http://www.w3.org/1999/xlink">
 <defs>
  <style type="text/css">
*{stroke-linecap:butt;stroke-linejoin:round;}
  </style>
 </defs>
 <g id="figure_1">
  <g id="patch_1">
   <path d="M 0 288 
L 432 288 
L 432 0 
L 0 0 
z
" style="fill:#ffffff;"/>
  </g>
  <g id="axes_1">
   <g id="patch_2">
    <path d="M 54 252 
L 388.8 252 
L 388.8 34.56 
L 54 34.56 
z
" style="fill:#ffffff;"/>
   </g>
   <g id="matplotlib.axis_1">
    <g id="xtick_1">
     <g id="line2d_1">
      <defs>
       <path d="M 0 0 
L 0 3.5 
" id="m12de08aacc" style="stroke:#000000;stroke-width:0.8;"/>
      </defs>
      <g>
       <use style="stroke:#000000;stroke-width:0.8;" x="54" xlink:href="#m12de08aacc" y="252"/>
      </g>
     </g>
     <g id="text_1">
      <!-- 0.0 -->
      <defs>
       <path d="M 31.78125 66.40625 
Q 24.171875 66.40625 20.328125 58.90625 
Q 16.5 51.421875 16.5 36.375 
Q 16.5 21.390625 20.328125 13.890625 
Q 24.171875 6.390625 31.78125 6.390625 
Q 39.453125 6.390625 43.28125 13.890625 
Q 47.125 21.390625 47.125 36.375 
Q 47.125 51.421875 43.28125 58.90625 
Q 39.453125 66.40625 31.78125 66.40625 
z
M 31.78125 74.21875 
Q 44.046875 74.21875 50.515625 64.515625 
Q 56.984375 54.828125 56.984375 36.375 
Q 56.984375 17.96875 50.515625 8.265625 
Q 44.046875 -1.421875 31.78125 -1.421875 
Q 19.53125 -1.421875 13.0625 8.265625 
Q 6.59375 17.96875 6.59375 36.375 
Q 6.59375 54.828125 13.0625 64.515625 
Q 19.53125 74.21875 31.78125 74.21875 
z
" id="DejaVuSans-30"/>
       <path d="M 10.6875 12.40625 
L 21 12.40625 
L 21 0 
L 10.6875 0 
z
" id="DejaVuSans-2e"/>
      </defs>
      <g transform="translate(46.048437 266.598437)scale(0.1 -0.1)">
       <use xlink:href="#DejaVuSans-30"/>
       <use x="63.623047" xlink:href="#DejaVuSans-2e"/>
       <use x="95.410156" xlink:href="#DejaVuSans-30"/>
      </g>
     </g>
    </g>
    <g id="xtick_2">
     <g id="line2d_2">
      <g>
       <use style="stroke:#000000;stroke-width:0.8;" x="120.96" xlink:href="#m12de08aacc" y="252"/>
      </g>
     </g>
     <g id="text_2">
      <!-- 0.2 -->
      <defs>
       <path d="M 19.1875 8.296875 
L 53.609375 8.296875 
L 53.609375 0 
L 7.328125 0 
L 7.328125 8.296875 
Q 12.9375 14.109375 22.625 23.890625 
Q 32.328125 33.6875 34.8125 36.53125 
Q 39.546875 41.84375 41.421875 45.53125 
Q 43.3125 49.21875 43.3125 52.78125 
Q 43.3125 58.59375 39.234375 62.25 
Q 35.15625 65.921875 28.609375 65.921875 
Q 23.96875 65.921875 18.8125 64.3125 
Q 13.671875 62.703125 7.8125 59.421875 
L 7.8125 69.390625 
Q 13.765625 71.78125 18.9375 73 
Q 24.125 74.21875 28.421875 74.21875 
Q 39.75 74.21875 46.484375 68.546875 
Q 53.21875 62.890625 53.21875 53.421875 
Q 53.21875 48.921875 51.53125 44.890625 
Q 49.859375 40.875 45.40625 35.40625 
Q 44.1875 33.984375 37.640625 27.21875 
Q 31.109375 20.453125 19.1875 8.296875 
z
" id="DejaVuSans-32"/>
      </defs>
      <g transform="translate(113.008438 266.598437)scale(0.1 -0.1)">
       <use xlink:href="#DejaVuSans-30"/>
       <use x="63.623047" xlink:href="#DejaVuSans-2e"/>
       <use x="95.410156" xlink:href="#DejaVuSans-32"/>
      </g>
     </g>
    </g>
    <g id="xtick_3">
     <g id="line2d_3">
      <g>
       <use style="stroke:#000000;stroke-width:0.8;" x="187.92" xlink:href="#m12de08aacc" y="252"/>
      </g>
     </g>
     <g id="text_3">
      <!-- 0.4 -->
      <defs>
       <path d="M 37.796875 64.3125 
L 12.890625 25.390625 
L 37.796875 25.390625 
z
M 35.203125 72.90625 
L 47.609375 72.90625 
L 47.609375 25.390625 
L 58.015625 25.390625 
L 58.015625 17.1875 
L 47.609375 17.1875 
L 47.609375 0 
L 37.796875 0 
L 37.796875 17.1875 
L 4.890625 17.1875 
L 4.890625 26.703125 
z
" id="DejaVuSans-34"/>
      </defs>
      <g transform="translate(179.968438 266.598437)scale(0.1 -0.1)">
       <use xlink:href="#DejaVuSans-30"/>
       <use x="63.623047" xlink:href="#DejaVuSans-2e"/>
       <use x="95.410156" xlink:href="#DejaVuSans-34"/>
      </g>
     </g>
    </g>
    <g id="xtick_4">
     <g id="line2d_4">
      <g>
       <use style="stroke:#000000;stroke-width:0.8;" x="254.88" xlink:href="#m12de08aacc" y="252"/>
      </g>
     </g>
     <g id="text_4">
      <!-- 0.6 -->
      <defs>
       <path d="M 33.015625 40.375 
Q 26.375 40.375 22.484375 35.828125 
Q 18.609375 31.296875 18.609375 23.390625 
Q 18.609375 15.53125 22.484375 10.953125 
Q 26.375 6.390625 33.015625 6.390625 
Q 39.65625 6.390625 43.53125 10.953125 
Q 47.40625 15.53125 47.40625 23.390625 
Q 47.40625 31.296875 43.53125 35.828125 
Q 39.65625 40.375 33.015625 40.375 
z
M 52.59375 71.296875 
L 52.59375 62.3125 
Q 48.875 64.0625 45.09375 64.984375 
Q 41.3125 65.921875 37.59375 65.921875 
Q 27.828125 65.921875 22.671875 59.328125 
Q 17.53125 52.734375 16.796875 39.40625 
Q 19.671875 43.65625 24.015625 45.921875 
Q 28.375 48.1875 33.59375 48.1875 
Q 44.578125 48.1875 50.953125 41.515625 
Q 57.328125 34.859375 57.328125 23.390625 
Q 57.328125 12.15625 50.6875 5.359375 
Q 44.046875 -1.421875 33.015625 -1.421875 
Q 20.359375 -1.421875 13.671875 8.265625 
Q 6.984375 17.96875 6.984375 36.375 
Q 6.984375 53.65625 15.1875 63.9375 
Q 23.390625 74.21875 37.203125 74.21875 
Q 40.921875 74.21875 44.703125 73.484375 
Q 48.484375 72.75 52.59375 71.296875 
z
" id="DejaVuSans-36"/>
      </defs>
      <g transform="translate(246.928438 266.598437)scale(0.1 -0.1)">
       <use xlink:href="#DejaVuSans-30"/>
       <use x="63.623047" xlink:href="#DejaVuSans-2e"/>
       <use x="95.410156" xlink:href="#DejaVuSans-36"/>
      </g>
     </g>
    </g>
    <g id="xtick_5">
     <g id="line2d_5">
      <g>
       <use style="stroke:#000000;stroke-width:0.8;" x="321.84" xlink:href="#m12de08aacc" y="252"/>
      </g>
     </g>
     <g id="text_5">
      <!-- 0.8 -->
      <defs>
       <path d="M 31.78125 34.625 
Q 24.75 34.625 20.71875 30.859375 
Q 16.703125 27.09375 16.703125 20.515625 
Q 16.703125 13.921875 20.71875 10.15625 
Q 24.75 6.390625 31.78125 6.390625 
Q 38.8125 6.390625 42.859375 10.171875 
Q 46.921875 13.96875 46.921875 20.515625 
Q 46.921875 27.09375 42.890625 30.859375 
Q 38.875 34.625 31.78125 34.625 
z
M 21.921875 38.8125 
Q 15.578125 40.375 12.03125 44.71875 
Q 8.5 49.078125 8.5 55.328125 
Q 8.5 64.0625 14.71875 69.140625 
Q 20.953125 74.21875 31.78125 74.21875 
Q 42.671875 74.21875 48.875 69.140625 
Q 55.078125 64.0625 55.078125 55.328125 
Q 55.078125 49.078125 51.53125 44.71875 
Q 48 40.375 41.703125 38.8125 
Q 48.828125 37.15625 52.796875 32.3125 
Q 56.78125 27.484375 56.78125 20.515625 
Q 56.78125 9.90625 50.3125 4.234375 
Q 43.84375 -1.421875 31.78125 -1.421875 
Q 19.734375 -1.421875 13.25 4.234375 
Q 6.78125 9.90625 6.78125 20.515625 
Q 6.78125 27.484375 10.78125 32.3125 
Q 14.796875 37.15625 21.921875 38.8125 
z
M 18.3125 54.390625 
Q 18.3125 48.734375 21.84375 45.5625 
Q 25.390625 42.390625 31.78125 42.390625 
Q 38.140625 42.390625 41.71875 45.5625 
Q 45.3125 48.734375 45.3125 54.390625 
Q 45.3125 60.0625 41.71875 63.234375 
Q 38.140625 66.40625 31.78125 66.40625 
Q 25.390625 66.40625 21.84375 63.234375 
Q 18.3125 60.0625 18.3125 54.390625 
z
" id="DejaVuSans-38"/>
      </defs>
      <g transform="translate(313.888438 266.598437)scale(0.1 -0.1)">
       <use xlink:href="#DejaVuSans-30"/>
       <use x="63.623047" xlink:href="#DejaVuSans-2e"/>
       <use x="95.410156" xlink:href="#DejaVuSans-38"/>
      </g>
     </g>
    </g>
    <g id="xtick_6">
     <g id="line2d_6">
      <g>
       <use style="stroke:#000000;stroke-width:0.8;" x="388.8" xlink:href="#m12de08aacc" y="252"/>
      </g>
     </g>
     <g id="text_6">
      <!-- 1.0 -->
      <defs>
       <path d="M 12.40625 8.296875 
L 28.515625 8.296875 
L 28.515625 63.921875 
L 10.984375 60.40625 
L 10.984375 69.390625 
L 28.421875 72.90625 
L 38.28125 72.90625 
L 38.28125 8.296875 
L 54.390625 8.296875 
L 54.390625 0 
L 12.40625 0 
z
" id="DejaVuSans-31"/>
      </defs>
      <g transform="translate(380.848437 266.598437)scale(0.1 -0.1)">
       <use xlink:href="#DejaVuSans-31"/>
       <use x="63.623047" xlink:href="#DejaVuSans-2e"/>
       <use x="95.410156" xlink:href="#DejaVuSans-30"/>
      </g>
     </g>
    </g>
    <g id="text_7">
     <!-- $t$ -->
     <defs>
      <path d="M 42.28125 54.6875 
L 40.921875 47.703125 
L 23 47.703125 
L 17.1875 18.015625 
Q 16.890625 16.359375 16.75 15.234375 
Q 16.609375 14.109375 16.609375 13.484375 
Q 16.609375 10.359375 18.484375 8.9375 
Q 20.359375 7.515625 24.515625 7.515625 
L 33.59375 7.515625 
L 32.078125 0 
L 23.484375 0 
Q 15.484375 0 11.546875 3.125 
Q 7.625 6.25 7.625 12.59375 
Q 7.625 13.71875 7.765625 15.0625 
Q 7.90625 16.40625 8.203125 18.015625 
L 14.015625 47.703125 
L 6.390625 47.703125 
L 7.8125 54.6875 
L 15.28125 54.6875 
L 18.3125 70.21875 
L 27.296875 70.21875 
L 24.3125 54.6875 
z
" id="DejaVuSans-Oblique-74"/>
     </defs>
     <g transform="translate(219.4 280.276563)scale(0.1 -0.1)">
      <use transform="translate(0 0.78125)" xlink:href="#DejaVuSans-Oblique-74"/>
     </g>
    </g>
   </g>
   <g id="matplotlib.axis_2">
    <g id="ytick_1">
     <g id="line2d_7">
      <defs>
       <path d="M 0 0 
L -3.5 0 
" id="m55738a5720" style="stroke:#000000;stroke-width:0.8;"/>
      </defs>
      <g>
       <use style="stroke:#000000;stroke-width:0.8;" x="54" xlink:href="#m55738a5720" y="231.519027"/>
      </g>
     </g>
     <g id="text_8">
      <!-- −2.0 -->
      <defs>
       <path d="M 10.59375 35.5 
L 73.1875 35.5 
L 73.1875 27.203125 
L 10.59375 27.203125 
z
" id="DejaVuSans-2212"/>
      </defs>
      <g transform="translate(22.717187 235.318246)scale(0.1 -0.1)">
       <use xlink:href="#DejaVuSans-2212"/>
       <use x="83.789062" xlink:href="#DejaVuSans-32"/>
       <use x="147.412109" xlink:href="#DejaVuSans-2e"/>
       <use x="179.199219" xlink:href="#DejaVuSans-30"/>
      </g>
     </g>
    </g>
    <g id="ytick_2">
     <g id="line2d_8">
      <g>
       <use style="stroke:#000000;stroke-width:0.8;" x="54" xlink:href="#m55738a5720" y="198.724129"/>
      </g>
     </g>
     <g id="text_9">
      <!-- −1.5 -->
      <defs>
       <path d="M 10.796875 72.90625 
L 49.515625 72.90625 
L 49.515625 64.59375 
L 19.828125 64.59375 
L 19.828125 46.734375 
Q 21.96875 47.46875 24.109375 47.828125 
Q 26.265625 48.1875 28.421875 48.1875 
Q 40.625 48.1875 47.75 41.5 
Q 54.890625 34.8125 54.890625 23.390625 
Q 54.890625 11.625 47.5625 5.09375 
Q 40.234375 -1.421875 26.90625 -1.421875 
Q 22.3125 -1.421875 17.546875 -0.640625 
Q 12.796875 0.140625 7.71875 1.703125 
L 7.71875 11.625 
Q 12.109375 9.234375 16.796875 8.0625 
Q 21.484375 6.890625 26.703125 6.890625 
Q 35.15625 6.890625 40.078125 11.328125 
Q 45.015625 15.765625 45.015625 23.390625 
Q 45.015625 31 40.078125 35.4375 
Q 35.15625 39.890625 26.703125 39.890625 
Q 22.75 39.890625 18.8125 39.015625 
Q 14.890625 38.140625 10.796875 36.28125 
z
" id="DejaVuSans-35"/>
      </defs>
      <g transform="translate(22.717187 202.523348)scale(0.1 -0.1)">
       <use xlink:href="#DejaVuSans-2212"/>
       <use x="83.789062" xlink:href="#DejaVuSans-31"/>
       <use x="147.412109" xlink:href="#DejaVuSans-2e"/>
       <use x="179.199219" xlink:href="#DejaVuSans-35"/>
      </g>
     </g>
    </g>
    <g id="ytick_3">
     <g id="line2d_9">
      <g>
       <use style="stroke:#000000;stroke-width:0.8;" x="54" xlink:href="#m55738a5720" y="165.929231"/>
      </g>
     </g>
     <g id="text_10">
      <!-- −1.0 -->
      <g transform="translate(22.717187 169.72845)scale(0.1 -0.1)">
       <use xlink:href="#DejaVuSans-2212"/>
       <use x="83.789062" xlink:href="#DejaVuSans-31"/>
       <use x="147.412109" xlink:href="#DejaVuSans-2e"/>
       <use x="179.199219" xlink:href="#DejaVuSans-30"/>
      </g>
     </g>
    </g>
    <g id="ytick_4">
     <g id="line2d_10">
      <g>
       <use style="stroke:#000000;stroke-width:0.8;" x="54" xlink:href="#m55738a5720" y="133.134333"/>
      </g>
     </g>
     <g id="text_11">
      <!-- −0.5 -->
      <g transform="translate(22.717187 136.933552)scale(0.1 -0.1)">
       <use xlink:href="#DejaVuSans-2212"/>
       <use x="83.789062" xlink:href="#DejaVuSans-30"/>
       <use x="147.412109" xlink:href="#DejaVuSans-2e"/>
       <use x="179.199219" xlink:href="#DejaVuSans-35"/>
      </g>
     </g>
    </g>
    <g id="ytick_5">
     <g id="line2d_11">
      <g>
       <use style="stroke:#000000;stroke-width:0.8;" x="54" xlink:href="#m55738a5720" y="100.339435"/>
      </g>
     </g>
     <g id="text_12">
      <!-- 0.0 -->
      <g transform="translate(31.096875 104.138654)scale(0.1 -0.1)">
       <use xlink:href="#DejaVuSans-30"/>
       <use x="63.623047" xlink:href="#DejaVuSans-2e"/>
       <use x="95.410156" xlink:href="#DejaVuSans-30"/>
      </g>
     </g>
    </g>
    <g id="ytick_6">
     <g id="line2d_12">
      <g>
       <use style="stroke:#000000;stroke-width:0.8;" x="54" xlink:href="#m55738a5720" y="67.544537"/>
      </g>
     </g>
     <g id="text_13">
      <!-- 0.5 -->
      <g transform="translate(31.096875 71.343756)scale(0.1 -0.1)">
       <use xlink:href="#DejaVuSans-30"/>
       <use x="63.623047" xlink:href="#DejaVuSans-2e"/>
       <use x="95.410156" xlink:href="#DejaVuSans-35"/>
      </g>
     </g>
    </g>
    <g id="ytick_7">
     <g id="line2d_13">
      <g>
       <use style="stroke:#000000;stroke-width:0.8;" x="54" xlink:href="#m55738a5720" y="34.749639"/>
      </g>
     </g>
     <g id="text_14">
      <!-- 1.0 -->
      <g transform="translate(31.096875 38.548858)scale(0.1 -0.1)">
       <use xlink:href="#DejaVuSans-31"/>
       <use x="63.623047" xlink:href="#DejaVuSans-2e"/>
       <use x="95.410156" xlink:href="#DejaVuSans-30"/>
      </g>
     </g>
    </g>
    <g id="text_15">
     <!-- $W_t$ -->
     <defs>
      <path d="M 9.625 72.90625 
L 19.1875 72.90625 
L 22.703125 10.890625 
L 50.203125 72.90625 
L 61.1875 72.90625 
L 64.796875 10.890625 
L 92 72.90625 
L 102 72.90625 
L 69.578125 0 
L 57.171875 0 
L 53.8125 60.796875 
L 26.515625 0 
L 14.109375 0 
z
" id="DejaVuSans-Oblique-57"/>
     </defs>
     <g transform="translate(16.6375 149.78)rotate(-90)scale(0.1 -0.1)">
      <use transform="translate(0 0.09375)" xlink:href="#DejaVuSans-Oblique-57"/>
      <use transform="translate(98.876953 -16.3125)scale(0.7)" xlink:href="#DejaVuSans-Oblique-74"/>
     </g>
    </g>
   </g>
   <g id="line2d_14">
    <path clip-path="url(#pb087cac1af)" d="M 54 100.339435 
L 54.3348 99.509457 
L 54.6696 97.479425 
L 55.3392 88.957957 
L 55.674 90.98496 
L 56.0088 89.014352 
L 56.6784 89.542376 
L 57.0132 88.690741 
L 57.348 88.391976 
L 57.6828 85.375621 
L 58.0176 83.797129 
L 58.3524 83.544759 
L 59.022 81.932044 
L 59.3568 78.833127 
L 59.6916 79.258652 
L 60.0264 78.609309 
L 60.3612 80.380816 
L 60.696 85.676052 
L 61.3656 82.527407 
L 61.7004 84.066755 
L 62.0352 79.358985 
L 62.37 82.375531 
L 62.7048 82.280622 
L 63.0396 82.668866 
L 63.7092 76.442037 
L 64.044 76.120656 
L 64.3788 75.336297 
L 64.7136 77.177681 
L 65.0484 81.286113 
L 65.3832 82.007729 
L 65.718 81.683441 
L 66.3876 76.637762 
L 67.0572 78.068144 
L 67.392 80.242981 
L 68.0616 86.727314 
L 68.3964 82.681149 
L 69.066 84.646858 
L 69.4008 87.245321 
L 69.7356 85.632704 
L 70.0704 88.98014 
L 70.4052 89.421391 
L 70.74 91.278707 
L 71.0748 90.47622 
L 71.4096 91.535697 
L 71.7444 93.984483 
L 72.0792 94.042937 
L 72.414 93.15452 
L 72.7488 93.016555 
L 73.0836 92.389188 
L 73.4184 93.704856 
L 73.7532 94.457229 
L 74.088 95.852 
L 74.4228 96.597761 
L 74.7576 98.284333 
L 75.0924 101.86487 
L 75.4272 101.496865 
L 75.762 102.330211 
L 76.0968 105.711457 
L 76.4316 104.751586 
L 76.7664 106.633442 
L 77.1012 106.5257 
L 77.436 105.013471 
L 77.7708 104.745943 
L 78.1056 102.382676 
L 78.4404 104.943867 
L 78.7752 104.109358 
L 79.7796 108.536502 
L 80.1144 109.182703 
L 80.4492 109.066209 
L 80.784 111.482883 
L 81.1188 109.61445 
L 81.4536 108.648605 
L 81.7884 111.834976 
L 82.7928 102.370878 
L 83.1276 102.744066 
L 83.4624 104.964948 
L 83.7972 102.777876 
L 84.132 103.614118 
L 84.4668 101.078607 
L 84.8016 100.646617 
L 85.1364 98.620939 
L 85.4712 97.881788 
L 85.806 96.416263 
L 86.1408 96.394484 
L 86.4756 92.690354 
L 86.8104 92.427122 
L 87.1452 91.593343 
L 87.48 87.687441 
L 88.1496 93.118023 
L 88.4844 91.107367 
L 88.8192 93.540579 
L 89.154 89.509253 
L 89.4888 90.367153 
L 89.8236 91.917473 
L 90.828 80.984693 
L 91.1628 79.105438 
L 91.4976 80.891733 
L 91.8324 76.930007 
L 92.1672 77.485881 
L 92.8368 73.856756 
L 93.1716 74.178267 
L 93.5064 72.904586 
L 93.8412 70.991808 
L 94.176 70.211052 
L 94.5108 72.491354 
L 94.8456 71.872769 
L 95.1804 69.12167 
L 95.5152 70.562295 
L 95.85 70.872657 
L 96.1848 71.775222 
L 96.5196 67.939606 
L 96.8544 66.545179 
L 97.1892 65.700049 
L 97.524 67.296956 
L 97.8588 66.178483 
L 98.1936 67.577137 
L 98.5284 67.511116 
L 98.8632 68.829945 
L 99.5328 66.231008 
L 99.8676 66.663047 
L 100.2024 65.841677 
L 100.5372 68.10883 
L 100.872 71.201895 
L 101.2068 70.290539 
L 101.5416 69.944836 
L 101.8764 68.627697 
L 102.2112 63.684742 
L 102.546 61.725767 
L 102.8808 63.61908 
L 103.2156 61.302242 
L 103.5504 64.031607 
L 103.8852 64.988994 
L 104.22 65.130536 
L 104.5548 61.576838 
L 105.2244 64.835699 
L 105.5592 65.039903 
L 105.894 66.416044 
L 106.2288 64.079253 
L 106.8984 68.699174 
L 107.568 70.640255 
L 107.9028 66.638152 
L 108.2376 64.668928 
L 108.5724 64.487335 
L 108.9072 67.02905 
L 109.242 65.27773 
L 109.5768 67.352308 
L 109.9116 70.556366 
L 110.2464 68.092236 
L 110.5812 67.434856 
L 110.916 65.524873 
L 111.2508 64.86379 
L 111.5856 63.086611 
L 111.9204 64.436924 
L 112.2552 66.582079 
L 112.59 65.168363 
L 113.2596 68.264957 
L 113.5944 69.209791 
L 113.9292 69.173537 
L 114.264 69.907767 
L 114.5988 72.759597 
L 114.9336 74.094546 
L 115.2684 78.706176 
L 115.6032 77.409364 
L 116.2728 83.022879 
L 116.6076 82.914681 
L 116.9424 84.448632 
L 117.2772 81.248217 
L 117.612 83.929772 
L 117.9468 83.375874 
L 118.2816 83.457351 
L 118.6164 85.880131 
L 118.9512 84.794786 
L 119.286 85.150596 
L 119.9556 81.841745 
L 120.2904 77.354909 
L 120.6252 74.582775 
L 121.2948 75.84501 
L 121.6296 73.564172 
L 122.2992 70.877352 
L 122.634 74.231131 
L 122.9688 74.281587 
L 123.3036 75.81236 
L 123.6384 75.231759 
L 123.9732 75.435336 
L 124.308 73.547505 
L 124.6428 72.889553 
L 124.9776 71.258605 
L 125.3124 72.22602 
L 125.6472 74.184926 
L 125.982 75.035423 
L 126.3168 75.070725 
L 126.6516 74.284315 
L 126.9864 69.598211 
L 127.3212 69.685858 
L 127.656 71.668613 
L 128.3256 73.347784 
L 128.6604 72.349128 
L 128.9952 75.544944 
L 129.33 75.41373 
L 129.6648 75.089115 
L 129.9996 74.607541 
L 130.3344 75.846453 
L 130.6692 76.339934 
L 131.004 79.293624 
L 131.6736 81.4428 
L 132.0084 80.579857 
L 132.3432 82.977932 
L 132.678 81.357624 
L 133.0128 78.257867 
L 133.3476 82.551288 
L 133.6824 81.667171 
L 134.0172 80.263175 
L 134.352 81.585303 
L 134.6868 82.409297 
L 135.0216 82.684909 
L 135.6912 83.9435 
L 136.026 87.419752 
L 136.6956 82.790394 
L 137.0304 84.477418 
L 137.3652 87.518975 
L 137.7 86.438218 
L 138.0348 87.632478 
L 138.3696 87.338049 
L 138.7044 88.000378 
L 139.374 85.125034 
L 139.7088 86.630019 
L 140.3784 92.78252 
L 140.7132 91.516513 
L 141.048 93.982363 
L 141.7176 96.270401 
L 142.0524 96.379432 
L 142.3872 100.395531 
L 142.722 100.003979 
L 143.0568 98.91736 
L 143.3916 98.733961 
L 143.7264 99.37878 
L 144.0612 99.176759 
L 144.396 98.349085 
L 144.7308 104.099807 
L 145.0656 100.042988 
L 145.4004 99.233883 
L 145.7352 100.587064 
L 146.07 101.397953 
L 146.4048 100.373867 
L 146.7396 100.614682 
L 147.0744 104.826589 
L 147.4092 100.544559 
L 147.744 100.773835 
L 148.0788 98.657863 
L 148.4136 100.093265 
L 148.7484 96.906617 
L 149.0832 96.312702 
L 149.418 95.04988 
L 149.7528 97.217873 
L 150.0876 94.705799 
L 150.4224 93.275025 
L 150.7572 90.574825 
L 151.4268 92.875274 
L 151.7616 88.096648 
L 152.0964 90.295261 
L 152.4312 90.577238 
L 152.766 88.219176 
L 153.1008 88.016481 
L 153.4356 86.807359 
L 153.7704 87.635869 
L 154.1052 86.868324 
L 154.44 89.578233 
L 154.7748 86.139052 
L 155.1096 86.384139 
L 155.4444 87.794918 
L 155.7792 86.412752 
L 156.114 87.368346 
L 156.7836 92.929042 
L 157.1184 91.490066 
L 157.788 92.098356 
L 158.1228 89.862974 
L 158.4576 92.200159 
L 158.7924 93.715681 
L 159.1272 94.513972 
L 159.462 94.318274 
L 159.7968 94.405744 
L 160.1316 95.000785 
L 160.8012 95.351172 
L 161.4708 98.52998 
L 161.8056 97.960597 
L 162.4752 102.208979 
L 162.81 102.856714 
L 163.1448 103.183737 
L 163.4796 98.502995 
L 163.8144 99.964636 
L 164.484 96.458423 
L 164.8188 98.924451 
L 165.1536 97.320623 
L 165.4884 99.776147 
L 165.8232 105.291619 
L 166.158 104.034033 
L 166.4928 107.675981 
L 166.8276 106.740684 
L 167.1624 108.159412 
L 167.4972 104.717286 
L 167.832 102.501057 
L 168.1668 103.441438 
L 168.5016 104.868104 
L 168.8364 107.38626 
L 169.1712 108.300792 
L 169.8408 109.638708 
L 170.1756 109.313684 
L 170.5104 108.113754 
L 170.8452 107.388525 
L 171.18 108.97346 
L 171.5148 111.955628 
L 171.8496 109.12541 
L 172.854 112.989376 
L 173.1888 116.812145 
L 173.8584 118.798395 
L 174.528 116.062998 
L 174.8628 116.055177 
L 175.1976 114.122401 
L 175.5324 113.417269 
L 175.8672 113.449795 
L 176.202 113.116009 
L 176.5368 113.51145 
L 177.2064 114.885734 
L 177.5412 117.225378 
L 177.876 116.643705 
L 178.2108 118.703574 
L 178.5456 116.95792 
L 178.8804 117.47533 
L 179.2152 117.372671 
L 179.8848 115.014069 
L 180.2196 118.271749 
L 180.5544 118.700894 
L 180.8892 116.875288 
L 181.224 120.397382 
L 181.5588 119.594112 
L 181.8936 124.272448 
L 182.2284 126.393262 
L 182.5632 126.313137 
L 182.898 129.749382 
L 183.2328 131.793461 
L 183.5676 134.84624 
L 183.9024 131.427792 
L 184.2372 131.087162 
L 184.572 129.910527 
L 184.9068 130.372385 
L 185.2416 131.105449 
L 185.5764 134.458228 
L 185.9112 135.063538 
L 186.246 136.642973 
L 186.9156 132.49673 
L 187.2504 129.454853 
L 187.5852 127.686548 
L 187.92 128.928235 
L 188.2548 131.242752 
L 188.5896 129.652592 
L 188.9244 128.913594 
L 189.2592 132.581775 
L 189.594 131.844459 
L 189.9288 130.155038 
L 190.2636 130.032819 
L 190.5984 130.416644 
L 190.9332 132.091813 
L 191.268 135.092117 
L 191.6028 133.432193 
L 192.2724 134.557578 
L 192.6072 130.963686 
L 192.942 129.543941 
L 193.2768 128.774801 
L 193.6116 128.480146 
L 194.616 119.832907 
L 194.9508 118.625297 
L 195.2856 122.969779 
L 195.6204 122.713163 
L 195.9552 122.983022 
L 196.29 122.788151 
L 196.6248 120.83215 
L 196.9596 126.5146 
L 197.2944 127.695428 
L 197.6292 127.135611 
L 197.964 128.10391 
L 198.2988 131.04276 
L 198.6336 129.240415 
L 198.9684 128.666146 
L 199.3032 130.680345 
L 199.638 130.027373 
L 199.9728 128.323296 
L 200.3076 128.312318 
L 200.6424 126.651842 
L 200.9772 126.48952 
L 201.312 127.309277 
L 201.6468 129.714067 
L 201.9816 129.892299 
L 202.3164 129.48931 
L 202.6512 127.672717 
L 202.986 127.911466 
L 203.3208 126.962725 
L 203.9904 130.586733 
L 204.3252 130.815695 
L 204.66 133.003133 
L 204.9948 131.301831 
L 205.3296 130.341238 
L 205.9992 129.059425 
L 206.334 124.867515 
L 206.6688 125.840001 
L 207.0036 130.40608 
L 207.3384 129.992705 
L 207.6732 130.097663 
L 208.008 131.171066 
L 208.3428 133.201288 
L 208.6776 134.112225 
L 209.0124 133.736105 
L 209.3472 134.779013 
L 209.682 129.775267 
L 210.3516 133.412509 
L 210.6864 138.159408 
L 211.0212 137.637796 
L 211.356 141.820088 
L 211.6908 142.938988 
L 212.0256 143.510765 
L 212.3604 144.982834 
L 212.6952 141.376184 
L 213.3648 136.577616 
L 213.6996 138.407868 
L 214.0344 136.067016 
L 214.3692 135.038245 
L 215.0388 131.303056 
L 215.3736 133.18795 
L 215.7084 134.068041 
L 216.0432 132.278903 
L 216.378 137.787006 
L 216.7128 134.648165 
L 217.0476 133.500896 
L 217.3824 133.595692 
L 217.7172 133.13833 
L 218.052 135.274552 
L 218.3868 136.00038 
L 219.0564 131.025978 
L 219.3912 125.433654 
L 219.726 125.586984 
L 220.7304 130.131051 
L 221.0652 130.292532 
L 221.4 129.498695 
L 221.7348 129.569718 
L 222.0696 127.29575 
L 222.4044 127.781544 
L 222.7392 128.502203 
L 223.074 129.70783 
L 224.0784 138.791614 
L 225.0828 131.383537 
L 225.4176 134.146719 
L 225.7524 138.229905 
L 226.0872 139.598949 
L 226.422 139.234277 
L 226.7568 138.199928 
L 227.0916 136.026296 
L 227.4264 135.436663 
L 227.7612 131.822139 
L 228.096 132.283852 
L 228.4308 134.177698 
L 228.7656 137.664766 
L 229.1004 139.508609 
L 229.4352 139.006425 
L 229.77 140.849748 
L 230.1048 138.906821 
L 230.4396 135.977467 
L 230.7744 140.892302 
L 231.1092 139.100144 
L 231.444 143.745377 
L 231.7788 142.912615 
L 232.1136 140.372073 
L 232.4484 140.237553 
L 232.7832 142.891796 
L 233.118 144.106058 
L 233.7876 145.026744 
L 234.1224 145.447579 
L 234.4572 145.67549 
L 234.792 145.232705 
L 235.1268 147.739445 
L 235.4616 148.241426 
L 235.7964 145.092353 
L 236.466 146.810733 
L 236.8008 144.57441 
L 237.1356 149.882495 
L 237.4704 147.43216 
L 237.8052 148.742812 
L 238.4748 148.203019 
L 238.8096 146.248217 
L 239.1444 146.803243 
L 239.4792 148.209558 
L 239.814 145.517655 
L 240.1488 150.421262 
L 240.4836 150.379087 
L 240.8184 153.174861 
L 241.1532 154.754465 
L 241.488 150.582854 
L 241.8228 150.675351 
L 242.1576 150.27075 
L 242.4924 153.965946 
L 242.8272 155.47808 
L 243.162 155.070394 
L 243.4968 154.33458 
L 243.8316 153.055077 
L 244.1664 153.037181 
L 244.836 151.002902 
L 245.1708 154.798024 
L 245.5056 154.721269 
L 246.1752 151.90505 
L 246.51 152.659741 
L 246.8448 154.330717 
L 247.1796 156.650243 
L 247.5144 156.922066 
L 247.8492 154.571909 
L 248.184 158.620208 
L 248.5188 159.98891 
L 248.8536 162.35301 
L 249.1884 160.724905 
L 249.858 162.85078 
L 250.1928 163.300762 
L 250.5276 162.376958 
L 250.8624 163.190824 
L 251.1972 169.508926 
L 251.8668 167.471392 
L 252.2016 167.926749 
L 252.5364 170.175184 
L 253.206 168.658961 
L 253.5408 169.633871 
L 253.8756 170.083401 
L 254.2104 172.012668 
L 254.5452 172.383085 
L 254.88 175.598879 
L 255.2148 174.733305 
L 255.5496 176.69205 
L 255.8844 176.198192 
L 256.2192 179.114344 
L 256.554 180.338201 
L 256.8888 180.567371 
L 257.2236 184.011881 
L 257.5584 183.773049 
L 257.8932 184.559451 
L 258.5628 190.876423 
L 258.8976 189.621325 
L 259.2324 187.763824 
L 259.5672 188.03742 
L 259.902 187.197891 
L 260.2368 186.73361 
L 260.5716 186.049928 
L 260.9064 183.382628 
L 261.2412 186.508341 
L 261.576 185.105273 
L 261.9108 185.897609 
L 262.5804 186.989658 
L 262.9152 187.767762 
L 263.25 190.311054 
L 263.5848 189.930785 
L 263.9196 186.465029 
L 264.5892 186.584329 
L 264.924 188.009878 
L 265.2588 188.253535 
L 265.5936 187.286645 
L 266.2632 188.995826 
L 266.598 188.159402 
L 266.9328 190.063464 
L 267.2676 189.539753 
L 267.6024 187.838298 
L 267.9372 185.017586 
L 268.272 185.20505 
L 268.9416 180.222972 
L 269.6112 184.815412 
L 269.946 185.447947 
L 270.2808 183.313799 
L 270.6156 183.463732 
L 270.9504 184.709575 
L 271.2852 181.490018 
L 271.62 180.894941 
L 271.9548 185.708158 
L 272.2896 185.050326 
L 272.6244 183.971693 
L 272.9592 183.503751 
L 273.294 182.570989 
L 273.6288 182.710527 
L 273.9636 185.445054 
L 274.2984 186.213943 
L 275.3028 192.729671 
L 275.6376 191.791149 
L 275.9724 191.5881 
L 276.3072 192.517654 
L 276.642 193.864466 
L 276.9768 193.913049 
L 277.3116 191.674657 
L 277.6464 195.831664 
L 277.9812 195.049972 
L 278.316 196.181851 
L 278.9856 204.126373 
L 279.3204 206.019606 
L 279.6552 205.564315 
L 279.99 204.74905 
L 280.3248 206.696622 
L 280.6596 204.587186 
L 280.9944 201.635732 
L 281.3292 200.814196 
L 281.664 202.040843 
L 282.3336 198.14186 
L 282.6684 196.342743 
L 283.0032 197.704335 
L 283.338 203.583573 
L 283.6728 199.19307 
L 284.0076 202.534244 
L 284.3424 202.608432 
L 284.6772 197.670453 
L 285.012 196.984793 
L 285.3468 195.015931 
L 286.0164 201.819214 
L 286.3512 202.92411 
L 286.686 200.661751 
L 287.0208 201.379918 
L 287.3556 203.028099 
L 287.6904 202.617488 
L 288.0252 200.373412 
L 288.6948 205.881234 
L 289.0296 207.517037 
L 289.3644 205.246614 
L 289.6992 204.759563 
L 290.034 200.337196 
L 290.3688 198.394885 
L 290.7036 198.467677 
L 291.0384 195.843739 
L 291.3732 195.405066 
L 291.708 196.867166 
L 292.0428 195.456809 
L 292.3776 196.901082 
L 292.7124 197.503404 
L 293.0472 194.749408 
L 293.382 194.959479 
L 293.7168 196.6253 
L 294.0516 197.588397 
L 294.3864 195.469069 
L 295.056 197.417532 
L 295.3908 198.475946 
L 295.7256 198.094461 
L 296.0604 198.894017 
L 296.3952 202.216436 
L 297.0648 205.991293 
L 297.3996 203.412485 
L 298.0692 200.508839 
L 298.404 201.557018 
L 298.7388 203.249077 
L 299.0736 204.301736 
L 299.4084 206.483473 
L 299.7432 201.303951 
L 300.078 205.961044 
L 300.4128 204.791216 
L 300.7476 207.455546 
L 301.0824 207.671968 
L 301.752 212.163771 
L 302.0868 214.528688 
L 302.4216 210.888616 
L 302.7564 211.164452 
L 303.0912 212.752619 
L 303.426 211.599844 
L 303.7608 211.578378 
L 304.0956 210.084933 
L 304.4304 213.868681 
L 304.7652 213.238967 
L 305.1 211.636296 
L 305.4348 215.082669 
L 305.7696 214.153054 
L 306.1044 210.63495 
L 306.4392 210.665767 
L 307.1088 207.571212 
L 307.4436 209.038671 
L 307.7784 208.95619 
L 308.1132 212.206343 
L 308.448 213.142405 
L 308.7828 212.591333 
L 309.1176 211.091528 
L 309.4524 211.040479 
L 309.7872 209.547138 
L 310.122 211.83471 
L 310.4568 212.045644 
L 310.7916 212.005656 
L 311.1264 208.16936 
L 311.4612 208.61357 
L 311.796 209.648596 
L 312.1308 209.604311 
L 312.4656 211.510673 
L 312.8004 211.110876 
L 313.1352 211.868049 
L 313.47 215.583498 
L 313.8048 215.705014 
L 314.1396 216.36364 
L 314.4744 219.749501 
L 314.8092 219.888746 
L 315.144 216.799626 
L 315.8136 214.449156 
L 316.1484 217.231596 
L 316.4832 216.242446 
L 316.818 215.934542 
L 317.4876 213.960646 
L 317.8224 216.78101 
L 318.1572 216.86688 
L 318.492 218.438804 
L 318.8268 218.542685 
L 319.1616 220.404013 
L 319.4964 217.681777 
L 320.166 221.327923 
L 320.5008 221.173221 
L 320.8356 223.407266 
L 321.1704 224.288073 
L 321.5052 226.009529 
L 321.84 223.082572 
L 322.1748 221.452712 
L 322.5096 221.571911 
L 322.8444 222.383347 
L 323.1792 220.43176 
L 323.8488 218.558287 
L 324.1836 218.612614 
L 324.5184 222.114225 
L 324.8532 222.347494 
L 325.188 223.451948 
L 325.5228 222.114018 
L 325.8576 220.015324 
L 326.1924 221.380001 
L 326.5272 220.408509 
L 326.862 216.808067 
L 327.1968 218.192991 
L 327.5316 214.704465 
L 327.8664 216.47284 
L 328.8708 216.424485 
L 329.5404 219.388131 
L 329.8752 220.773071 
L 330.5448 219.410371 
L 330.8796 214.79347 
L 331.2144 211.949859 
L 331.5492 213.007341 
L 331.884 212.333518 
L 332.2188 210.265364 
L 332.5536 210.201892 
L 332.8884 210.346338 
L 333.2232 210.239365 
L 333.558 208.440519 
L 333.8928 210.200047 
L 334.2276 210.875529 
L 334.8972 209.253806 
L 335.232 208.75688 
L 335.5668 209.523896 
L 335.9016 207.506729 
L 336.2364 203.080806 
L 336.5712 202.237847 
L 336.906 202.638521 
L 337.2408 201.071016 
L 337.5756 202.189248 
L 337.9104 203.744204 
L 338.2452 203.676155 
L 338.58 209.033214 
L 338.9148 211.426659 
L 339.2496 212.148378 
L 339.9192 217.097322 
L 340.254 218.003195 
L 340.5888 221.410921 
L 341.2584 223.363388 
L 341.5932 223.310695 
L 341.928 220.916765 
L 342.2628 220.558968 
L 342.5976 220.515283 
L 342.9324 220.309001 
L 343.2672 219.837359 
L 343.602 221.946208 
L 343.9368 222.184267 
L 344.2716 221.543877 
L 344.6064 224.387013 
L 345.276 220.348619 
L 345.6108 221.658176 
L 345.9456 222.158742 
L 346.2804 223.980225 
L 346.6152 222.529617 
L 346.95 224.730732 
L 347.2848 225.192179 
L 347.6196 226.973691 
L 347.9544 226.868006 
L 348.2892 230.589473 
L 348.624 227.838217 
L 348.9588 229.838938 
L 349.2936 229.714708 
L 349.6284 230.155509 
L 350.298 233.577607 
L 350.6328 231.635394 
L 350.9676 232.725641 
L 351.3024 232.163199 
L 351.972 235.167948 
L 352.3068 234.188445 
L 352.6416 232.258656 
L 352.9764 232.622285 
L 353.3112 235.571534 
L 353.646 231.42751 
L 353.9808 233.204106 
L 354.3156 236.401561 
L 354.6504 231.020383 
L 354.9852 231.858399 
L 355.32 234.890225 
L 355.6548 236.307769 
L 355.9896 235.545433 
L 356.3244 235.150702 
L 356.6592 236.9173 
L 356.994 233.136731 
L 357.3288 234.218556 
L 357.6636 236.675752 
L 357.9984 234.683148 
L 358.3332 231.926497 
L 358.668 233.622085 
L 359.0028 236.528663 
L 359.3376 234.391399 
L 359.6724 238.637817 
L 360.0072 241.181992 
L 360.342 239.175381 
L 360.6768 239.29019 
L 361.0116 239.83763 
L 361.3464 239.105842 
L 361.6812 239.422717 
L 362.016 242.116364 
L 362.6856 236.721362 
L 363.0204 236.295476 
L 363.3552 236.201862 
L 363.69 231.349172 
L 364.3596 232.460927 
L 364.6944 231.704945 
L 365.364 225.349614 
L 365.6988 225.885928 
L 366.0336 225.246408 
L 366.3684 228.104734 
L 366.7032 228.751814 
L 367.3728 232.582988 
L 367.7076 229.095177 
L 368.3772 231.841104 
L 368.712 231.082286 
L 369.0468 228.390425 
L 369.3816 227.392529 
L 369.7164 221.669264 
L 370.0512 221.824135 
L 370.7208 220.715891 
L 371.0556 217.73941 
L 371.3904 216.68733 
L 371.7252 216.928406 
L 372.06 218.893621 
L 372.3948 218.386614 
L 372.7296 215.48004 
L 373.0644 216.331226 
L 373.3992 215.234127 
L 373.734 214.723585 
L 374.0688 212.932531 
L 374.4036 214.601696 
L 374.7384 209.734442 
L 375.0732 212.38759 
L 375.408 213.145791 
L 375.7428 211.200064 
L 376.0776 210.5846 
L 376.4124 208.8631 
L 376.7472 209.892081 
L 377.082 210.047237 
L 377.4168 210.021866 
L 377.7516 206.767015 
L 378.4212 203.682572 
L 378.756 205.047197 
L 379.0908 203.037607 
L 379.4256 202.569721 
L 379.7604 199.688451 
L 380.0952 195.511026 
L 380.7648 196.990024 
L 381.0996 198.782167 
L 381.4344 199.07997 
L 381.7692 199.872341 
L 382.104 199.126682 
L 382.4388 199.426532 
L 382.7736 200.176537 
L 383.1084 197.968447 
L 383.4432 199.913734 
L 383.778 199.015411 
L 384.1128 199.857388 
L 384.4476 198.354952 
L 384.7824 195.481738 
L 385.1172 196.110403 
L 385.452 195.195643 
L 385.7868 194.824803 
L 386.1216 196.48291 
L 386.7912 195.383811 
L 387.126 194.527463 
L 387.4608 194.938968 
L 387.7956 194.743601 
L 388.1304 197.123897 
L 388.4652 197.866673 
L 388.8 196.713533 
L 388.8 196.713533 
" style="fill:none;stroke:#1f77b4;stroke-linecap:square;stroke-width:1.5;"/>
   </g>
   <g id="line2d_15">
    <path clip-path="url(#pb087cac1af)" d="M 54 100.339435 
L 54.3348 101.215372 
L 54.6696 100.998181 
L 55.3392 100.107272 
L 55.674 98.985637 
L 56.0088 102.756569 
L 56.3436 102.858874 
L 56.6784 102.363087 
L 57.0132 104.437903 
L 57.348 100.965837 
L 57.6828 100.630742 
L 58.0176 97.388035 
L 58.6872 100.909543 
L 59.022 100.444414 
L 59.3568 103.926235 
L 59.6916 103.480368 
L 60.0264 103.278722 
L 60.696 99.718047 
L 61.0308 100.58395 
L 61.3656 102.860302 
L 61.7004 99.308756 
L 62.37 103.120262 
L 62.7048 105.370396 
L 63.0396 103.052958 
L 63.3744 104.129226 
L 63.7092 105.692508 
L 64.044 105.406921 
L 64.3788 105.836151 
L 64.7136 107.242611 
L 65.0484 105.678733 
L 65.718 101.425451 
L 66.0528 99.834759 
L 66.3876 98.99966 
L 66.7224 102.683085 
L 67.0572 99.22084 
L 67.392 98.594474 
L 67.7268 97.333078 
L 68.3964 92.047538 
L 69.066 90.276346 
L 69.4008 91.519216 
L 69.7356 91.450583 
L 70.74 96.568868 
L 71.0748 96.892482 
L 71.4096 94.716525 
L 71.7444 88.139506 
L 72.0792 87.746459 
L 72.414 90.543245 
L 72.7488 87.919503 
L 73.0836 88.543369 
L 73.4184 89.913558 
L 73.7532 89.478302 
L 74.088 92.051521 
L 74.4228 91.590103 
L 74.7576 91.773405 
L 75.0924 91.569357 
L 75.4272 90.778249 
L 76.0968 90.604374 
L 76.4316 90.014668 
L 76.7664 89.153073 
L 77.1012 91.292503 
L 77.436 94.258493 
L 77.7708 94.386338 
L 78.1056 97.35802 
L 78.4404 97.176468 
L 78.7752 95.229384 
L 79.11 93.970155 
L 79.7796 97.928495 
L 80.1144 97.247555 
L 80.784 98.736684 
L 81.1188 97.498622 
L 81.4536 99.546384 
L 81.7884 100.378598 
L 82.458 104.201662 
L 82.7928 105.979355 
L 83.1276 104.574209 
L 83.4624 104.466727 
L 83.7972 106.290221 
L 84.132 106.769556 
L 84.4668 110.168658 
L 84.8016 111.689645 
L 85.1364 107.231145 
L 85.4712 107.418323 
L 85.806 105.900766 
L 86.1408 106.036598 
L 86.4756 105.314449 
L 86.8104 103.938764 
L 87.1452 106.229884 
L 87.48 106.29405 
L 87.8148 103.019276 
L 88.4844 105.84412 
L 88.8192 106.482312 
L 89.154 105.924321 
L 89.4888 104.835572 
L 89.8236 102.206793 
L 90.1584 101.170768 
L 90.4932 101.299475 
L 90.828 98.687797 
L 91.1628 97.227378 
L 91.4976 100.329614 
L 92.1672 91.418544 
L 92.502 91.767443 
L 92.8368 90.983607 
L 93.1716 88.236713 
L 93.5064 88.59388 
L 93.8412 87.079035 
L 94.176 84.787994 
L 94.5108 86.892876 
L 94.8456 88.142192 
L 95.1804 86.231069 
L 95.5152 85.27528 
L 95.85 83.359204 
L 96.1848 83.634168 
L 96.5196 84.233602 
L 96.8544 88.379043 
L 97.1892 90.755999 
L 97.524 90.658378 
L 97.8588 88.948138 
L 98.1936 87.846404 
L 98.5284 88.112395 
L 98.8632 88.676085 
L 99.198 88.225625 
L 99.5328 88.063405 
L 99.8676 85.150193 
L 100.2024 84.846456 
L 100.872 90.558207 
L 101.2068 87.408101 
L 101.5416 89.837242 
L 101.8764 88.251573 
L 102.546 89.160315 
L 102.8808 89.438524 
L 103.2156 86.905211 
L 103.5504 87.30519 
L 103.8852 87.374299 
L 104.22 90.549386 
L 104.5548 90.120683 
L 104.8896 89.019231 
L 105.2244 88.523212 
L 105.5592 85.623791 
L 105.894 85.509359 
L 106.2288 84.88924 
L 106.5636 81.470026 
L 106.8984 84.684959 
L 107.2332 85.630401 
L 107.568 82.67236 
L 108.2376 79.323656 
L 108.5724 77.596629 
L 108.9072 76.91825 
L 109.242 73.534103 
L 109.5768 72.75058 
L 110.2464 71.923363 
L 110.5812 71.523338 
L 110.916 73.923144 
L 111.2508 72.324667 
L 111.5856 72.595216 
L 111.9204 68.816325 
L 112.2552 68.973234 
L 112.59 68.100194 
L 112.9248 67.588708 
L 113.2596 68.886196 
L 113.5944 66.828374 
L 113.9292 62.877021 
L 114.264 62.907671 
L 114.9336 64.26728 
L 115.2684 68.192287 
L 115.6032 68.561095 
L 115.938 68.040492 
L 116.6076 63.86152 
L 117.2772 65.299561 
L 117.612 62.968434 
L 117.9468 63.328221 
L 118.2816 64.386089 
L 118.9512 59.345734 
L 119.286 59.306757 
L 119.6208 60.53833 
L 119.9556 64.711234 
L 120.2904 63.488111 
L 120.6252 65.3473 
L 120.96 69.418264 
L 121.2948 66.131138 
L 121.6296 64.787167 
L 122.2992 69.668448 
L 122.634 67.861959 
L 122.9688 69.682986 
L 123.3036 66.9946 
L 123.9732 64.603011 
L 124.308 63.763619 
L 124.6428 63.366525 
L 124.9776 61.540229 
L 125.3124 62.482052 
L 125.6472 62.303776 
L 126.3168 59.576425 
L 126.6516 62.054985 
L 126.9864 63.0929 
L 127.3212 62.568553 
L 127.656 63.414829 
L 127.9908 59.733953 
L 128.3256 60.549405 
L 128.6604 60.885867 
L 128.9952 59.289968 
L 129.33 58.6044 
L 129.6648 58.905718 
L 129.9996 60.474785 
L 130.3344 59.849405 
L 130.6692 57.694183 
L 131.004 56.700476 
L 131.3388 58.314531 
L 131.6736 54.712231 
L 132.3432 60.995322 
L 132.678 59.003 
L 133.0128 58.534577 
L 133.3476 59.67431 
L 133.6824 61.95289 
L 134.0172 57.139246 
L 134.352 56.896384 
L 134.6868 55.78838 
L 135.3564 54.227196 
L 135.6912 53.106969 
L 136.026 51.587825 
L 136.6956 52.97099 
L 137.0304 56.5821 
L 137.3652 58.200554 
L 137.7 57.63823 
L 138.0348 55.470715 
L 138.3696 54.228228 
L 138.7044 54.934869 
L 139.0392 57.554855 
L 139.374 63.315463 
L 139.7088 60.926616 
L 140.3784 63.078929 
L 140.7132 62.806028 
L 141.048 65.721344 
L 141.3828 66.446838 
L 141.7176 62.249891 
L 142.3872 60.456522 
L 142.722 63.738824 
L 143.0568 59.085299 
L 143.3916 62.036362 
L 143.7264 58.049208 
L 144.0612 62.436112 
L 144.7308 56.165142 
L 145.0656 57.875075 
L 145.7352 55.863041 
L 146.07 57.550958 
L 146.7396 63.289738 
L 147.0744 62.167615 
L 147.4092 62.344156 
L 147.744 63.514591 
L 148.0788 61.509387 
L 148.4136 60.455587 
L 148.7484 62.022516 
L 149.0832 64.513966 
L 149.418 63.428652 
L 149.7528 64.543671 
L 150.0876 64.337907 
L 150.4224 61.068456 
L 150.7572 60.026561 
L 151.092 61.815016 
L 151.4268 61.481784 
L 151.7616 63.457695 
L 152.0964 60.121408 
L 152.4312 61.286196 
L 152.766 60.85629 
L 153.1008 60.218012 
L 153.4356 59.887705 
L 154.1052 66.950061 
L 154.44 67.888295 
L 154.7748 67.225751 
L 155.1096 67.511523 
L 155.4444 69.496773 
L 155.7792 72.293582 
L 156.4488 74.098146 
L 156.7836 73.034456 
L 157.1184 73.711284 
L 157.4532 72.461189 
L 157.788 73.69457 
L 158.4576 74.947354 
L 158.7924 76.570086 
L 159.1272 75.273508 
L 159.462 76.961013 
L 159.7968 78.042966 
L 160.1316 78.194626 
L 160.4664 80.885562 
L 160.8012 81.55952 
L 161.136 83.034862 
L 161.4708 83.839945 
L 161.8056 83.964244 
L 162.1404 85.62337 
L 162.4752 86.079836 
L 162.81 83.365485 
L 163.1448 83.418995 
L 163.4796 81.04357 
L 163.8144 80.324895 
L 164.1492 78.719184 
L 164.484 80.325514 
L 165.1536 79.83017 
L 165.8232 82.80749 
L 166.158 85.898497 
L 166.4928 82.795306 
L 166.8276 84.812198 
L 167.1624 82.019958 
L 167.4972 82.9896 
L 167.832 84.778525 
L 168.1668 83.487338 
L 168.5016 84.796514 
L 168.8364 83.617455 
L 169.1712 84.30775 
L 169.506 83.311287 
L 169.8408 85.319432 
L 170.1756 83.595101 
L 170.5104 82.582981 
L 170.8452 84.490458 
L 171.18 79.008661 
L 171.5148 77.888375 
L 172.1844 69.81848 
L 172.5192 70.210148 
L 173.1888 71.902081 
L 173.5236 75.697801 
L 173.8584 77.141054 
L 174.1932 76.629229 
L 174.528 73.464192 
L 174.8628 75.067023 
L 175.1976 73.237522 
L 175.5324 75.835565 
L 176.202 78.000876 
L 176.8716 76.281171 
L 177.5412 72.686331 
L 177.876 72.181968 
L 178.2108 71.372299 
L 178.5456 68.077478 
L 178.8804 69.137206 
L 179.2152 67.530318 
L 179.55 71.280646 
L 179.8848 70.427485 
L 180.2196 71.429808 
L 180.5544 71.424475 
L 180.8892 69.267199 
L 181.224 68.925706 
L 181.5588 67.089711 
L 181.8936 64.032929 
L 182.2284 63.225897 
L 182.5632 60.797004 
L 182.898 61.474334 
L 183.2328 61.491362 
L 183.5676 62.575344 
L 183.9024 60.412071 
L 184.2372 59.553191 
L 184.572 60.605262 
L 184.9068 60.284459 
L 185.2416 58.124109 
L 185.5764 58.205556 
L 185.9112 60.173767 
L 186.246 59.900165 
L 186.5808 64.008118 
L 186.9156 62.413587 
L 187.5852 64.260888 
L 187.92 62.44458 
L 188.2548 65.276107 
L 188.5896 61.237569 
L 189.2592 63.318945 
L 189.9288 59.730864 
L 190.2636 54.646691 
L 190.5984 55.08476 
L 190.9332 55.334499 
L 191.268 58.402795 
L 191.6028 59.091619 
L 191.9376 60.587962 
L 192.2724 61.518764 
L 192.6072 65.136439 
L 192.942 61.69212 
L 193.2768 64.630342 
L 193.6116 70.442479 
L 193.9464 72.907428 
L 194.2812 74.15987 
L 194.616 76.544196 
L 194.9508 74.26617 
L 195.2856 74.552067 
L 195.6204 74.499414 
L 195.9552 73.233381 
L 196.29 72.640154 
L 196.6248 70.610476 
L 196.9596 72.911679 
L 197.2944 74.047303 
L 197.6292 72.666 
L 197.964 77.922999 
L 198.2988 80.775312 
L 198.6336 79.736189 
L 198.9684 80.732288 
L 199.638 77.112332 
L 199.9728 79.597334 
L 200.3076 78.753874 
L 200.6424 76.261394 
L 200.9772 75.955596 
L 201.312 77.982987 
L 201.9816 74.841062 
L 202.6512 72.230665 
L 202.986 78.441886 
L 203.3208 76.614705 
L 203.6556 72.864402 
L 203.9904 71.958757 
L 204.3252 71.559011 
L 204.66 70.114506 
L 204.9948 69.412982 
L 205.3296 68.061102 
L 205.6644 68.058051 
L 206.334 71.731395 
L 206.6688 73.801776 
L 207.3384 78.864284 
L 207.6732 75.211186 
L 208.008 73.647093 
L 208.3428 74.943482 
L 208.6776 75.753207 
L 209.0124 75.519748 
L 209.3472 76.879435 
L 209.682 76.739396 
L 210.0168 75.126543 
L 210.3516 75.200678 
L 210.6864 74.503737 
L 211.0212 72.665037 
L 211.356 73.229474 
L 211.6908 72.638781 
L 212.0256 73.280471 
L 212.3604 73.339643 
L 212.6952 74.013177 
L 213.03 75.110122 
L 213.3648 74.749821 
L 213.6996 73.574732 
L 214.0344 73.271277 
L 214.3692 72.236852 
L 214.704 73.767419 
L 215.0388 76.264124 
L 215.3736 75.399121 
L 215.7084 73.972365 
L 216.0432 73.868954 
L 216.7128 69.190264 
L 217.0476 63.630408 
L 217.3824 64.046911 
L 218.052 67.653796 
L 218.3868 68.826713 
L 218.7216 67.839361 
L 219.0564 72.315479 
L 219.3912 69.580631 
L 220.0608 70.588846 
L 220.3956 72.827545 
L 220.7304 73.064464 
L 221.0652 73.037003 
L 221.4 73.289933 
L 221.7348 72.586679 
L 222.0696 73.809654 
L 222.4044 75.667693 
L 222.7392 74.530389 
L 223.074 74.325739 
L 223.4088 73.91676 
L 223.7436 71.720198 
L 224.4132 75.615012 
L 224.748 73.007374 
L 225.4176 78.798962 
L 225.7524 77.102609 
L 226.0872 76.60855 
L 226.422 76.390285 
L 226.7568 76.580398 
L 227.0916 76.515545 
L 227.4264 76.706598 
L 227.7612 73.895232 
L 228.096 74.721043 
L 228.4308 75.055753 
L 228.7656 71.333831 
L 229.1004 71.276772 
L 229.4352 66.647276 
L 229.77 66.865018 
L 230.1048 64.02882 
L 230.4396 67.462221 
L 230.7744 67.143542 
L 231.1092 70.429948 
L 231.444 68.678439 
L 231.7788 71.194086 
L 232.1136 70.605511 
L 232.4484 71.190822 
L 232.7832 73.593088 
L 233.118 76.951854 
L 233.4528 78.011819 
L 233.7876 74.401524 
L 234.1224 75.010251 
L 234.4572 73.107813 
L 234.792 73.226127 
L 235.1268 71.407681 
L 235.4616 75.196935 
L 235.7964 76.033201 
L 236.1312 74.064009 
L 236.466 74.402621 
L 236.8008 74.581941 
L 237.1356 75.474775 
L 237.4704 73.090811 
L 237.8052 72.473727 
L 238.14 72.382419 
L 238.8096 69.828584 
L 239.1444 69.38765 
L 239.4792 66.178904 
L 239.814 66.303948 
L 240.1488 65.727171 
L 240.4836 67.060739 
L 240.8184 66.749381 
L 241.1532 63.456155 
L 241.488 64.790355 
L 241.8228 67.141576 
L 242.1576 65.074165 
L 242.4924 65.382726 
L 242.8272 65.183601 
L 243.162 65.277172 
L 243.4968 65.113063 
L 243.8316 63.34895 
L 244.5012 67.187957 
L 244.836 67.011722 
L 245.5056 73.191582 
L 245.8404 69.319836 
L 246.1752 67.748747 
L 246.51 67.769606 
L 246.8448 65.201816 
L 247.1796 67.360156 
L 247.5144 68.014758 
L 247.8492 66.721634 
L 248.184 64.874263 
L 248.5188 63.810406 
L 248.8536 69.08127 
L 249.1884 71.089199 
L 249.5232 70.099697 
L 249.858 70.837988 
L 250.1928 65.569213 
L 250.5276 63.64741 
L 250.8624 62.489874 
L 251.1972 64.806575 
L 251.532 64.879785 
L 251.8668 64.379496 
L 252.8712 58.070187 
L 253.206 59.986502 
L 253.5408 57.057514 
L 253.8756 59.920709 
L 254.2104 61.032266 
L 254.5452 60.13879 
L 254.88 60.449685 
L 255.5496 64.24034 
L 255.8844 67.451623 
L 256.2192 66.348238 
L 256.554 63.733652 
L 256.8888 63.941882 
L 257.2236 64.772258 
L 257.5584 67.826049 
L 257.8932 65.931948 
L 258.228 61.345412 
L 258.5628 65.073572 
L 258.8976 67.279272 
L 259.5672 69.859306 
L 259.902 69.387761 
L 260.2368 66.039595 
L 260.5716 63.947632 
L 260.9064 62.853326 
L 261.2412 64.354849 
L 261.9108 68.329722 
L 262.2456 65.118828 
L 262.5804 65.246891 
L 262.9152 66.173689 
L 263.25 66.554822 
L 263.5848 64.844456 
L 263.9196 67.567478 
L 264.2544 64.632843 
L 264.5892 64.308291 
L 264.924 64.757017 
L 265.2588 63.838496 
L 265.5936 63.385512 
L 266.2632 64.623575 
L 266.598 66.425711 
L 266.9328 65.06427 
L 267.2676 66.167695 
L 267.6024 68.151101 
L 267.9372 67.807078 
L 268.272 65.050264 
L 268.6068 65.150537 
L 268.9416 66.411819 
L 269.2764 65.574086 
L 269.6112 61.55709 
L 269.946 64.568532 
L 270.2808 63.775794 
L 270.6156 63.350417 
L 271.2852 58.885967 
L 271.62 59.273227 
L 271.9548 62.767137 
L 272.2896 61.094218 
L 272.9592 64.790181 
L 273.294 62.408351 
L 273.6288 64.297574 
L 273.9636 61.38789 
L 274.968 59.392103 
L 275.6376 66.474872 
L 275.9724 66.027787 
L 276.3072 64.849665 
L 276.642 64.678319 
L 276.9768 66.382289 
L 277.3116 66.343043 
L 277.6464 66.513192 
L 277.9812 68.498464 
L 278.316 66.395352 
L 278.6508 69.984172 
L 278.9856 68.763043 
L 279.3204 67.965906 
L 279.6552 65.871631 
L 279.99 67.95678 
L 280.3248 67.746448 
L 280.6596 63.243166 
L 280.9944 61.869937 
L 281.3292 61.661319 
L 281.664 60.543027 
L 281.9988 60.364285 
L 282.3336 55.820075 
L 282.6684 53.779884 
L 283.0032 53.957461 
L 283.338 53.434092 
L 283.6728 54.244658 
L 284.0076 51.73527 
L 284.6772 57.980155 
L 285.012 54.954589 
L 285.3468 50.488735 
L 285.6816 49.517409 
L 286.0164 49.283576 
L 286.3512 47.920317 
L 286.686 49.262391 
L 287.0208 48.907209 
L 287.3556 48.826507 
L 287.6904 47.526931 
L 288.0252 50.758424 
L 288.36 51.810081 
L 288.6948 50.057449 
L 289.0296 51.45872 
L 289.3644 53.519082 
L 289.6992 49.283556 
L 290.034 49.204494 
L 290.3688 50.405246 
L 290.7036 53.915445 
L 291.3732 50.952584 
L 291.708 51.572251 
L 292.0428 53.858421 
L 292.3776 53.90934 
L 293.0472 57.597042 
L 293.382 57.811118 
L 293.7168 59.99184 
L 294.0516 59.480258 
L 294.3864 58.219202 
L 294.7212 59.96071 
L 295.056 62.79863 
L 295.3908 59.560331 
L 296.0604 62.879383 
L 296.3952 62.437557 
L 296.73 61.194386 
L 297.0648 61.726021 
L 297.3996 60.770273 
L 297.7344 61.601971 
L 298.0692 63.616307 
L 298.404 60.657938 
L 299.0736 51.978919 
L 299.4084 51.684794 
L 299.7432 47.882008 
L 300.078 47.144232 
L 300.4128 48.134186 
L 300.7476 47.166854 
L 301.0824 47.362636 
L 301.752 51.26499 
L 302.0868 49.60143 
L 302.4216 53.43138 
L 302.7564 52.178321 
L 303.426 59.95789 
L 303.7608 63.7719 
L 304.0956 59.692573 
L 304.4304 60.099588 
L 304.7652 59.920003 
L 305.1 56.976281 
L 305.4348 55.03867 
L 305.7696 57.924835 
L 306.1044 56.122401 
L 306.4392 55.740385 
L 306.774 56.44907 
L 307.1088 56.398688 
L 307.4436 53.744189 
L 307.7784 55.5818 
L 308.1132 54.750311 
L 308.448 54.770341 
L 308.7828 58.497897 
L 309.1176 60.161875 
L 309.4524 59.761125 
L 310.122 54.993375 
L 310.4568 53.754678 
L 310.7916 55.445666 
L 311.1264 51.709712 
L 311.4612 51.263275 
L 311.796 53.350609 
L 312.1308 53.729978 
L 312.4656 51.871041 
L 312.8004 51.855241 
L 313.8048 46.895808 
L 314.1396 48.674796 
L 314.4744 48.393845 
L 314.8092 48.300165 
L 315.144 44.443636 
L 315.4788 47.816842 
L 315.8136 48.096481 
L 316.1484 49.307968 
L 316.4832 48.612915 
L 316.818 53.668744 
L 317.1528 51.356244 
L 317.4876 51.327728 
L 317.8224 55.15388 
L 318.1572 55.902877 
L 318.492 54.639809 
L 318.8268 57.940681 
L 319.1616 57.933997 
L 319.4964 60.127337 
L 319.8312 61.280523 
L 320.166 61.225064 
L 320.5008 60.844564 
L 320.8356 61.820946 
L 321.1704 61.25513 
L 321.5052 59.558537 
L 321.84 60.137042 
L 322.5096 54.134958 
L 322.8444 55.024142 
L 323.1792 56.347107 
L 323.514 59.798821 
L 323.8488 60.061342 
L 324.1836 60.81516 
L 324.5184 59.199306 
L 324.8532 62.330542 
L 325.188 62.905888 
L 325.5228 60.896585 
L 326.1924 63.99268 
L 326.5272 66.993824 
L 326.862 61.55841 
L 327.1968 63.108767 
L 327.5316 65.805858 
L 328.2012 69.079139 
L 328.536 69.637889 
L 328.8708 67.925958 
L 329.2056 68.54472 
L 329.5404 70.458776 
L 329.8752 73.469043 
L 330.5448 73.335477 
L 330.8796 70.160122 
L 331.2144 69.968373 
L 331.5492 70.173729 
L 331.884 72.352923 
L 332.2188 72.987509 
L 332.8884 74.664732 
L 333.2232 76.654354 
L 333.558 75.537787 
L 334.2276 76.248797 
L 334.5624 79.803954 
L 335.232 77.769938 
L 335.5668 79.510403 
L 335.9016 77.456761 
L 336.2364 80.287449 
L 336.5712 80.33281 
L 336.906 80.895329 
L 337.2408 83.627323 
L 337.5756 83.233855 
L 337.9104 79.702501 
L 338.2452 79.562218 
L 338.58 80.522586 
L 338.9148 79.595399 
L 339.2496 79.376122 
L 339.5844 79.31854 
L 339.9192 80.20117 
L 340.254 77.251806 
L 340.5888 76.305249 
L 340.9236 77.401781 
L 341.2584 77.625795 
L 342.5976 84.105787 
L 342.9324 82.493612 
L 343.2672 83.09727 
L 343.602 81.947937 
L 343.9368 83.337866 
L 344.2716 83.463066 
L 344.6064 84.937858 
L 344.9412 83.445171 
L 345.276 83.960425 
L 345.6108 85.476353 
L 345.9456 88.881462 
L 346.2804 88.309693 
L 346.6152 89.778977 
L 346.95 89.811705 
L 347.2848 90.831618 
L 347.6196 88.852503 
L 348.2892 86.796299 
L 348.624 88.074215 
L 348.9588 87.107068 
L 349.2936 83.550282 
L 349.6284 85.276345 
L 349.9632 84.918891 
L 350.298 88.339584 
L 350.6328 85.438782 
L 350.9676 86.264104 
L 351.3024 84.640933 
L 351.6372 88.215135 
L 351.972 84.486802 
L 352.3068 85.227 
L 352.6416 84.095235 
L 352.9764 83.782418 
L 353.3112 84.312298 
L 353.646 80.815744 
L 353.9808 84.234008 
L 354.3156 83.614437 
L 354.6504 81.725638 
L 354.9852 81.787563 
L 355.6548 82.328618 
L 355.9896 84.874897 
L 356.3244 84.795816 
L 356.6592 83.732373 
L 356.994 83.590089 
L 357.3288 84.154825 
L 357.6636 85.170579 
L 357.9984 85.749877 
L 358.3332 83.141151 
L 358.668 87.469106 
L 359.0028 87.385992 
L 359.3376 88.065799 
L 359.6724 85.046262 
L 360.0072 84.931164 
L 360.342 81.851233 
L 360.6768 86.25646 
L 361.0116 85.303221 
L 361.3464 84.722344 
L 361.6812 81.838193 
L 362.016 85.242566 
L 362.3508 85.564131 
L 362.6856 85.427113 
L 363.0204 86.455458 
L 363.3552 83.932116 
L 363.69 84.634588 
L 364.0248 80.414223 
L 364.6944 76.255565 
L 365.0292 75.095505 
L 365.364 77.30175 
L 365.6988 78.1959 
L 366.3684 75.602596 
L 366.7032 72.891325 
L 367.038 73.860859 
L 367.3728 75.64493 
L 367.7076 73.863035 
L 368.0424 75.542307 
L 368.3772 73.730944 
L 368.712 71.242533 
L 369.0468 70.296412 
L 369.3816 71.038078 
L 369.7164 70.952868 
L 370.0512 69.721941 
L 370.386 69.700815 
L 370.7208 65.14126 
L 371.7252 71.301917 
L 372.06 72.524784 
L 372.3948 77.044174 
L 373.0644 79.70515 
L 373.3992 79.542302 
L 373.734 78.675729 
L 374.0688 81.2481 
L 374.4036 79.381269 
L 374.7384 75.643182 
L 375.0732 76.075193 
L 375.408 72.80974 
L 375.7428 72.397009 
L 376.0776 68.272118 
L 376.4124 65.954725 
L 376.7472 69.198469 
L 377.082 69.159833 
L 377.4168 66.973025 
L 377.7516 66.909667 
L 378.0864 66.986168 
L 378.4212 64.352509 
L 378.756 65.82484 
L 379.0908 65.788511 
L 379.4256 65.117268 
L 379.7604 65.809595 
L 380.0952 65.851345 
L 380.43 64.243845 
L 380.7648 63.346083 
L 381.0996 65.023469 
L 381.7692 68.950269 
L 382.104 68.94768 
L 382.4388 69.279416 
L 383.1084 72.245648 
L 383.4432 75.398409 
L 383.778 74.531726 
L 384.1128 74.61473 
L 384.4476 77.227694 
L 384.7824 77.168332 
L 385.1172 74.383557 
L 385.452 75.918281 
L 385.7868 73.190513 
L 386.1216 73.861406 
L 386.4564 73.451085 
L 386.7912 73.248337 
L 387.126 70.341393 
L 387.4608 70.01278 
L 388.1304 75.100359 
L 388.8 81.83069 
L 388.8 81.83069 
" style="fill:none;stroke:#ff7f0e;stroke-linecap:square;stroke-width:1.5;"/>
   </g>
   <g id="line2d_16">
    <path clip-path="url(#pb087cac1af)" d="M 54 100.339435 
L 54.3348 102.32723 
L 54.6696 102.494844 
L 55.674 106.550784 
L 56.6784 102.394426 
L 57.0132 104.447448 
L 57.6828 101.68361 
L 58.0176 101.113955 
L 58.3524 102.365943 
L 58.6872 100.895675 
L 59.022 100.018694 
L 59.3568 106.483464 
L 59.6916 105.146786 
L 60.0264 109.11614 
L 60.3612 107.739826 
L 60.696 108.059392 
L 61.0308 105.583685 
L 61.3656 105.787284 
L 61.7004 107.626239 
L 62.0352 107.93187 
L 62.37 105.733692 
L 62.7048 105.679253 
L 63.0396 105.916399 
L 63.3744 104.374171 
L 63.7092 103.937858 
L 64.044 103.950153 
L 64.7136 97.891254 
L 65.0484 96.619134 
L 65.3832 97.212251 
L 66.0528 91.653515 
L 66.3876 90.162428 
L 66.7224 92.684731 
L 67.0572 92.392959 
L 67.392 93.935433 
L 67.7268 94.265245 
L 68.0616 93.767335 
L 68.3964 93.559592 
L 68.7312 94.545167 
L 69.066 91.904894 
L 69.4008 95.422893 
L 69.7356 93.908397 
L 70.0704 97.761061 
L 70.4052 96.967502 
L 70.74 98.807058 
L 71.0748 96.985341 
L 71.4096 96.806027 
L 71.7444 96.292251 
L 72.0792 98.404297 
L 72.414 99.761961 
L 72.7488 99.332165 
L 73.0836 98.121764 
L 73.4184 92.046434 
L 73.7532 91.584196 
L 74.088 89.559766 
L 74.7576 95.547422 
L 75.0924 96.284765 
L 75.4272 98.768388 
L 75.762 95.6854 
L 76.0968 96.536248 
L 76.7664 90.585638 
L 77.1012 90.496908 
L 77.436 89.456109 
L 77.7708 89.572467 
L 78.4404 87.453163 
L 78.7752 87.709628 
L 79.11 86.662254 
L 79.4448 83.087082 
L 79.7796 81.608192 
L 80.1144 80.932441 
L 80.4492 80.673653 
L 81.1188 84.904819 
L 81.4536 84.234135 
L 81.7884 87.074432 
L 82.1232 88.663896 
L 82.458 86.005873 
L 82.7928 82.035509 
L 83.1276 85.490921 
L 83.4624 82.117036 
L 83.7972 82.555587 
L 84.132 82.586709 
L 84.4668 82.82194 
L 84.8016 80.580749 
L 85.1364 83.915282 
L 85.4712 82.969139 
L 85.806 84.928924 
L 86.1408 83.745033 
L 86.4756 80.545071 
L 86.8104 80.545936 
L 87.48 78.920425 
L 87.8148 80.578887 
L 88.4844 73.904109 
L 88.8192 72.448518 
L 89.154 72.296514 
L 89.4888 73.254543 
L 89.8236 74.553966 
L 90.4932 68.071783 
L 90.828 68.203826 
L 91.1628 71.480809 
L 91.4976 77.354774 
L 91.8324 79.601943 
L 92.1672 79.872867 
L 92.502 76.967654 
L 92.8368 78.319275 
L 93.1716 77.272221 
L 93.5064 74.569253 
L 93.8412 74.302651 
L 94.176 74.598107 
L 94.8456 79.806746 
L 95.1804 78.943701 
L 95.5152 79.36041 
L 95.85 79.106264 
L 96.1848 79.204324 
L 96.5196 77.826802 
L 96.8544 79.454347 
L 97.1892 80.150385 
L 97.524 76.217454 
L 97.8588 77.876315 
L 98.1936 78.46034 
L 98.5284 79.682805 
L 98.8632 78.76027 
L 99.198 76.639694 
L 99.8676 78.567861 
L 100.2024 79.146505 
L 100.5372 78.04756 
L 100.872 79.581163 
L 101.2068 80.360954 
L 101.5416 85.281196 
L 101.8764 88.147116 
L 102.2112 88.38034 
L 102.546 86.518051 
L 102.8808 85.906025 
L 103.5504 91.089331 
L 103.8852 90.727021 
L 104.22 94.155154 
L 104.5548 91.944281 
L 104.8896 91.811752 
L 105.2244 95.145545 
L 105.894 98.651378 
L 106.2288 100.255081 
L 106.5636 103.345397 
L 107.2332 106.579101 
L 107.568 108.054401 
L 107.9028 105.714871 
L 108.2376 105.497445 
L 108.5724 107.557591 
L 108.9072 108.25164 
L 109.242 110.075957 
L 109.5768 110.69821 
L 109.9116 108.882289 
L 110.2464 108.359046 
L 110.5812 103.618409 
L 110.916 102.838686 
L 111.2508 104.733601 
L 111.9204 100.814173 
L 112.2552 98.544727 
L 112.59 100.814326 
L 112.9248 101.120546 
L 113.2596 98.773019 
L 113.5944 102.267368 
L 113.9292 103.303224 
L 114.264 106.262881 
L 114.9336 110.297123 
L 115.2684 107.703277 
L 115.6032 108.18974 
L 116.2728 112.128435 
L 116.6076 111.834599 
L 116.9424 111.857696 
L 117.2772 109.069909 
L 117.612 108.032808 
L 117.9468 111.002545 
L 118.2816 112.307134 
L 118.6164 110.087663 
L 118.9512 111.37587 
L 119.286 107.778139 
L 119.6208 110.056136 
L 119.9556 108.86846 
L 120.2904 110.654735 
L 120.6252 111.711702 
L 120.96 109.433099 
L 121.2948 109.696653 
L 121.6296 108.009446 
L 121.9644 107.027779 
L 122.2992 105.464163 
L 122.634 107.306382 
L 122.9688 107.765956 
L 123.3036 106.886001 
L 123.6384 108.64709 
L 123.9732 105.267292 
L 124.308 106.879365 
L 124.6428 107.501612 
L 124.9776 109.589348 
L 125.3124 114.034851 
L 125.6472 110.307806 
L 125.982 110.731631 
L 126.3168 111.660666 
L 126.6516 112.072827 
L 126.9864 109.127842 
L 127.3212 111.1296 
L 127.656 109.720087 
L 127.9908 110.59908 
L 128.3256 111.836653 
L 128.6604 110.6605 
L 128.9952 108.610759 
L 129.33 109.676662 
L 129.6648 111.271356 
L 129.9996 113.696214 
L 130.3344 111.407402 
L 130.6692 112.600559 
L 131.004 116.435899 
L 131.3388 113.511473 
L 131.6736 116.352742 
L 132.0084 114.736038 
L 132.3432 114.355583 
L 132.678 113.758408 
L 133.0128 114.97048 
L 133.3476 114.212195 
L 133.6824 117.67139 
L 134.0172 116.451722 
L 134.352 113.222278 
L 134.6868 111.38869 
L 135.0216 115.577481 
L 135.3564 117.61886 
L 135.6912 118.008372 
L 136.026 116.9984 
L 136.3608 117.219611 
L 136.6956 118.242603 
L 137.0304 117.007872 
L 137.3652 114.593268 
L 137.7 115.075076 
L 138.0348 113.56318 
L 138.3696 118.91247 
L 138.7044 120.856988 
L 139.0392 121.523321 
L 139.374 122.536672 
L 139.7088 121.846404 
L 140.0436 119.743753 
L 140.3784 118.692854 
L 140.7132 119.983432 
L 141.048 123.141853 
L 141.3828 121.986636 
L 141.7176 125.799256 
L 142.0524 124.444771 
L 142.3872 124.835639 
L 142.722 127.274476 
L 143.0568 126.678666 
L 143.7264 126.760539 
L 144.0612 126.93523 
L 144.396 126.065081 
L 144.7308 124.147684 
L 145.0656 123.117638 
L 145.4004 121.018341 
L 145.7352 121.109893 
L 146.07 117.752995 
L 146.4048 116.568438 
L 146.7396 117.696131 
L 147.0744 119.965014 
L 147.4092 119.538164 
L 148.0788 124.266971 
L 148.4136 123.771073 
L 148.7484 125.031911 
L 149.0832 126.967732 
L 149.418 127.039238 
L 149.7528 126.888494 
L 150.0876 127.315421 
L 150.4224 128.098503 
L 150.7572 126.325862 
L 151.092 125.615622 
L 151.4268 126.079038 
L 151.7616 120.96771 
L 152.0964 120.565677 
L 152.4312 118.21775 
L 152.766 119.381298 
L 153.1008 122.208217 
L 153.4356 123.850424 
L 153.7704 124.406312 
L 154.1052 125.436342 
L 154.44 122.664502 
L 154.7748 122.913483 
L 155.1096 121.956336 
L 155.4444 122.052744 
L 155.7792 122.951992 
L 156.114 122.873184 
L 156.4488 119.318015 
L 156.7836 120.910842 
L 157.1184 119.320003 
L 157.4532 121.448077 
L 157.788 122.401402 
L 158.1228 122.39397 
L 158.4576 121.717025 
L 158.7924 118.640822 
L 159.1272 118.7447 
L 159.462 120.494469 
L 159.7968 119.146197 
L 160.1316 119.901533 
L 160.4664 119.406476 
L 160.8012 119.647537 
L 161.136 123.678522 
L 161.8056 121.41426 
L 162.1404 119.49236 
L 162.4752 115.757964 
L 162.81 118.236766 
L 163.4796 116.31653 
L 163.8144 117.185761 
L 164.484 115.325777 
L 164.8188 117.853488 
L 165.1536 117.342789 
L 165.8232 120.598846 
L 166.158 124.2799 
L 166.4928 125.261712 
L 166.8276 125.683945 
L 167.1624 124.543469 
L 167.4972 124.541603 
L 167.832 127.740511 
L 168.1668 125.952303 
L 168.5016 126.198267 
L 168.8364 125.185322 
L 169.1712 123.181844 
L 169.506 120.231174 
L 169.8408 116.163332 
L 170.1756 116.313164 
L 170.5104 115.667851 
L 170.8452 117.904514 
L 171.18 115.702616 
L 171.5148 118.160228 
L 171.8496 121.904558 
L 172.1844 120.182228 
L 172.5192 121.264295 
L 172.854 119.651435 
L 173.1888 118.805035 
L 173.5236 122.185875 
L 173.8584 127.826847 
L 174.1932 130.101343 
L 174.528 130.067138 
L 174.8628 132.601262 
L 175.1976 133.955176 
L 175.5324 136.98121 
L 175.8672 136.628861 
L 176.202 136.440476 
L 176.5368 137.438948 
L 177.2064 131.434793 
L 177.5412 130.262354 
L 177.876 133.995316 
L 178.2108 136.286589 
L 178.5456 135.442147 
L 179.2152 137.75615 
L 179.55 135.891573 
L 179.8848 134.831952 
L 180.2196 132.106223 
L 180.5544 132.996459 
L 180.8892 130.144061 
L 181.224 131.293402 
L 181.5588 128.18326 
L 181.8936 127.963745 
L 182.2284 129.748555 
L 182.5632 133.131919 
L 183.2328 134.288672 
L 183.5676 132.509769 
L 183.9024 132.739148 
L 184.2372 133.636069 
L 184.572 131.402151 
L 184.9068 131.868471 
L 185.2416 133.063672 
L 185.5764 131.871858 
L 185.9112 132.887826 
L 186.246 131.521384 
L 186.5808 132.759468 
L 186.9156 133.221915 
L 187.2504 132.90628 
L 187.5852 133.682267 
L 187.92 133.710167 
L 188.2548 132.018771 
L 188.9244 130.169534 
L 189.2592 131.487501 
L 190.2636 126.246562 
L 190.5984 127.75314 
L 190.9332 128.110842 
L 191.268 126.796809 
L 191.6028 128.059572 
L 191.9376 128.52858 
L 192.6072 120.485996 
L 193.2768 115.967448 
L 193.6116 118.081509 
L 193.9464 117.018387 
L 194.2812 117.763242 
L 194.616 119.958859 
L 194.9508 121.014605 
L 195.2856 120.7747 
L 195.9552 123.052418 
L 196.29 121.40962 
L 196.6248 121.110724 
L 196.9596 120.626501 
L 197.2944 120.394463 
L 197.6292 121.79596 
L 197.964 124.638706 
L 198.2988 123.994554 
L 198.6336 125.046215 
L 198.9684 129.216842 
L 199.3032 130.031078 
L 199.638 132.296482 
L 200.3076 129.76547 
L 200.6424 128.734848 
L 200.9772 130.114232 
L 201.312 128.596898 
L 201.6468 127.933902 
L 202.3164 129.724276 
L 202.6512 127.872682 
L 202.986 128.854999 
L 203.3208 128.225175 
L 203.6556 126.080613 
L 204.3252 118.669293 
L 204.66 116.800868 
L 204.9948 119.924327 
L 205.6644 122.490308 
L 205.9992 119.061458 
L 206.334 120.511936 
L 206.6688 119.710976 
L 207.0036 119.501764 
L 207.3384 121.441341 
L 208.008 119.823269 
L 208.3428 122.427912 
L 208.6776 119.891503 
L 209.0124 124.219199 
L 209.3472 125.444507 
L 209.682 123.428513 
L 210.0168 125.903487 
L 210.3516 125.176989 
L 210.6864 127.865811 
L 211.0212 128.058755 
L 211.356 132.857825 
L 211.6908 134.605429 
L 212.0256 137.805651 
L 212.6952 139.500207 
L 213.03 140.897475 
L 213.3648 139.242498 
L 213.6996 141.082003 
L 214.0344 139.766201 
L 214.3692 136.386869 
L 214.704 136.098432 
L 215.0388 137.877353 
L 215.3736 140.468645 
L 215.7084 141.940833 
L 216.0432 140.479311 
L 216.378 140.156595 
L 217.0476 136.615791 
L 217.3824 136.323732 
L 217.7172 135.341655 
L 218.3868 128.557373 
L 218.7216 129.185308 
L 219.0564 127.132583 
L 219.3912 125.917451 
L 219.726 123.560433 
L 220.0608 122.167412 
L 220.3956 124.187963 
L 220.7304 127.547402 
L 221.0652 126.359698 
L 221.4 122.413418 
L 221.7348 124.022247 
L 222.0696 124.41237 
L 222.4044 126.560647 
L 222.7392 124.117674 
L 223.4088 133.594022 
L 223.7436 132.816181 
L 224.0784 132.986973 
L 224.4132 133.981774 
L 224.748 134.606284 
L 225.0828 133.492501 
L 225.4176 134.350785 
L 226.0872 138.549424 
L 226.422 136.706892 
L 226.7568 137.795276 
L 227.0916 140.668524 
L 227.4264 140.456593 
L 227.7612 139.409167 
L 228.096 136.652728 
L 228.4308 136.200768 
L 228.7656 137.569095 
L 229.1004 136.585941 
L 229.4352 135.077684 
L 230.1048 135.250884 
L 230.4396 134.711334 
L 230.7744 134.856226 
L 231.1092 134.337457 
L 232.1136 140.577403 
L 232.4484 139.245374 
L 232.7832 138.708593 
L 233.118 136.551001 
L 233.4528 136.938223 
L 233.7876 139.310285 
L 234.1224 136.936331 
L 234.4572 136.975256 
L 234.792 134.313201 
L 235.1268 133.072982 
L 235.4616 128.533499 
L 235.7964 128.989337 
L 236.466 125.272311 
L 236.8008 126.423716 
L 237.1356 126.781467 
L 237.8052 133.025711 
L 238.14 132.763191 
L 238.8096 129.795044 
L 239.1444 129.089789 
L 239.4792 127.299777 
L 239.814 128.522888 
L 240.1488 129.088157 
L 240.4836 127.55844 
L 240.8184 126.660095 
L 241.1532 127.096054 
L 241.488 124.356553 
L 241.8228 127.036334 
L 242.1576 128.112141 
L 242.4924 128.699946 
L 242.8272 127.006345 
L 243.162 127.001398 
L 243.4968 129.617898 
L 243.8316 128.551785 
L 244.5012 124.762656 
L 244.836 123.478448 
L 245.1708 127.36602 
L 245.5056 129.232503 
L 245.8404 128.232605 
L 246.1752 128.34645 
L 246.51 127.262597 
L 246.8448 129.889158 
L 247.1796 130.016706 
L 247.5144 132.899295 
L 247.8492 136.951481 
L 248.184 136.337996 
L 248.5188 134.590356 
L 248.8536 134.080916 
L 249.1884 134.149355 
L 249.5232 137.389178 
L 249.858 135.302379 
L 250.1928 135.393734 
L 250.5276 131.329345 
L 250.8624 129.374861 
L 251.1972 133.533755 
L 251.532 131.967683 
L 251.8668 134.86428 
L 252.2016 136.439574 
L 252.5364 136.959676 
L 252.8712 137.154774 
L 253.206 136.330172 
L 253.8756 140.838394 
L 254.2104 139.59266 
L 254.5452 139.620143 
L 254.88 139.25847 
L 255.2148 143.808458 
L 255.5496 144.175864 
L 256.2192 147.932853 
L 256.554 146.020639 
L 257.2236 150.560017 
L 257.5584 151.246576 
L 257.8932 150.312618 
L 258.228 152.146181 
L 258.8976 146.57923 
L 259.2324 148.407467 
L 259.5672 148.915798 
L 259.902 150.530874 
L 260.2368 154.026578 
L 260.5716 153.398093 
L 260.9064 151.876521 
L 261.2412 147.70365 
L 261.576 149.564995 
L 262.2456 144.00925 
L 262.5804 143.598876 
L 262.9152 142.34991 
L 263.25 140.538627 
L 263.5848 136.444084 
L 263.9196 135.453046 
L 264.2544 135.57778 
L 264.5892 137.374328 
L 264.924 136.741053 
L 265.2588 134.6168 
L 265.5936 134.109446 
L 265.9284 135.727109 
L 266.2632 135.542353 
L 266.598 135.810235 
L 266.9328 135.261132 
L 267.2676 138.708024 
L 268.272 135.407945 
L 268.6068 135.41575 
L 268.9416 139.161499 
L 269.2764 139.201577 
L 269.6112 137.001515 
L 269.946 138.785535 
L 270.6156 146.106861 
L 271.2852 144.682137 
L 271.62 142.843848 
L 271.9548 142.958463 
L 272.2896 146.070341 
L 272.6244 147.768026 
L 272.9592 146.069646 
L 273.294 145.778239 
L 273.9636 143.528597 
L 274.6332 144.314626 
L 274.968 140.462751 
L 275.3028 139.602662 
L 275.6376 139.86937 
L 275.9724 138.924769 
L 276.3072 138.462433 
L 276.642 142.937074 
L 276.9768 141.588713 
L 277.3116 137.811846 
L 277.6464 139.430249 
L 277.9812 136.414387 
L 278.316 136.947169 
L 278.6508 136.338471 
L 278.9856 134.118403 
L 279.3204 135.611781 
L 279.6552 133.034685 
L 280.3248 137.368317 
L 280.6596 138.599356 
L 280.9944 137.22627 
L 281.3292 137.933289 
L 281.664 141.085916 
L 281.9988 141.535033 
L 282.3336 143.161611 
L 282.6684 141.644812 
L 283.0032 142.356727 
L 283.338 142.209932 
L 283.6728 143.050935 
L 284.0076 142.150889 
L 284.3424 142.53168 
L 284.6772 141.857175 
L 285.012 147.236204 
L 285.3468 147.034493 
L 285.6816 146.175982 
L 286.0164 146.589315 
L 286.686 143.668939 
L 287.0208 140.963828 
L 287.3556 140.746435 
L 288.36 152.778764 
L 288.6948 152.857388 
L 289.0296 153.18366 
L 289.3644 152.610702 
L 290.034 155.435124 
L 290.7036 152.923408 
L 291.0384 153.455734 
L 291.3732 153.53554 
L 292.0428 151.650864 
L 292.3776 154.02363 
L 292.7124 155.516121 
L 293.0472 158.068435 
L 293.382 159.119826 
L 294.0516 156.3019 
L 294.3864 158.579499 
L 294.7212 157.516991 
L 295.056 157.338941 
L 295.3908 158.36341 
L 295.7256 161.280592 
L 296.0604 161.643199 
L 296.3952 160.232906 
L 296.73 164.719454 
L 297.0648 165.541066 
L 297.3996 160.865385 
L 297.7344 159.470248 
L 298.0692 158.931322 
L 298.7388 161.867286 
L 299.0736 162.040037 
L 299.4084 158.715487 
L 299.7432 157.749794 
L 300.078 159.558765 
L 300.4128 157.117954 
L 300.7476 157.724833 
L 301.0824 154.204313 
L 301.4172 155.379522 
L 301.752 157.460427 
L 302.0868 157.098223 
L 302.7564 152.908951 
L 303.0912 152.578766 
L 303.426 154.628208 
L 303.7608 155.676351 
L 304.0956 159.862533 
L 304.4304 161.756467 
L 304.7652 162.12661 
L 305.1 161.319769 
L 305.4348 162.023842 
L 305.7696 162.142024 
L 306.1044 162.963764 
L 306.4392 161.406039 
L 306.774 163.270918 
L 307.1088 161.533733 
L 307.4436 157.466609 
L 307.7784 156.485981 
L 308.448 158.691533 
L 308.7828 156.182171 
L 310.4568 167.731293 
L 310.7916 166.092926 
L 311.1264 163.806647 
L 311.4612 165.252469 
L 311.796 164.82243 
L 312.1308 163.24784 
L 312.4656 163.039256 
L 312.8004 165.019933 
L 313.1352 168.06974 
L 313.47 165.97398 
L 314.1396 163.748156 
L 314.4744 166.045562 
L 314.8092 165.558188 
L 315.144 164.25356 
L 315.4788 163.602213 
L 315.8136 165.147489 
L 316.1484 163.047928 
L 316.4832 166.216437 
L 317.1528 162.047852 
L 317.4876 158.786632 
L 317.8224 159.497006 
L 318.1572 161.569955 
L 318.492 159.923343 
L 318.8268 161.373607 
L 319.1616 161.282355 
L 319.4964 161.940813 
L 319.8312 163.811829 
L 320.166 163.146034 
L 320.5008 166.033258 
L 320.8356 164.804946 
L 321.1704 166.810488 
L 321.5052 170.402326 
L 321.84 170.506256 
L 322.5096 168.414352 
L 322.8444 166.716979 
L 323.1792 171.598739 
L 323.514 173.68354 
L 323.8488 173.462329 
L 324.1836 170.311717 
L 324.5184 168.686128 
L 324.8532 164.742499 
L 325.188 165.831292 
L 325.5228 165.262115 
L 325.8576 167.543599 
L 326.1924 168.382279 
L 326.862 171.222355 
L 327.1968 172.03842 
L 327.8664 171.986711 
L 328.2012 170.859517 
L 328.536 170.569163 
L 328.8708 171.282759 
L 329.2056 172.366655 
L 329.5404 173.003687 
L 329.8752 173.935049 
L 330.21 172.916711 
L 330.5448 171.121497 
L 330.8796 168.478962 
L 331.2144 170.133502 
L 331.5492 169.159962 
L 331.884 172.052711 
L 332.2188 171.278698 
L 332.5536 169.033093 
L 332.8884 169.343361 
L 333.2232 167.118573 
L 333.8928 171.32328 
L 334.2276 171.604967 
L 334.5624 169.484769 
L 335.232 171.291301 
L 335.5668 173.348069 
L 335.9016 172.927267 
L 336.2364 170.341457 
L 336.906 167.443209 
L 337.2408 167.872502 
L 337.5756 169.040879 
L 337.9104 167.636182 
L 338.2452 167.70237 
L 338.58 168.062456 
L 338.9148 166.199387 
L 339.2496 166.609624 
L 339.5844 168.347282 
L 339.9192 166.461506 
L 340.254 166.294082 
L 340.9236 170.753331 
L 341.2584 170.555434 
L 341.5932 165.707339 
L 342.2628 167.219577 
L 342.5976 164.059075 
L 342.9324 164.177884 
L 343.602 170.444381 
L 343.9368 167.900119 
L 344.6064 164.804518 
L 344.9412 164.924313 
L 345.276 166.431609 
L 345.6108 166.882034 
L 345.9456 166.599888 
L 346.2804 168.338655 
L 346.6152 167.174134 
L 346.95 169.786702 
L 347.2848 170.476888 
L 347.6196 170.900027 
L 347.9544 172.333293 
L 348.2892 176.907801 
L 348.624 175.97886 
L 348.9588 177.546387 
L 349.2936 174.796694 
L 349.6284 175.50601 
L 349.9632 176.628861 
L 350.298 176.439033 
L 350.6328 174.25406 
L 350.9676 175.422642 
L 351.3024 173.317942 
L 353.3112 155.752304 
L 353.646 155.320741 
L 353.9808 156.211007 
L 354.3156 160.903198 
L 354.6504 163.646721 
L 355.32 165.368287 
L 355.6548 165.685203 
L 355.9896 167.760911 
L 356.3244 171.070764 
L 356.994 171.733742 
L 357.9984 176.898044 
L 358.3332 177.720487 
L 358.668 179.496571 
L 359.0028 176.883424 
L 359.3376 176.383565 
L 359.6724 178.400281 
L 360.0072 178.981966 
L 360.342 181.430034 
L 360.6768 179.330664 
L 361.3464 173.862862 
L 361.6812 176.237105 
L 362.016 176.426404 
L 362.3508 177.259315 
L 362.6856 176.093626 
L 363.3552 179.586051 
L 363.69 180.443118 
L 364.0248 180.125177 
L 364.3596 178.685463 
L 364.6944 179.367288 
L 365.364 176.285042 
L 365.6988 176.727279 
L 366.3684 181.74014 
L 366.7032 180.512821 
L 367.038 181.500573 
L 367.3728 185.052791 
L 367.7076 183.781447 
L 368.0424 183.512734 
L 368.3772 186.428895 
L 369.0468 182.24733 
L 369.3816 181.959554 
L 370.0512 187.511278 
L 370.386 188.148178 
L 370.7208 191.703064 
L 371.0556 190.862874 
L 371.3904 193.789107 
L 371.7252 193.447056 
L 372.06 194.044679 
L 372.3948 192.568343 
L 372.7296 194.513769 
L 373.0644 193.946019 
L 373.3992 196.8391 
L 373.734 195.189026 
L 374.0688 195.427472 
L 374.4036 194.399012 
L 374.7384 197.137956 
L 375.0732 196.102789 
L 376.0776 194.064882 
L 376.4124 194.466151 
L 376.7472 191.891534 
L 377.082 192.214887 
L 377.4168 193.748021 
L 377.7516 193.869827 
L 378.0864 195.841326 
L 378.4212 196.803715 
L 378.756 197.171348 
L 379.0908 197.958593 
L 379.4256 197.545017 
L 379.7604 193.509253 
L 380.0952 192.325028 
L 380.43 190.100935 
L 381.4344 193.147635 
L 381.7692 191.37863 
L 382.104 195.834111 
L 382.4388 197.97703 
L 382.7736 197.764772 
L 383.1084 198.229569 
L 383.4432 194.148239 
L 383.778 193.219685 
L 384.1128 194.593157 
L 384.4476 197.865322 
L 384.7824 198.571688 
L 385.1172 201.274738 
L 385.452 200.306636 
L 385.7868 199.97248 
L 386.1216 199.308692 
L 386.4564 194.996206 
L 386.7912 196.87841 
L 387.126 197.277481 
L 387.4608 199.792398 
L 387.7956 199.95957 
L 388.1304 196.654911 
L 388.4652 195.475306 
L 388.8 195.712768 
L 388.8 195.712768 
" style="fill:none;stroke:#2ca02c;stroke-linecap:square;stroke-width:1.5;"/>
   </g>
   <g id="patch_3">
    <path d="M 54 252 
L 54 34.56 
" style="fill:none;stroke:#000000;stroke-linecap:square;stroke-linejoin:miter;stroke-width:0.8;"/>
   </g>
   <g id="patch_4">
    <path d="M 388.8 252 
L 388.8 34.56 
" style="fill:none;stroke:#000000;stroke-linecap:square;stroke-linejoin:miter;stroke-width:0.8;"/>
   </g>
   <g id="patch_5">
    <path d="M 54 252 
L 388.8 252 
" style="fill:none;stroke:#000000;stroke-linecap:square;stroke-linejoin:miter;stroke-width:0.8;"/>
   </g>
   <g id="patch_6">
    <path d="M 54 34.56 
L 388.8 34.56 
" style="fill:none;stroke:#000000;stroke-linecap:square;stroke-linejoin:miter;stroke-width:0.8;"/>
   </g>
   <g id="text_16">
    <!-- Simulated Brownian Motion Paths -->
    <defs>
     <path d="M 53.515625 70.515625 
L 53.515625 60.890625 
Q 47.90625 63.578125 42.921875 64.890625 
Q 37.9375 66.21875 33.296875 66.21875 
Q 25.25 66.21875 20.875 63.09375 
Q 16.5 59.96875 16.5 54.203125 
Q 16.5 49.359375 19.40625 46.890625 
Q 22.3125 44.4375 30.421875 42.921875 
L 36.375 41.703125 
Q 47.40625 39.59375 52.65625 34.296875 
Q 57.90625 29 57.90625 20.125 
Q 57.90625 9.515625 50.796875 4.046875 
Q 43.703125 -1.421875 29.984375 -1.421875 
Q 24.8125 -1.421875 18.96875 -0.25 
Q 13.140625 0.921875 6.890625 3.21875 
L 6.890625 13.375 
Q 12.890625 10.015625 18.65625 8.296875 
Q 24.421875 6.59375 29.984375 6.59375 
Q 38.421875 6.59375 43.015625 9.90625 
Q 47.609375 13.234375 47.609375 19.390625 
Q 47.609375 24.75 44.3125 27.78125 
Q 41.015625 30.8125 33.5 32.328125 
L 27.484375 33.5 
Q 16.453125 35.6875 11.515625 40.375 
Q 6.59375 45.0625 6.59375 53.421875 
Q 6.59375 63.09375 13.40625 68.65625 
Q 20.21875 74.21875 32.171875 74.21875 
Q 37.3125 74.21875 42.625 73.28125 
Q 47.953125 72.359375 53.515625 70.515625 
z
" id="DejaVuSans-53"/>
     <path d="M 9.421875 54.6875 
L 18.40625 54.6875 
L 18.40625 0 
L 9.421875 0 
z
M 9.421875 75.984375 
L 18.40625 75.984375 
L 18.40625 64.59375 
L 9.421875 64.59375 
z
" id="DejaVuSans-69"/>
     <path d="M 52 44.1875 
Q 55.375 50.25 60.0625 53.125 
Q 64.75 56 71.09375 56 
Q 79.640625 56 84.28125 50.015625 
Q 88.921875 44.046875 88.921875 33.015625 
L 88.921875 0 
L 79.890625 0 
L 79.890625 32.71875 
Q 79.890625 40.578125 77.09375 44.375 
Q 74.3125 48.1875 68.609375 48.1875 
Q 61.625 48.1875 57.5625 43.546875 
Q 53.515625 38.921875 53.515625 30.90625 
L 53.515625 0 
L 44.484375 0 
L 44.484375 32.71875 
Q 44.484375 40.625 41.703125 44.40625 
Q 38.921875 48.1875 33.109375 48.1875 
Q 26.21875 48.1875 22.15625 43.53125 
Q 18.109375 38.875 18.109375 30.90625 
L 18.109375 0 
L 9.078125 0 
L 9.078125 54.6875 
L 18.109375 54.6875 
L 18.109375 46.1875 
Q 21.1875 51.21875 25.484375 53.609375 
Q 29.78125 56 35.6875 56 
Q 41.65625 56 45.828125 52.96875 
Q 50 49.953125 52 44.1875 
z
" id="DejaVuSans-6d"/>
     <path d="M 8.5 21.578125 
L 8.5 54.6875 
L 17.484375 54.6875 
L 17.484375 21.921875 
Q 17.484375 14.15625 20.5 10.265625 
Q 23.53125 6.390625 29.59375 6.390625 
Q 36.859375 6.390625 41.078125 11.03125 
Q 45.3125 15.671875 45.3125 23.6875 
L 45.3125 54.6875 
L 54.296875 54.6875 
L 54.296875 0 
L 45.3125 0 
L 45.3125 8.40625 
Q 42.046875 3.421875 37.71875 1 
Q 33.40625 -1.421875 27.6875 -1.421875 
Q 18.265625 -1.421875 13.375 4.4375 
Q 8.5 10.296875 8.5 21.578125 
z
M 31.109375 56 
z
" id="DejaVuSans-75"/>
     <path d="M 9.421875 75.984375 
L 18.40625 75.984375 
L 18.40625 0 
L 9.421875 0 
z
" id="DejaVuSans-6c"/>
     <path d="M 34.28125 27.484375 
Q 23.390625 27.484375 19.1875 25 
Q 14.984375 22.515625 14.984375 16.5 
Q 14.984375 11.71875 18.140625 8.90625 
Q 21.296875 6.109375 26.703125 6.109375 
Q 34.1875 6.109375 38.703125 11.40625 
Q 43.21875 16.703125 43.21875 25.484375 
L 43.21875 27.484375 
z
M 52.203125 31.203125 
L 52.203125 0 
L 43.21875 0 
L 43.21875 8.296875 
Q 40.140625 3.328125 35.546875 0.953125 
Q 30.953125 -1.421875 24.3125 -1.421875 
Q 15.921875 -1.421875 10.953125 3.296875 
Q 6 8.015625 6 15.921875 
Q 6 25.140625 12.171875 29.828125 
Q 18.359375 34.515625 30.609375 34.515625 
L 43.21875 34.515625 
L 43.21875 35.40625 
Q 43.21875 41.609375 39.140625 45 
Q 35.0625 48.390625 27.6875 48.390625 
Q 23 48.390625 18.546875 47.265625 
Q 14.109375 46.140625 10.015625 43.890625 
L 10.015625 52.203125 
Q 14.9375 54.109375 19.578125 55.046875 
Q 24.21875 56 28.609375 56 
Q 40.484375 56 46.34375 49.84375 
Q 52.203125 43.703125 52.203125 31.203125 
z
" id="DejaVuSans-61"/>
     <path d="M 18.3125 70.21875 
L 18.3125 54.6875 
L 36.8125 54.6875 
L 36.8125 47.703125 
L 18.3125 47.703125 
L 18.3125 18.015625 
Q 18.3125 11.328125 20.140625 9.421875 
Q 21.96875 7.515625 27.59375 7.515625 
L 36.8125 7.515625 
L 36.8125 0 
L 27.59375 0 
Q 17.1875 0 13.234375 3.875 
Q 9.28125 7.765625 9.28125 18.015625 
L 9.28125 47.703125 
L 2.6875 47.703125 
L 2.6875 54.6875 
L 9.28125 54.6875 
L 9.28125 70.21875 
z
" id="DejaVuSans-74"/>
     <path d="M 56.203125 29.59375 
L 56.203125 25.203125 
L 14.890625 25.203125 
Q 15.484375 15.921875 20.484375 11.0625 
Q 25.484375 6.203125 34.421875 6.203125 
Q 39.59375 6.203125 44.453125 7.46875 
Q 49.3125 8.734375 54.109375 11.28125 
L 54.109375 2.78125 
Q 49.265625 0.734375 44.1875 -0.34375 
Q 39.109375 -1.421875 33.890625 -1.421875 
Q 20.796875 -1.421875 13.15625 6.1875 
Q 5.515625 13.8125 5.515625 26.8125 
Q 5.515625 40.234375 12.765625 48.109375 
Q 20.015625 56 32.328125 56 
Q 43.359375 56 49.78125 48.890625 
Q 56.203125 41.796875 56.203125 29.59375 
z
M 47.21875 32.234375 
Q 47.125 39.59375 43.09375 43.984375 
Q 39.0625 48.390625 32.421875 48.390625 
Q 24.90625 48.390625 20.390625 44.140625 
Q 15.875 39.890625 15.1875 32.171875 
z
" id="DejaVuSans-65"/>
     <path d="M 45.40625 46.390625 
L 45.40625 75.984375 
L 54.390625 75.984375 
L 54.390625 0 
L 45.40625 0 
L 45.40625 8.203125 
Q 42.578125 3.328125 38.25 0.953125 
Q 33.9375 -1.421875 27.875 -1.421875 
Q 17.96875 -1.421875 11.734375 6.484375 
Q 5.515625 14.40625 5.515625 27.296875 
Q 5.515625 40.1875 11.734375 48.09375 
Q 17.96875 56 27.875 56 
Q 33.9375 56 38.25 53.625 
Q 42.578125 51.265625 45.40625 46.390625 
z
M 14.796875 27.296875 
Q 14.796875 17.390625 18.875 11.75 
Q 22.953125 6.109375 30.078125 6.109375 
Q 37.203125 6.109375 41.296875 11.75 
Q 45.40625 17.390625 45.40625 27.296875 
Q 45.40625 37.203125 41.296875 42.84375 
Q 37.203125 48.484375 30.078125 48.484375 
Q 22.953125 48.484375 18.875 42.84375 
Q 14.796875 37.203125 14.796875 27.296875 
z
" id="DejaVuSans-64"/>
     <path id="DejaVuSans-20"/>
     <path d="M 19.671875 34.8125 
L 19.671875 8.109375 
L 35.5 8.109375 
Q 43.453125 8.109375 47.28125 11.40625 
Q 51.125 14.703125 51.125 21.484375 
Q 51.125 28.328125 47.28125 31.5625 
Q 43.453125 34.8125 35.5 34.8125 
z
M 19.671875 64.796875 
L 19.671875 42.828125 
L 34.28125 42.828125 
Q 41.5 42.828125 45.03125 45.53125 
Q 48.578125 48.25 48.578125 53.8125 
Q 48.578125 59.328125 45.03125 62.0625 
Q 41.5 64.796875 34.28125 64.796875 
z
M 9.8125 72.90625 
L 35.015625 72.90625 
Q 46.296875 72.90625 52.390625 68.21875 
Q 58.5 63.53125 58.5 54.890625 
Q 58.5 48.1875 55.375 44.234375 
Q 52.25 40.28125 46.1875 39.3125 
Q 53.46875 37.75 57.5 32.78125 
Q 61.53125 27.828125 61.53125 20.40625 
Q 61.53125 10.640625 54.890625 5.3125 
Q 48.25 0 35.984375 0 
L 9.8125 0 
z
" id="DejaVuSans-42"/>
     <path d="M 41.109375 46.296875 
Q 39.59375 47.171875 37.8125 47.578125 
Q 36.03125 48 33.890625 48 
Q 26.265625 48 22.1875 43.046875 
Q 18.109375 38.09375 18.109375 28.8125 
L 18.109375 0 
L 9.078125 0 
L 9.078125 54.6875 
L 18.109375 54.6875 
L 18.109375 46.1875 
Q 20.953125 51.171875 25.484375 53.578125 
Q 30.03125 56 36.53125 56 
Q 37.453125 56 38.578125 55.875 
Q 39.703125 55.765625 41.0625 55.515625 
z
" id="DejaVuSans-72"/>
     <path d="M 30.609375 48.390625 
Q 23.390625 48.390625 19.1875 42.75 
Q 14.984375 37.109375 14.984375 27.296875 
Q 14.984375 17.484375 19.15625 11.84375 
Q 23.34375 6.203125 30.609375 6.203125 
Q 37.796875 6.203125 41.984375 11.859375 
Q 46.1875 17.53125 46.1875 27.296875 
Q 46.1875 37.015625 41.984375 42.703125 
Q 37.796875 48.390625 30.609375 48.390625 
z
M 30.609375 56 
Q 42.328125 56 49.015625 48.375 
Q 55.71875 40.765625 55.71875 27.296875 
Q 55.71875 13.875 49.015625 6.21875 
Q 42.328125 -1.421875 30.609375 -1.421875 
Q 18.84375 -1.421875 12.171875 6.21875 
Q 5.515625 13.875 5.515625 27.296875 
Q 5.515625 40.765625 12.171875 48.375 
Q 18.84375 56 30.609375 56 
z
" id="DejaVuSans-6f"/>
     <path d="M 4.203125 54.6875 
L 13.1875 54.6875 
L 24.421875 12.015625 
L 35.59375 54.6875 
L 46.1875 54.6875 
L 57.421875 12.015625 
L 68.609375 54.6875 
L 77.59375 54.6875 
L 63.28125 0 
L 52.6875 0 
L 40.921875 44.828125 
L 29.109375 0 
L 18.5 0 
z
" id="DejaVuSans-77"/>
     <path d="M 54.890625 33.015625 
L 54.890625 0 
L 45.90625 0 
L 45.90625 32.71875 
Q 45.90625 40.484375 42.875 44.328125 
Q 39.84375 48.1875 33.796875 48.1875 
Q 26.515625 48.1875 22.3125 43.546875 
Q 18.109375 38.921875 18.109375 30.90625 
L 18.109375 0 
L 9.078125 0 
L 9.078125 54.6875 
L 18.109375 54.6875 
L 18.109375 46.1875 
Q 21.34375 51.125 25.703125 53.5625 
Q 30.078125 56 35.796875 56 
Q 45.21875 56 50.046875 50.171875 
Q 54.890625 44.34375 54.890625 33.015625 
z
" id="DejaVuSans-6e"/>
     <path d="M 9.8125 72.90625 
L 24.515625 72.90625 
L 43.109375 23.296875 
L 61.8125 72.90625 
L 76.515625 72.90625 
L 76.515625 0 
L 66.890625 0 
L 66.890625 64.015625 
L 48.09375 14.015625 
L 38.1875 14.015625 
L 19.390625 64.015625 
L 19.390625 0 
L 9.8125 0 
z
" id="DejaVuSans-4d"/>
     <path d="M 19.671875 64.796875 
L 19.671875 37.40625 
L 32.078125 37.40625 
Q 38.96875 37.40625 42.71875 40.96875 
Q 46.484375 44.53125 46.484375 51.125 
Q 46.484375 57.671875 42.71875 61.234375 
Q 38.96875 64.796875 32.078125 64.796875 
z
M 9.8125 72.90625 
L 32.078125 72.90625 
Q 44.34375 72.90625 50.609375 67.359375 
Q 56.890625 61.8125 56.890625 51.125 
Q 56.890625 40.328125 50.609375 34.8125 
Q 44.34375 29.296875 32.078125 29.296875 
L 19.671875 29.296875 
L 19.671875 0 
L 9.8125 0 
z
" id="DejaVuSans-50"/>
     <path d="M 54.890625 33.015625 
L 54.890625 0 
L 45.90625 0 
L 45.90625 32.71875 
Q 45.90625 40.484375 42.875 44.328125 
Q 39.84375 48.1875 33.796875 48.1875 
Q 26.515625 48.1875 22.3125 43.546875 
Q 18.109375 38.921875 18.109375 30.90625 
L 18.109375 0 
L 9.078125 0 
L 9.078125 75.984375 
L 18.109375 75.984375 
L 18.109375 46.1875 
Q 21.34375 51.125 25.703125 53.5625 
Q 30.078125 56 35.796875 56 
Q 45.21875 56 50.046875 50.171875 
Q 54.890625 44.34375 54.890625 33.015625 
z
" id="DejaVuSans-68"/>
     <path d="M 44.28125 53.078125 
L 44.28125 44.578125 
Q 40.484375 46.53125 36.375 47.5 
Q 32.28125 48.484375 27.875 48.484375 
Q 21.1875 48.484375 17.84375 46.4375 
Q 14.5 44.390625 14.5 40.28125 
Q 14.5 37.15625 16.890625 35.375 
Q 19.28125 33.59375 26.515625 31.984375 
L 29.59375 31.296875 
Q 39.15625 29.25 43.1875 25.515625 
Q 47.21875 21.78125 47.21875 15.09375 
Q 47.21875 7.46875 41.1875 3.015625 
Q 35.15625 -1.421875 24.609375 -1.421875 
Q 20.21875 -1.421875 15.453125 -0.5625 
Q 10.6875 0.296875 5.421875 2 
L 5.421875 11.28125 
Q 10.40625 8.6875 15.234375 7.390625 
Q 20.0625 6.109375 24.8125 6.109375 
Q 31.15625 6.109375 34.5625 8.28125 
Q 37.984375 10.453125 37.984375 14.40625 
Q 37.984375 18.0625 35.515625 20.015625 
Q 33.0625 21.96875 24.703125 23.78125 
L 21.578125 24.515625 
Q 13.234375 26.265625 9.515625 29.90625 
Q 5.8125 33.546875 5.8125 39.890625 
Q 5.8125 47.609375 11.28125 51.796875 
Q 16.75 56 26.8125 56 
Q 31.78125 56 36.171875 55.265625 
Q 40.578125 54.546875 44.28125 53.078125 
z
" id="DejaVuSans-73"/>
    </defs>
    <g transform="translate(120.339375 28.56)scale(0.12 -0.12)">
     <use xlink:href="#DejaVuSans-53"/>
     <use x="63.476562" xlink:href="#DejaVuSans-69"/>
     <use x="91.259766" xlink:href="#DejaVuSans-6d"/>
     <use x="188.671875" xlink:href="#DejaVuSans-75"/>
     <use x="252.050781" xlink:href="#DejaVuSans-6c"/>
     <use x="279.833984" xlink:href="#DejaVuSans-61"/>
     <use x="341.113281" xlink:href="#DejaVuSans-74"/>
     <use x="380.322266" xlink:href="#DejaVuSans-65"/>
     <use x="441.845703" xlink:href="#DejaVuSans-64"/>
     <use x="505.322266" xlink:href="#DejaVuSans-20"/>
     <use x="537.109375" xlink:href="#DejaVuSans-42"/>
     <use x="605.712891" xlink:href="#DejaVuSans-72"/>
     <use x="646.794922" xlink:href="#DejaVuSans-6f"/>
     <use x="707.976562" xlink:href="#DejaVuSans-77"/>
     <use x="789.763672" xlink:href="#DejaVuSans-6e"/>
     <use x="853.142578" xlink:href="#DejaVuSans-69"/>
     <use x="880.925781" xlink:href="#DejaVuSans-61"/>
     <use x="942.205078" xlink:href="#DejaVuSans-6e"/>
     <use x="1005.583984" xlink:href="#DejaVuSans-20"/>
     <use x="1037.371094" xlink:href="#DejaVuSans-4d"/>
     <use x="1123.650391" xlink:href="#DejaVuSans-6f"/>
     <use x="1184.832031" xlink:href="#DejaVuSans-74"/>
     <use x="1224.041016" xlink:href="#DejaVuSans-69"/>
     <use x="1251.824219" xlink:href="#DejaVuSans-6f"/>
     <use x="1313.005859" xlink:href="#DejaVuSans-6e"/>
     <use x="1376.384766" xlink:href="#DejaVuSans-20"/>
     <use x="1408.171875" xlink:href="#DejaVuSans-50"/>
     <use x="1468.412109" xlink:href="#DejaVuSans-61"/>
     <use x="1529.691406" xlink:href="#DejaVuSans-74"/>
     <use x="1568.900391" xlink:href="#DejaVuSans-68"/>
     <use x="1632.279297" xlink:href="#DejaVuSans-73"/>
    </g>
   </g>
  </g>
 </g>
 <defs>
  <clipPath id="pb087cac1af">
   <rect height="217.44" width="334.8" x="54" y="34.56"/>
  </clipPath>
 </defs>
</svg>
