<?xml version="1.0" encoding="utf-8" standalone="no"?>
<!DOCTYPE svg PUBLIC "-//W3C//DTD SVG 1.1//EN"
  "http://www.w3.org/Graphics/SVG/1.1/DTD/svg11.dtd">
<!-- Created with matplotlib (http://matplotlib.org/) -->
<svg height="288pt" version="1.1" viewBox="0 0 432 288" width="432pt" xmlns="http://www.w3.org/2000/svg" xmlns:xlink="http://www.w3.org/1999/xlink">
 <defs>
  <style type="text/css">
*{stroke-linecap:butt;stroke-linejoin:round;}
  </style>
 </defs>
 <g id="figure_1">
  <g id="patch_1">
   <path d="M 0 288 
L 432 288 
L 432 0 
L 0 0 
z
" style="fill:#ffffff;"/>
  </g>
  <g id="axes_1">
   <g id="patch_2">
    <path d="M 54 252 
L 388.8 252 
L 388.8 34.56 
L 54 34.56 
z
" style="fill:#ffffff;"/>
   </g>
   <g id="matplotlib.axis_1">
    <g id="xtick_1">
     <g id="line2d_1">
      <defs>
       <path d="M 0 0 
L 0 3.5 
" id="m2d34a9e679" style="stroke:#000000;stroke-width:0.8;"/>
      </defs>
      <g>
       <use style="stroke:#000000;stroke-width:0.8;" x="54" xlink:href="#m2d34a9e679" y="252"/>
      </g>
     </g>
     <g id="text_1">
      <!-- 0.0 -->
      <defs>
       <path d="M 31.78125 66.40625 
Q 24.171875 66.40625 20.328125 58.90625 
Q 16.5 51.421875 16.5 36.375 
Q 16.5 21.390625 20.328125 13.890625 
Q 24.171875 6.390625 31.78125 6.390625 
Q 39.453125 6.390625 43.28125 13.890625 
Q 47.125 21.390625 47.125 36.375 
Q 47.125 51.421875 43.28125 58.90625 
Q 39.453125 66.40625 31.78125 66.40625 
z
M 31.78125 74.21875 
Q 44.046875 74.21875 50.515625 64.515625 
Q 56.984375 54.828125 56.984375 36.375 
Q 56.984375 17.96875 50.515625 8.265625 
Q 44.046875 -1.421875 31.78125 -1.421875 
Q 19.53125 -1.421875 13.0625 8.265625 
Q 6.59375 17.96875 6.59375 36.375 
Q 6.59375 54.828125 13.0625 64.515625 
Q 19.53125 74.21875 31.78125 74.21875 
z
" id="DejaVuSans-30"/>
       <path d="M 10.6875 12.40625 
L 21 12.40625 
L 21 0 
L 10.6875 0 
z
" id="DejaVuSans-2e"/>
      </defs>
      <g transform="translate(46.048437 266.598437)scale(0.1 -0.1)">
       <use xlink:href="#DejaVuSans-30"/>
       <use x="63.623047" xlink:href="#DejaVuSans-2e"/>
       <use x="95.410156" xlink:href="#DejaVuSans-30"/>
      </g>
     </g>
    </g>
    <g id="xtick_2">
     <g id="line2d_2">
      <g>
       <use style="stroke:#000000;stroke-width:0.8;" x="120.96" xlink:href="#m2d34a9e679" y="252"/>
      </g>
     </g>
     <g id="text_2">
      <!-- 0.2 -->
      <defs>
       <path d="M 19.1875 8.296875 
L 53.609375 8.296875 
L 53.609375 0 
L 7.328125 0 
L 7.328125 8.296875 
Q 12.9375 14.109375 22.625 23.890625 
Q 32.328125 33.6875 34.8125 36.53125 
Q 39.546875 41.84375 41.421875 45.53125 
Q 43.3125 49.21875 43.3125 52.78125 
Q 43.3125 58.59375 39.234375 62.25 
Q 35.15625 65.921875 28.609375 65.921875 
Q 23.96875 65.921875 18.8125 64.3125 
Q 13.671875 62.703125 7.8125 59.421875 
L 7.8125 69.390625 
Q 13.765625 71.78125 18.9375 73 
Q 24.125 74.21875 28.421875 74.21875 
Q 39.75 74.21875 46.484375 68.546875 
Q 53.21875 62.890625 53.21875 53.421875 
Q 53.21875 48.921875 51.53125 44.890625 
Q 49.859375 40.875 45.40625 35.40625 
Q 44.1875 33.984375 37.640625 27.21875 
Q 31.109375 20.453125 19.1875 8.296875 
z
" id="DejaVuSans-32"/>
      </defs>
      <g transform="translate(113.008438 266.598437)scale(0.1 -0.1)">
       <use xlink:href="#DejaVuSans-30"/>
       <use x="63.623047" xlink:href="#DejaVuSans-2e"/>
       <use x="95.410156" xlink:href="#DejaVuSans-32"/>
      </g>
     </g>
    </g>
    <g id="xtick_3">
     <g id="line2d_3">
      <g>
       <use style="stroke:#000000;stroke-width:0.8;" x="187.92" xlink:href="#m2d34a9e679" y="252"/>
      </g>
     </g>
     <g id="text_3">
      <!-- 0.4 -->
      <defs>
       <path d="M 37.796875 64.3125 
L 12.890625 25.390625 
L 37.796875 25.390625 
z
M 35.203125 72.90625 
L 47.609375 72.90625 
L 47.609375 25.390625 
L 58.015625 25.390625 
L 58.015625 17.1875 
L 47.609375 17.1875 
L 47.609375 0 
L 37.796875 0 
L 37.796875 17.1875 
L 4.890625 17.1875 
L 4.890625 26.703125 
z
" id="DejaVuSans-34"/>
      </defs>
      <g transform="translate(179.968438 266.598437)scale(0.1 -0.1)">
       <use xlink:href="#DejaVuSans-30"/>
       <use x="63.623047" xlink:href="#DejaVuSans-2e"/>
       <use x="95.410156" xlink:href="#DejaVuSans-34"/>
      </g>
     </g>
    </g>
    <g id="xtick_4">
     <g id="line2d_4">
      <g>
       <use style="stroke:#000000;stroke-width:0.8;" x="254.88" xlink:href="#m2d34a9e679" y="252"/>
      </g>
     </g>
     <g id="text_4">
      <!-- 0.6 -->
      <defs>
       <path d="M 33.015625 40.375 
Q 26.375 40.375 22.484375 35.828125 
Q 18.609375 31.296875 18.609375 23.390625 
Q 18.609375 15.53125 22.484375 10.953125 
Q 26.375 6.390625 33.015625 6.390625 
Q 39.65625 6.390625 43.53125 10.953125 
Q 47.40625 15.53125 47.40625 23.390625 
Q 47.40625 31.296875 43.53125 35.828125 
Q 39.65625 40.375 33.015625 40.375 
z
M 52.59375 71.296875 
L 52.59375 62.3125 
Q 48.875 64.0625 45.09375 64.984375 
Q 41.3125 65.921875 37.59375 65.921875 
Q 27.828125 65.921875 22.671875 59.328125 
Q 17.53125 52.734375 16.796875 39.40625 
Q 19.671875 43.65625 24.015625 45.921875 
Q 28.375 48.1875 33.59375 48.1875 
Q 44.578125 48.1875 50.953125 41.515625 
Q 57.328125 34.859375 57.328125 23.390625 
Q 57.328125 12.15625 50.6875 5.359375 
Q 44.046875 -1.421875 33.015625 -1.421875 
Q 20.359375 -1.421875 13.671875 8.265625 
Q 6.984375 17.96875 6.984375 36.375 
Q 6.984375 53.65625 15.1875 63.9375 
Q 23.390625 74.21875 37.203125 74.21875 
Q 40.921875 74.21875 44.703125 73.484375 
Q 48.484375 72.75 52.59375 71.296875 
z
" id="DejaVuSans-36"/>
      </defs>
      <g transform="translate(246.928438 266.598437)scale(0.1 -0.1)">
       <use xlink:href="#DejaVuSans-30"/>
       <use x="63.623047" xlink:href="#DejaVuSans-2e"/>
       <use x="95.410156" xlink:href="#DejaVuSans-36"/>
      </g>
     </g>
    </g>
    <g id="xtick_5">
     <g id="line2d_5">
      <g>
       <use style="stroke:#000000;stroke-width:0.8;" x="321.84" xlink:href="#m2d34a9e679" y="252"/>
      </g>
     </g>
     <g id="text_5">
      <!-- 0.8 -->
      <defs>
       <path d="M 31.78125 34.625 
Q 24.75 34.625 20.71875 30.859375 
Q 16.703125 27.09375 16.703125 20.515625 
Q 16.703125 13.921875 20.71875 10.15625 
Q 24.75 6.390625 31.78125 6.390625 
Q 38.8125 6.390625 42.859375 10.171875 
Q 46.921875 13.96875 46.921875 20.515625 
Q 46.921875 27.09375 42.890625 30.859375 
Q 38.875 34.625 31.78125 34.625 
z
M 21.921875 38.8125 
Q 15.578125 40.375 12.03125 44.71875 
Q 8.5 49.078125 8.5 55.328125 
Q 8.5 64.0625 14.71875 69.140625 
Q 20.953125 74.21875 31.78125 74.21875 
Q 42.671875 74.21875 48.875 69.140625 
Q 55.078125 64.0625 55.078125 55.328125 
Q 55.078125 49.078125 51.53125 44.71875 
Q 48 40.375 41.703125 38.8125 
Q 48.828125 37.15625 52.796875 32.3125 
Q 56.78125 27.484375 56.78125 20.515625 
Q 56.78125 9.90625 50.3125 4.234375 
Q 43.84375 -1.421875 31.78125 -1.421875 
Q 19.734375 -1.421875 13.25 4.234375 
Q 6.78125 9.90625 6.78125 20.515625 
Q 6.78125 27.484375 10.78125 32.3125 
Q 14.796875 37.15625 21.921875 38.8125 
z
M 18.3125 54.390625 
Q 18.3125 48.734375 21.84375 45.5625 
Q 25.390625 42.390625 31.78125 42.390625 
Q 38.140625 42.390625 41.71875 45.5625 
Q 45.3125 48.734375 45.3125 54.390625 
Q 45.3125 60.0625 41.71875 63.234375 
Q 38.140625 66.40625 31.78125 66.40625 
Q 25.390625 66.40625 21.84375 63.234375 
Q 18.3125 60.0625 18.3125 54.390625 
z
" id="DejaVuSans-38"/>
      </defs>
      <g transform="translate(313.888438 266.598437)scale(0.1 -0.1)">
       <use xlink:href="#DejaVuSans-30"/>
       <use x="63.623047" xlink:href="#DejaVuSans-2e"/>
       <use x="95.410156" xlink:href="#DejaVuSans-38"/>
      </g>
     </g>
    </g>
    <g id="xtick_6">
     <g id="line2d_6">
      <g>
       <use style="stroke:#000000;stroke-width:0.8;" x="388.8" xlink:href="#m2d34a9e679" y="252"/>
      </g>
     </g>
     <g id="text_6">
      <!-- 1.0 -->
      <defs>
       <path d="M 12.40625 8.296875 
L 28.515625 8.296875 
L 28.515625 63.921875 
L 10.984375 60.40625 
L 10.984375 69.390625 
L 28.421875 72.90625 
L 38.28125 72.90625 
L 38.28125 8.296875 
L 54.390625 8.296875 
L 54.390625 0 
L 12.40625 0 
z
" id="DejaVuSans-31"/>
      </defs>
      <g transform="translate(380.848437 266.598437)scale(0.1 -0.1)">
       <use xlink:href="#DejaVuSans-31"/>
       <use x="63.623047" xlink:href="#DejaVuSans-2e"/>
       <use x="95.410156" xlink:href="#DejaVuSans-30"/>
      </g>
     </g>
    </g>
    <g id="text_7">
     <!-- $t$ -->
     <defs>
      <path d="M 42.28125 54.6875 
L 40.921875 47.703125 
L 23 47.703125 
L 17.1875 18.015625 
Q 16.890625 16.359375 16.75 15.234375 
Q 16.609375 14.109375 16.609375 13.484375 
Q 16.609375 10.359375 18.484375 8.9375 
Q 20.359375 7.515625 24.515625 7.515625 
L 33.59375 7.515625 
L 32.078125 0 
L 23.484375 0 
Q 15.484375 0 11.546875 3.125 
Q 7.625 6.25 7.625 12.59375 
Q 7.625 13.71875 7.765625 15.0625 
Q 7.90625 16.40625 8.203125 18.015625 
L 14.015625 47.703125 
L 6.390625 47.703125 
L 7.8125 54.6875 
L 15.28125 54.6875 
L 18.3125 70.21875 
L 27.296875 70.21875 
L 24.3125 54.6875 
z
" id="DejaVuSans-Oblique-74"/>
     </defs>
     <g transform="translate(219.4 280.276563)scale(0.1 -0.1)">
      <use transform="translate(0 0.78125)" xlink:href="#DejaVuSans-Oblique-74"/>
     </g>
    </g>
   </g>
   <g id="matplotlib.axis_2">
    <g id="ytick_1">
     <g id="line2d_7">
      <defs>
       <path d="M 0 0 
L -3.5 0 
" id="mcd704ba25b" style="stroke:#000000;stroke-width:0.8;"/>
      </defs>
      <g>
       <use style="stroke:#000000;stroke-width:0.8;" x="54" xlink:href="#mcd704ba25b" y="230.530961"/>
      </g>
     </g>
     <g id="text_8">
      <!-- −2.0 -->
      <defs>
       <path d="M 10.59375 35.5 
L 73.1875 35.5 
L 73.1875 27.203125 
L 10.59375 27.203125 
z
" id="DejaVuSans-2212"/>
      </defs>
      <g transform="translate(22.717187 234.33018)scale(0.1 -0.1)">
       <use xlink:href="#DejaVuSans-2212"/>
       <use x="83.789062" xlink:href="#DejaVuSans-32"/>
       <use x="147.412109" xlink:href="#DejaVuSans-2e"/>
       <use x="179.199219" xlink:href="#DejaVuSans-30"/>
      </g>
     </g>
    </g>
    <g id="ytick_2">
     <g id="line2d_8">
      <g>
       <use style="stroke:#000000;stroke-width:0.8;" x="54" xlink:href="#mcd704ba25b" y="194.678358"/>
      </g>
     </g>
     <g id="text_9">
      <!-- −1.5 -->
      <defs>
       <path d="M 10.796875 72.90625 
L 49.515625 72.90625 
L 49.515625 64.59375 
L 19.828125 64.59375 
L 19.828125 46.734375 
Q 21.96875 47.46875 24.109375 47.828125 
Q 26.265625 48.1875 28.421875 48.1875 
Q 40.625 48.1875 47.75 41.5 
Q 54.890625 34.8125 54.890625 23.390625 
Q 54.890625 11.625 47.5625 5.09375 
Q 40.234375 -1.421875 26.90625 -1.421875 
Q 22.3125 -1.421875 17.546875 -0.640625 
Q 12.796875 0.140625 7.71875 1.703125 
L 7.71875 11.625 
Q 12.109375 9.234375 16.796875 8.0625 
Q 21.484375 6.890625 26.703125 6.890625 
Q 35.15625 6.890625 40.078125 11.328125 
Q 45.015625 15.765625 45.015625 23.390625 
Q 45.015625 31 40.078125 35.4375 
Q 35.15625 39.890625 26.703125 39.890625 
Q 22.75 39.890625 18.8125 39.015625 
Q 14.890625 38.140625 10.796875 36.28125 
z
" id="DejaVuSans-35"/>
      </defs>
      <g transform="translate(22.717187 198.477577)scale(0.1 -0.1)">
       <use xlink:href="#DejaVuSans-2212"/>
       <use x="83.789062" xlink:href="#DejaVuSans-31"/>
       <use x="147.412109" xlink:href="#DejaVuSans-2e"/>
       <use x="179.199219" xlink:href="#DejaVuSans-35"/>
      </g>
     </g>
    </g>
    <g id="ytick_3">
     <g id="line2d_9">
      <g>
       <use style="stroke:#000000;stroke-width:0.8;" x="54" xlink:href="#mcd704ba25b" y="158.825755"/>
      </g>
     </g>
     <g id="text_10">
      <!-- −1.0 -->
      <g transform="translate(22.717187 162.624974)scale(0.1 -0.1)">
       <use xlink:href="#DejaVuSans-2212"/>
       <use x="83.789062" xlink:href="#DejaVuSans-31"/>
       <use x="147.412109" xlink:href="#DejaVuSans-2e"/>
       <use x="179.199219" xlink:href="#DejaVuSans-30"/>
      </g>
     </g>
    </g>
    <g id="ytick_4">
     <g id="line2d_10">
      <g>
       <use style="stroke:#000000;stroke-width:0.8;" x="54" xlink:href="#mcd704ba25b" y="122.973152"/>
      </g>
     </g>
     <g id="text_11">
      <!-- −0.5 -->
      <g transform="translate(22.717187 126.772371)scale(0.1 -0.1)">
       <use xlink:href="#DejaVuSans-2212"/>
       <use x="83.789062" xlink:href="#DejaVuSans-30"/>
       <use x="147.412109" xlink:href="#DejaVuSans-2e"/>
       <use x="179.199219" xlink:href="#DejaVuSans-35"/>
      </g>
     </g>
    </g>
    <g id="ytick_5">
     <g id="line2d_11">
      <g>
       <use style="stroke:#000000;stroke-width:0.8;" x="54" xlink:href="#mcd704ba25b" y="87.120549"/>
      </g>
     </g>
     <g id="text_12">
      <!-- 0.0 -->
      <g transform="translate(31.096875 90.919768)scale(0.1 -0.1)">
       <use xlink:href="#DejaVuSans-30"/>
       <use x="63.623047" xlink:href="#DejaVuSans-2e"/>
       <use x="95.410156" xlink:href="#DejaVuSans-30"/>
      </g>
     </g>
    </g>
    <g id="ytick_6">
     <g id="line2d_12">
      <g>
       <use style="stroke:#000000;stroke-width:0.8;" x="54" xlink:href="#mcd704ba25b" y="51.267946"/>
      </g>
     </g>
     <g id="text_13">
      <!-- 0.5 -->
      <g transform="translate(31.096875 55.067165)scale(0.1 -0.1)">
       <use xlink:href="#DejaVuSans-30"/>
       <use x="63.623047" xlink:href="#DejaVuSans-2e"/>
       <use x="95.410156" xlink:href="#DejaVuSans-35"/>
      </g>
     </g>
    </g>
    <g id="text_14">
     <!-- $W_t$ -->
     <defs>
      <path d="M 9.625 72.90625 
L 19.1875 72.90625 
L 22.703125 10.890625 
L 50.203125 72.90625 
L 61.1875 72.90625 
L 64.796875 10.890625 
L 92 72.90625 
L 102 72.90625 
L 69.578125 0 
L 57.171875 0 
L 53.8125 60.796875 
L 26.515625 0 
L 14.109375 0 
z
" id="DejaVuSans-Oblique-57"/>
     </defs>
     <g transform="translate(16.6375 149.78)rotate(-90)scale(0.1 -0.1)">
      <use transform="translate(0 0.09375)" xlink:href="#DejaVuSans-Oblique-57"/>
      <use transform="translate(98.876953 -16.3125)scale(0.7)" xlink:href="#DejaVuSans-Oblique-74"/>
     </g>
    </g>
   </g>
   <g id="line2d_13">
    <path clip-path="url(#p5f77471134)" d="M 54 87.120549 
L 54.3348 86.213186 
L 54.6696 83.99388 
L 55.3392 74.677894 
L 55.674 76.893889 
L 56.0088 74.739547 
L 56.6784 75.316802 
L 57.0132 74.385763 
L 57.348 74.059142 
L 57.6828 70.761551 
L 58.0176 69.035884 
L 58.3524 68.759984 
L 59.022 66.996904 
L 59.3568 63.609053 
L 59.6916 64.074253 
L 60.0264 63.364366 
L 60.3612 65.301044 
L 60.696 71.089993 
L 61.3656 67.647777 
L 61.7004 69.330649 
L 62.0352 64.183941 
L 62.37 67.481741 
L 62.7048 67.377982 
L 63.0396 67.802425 
L 63.7092 60.995024 
L 64.044 60.643678 
L 64.3788 59.786188 
L 64.7136 61.799258 
L 65.0484 66.290749 
L 65.3832 67.079646 
L 65.718 66.725122 
L 66.3876 61.208998 
L 67.0572 62.772745 
L 67.392 65.150358 
L 68.0616 72.239271 
L 68.3964 67.815854 
L 69.066 69.96484 
L 69.4008 72.805576 
L 69.7356 71.042603 
L 70.0704 74.702145 
L 70.4052 75.184537 
L 70.74 77.215023 
L 71.0748 76.337715 
L 71.4096 77.495975 
L 71.7444 80.173079 
L 72.0792 80.236983 
L 72.414 79.265733 
L 72.7488 79.114904 
L 73.0836 78.429043 
L 73.4184 79.86738 
L 73.7532 80.689902 
L 74.088 82.214718 
L 74.4228 83.030011 
L 74.7576 84.873835 
L 75.0924 88.788211 
L 75.4272 88.385894 
L 75.762 89.29694 
L 76.0968 92.993443 
L 76.4316 91.944076 
L 76.7664 94.001391 
L 77.1012 93.883604 
L 77.436 92.230379 
L 77.7708 91.937908 
L 78.1056 89.354296 
L 78.4404 92.154286 
L 78.7752 91.241969 
L 79.7796 96.081888 
L 80.1144 96.788339 
L 80.4492 96.660983 
L 80.784 99.302981 
L 81.1188 97.260341 
L 81.4536 96.204443 
L 81.7884 99.687903 
L 82.7928 89.341398 
L 83.1276 89.749381 
L 83.4624 92.177332 
L 83.7972 89.786344 
L 84.132 90.700555 
L 84.4668 87.928639 
L 84.8016 87.456372 
L 85.1364 85.241825 
L 85.4712 84.433758 
L 85.806 82.831591 
L 86.1408 82.807782 
L 86.4756 78.758289 
L 86.8104 78.470514 
L 87.1452 77.558996 
L 87.48 73.288918 
L 88.1496 79.225833 
L 88.4844 77.027709 
L 88.8192 79.687787 
L 89.154 75.280591 
L 89.4888 76.21848 
L 89.8236 77.913347 
L 90.828 65.961225 
L 91.1628 63.906753 
L 91.4976 65.859597 
L 91.8324 61.528491 
L 92.1672 62.136194 
L 92.8368 58.168699 
L 93.1716 58.520187 
L 93.5064 57.127751 
L 93.8412 55.036631 
L 94.176 54.18308 
L 94.5108 56.67599 
L 94.8456 55.99973 
L 95.1804 52.992127 
L 95.5152 54.567071 
L 95.85 54.90637 
L 96.1848 55.893089 
L 96.5196 51.699851 
L 96.8544 50.17541 
L 97.1892 49.251483 
L 97.524 50.997282 
L 97.8588 49.774525 
L 98.1936 51.303586 
L 98.5284 51.231409 
L 98.8632 52.673202 
L 99.5328 49.831947 
L 99.8676 50.304268 
L 100.2024 49.406316 
L 100.5372 51.884853 
L 100.872 55.266306 
L 101.2068 54.269977 
L 101.5416 53.892042 
L 101.8764 52.452097 
L 102.2112 47.048274 
L 102.546 44.90665 
L 102.8808 46.976491 
L 103.2156 44.443636 
L 103.5504 47.42748 
L 103.8852 48.474131 
L 104.22 48.62887 
L 104.5548 44.743835 
L 105.2244 48.306544 
L 105.5592 48.529787 
L 105.894 50.034235 
L 106.2288 47.479569 
L 106.8984 52.530238 
L 107.568 54.6523 
L 107.9028 50.277052 
L 108.2376 48.124223 
L 108.5724 47.925699 
L 108.9072 50.704396 
L 109.242 48.789788 
L 109.5768 51.057794 
L 109.9116 54.56059 
L 110.2464 51.866711 
L 110.5812 51.148038 
L 110.916 49.059975 
L 111.2508 48.337254 
L 111.5856 46.394375 
L 111.9204 47.870588 
L 112.2552 50.215752 
L 112.59 48.670224 
L 113.2596 52.055536 
L 113.5944 53.088464 
L 113.9292 53.04883 
L 114.264 53.851517 
L 114.5988 56.969243 
L 114.9336 58.42866 
L 115.2684 63.470266 
L 115.6032 62.052542 
L 116.2728 68.189445 
L 116.6076 68.07116 
L 116.9424 69.748132 
L 117.2772 66.249319 
L 117.612 69.180895 
L 117.9468 68.575352 
L 118.2816 68.664427 
L 118.6164 71.3131 
L 118.9512 70.126561 
L 119.286 70.515545 
L 119.9556 66.898186 
L 120.2904 61.99301 
L 120.6252 58.962409 
L 121.2948 60.342332 
L 121.6296 57.848835 
L 122.2992 54.911503 
L 122.634 58.577979 
L 122.9688 58.633139 
L 123.3036 60.306637 
L 123.6384 59.671903 
L 123.9732 59.894461 
L 124.308 57.830614 
L 124.6428 57.111316 
L 124.9776 55.328304 
L 125.3124 56.385917 
L 125.6472 58.527466 
L 125.982 59.457261 
L 126.3168 59.495855 
L 126.6516 58.636122 
L 126.9864 53.513099 
L 127.3212 53.608918 
L 127.656 55.77654 
L 128.3256 57.612272 
L 128.6604 56.520504 
L 128.9952 60.014288 
L 129.33 59.870841 
L 129.6648 59.515959 
L 129.9996 58.989485 
L 130.3344 60.34391 
L 130.6692 60.883401 
L 131.004 64.112485 
L 131.6736 66.462044 
L 132.0084 65.518643 
L 132.3432 68.140308 
L 132.678 66.368927 
L 133.0128 62.980157 
L 133.3476 67.673885 
L 133.6824 66.707335 
L 134.0172 65.172434 
L 134.352 66.617834 
L 134.6868 67.518655 
L 135.0216 67.819964 
L 135.6912 69.195902 
L 136.026 72.996271 
L 136.6956 67.935284 
L 137.0304 69.779602 
L 137.3652 73.104745 
L 137.7 71.923221 
L 138.0348 73.228831 
L 138.3696 72.90695 
L 138.7044 73.631032 
L 139.374 70.4876 
L 139.7088 72.132905 
L 140.3784 78.859048 
L 140.7132 77.475002 
L 141.048 80.170761 
L 141.7176 82.672129 
L 142.0524 82.791326 
L 142.3872 87.181875 
L 142.722 86.753816 
L 143.0568 85.565884 
L 143.3916 85.365386 
L 143.7264 86.070325 
L 144.0612 85.849469 
L 144.396 84.944624 
L 144.7308 91.231527 
L 145.0656 86.796462 
L 145.4004 85.911918 
L 145.7352 87.391266 
L 146.07 88.27776 
L 146.4048 87.158192 
L 146.7396 87.421459 
L 147.0744 92.026072 
L 147.4092 87.344798 
L 147.744 87.595451 
L 148.0788 85.282191 
L 148.4136 86.851427 
L 148.7484 83.367664 
L 149.0832 82.718375 
L 149.418 81.337811 
L 149.7528 83.707941 
L 150.0876 80.961648 
L 150.4224 79.397473 
L 150.7572 76.445514 
L 151.4268 78.960451 
L 151.7616 73.736279 
L 152.0964 76.139884 
L 152.4312 76.448152 
L 152.766 73.870231 
L 153.1008 73.648638 
L 153.4356 72.32678 
L 153.7704 73.232538 
L 154.1052 72.393429 
L 154.44 75.356002 
L 154.7748 71.596161 
L 155.1096 71.8641 
L 155.4444 73.406417 
L 155.7792 71.895381 
L 156.114 72.940071 
L 156.7836 79.019232 
L 157.1184 77.446089 
L 157.788 78.111095 
L 158.1228 75.667292 
L 158.4576 78.22239 
L 158.7924 79.879214 
L 159.1272 80.751936 
L 159.462 80.537992 
L 159.7968 80.633617 
L 160.1316 81.284138 
L 160.8012 81.667194 
L 161.4708 85.142386 
L 161.8056 84.519915 
L 162.4752 89.164404 
L 162.81 89.872533 
L 163.1448 90.230045 
L 163.4796 85.112885 
L 163.8144 86.710805 
L 164.484 82.877682 
L 164.8188 85.573636 
L 165.1536 83.820271 
L 165.4884 86.504741 
L 165.8232 92.534461 
L 166.158 91.159621 
L 166.4928 95.141134 
L 166.8276 94.118632 
L 167.1624 95.669639 
L 167.4972 91.906578 
L 167.832 89.483714 
L 168.1668 90.511775 
L 168.5016 92.071459 
L 168.8364 94.824401 
L 169.1712 95.8242 
L 169.8408 97.286861 
L 170.1756 96.931532 
L 170.5104 95.619724 
L 170.8452 94.826876 
L 171.18 96.559586 
L 171.5148 99.819804 
L 171.8496 96.725704 
L 172.854 100.949935 
L 173.1888 105.129128 
L 173.8584 107.300571 
L 174.528 104.310133 
L 174.8628 104.301583 
L 175.1976 102.1886 
L 175.5324 101.417723 
L 175.8672 101.453283 
L 176.202 101.088375 
L 176.5368 101.520686 
L 177.2064 103.023104 
L 177.5412 105.58089 
L 177.876 104.944984 
L 178.2108 107.196909 
L 178.5456 105.288495 
L 178.8804 105.854147 
L 179.2152 105.741916 
L 179.8848 103.163406 
L 180.2196 106.724822 
L 180.5544 107.19398 
L 180.8892 105.198158 
L 181.224 109.048643 
L 181.5588 108.170478 
L 181.8936 113.28501 
L 182.2284 115.603562 
L 182.5632 115.515967 
L 182.898 119.272598 
L 183.2328 121.507261 
L 183.5676 124.844673 
L 183.9024 121.107498 
L 184.2372 120.735108 
L 184.572 119.448767 
L 184.9068 119.953687 
L 185.2416 120.7551 
L 185.5764 124.420484 
L 185.9112 125.08223 
L 186.246 126.808927 
L 186.9156 122.276101 
L 187.2504 118.950608 
L 187.5852 117.017431 
L 187.92 118.374889 
L 188.2548 120.905206 
L 188.5896 119.166783 
L 188.9244 118.358883 
L 189.2592 122.369075 
L 189.594 121.563014 
L 189.9288 119.716076 
L 190.2636 119.582461 
L 190.5984 120.002074 
L 190.9332 121.833431 
L 191.268 125.113474 
L 191.6028 123.298784 
L 192.2724 124.529096 
L 192.6072 120.60012 
L 192.942 119.048002 
L 193.2768 118.20715 
L 193.6116 117.885022 
L 194.616 108.431538 
L 194.9508 107.111334 
L 195.2856 111.860883 
L 195.6204 111.580342 
L 195.9552 111.875361 
L 196.29 111.662321 
L 196.6248 109.523947 
L 196.9596 115.736214 
L 197.2944 117.027139 
L 197.6292 116.415126 
L 197.964 117.473706 
L 198.2988 120.686566 
L 198.6336 118.716176 
L 198.9684 118.088364 
L 199.3032 120.290361 
L 199.638 119.576507 
L 199.9728 117.713547 
L 200.3076 117.701546 
L 200.6424 115.886251 
L 200.9772 115.708795 
L 201.312 116.604983 
L 201.6468 119.23399 
L 201.9816 119.42884 
L 202.3164 118.988277 
L 202.6512 117.002311 
L 202.986 117.263319 
L 203.3208 116.226121 
L 203.9904 120.188021 
L 204.3252 120.438331 
L 204.66 122.82972 
L 204.9948 120.969793 
L 205.3296 119.919637 
L 205.9992 118.518311 
L 206.334 113.935559 
L 206.6688 114.998717 
L 207.0036 119.990524 
L 207.3384 119.538607 
L 207.6732 119.653352 
L 208.008 120.826835 
L 208.3428 123.046349 
L 208.6776 124.042219 
L 209.0124 123.631031 
L 209.3472 124.771177 
L 209.682 119.300896 
L 210.3516 123.277264 
L 210.6864 128.46675 
L 211.0212 127.896505 
L 211.356 132.468743 
L 211.6908 133.691966 
L 212.0256 134.317054 
L 212.3604 135.926374 
L 212.6952 131.98345 
L 213.3648 126.737477 
L 213.6996 128.738377 
L 214.0344 126.17927 
L 214.3692 125.054579 
L 215.0388 120.971131 
L 215.3736 123.031768 
L 215.7084 123.993916 
L 216.0432 122.037964 
L 216.378 128.059628 
L 216.7128 124.628129 
L 217.0476 123.373893 
L 217.3824 123.477527 
L 217.7172 122.977522 
L 218.052 125.312919 
L 218.3868 126.106421 
L 219.0564 120.668219 
L 219.3912 114.554484 
L 219.726 114.722109 
L 220.7304 119.689852 
L 221.0652 119.866389 
L 221.4 118.998537 
L 221.7348 119.076182 
L 222.0696 116.590196 
L 222.4044 117.121284 
L 222.7392 117.909135 
L 223.074 119.227171 
L 224.0784 129.157902 
L 225.0828 121.059116 
L 225.4176 124.07993 
L 225.7524 128.543821 
L 226.0872 130.040511 
L 226.422 129.641838 
L 226.7568 128.511049 
L 227.0916 126.134754 
L 227.4264 125.490144 
L 227.7612 121.538612 
L 228.096 122.043374 
L 228.4308 124.113798 
L 228.7656 127.92599 
L 229.1004 129.941748 
L 229.4352 129.392741 
L 229.77 131.40793 
L 230.1048 129.28385 
L 230.4396 126.081372 
L 230.7744 131.454452 
L 231.1092 129.495198 
L 231.444 134.57354 
L 231.7788 133.663134 
L 232.1136 130.885718 
L 232.4484 130.738656 
L 232.7832 133.640374 
L 233.118 134.96785 
L 233.7876 135.974379 
L 234.1224 136.434451 
L 234.4572 136.683612 
L 234.792 136.199542 
L 235.1268 138.940004 
L 235.4616 139.488788 
L 235.7964 136.046104 
L 236.466 137.924701 
L 236.8008 135.479869 
L 237.1356 141.282866 
L 237.4704 138.604069 
L 237.8052 140.036922 
L 238.4748 139.446801 
L 238.8096 137.309738 
L 239.1444 137.916513 
L 239.4792 139.453949 
L 239.814 136.511061 
L 240.1488 141.871867 
L 240.4836 141.825758 
L 240.8184 144.882203 
L 241.1532 146.609084 
L 241.488 142.048524 
L 241.8228 142.149645 
L 242.1576 141.707321 
L 242.4924 145.747046 
L 242.8272 147.400168 
L 243.162 146.954471 
L 243.4968 146.150051 
L 243.8316 144.75125 
L 244.1664 144.731686 
L 244.836 142.507736 
L 245.1708 146.656705 
L 245.5056 146.572794 
L 246.1752 143.493999 
L 246.51 144.319055 
L 246.8448 146.145827 
L 247.1796 148.68162 
L 247.5144 148.978787 
L 247.8492 146.409508 
L 248.184 150.835259 
L 248.5188 152.331575 
L 248.8536 154.916097 
L 249.1884 153.136192 
L 249.858 155.460278 
L 250.1928 155.952215 
L 250.5276 154.942278 
L 250.8624 155.832027 
L 251.1972 162.73921 
L 251.8668 160.511703 
L 252.2016 161.009516 
L 252.5364 163.467589 
L 253.206 161.809998 
L 253.5408 162.875806 
L 253.8756 163.367248 
L 254.2104 165.476394 
L 254.5452 165.881348 
L 254.88 169.396974 
L 255.2148 168.450696 
L 255.5496 170.592069 
L 255.8844 170.052166 
L 256.2192 173.240211 
L 256.554 174.578178 
L 256.8888 174.828714 
L 257.2236 178.594381 
L 257.5584 178.333281 
L 257.8932 179.193005 
L 258.5628 186.098954 
L 258.8976 184.726834 
L 259.2324 182.696145 
L 259.5672 182.99525 
L 259.902 182.077445 
L 260.2368 181.569876 
L 260.5716 180.82245 
L 260.9064 177.906458 
L 261.2412 181.323604 
L 261.576 179.789717 
L 261.9108 180.655929 
L 262.5804 181.849797 
L 262.9152 182.70045 
L 263.25 185.480871 
L 263.5848 185.065146 
L 263.9196 181.276254 
L 264.2544 181.403536 
L 264.5892 181.406677 
L 264.924 182.96514 
L 265.2588 183.231515 
L 265.5936 182.174475 
L 266.2632 184.043015 
L 266.598 183.128605 
L 266.9328 185.210197 
L 267.2676 184.637657 
L 267.6024 182.777562 
L 267.9372 179.693855 
L 268.272 179.898798 
L 268.9416 174.452204 
L 269.6112 179.472831 
L 269.946 180.164341 
L 270.2808 177.831212 
L 270.6156 177.995124 
L 270.9504 179.357126 
L 271.2852 175.837387 
L 271.62 175.186826 
L 271.9548 180.448814 
L 272.2896 179.729647 
L 272.6244 178.550446 
L 272.9592 178.038874 
L 273.294 177.019144 
L 273.6288 177.171693 
L 273.9636 180.161179 
L 274.2984 181.001757 
L 275.3028 188.124993 
L 275.6376 187.098966 
L 275.9724 186.876985 
L 276.3072 187.893208 
L 276.642 189.365593 
L 276.9768 189.418706 
L 277.3116 186.971612 
L 277.6464 191.516207 
L 277.9812 190.661633 
L 278.316 191.899044 
L 278.9856 200.584292 
L 279.3204 202.654045 
L 279.6552 202.156303 
L 279.99 201.265026 
L 280.3248 203.394184 
L 280.6596 201.08807 
L 280.9944 197.86143 
L 281.3292 196.963297 
L 281.664 198.304313 
L 282.3336 194.041799 
L 282.6684 192.074938 
L 283.0032 193.563481 
L 283.338 199.990883 
L 283.6728 195.191022 
L 284.0076 198.843717 
L 284.3424 198.924822 
L 284.6772 193.52644 
L 285.012 192.776851 
L 285.3468 190.624418 
L 286.0164 198.06202 
L 286.3512 199.269933 
L 286.686 196.796639 
L 287.0208 197.581766 
L 287.3556 199.383618 
L 287.6904 198.934723 
L 288.0252 196.481416 
L 288.6948 202.502771 
L 289.0296 204.291093 
L 289.3644 201.808981 
L 289.6992 201.276519 
L 290.034 196.441823 
L 290.3688 194.318416 
L 290.7036 194.397995 
L 291.0384 191.529408 
L 291.3732 191.049835 
L 291.708 192.648257 
L 292.0428 191.106402 
L 292.3776 192.685335 
L 292.7124 193.343815 
L 293.0472 190.333045 
L 293.382 190.562702 
L 293.7168 192.38384 
L 294.0516 193.436733 
L 294.3864 191.119805 
L 295.056 193.249937 
L 295.3908 194.407035 
L 295.7256 193.989981 
L 296.0604 194.864086 
L 296.3952 198.496277 
L 297.0648 202.623092 
L 297.3996 199.803843 
L 298.0692 196.629469 
L 298.404 197.775378 
L 298.7388 199.6252 
L 299.0736 200.776005 
L 299.4084 203.161162 
L 299.7432 197.498716 
L 300.078 202.590022 
L 300.4128 201.311123 
L 300.7476 204.223868 
L 301.0824 204.460469 
L 301.752 209.371075 
L 302.0868 211.95649 
L 302.4216 207.977028 
L 302.7564 208.278582 
L 303.0912 210.014825 
L 303.426 208.754568 
L 303.7608 208.731101 
L 304.0956 207.098412 
L 304.4304 211.234946 
L 304.7652 210.546519 
L 305.1 208.79442 
L 305.4348 212.562123 
L 305.7696 211.545832 
L 306.1044 207.699711 
L 306.4392 207.733401 
L 307.1088 204.350318 
L 307.4436 205.9546 
L 307.7784 205.864428 
L 308.1132 209.417616 
L 308.448 210.440954 
L 308.7828 209.838501 
L 309.1176 208.198858 
L 309.4524 208.14305 
L 309.7872 206.510474 
L 310.122 209.011333 
L 310.4568 209.241934 
L 310.7916 209.198217 
L 311.1264 205.004236 
L 311.4612 205.489863 
L 311.796 206.621392 
L 312.1308 206.572978 
L 312.4656 208.657084 
L 312.8004 208.220011 
L 313.1352 209.04778 
L 313.47 213.109647 
L 313.8048 213.242493 
L 314.1396 213.962528 
L 314.4744 217.664077 
L 314.8092 217.816305 
L 315.144 214.439164 
L 315.8136 211.869542 
L 316.1484 214.91141 
L 316.4832 213.830034 
L 316.818 213.493422 
L 317.4876 211.335485 
L 317.8224 214.418812 
L 318.1572 214.512689 
L 318.492 216.231175 
L 318.8268 216.344741 
L 319.1616 218.379614 
L 319.4964 215.403564 
L 320.166 219.389666 
L 320.5008 219.22054 
L 320.8356 221.662881 
L 321.1704 222.625813 
L 321.5052 224.507772 
L 321.84 221.307915 
L 322.1748 219.526091 
L 322.5096 219.656404 
L 322.8444 220.543495 
L 323.1792 218.409948 
L 323.8488 216.361798 
L 324.1836 216.421189 
L 324.5184 220.249281 
L 324.8532 220.504299 
L 325.188 221.71173 
L 325.5228 220.249055 
L 325.8576 217.954685 
L 326.1924 219.4466 
L 326.5272 218.384529 
L 326.862 214.448392 
L 327.1968 215.962443 
L 327.5316 212.148655 
L 327.8664 214.081909 
L 328.8708 214.029046 
L 329.5404 217.269014 
L 329.8752 218.783082 
L 330.5448 217.293328 
L 330.8796 212.24596 
L 331.2144 209.137218 
L 331.5492 210.293296 
L 331.884 209.556649 
L 332.2188 207.295666 
L 332.5536 207.226276 
L 332.8884 207.384189 
L 333.2232 207.267242 
L 333.558 205.300677 
L 333.8928 207.224259 
L 334.2276 207.96272 
L 334.8972 206.189793 
L 335.232 205.646535 
L 335.5668 206.485066 
L 335.9016 204.279823 
L 336.2364 199.441239 
L 336.5712 198.519685 
L 336.906 198.957717 
L 337.2408 197.244062 
L 337.5756 198.466555 
L 337.9104 200.166491 
L 338.2452 200.092097 
L 338.58 205.948634 
L 338.9148 208.565237 
L 339.2496 209.354246 
L 339.9192 214.764616 
L 340.254 215.754951 
L 340.5888 219.480404 
L 341.2584 221.614913 
L 341.5932 221.557306 
L 341.928 218.940174 
L 342.2628 218.549017 
L 342.5976 218.501258 
L 342.9324 218.275744 
L 343.2672 217.760126 
L 343.602 220.065599 
L 343.9368 220.325854 
L 344.2716 219.625755 
L 344.6064 222.733978 
L 345.276 218.319055 
L 345.6108 219.750712 
L 345.9456 220.297949 
L 346.2804 222.289261 
L 346.6152 220.703404 
L 346.95 223.109744 
L 347.2848 223.614215 
L 347.6196 225.561831 
L 347.9544 225.446291 
L 348.2892 229.514738 
L 348.624 226.506962 
L 348.9588 228.694225 
L 349.2936 228.558412 
L 349.6284 229.040312 
L 350.298 232.781477 
L 350.6328 230.658177 
L 350.9676 231.850077 
L 351.3024 231.235193 
L 351.972 234.520097 
L 352.3068 233.449268 
L 352.6416 231.339551 
L 352.9764 231.737084 
L 353.3112 234.961312 
L 353.646 230.430911 
L 353.9808 232.373152 
L 354.3156 235.868729 
L 354.6504 229.985825 
L 354.9852 230.901975 
L 355.32 234.21648 
L 355.6548 235.766192 
L 355.9896 234.932777 
L 356.3244 234.501243 
L 356.6592 236.432554 
L 356.994 232.299496 
L 357.3288 233.482187 
L 357.6636 236.168485 
L 357.9984 233.990095 
L 358.3332 230.976422 
L 358.668 232.830102 
L 359.0028 236.007682 
L 359.3376 233.671145 
L 359.6724 238.313487 
L 360.0072 241.094873 
L 360.342 238.901172 
L 360.6768 239.026685 
L 361.0116 239.625168 
L 361.3464 238.82515 
L 361.6812 239.171568 
L 362.016 242.116364 
L 362.6856 236.218347 
L 363.0204 235.752752 
L 363.3552 235.65041 
L 363.69 230.345269 
L 364.3596 231.560681 
L 364.6944 230.734213 
L 365.364 223.786329 
L 365.6988 224.372647 
L 366.0336 223.6735 
L 366.3684 226.798329 
L 366.7032 227.50574 
L 367.3728 231.694123 
L 367.7076 227.881118 
L 368.3772 230.883067 
L 368.712 230.053499 
L 369.0468 227.110657 
L 369.3816 226.01972 
L 369.7164 219.762833 
L 370.0512 219.932144 
L 370.7208 218.720571 
L 371.0556 215.466571 
L 371.3904 214.316398 
L 371.7252 214.57995 
L 372.06 216.728398 
L 372.3948 216.174118 
L 372.7296 212.996544 
L 373.0644 213.927092 
L 373.3992 212.727703 
L 373.734 212.169558 
L 374.0688 210.211512 
L 374.4036 212.036305 
L 374.7384 206.715242 
L 375.0732 209.615762 
L 375.408 210.444656 
L 375.7428 208.317514 
L 376.0776 207.644666 
L 376.4124 205.762658 
L 376.7472 206.887579 
L 377.082 207.057201 
L 377.4168 207.029464 
L 377.7516 203.47114 
L 378.4212 200.099112 
L 378.756 201.590971 
L 379.0908 199.394013 
L 379.4256 198.882502 
L 379.7604 195.732591 
L 380.0952 191.165674 
L 380.7648 192.78257 
L 381.0996 194.741807 
L 381.4344 195.067376 
L 381.7692 195.933626 
L 382.104 195.118443 
L 382.4388 195.446251 
L 382.7736 196.266184 
L 383.1084 193.852218 
L 383.4432 195.978878 
L 383.778 194.996798 
L 384.1128 195.917278 
L 384.4476 194.27476 
L 384.7824 191.133655 
L 385.1172 191.820936 
L 385.452 190.820886 
L 385.7868 190.41547 
L 386.1216 192.228174 
L 386.7912 191.026598 
L 387.126 190.090406 
L 387.4608 190.540279 
L 387.7956 190.326697 
L 388.1304 192.928925 
L 388.4652 193.740955 
L 388.8 192.4803 
L 388.8 192.4803 
" style="fill:none;stroke:#1f77b4;stroke-linecap:square;stroke-width:1.5;"/>
   </g>
   <g id="patch_3">
    <path d="M 54 252 
L 54 34.56 
" style="fill:none;stroke:#000000;stroke-linecap:square;stroke-linejoin:miter;stroke-width:0.8;"/>
   </g>
   <g id="patch_4">
    <path d="M 388.8 252 
L 388.8 34.56 
" style="fill:none;stroke:#000000;stroke-linecap:square;stroke-linejoin:miter;stroke-width:0.8;"/>
   </g>
   <g id="patch_5">
    <path d="M 54 252 
L 388.8 252 
" style="fill:none;stroke:#000000;stroke-linecap:square;stroke-linejoin:miter;stroke-width:0.8;"/>
   </g>
   <g id="patch_6">
    <path d="M 54 34.56 
L 388.8 34.56 
" style="fill:none;stroke:#000000;stroke-linecap:square;stroke-linejoin:miter;stroke-width:0.8;"/>
   </g>
   <g id="text_15">
    <!-- Simulated Brownian Motion Path -->
    <defs>
     <path d="M 53.515625 70.515625 
L 53.515625 60.890625 
Q 47.90625 63.578125 42.921875 64.890625 
Q 37.9375 66.21875 33.296875 66.21875 
Q 25.25 66.21875 20.875 63.09375 
Q 16.5 59.96875 16.5 54.203125 
Q 16.5 49.359375 19.40625 46.890625 
Q 22.3125 44.4375 30.421875 42.921875 
L 36.375 41.703125 
Q 47.40625 39.59375 52.65625 34.296875 
Q 57.90625 29 57.90625 20.125 
Q 57.90625 9.515625 50.796875 4.046875 
Q 43.703125 -1.421875 29.984375 -1.421875 
Q 24.8125 -1.421875 18.96875 -0.25 
Q 13.140625 0.921875 6.890625 3.21875 
L 6.890625 13.375 
Q 12.890625 10.015625 18.65625 8.296875 
Q 24.421875 6.59375 29.984375 6.59375 
Q 38.421875 6.59375 43.015625 9.90625 
Q 47.609375 13.234375 47.609375 19.390625 
Q 47.609375 24.75 44.3125 27.78125 
Q 41.015625 30.8125 33.5 32.328125 
L 27.484375 33.5 
Q 16.453125 35.6875 11.515625 40.375 
Q 6.59375 45.0625 6.59375 53.421875 
Q 6.59375 63.09375 13.40625 68.65625 
Q 20.21875 74.21875 32.171875 74.21875 
Q 37.3125 74.21875 42.625 73.28125 
Q 47.953125 72.359375 53.515625 70.515625 
z
" id="DejaVuSans-53"/>
     <path d="M 9.421875 54.6875 
L 18.40625 54.6875 
L 18.40625 0 
L 9.421875 0 
z
M 9.421875 75.984375 
L 18.40625 75.984375 
L 18.40625 64.59375 
L 9.421875 64.59375 
z
" id="DejaVuSans-69"/>
     <path d="M 52 44.1875 
Q 55.375 50.25 60.0625 53.125 
Q 64.75 56 71.09375 56 
Q 79.640625 56 84.28125 50.015625 
Q 88.921875 44.046875 88.921875 33.015625 
L 88.921875 0 
L 79.890625 0 
L 79.890625 32.71875 
Q 79.890625 40.578125 77.09375 44.375 
Q 74.3125 48.1875 68.609375 48.1875 
Q 61.625 48.1875 57.5625 43.546875 
Q 53.515625 38.921875 53.515625 30.90625 
L 53.515625 0 
L 44.484375 0 
L 44.484375 32.71875 
Q 44.484375 40.625 41.703125 44.40625 
Q 38.921875 48.1875 33.109375 48.1875 
Q 26.21875 48.1875 22.15625 43.53125 
Q 18.109375 38.875 18.109375 30.90625 
L 18.109375 0 
L 9.078125 0 
L 9.078125 54.6875 
L 18.109375 54.6875 
L 18.109375 46.1875 
Q 21.1875 51.21875 25.484375 53.609375 
Q 29.78125 56 35.6875 56 
Q 41.65625 56 45.828125 52.96875 
Q 50 49.953125 52 44.1875 
z
" id="DejaVuSans-6d"/>
     <path d="M 8.5 21.578125 
L 8.5 54.6875 
L 17.484375 54.6875 
L 17.484375 21.921875 
Q 17.484375 14.15625 20.5 10.265625 
Q 23.53125 6.390625 29.59375 6.390625 
Q 36.859375 6.390625 41.078125 11.03125 
Q 45.3125 15.671875 45.3125 23.6875 
L 45.3125 54.6875 
L 54.296875 54.6875 
L 54.296875 0 
L 45.3125 0 
L 45.3125 8.40625 
Q 42.046875 3.421875 37.71875 1 
Q 33.40625 -1.421875 27.6875 -1.421875 
Q 18.265625 -1.421875 13.375 4.4375 
Q 8.5 10.296875 8.5 21.578125 
z
M 31.109375 56 
z
" id="DejaVuSans-75"/>
     <path d="M 9.421875 75.984375 
L 18.40625 75.984375 
L 18.40625 0 
L 9.421875 0 
z
" id="DejaVuSans-6c"/>
     <path d="M 34.28125 27.484375 
Q 23.390625 27.484375 19.1875 25 
Q 14.984375 22.515625 14.984375 16.5 
Q 14.984375 11.71875 18.140625 8.90625 
Q 21.296875 6.109375 26.703125 6.109375 
Q 34.1875 6.109375 38.703125 11.40625 
Q 43.21875 16.703125 43.21875 25.484375 
L 43.21875 27.484375 
z
M 52.203125 31.203125 
L 52.203125 0 
L 43.21875 0 
L 43.21875 8.296875 
Q 40.140625 3.328125 35.546875 0.953125 
Q 30.953125 -1.421875 24.3125 -1.421875 
Q 15.921875 -1.421875 10.953125 3.296875 
Q 6 8.015625 6 15.921875 
Q 6 25.140625 12.171875 29.828125 
Q 18.359375 34.515625 30.609375 34.515625 
L 43.21875 34.515625 
L 43.21875 35.40625 
Q 43.21875 41.609375 39.140625 45 
Q 35.0625 48.390625 27.6875 48.390625 
Q 23 48.390625 18.546875 47.265625 
Q 14.109375 46.140625 10.015625 43.890625 
L 10.015625 52.203125 
Q 14.9375 54.109375 19.578125 55.046875 
Q 24.21875 56 28.609375 56 
Q 40.484375 56 46.34375 49.84375 
Q 52.203125 43.703125 52.203125 31.203125 
z
" id="DejaVuSans-61"/>
     <path d="M 18.3125 70.21875 
L 18.3125 54.6875 
L 36.8125 54.6875 
L 36.8125 47.703125 
L 18.3125 47.703125 
L 18.3125 18.015625 
Q 18.3125 11.328125 20.140625 9.421875 
Q 21.96875 7.515625 27.59375 7.515625 
L 36.8125 7.515625 
L 36.8125 0 
L 27.59375 0 
Q 17.1875 0 13.234375 3.875 
Q 9.28125 7.765625 9.28125 18.015625 
L 9.28125 47.703125 
L 2.6875 47.703125 
L 2.6875 54.6875 
L 9.28125 54.6875 
L 9.28125 70.21875 
z
" id="DejaVuSans-74"/>
     <path d="M 56.203125 29.59375 
L 56.203125 25.203125 
L 14.890625 25.203125 
Q 15.484375 15.921875 20.484375 11.0625 
Q 25.484375 6.203125 34.421875 6.203125 
Q 39.59375 6.203125 44.453125 7.46875 
Q 49.3125 8.734375 54.109375 11.28125 
L 54.109375 2.78125 
Q 49.265625 0.734375 44.1875 -0.34375 
Q 39.109375 -1.421875 33.890625 -1.421875 
Q 20.796875 -1.421875 13.15625 6.1875 
Q 5.515625 13.8125 5.515625 26.8125 
Q 5.515625 40.234375 12.765625 48.109375 
Q 20.015625 56 32.328125 56 
Q 43.359375 56 49.78125 48.890625 
Q 56.203125 41.796875 56.203125 29.59375 
z
M 47.21875 32.234375 
Q 47.125 39.59375 43.09375 43.984375 
Q 39.0625 48.390625 32.421875 48.390625 
Q 24.90625 48.390625 20.390625 44.140625 
Q 15.875 39.890625 15.1875 32.171875 
z
" id="DejaVuSans-65"/>
     <path d="M 45.40625 46.390625 
L 45.40625 75.984375 
L 54.390625 75.984375 
L 54.390625 0 
L 45.40625 0 
L 45.40625 8.203125 
Q 42.578125 3.328125 38.25 0.953125 
Q 33.9375 -1.421875 27.875 -1.421875 
Q 17.96875 -1.421875 11.734375 6.484375 
Q 5.515625 14.40625 5.515625 27.296875 
Q 5.515625 40.1875 11.734375 48.09375 
Q 17.96875 56 27.875 56 
Q 33.9375 56 38.25 53.625 
Q 42.578125 51.265625 45.40625 46.390625 
z
M 14.796875 27.296875 
Q 14.796875 17.390625 18.875 11.75 
Q 22.953125 6.109375 30.078125 6.109375 
Q 37.203125 6.109375 41.296875 11.75 
Q 45.40625 17.390625 45.40625 27.296875 
Q 45.40625 37.203125 41.296875 42.84375 
Q 37.203125 48.484375 30.078125 48.484375 
Q 22.953125 48.484375 18.875 42.84375 
Q 14.796875 37.203125 14.796875 27.296875 
z
" id="DejaVuSans-64"/>
     <path id="DejaVuSans-20"/>
     <path d="M 19.671875 34.8125 
L 19.671875 8.109375 
L 35.5 8.109375 
Q 43.453125 8.109375 47.28125 11.40625 
Q 51.125 14.703125 51.125 21.484375 
Q 51.125 28.328125 47.28125 31.5625 
Q 43.453125 34.8125 35.5 34.8125 
z
M 19.671875 64.796875 
L 19.671875 42.828125 
L 34.28125 42.828125 
Q 41.5 42.828125 45.03125 45.53125 
Q 48.578125 48.25 48.578125 53.8125 
Q 48.578125 59.328125 45.03125 62.0625 
Q 41.5 64.796875 34.28125 64.796875 
z
M 9.8125 72.90625 
L 35.015625 72.90625 
Q 46.296875 72.90625 52.390625 68.21875 
Q 58.5 63.53125 58.5 54.890625 
Q 58.5 48.1875 55.375 44.234375 
Q 52.25 40.28125 46.1875 39.3125 
Q 53.46875 37.75 57.5 32.78125 
Q 61.53125 27.828125 61.53125 20.40625 
Q 61.53125 10.640625 54.890625 5.3125 
Q 48.25 0 35.984375 0 
L 9.8125 0 
z
" id="DejaVuSans-42"/>
     <path d="M 41.109375 46.296875 
Q 39.59375 47.171875 37.8125 47.578125 
Q 36.03125 48 33.890625 48 
Q 26.265625 48 22.1875 43.046875 
Q 18.109375 38.09375 18.109375 28.8125 
L 18.109375 0 
L 9.078125 0 
L 9.078125 54.6875 
L 18.109375 54.6875 
L 18.109375 46.1875 
Q 20.953125 51.171875 25.484375 53.578125 
Q 30.03125 56 36.53125 56 
Q 37.453125 56 38.578125 55.875 
Q 39.703125 55.765625 41.0625 55.515625 
z
" id="DejaVuSans-72"/>
     <path d="M 30.609375 48.390625 
Q 23.390625 48.390625 19.1875 42.75 
Q 14.984375 37.109375 14.984375 27.296875 
Q 14.984375 17.484375 19.15625 11.84375 
Q 23.34375 6.203125 30.609375 6.203125 
Q 37.796875 6.203125 41.984375 11.859375 
Q 46.1875 17.53125 46.1875 27.296875 
Q 46.1875 37.015625 41.984375 42.703125 
Q 37.796875 48.390625 30.609375 48.390625 
z
M 30.609375 56 
Q 42.328125 56 49.015625 48.375 
Q 55.71875 40.765625 55.71875 27.296875 
Q 55.71875 13.875 49.015625 6.21875 
Q 42.328125 -1.421875 30.609375 -1.421875 
Q 18.84375 -1.421875 12.171875 6.21875 
Q 5.515625 13.875 5.515625 27.296875 
Q 5.515625 40.765625 12.171875 48.375 
Q 18.84375 56 30.609375 56 
z
" id="DejaVuSans-6f"/>
     <path d="M 4.203125 54.6875 
L 13.1875 54.6875 
L 24.421875 12.015625 
L 35.59375 54.6875 
L 46.1875 54.6875 
L 57.421875 12.015625 
L 68.609375 54.6875 
L 77.59375 54.6875 
L 63.28125 0 
L 52.6875 0 
L 40.921875 44.828125 
L 29.109375 0 
L 18.5 0 
z
" id="DejaVuSans-77"/>
     <path d="M 54.890625 33.015625 
L 54.890625 0 
L 45.90625 0 
L 45.90625 32.71875 
Q 45.90625 40.484375 42.875 44.328125 
Q 39.84375 48.1875 33.796875 48.1875 
Q 26.515625 48.1875 22.3125 43.546875 
Q 18.109375 38.921875 18.109375 30.90625 
L 18.109375 0 
L 9.078125 0 
L 9.078125 54.6875 
L 18.109375 54.6875 
L 18.109375 46.1875 
Q 21.34375 51.125 25.703125 53.5625 
Q 30.078125 56 35.796875 56 
Q 45.21875 56 50.046875 50.171875 
Q 54.890625 44.34375 54.890625 33.015625 
z
" id="DejaVuSans-6e"/>
     <path d="M 9.8125 72.90625 
L 24.515625 72.90625 
L 43.109375 23.296875 
L 61.8125 72.90625 
L 76.515625 72.90625 
L 76.515625 0 
L 66.890625 0 
L 66.890625 64.015625 
L 48.09375 14.015625 
L 38.1875 14.015625 
L 19.390625 64.015625 
L 19.390625 0 
L 9.8125 0 
z
" id="DejaVuSans-4d"/>
     <path d="M 19.671875 64.796875 
L 19.671875 37.40625 
L 32.078125 37.40625 
Q 38.96875 37.40625 42.71875 40.96875 
Q 46.484375 44.53125 46.484375 51.125 
Q 46.484375 57.671875 42.71875 61.234375 
Q 38.96875 64.796875 32.078125 64.796875 
z
M 9.8125 72.90625 
L 32.078125 72.90625 
Q 44.34375 72.90625 50.609375 67.359375 
Q 56.890625 61.8125 56.890625 51.125 
Q 56.890625 40.328125 50.609375 34.8125 
Q 44.34375 29.296875 32.078125 29.296875 
L 19.671875 29.296875 
L 19.671875 0 
L 9.8125 0 
z
" id="DejaVuSans-50"/>
     <path d="M 54.890625 33.015625 
L 54.890625 0 
L 45.90625 0 
L 45.90625 32.71875 
Q 45.90625 40.484375 42.875 44.328125 
Q 39.84375 48.1875 33.796875 48.1875 
Q 26.515625 48.1875 22.3125 43.546875 
Q 18.109375 38.921875 18.109375 30.90625 
L 18.109375 0 
L 9.078125 0 
L 9.078125 75.984375 
L 18.109375 75.984375 
L 18.109375 46.1875 
Q 21.34375 51.125 25.703125 53.5625 
Q 30.078125 56 35.796875 56 
Q 45.21875 56 50.046875 50.171875 
Q 54.890625 44.34375 54.890625 33.015625 
z
" id="DejaVuSans-68"/>
    </defs>
    <g transform="translate(123.465 28.56)scale(0.12 -0.12)">
     <use xlink:href="#DejaVuSans-53"/>
     <use x="63.476562" xlink:href="#DejaVuSans-69"/>
     <use x="91.259766" xlink:href="#DejaVuSans-6d"/>
     <use x="188.671875" xlink:href="#DejaVuSans-75"/>
     <use x="252.050781" xlink:href="#DejaVuSans-6c"/>
     <use x="279.833984" xlink:href="#DejaVuSans-61"/>
     <use x="341.113281" xlink:href="#DejaVuSans-74"/>
     <use x="380.322266" xlink:href="#DejaVuSans-65"/>
     <use x="441.845703" xlink:href="#DejaVuSans-64"/>
     <use x="505.322266" xlink:href="#DejaVuSans-20"/>
     <use x="537.109375" xlink:href="#DejaVuSans-42"/>
     <use x="605.712891" xlink:href="#DejaVuSans-72"/>
     <use x="646.794922" xlink:href="#DejaVuSans-6f"/>
     <use x="707.976562" xlink:href="#DejaVuSans-77"/>
     <use x="789.763672" xlink:href="#DejaVuSans-6e"/>
     <use x="853.142578" xlink:href="#DejaVuSans-69"/>
     <use x="880.925781" xlink:href="#DejaVuSans-61"/>
     <use x="942.205078" xlink:href="#DejaVuSans-6e"/>
     <use x="1005.583984" xlink:href="#DejaVuSans-20"/>
     <use x="1037.371094" xlink:href="#DejaVuSans-4d"/>
     <use x="1123.650391" xlink:href="#DejaVuSans-6f"/>
     <use x="1184.832031" xlink:href="#DejaVuSans-74"/>
     <use x="1224.041016" xlink:href="#DejaVuSans-69"/>
     <use x="1251.824219" xlink:href="#DejaVuSans-6f"/>
     <use x="1313.005859" xlink:href="#DejaVuSans-6e"/>
     <use x="1376.384766" xlink:href="#DejaVuSans-20"/>
     <use x="1408.171875" xlink:href="#DejaVuSans-50"/>
     <use x="1468.412109" xlink:href="#DejaVuSans-61"/>
     <use x="1529.691406" xlink:href="#DejaVuSans-74"/>
     <use x="1568.900391" xlink:href="#DejaVuSans-68"/>
    </g>
   </g>
  </g>
 </g>
 <defs>
  <clipPath id="p5f77471134">
   <rect height="217.44" width="334.8" x="54" y="34.56"/>
  </clipPath>
 </defs>
</svg>
