<?xml version="1.0" encoding="utf-8" standalone="no"?>
<!DOCTYPE svg PUBLIC "-//W3C//DTD SVG 1.1//EN"
  "http://www.w3.org/Graphics/SVG/1.1/DTD/svg11.dtd">
<!-- Created with matplotlib (http://matplotlib.org/) -->
<svg height="288pt" version="1.1" viewBox="0 0 432 288" width="432pt" xmlns="http://www.w3.org/2000/svg" xmlns:xlink="http://www.w3.org/1999/xlink">
 <defs>
  <style type="text/css">
*{stroke-linecap:butt;stroke-linejoin:round;}
  </style>
 </defs>
 <g id="figure_1">
  <g id="patch_1">
   <path d="M 0 288 
L 432 288 
L 432 0 
L 0 0 
z
" style="fill:#ffffff;"/>
  </g>
  <g id="axes_1">
   <g id="patch_2">
    <path d="M 54 252 
L 388.8 252 
L 388.8 34.56 
L 54 34.56 
z
" style="fill:#ffffff;"/>
   </g>
   <g id="matplotlib.axis_1">
    <g id="xtick_1">
     <g id="line2d_1">
      <defs>
       <path d="M 0 0 
L 0 3.5 
" id="m44ed58258c" style="stroke:#000000;stroke-width:0.8;"/>
      </defs>
      <g>
       <use style="stroke:#000000;stroke-width:0.8;" x="54" xlink:href="#m44ed58258c" y="252"/>
      </g>
     </g>
     <g id="text_1">
      <!-- 0.0 -->
      <defs>
       <path d="M 31.78125 66.40625 
Q 24.171875 66.40625 20.328125 58.90625 
Q 16.5 51.421875 16.5 36.375 
Q 16.5 21.390625 20.328125 13.890625 
Q 24.171875 6.390625 31.78125 6.390625 
Q 39.453125 6.390625 43.28125 13.890625 
Q 47.125 21.390625 47.125 36.375 
Q 47.125 51.421875 43.28125 58.90625 
Q 39.453125 66.40625 31.78125 66.40625 
z
M 31.78125 74.21875 
Q 44.046875 74.21875 50.515625 64.515625 
Q 56.984375 54.828125 56.984375 36.375 
Q 56.984375 17.96875 50.515625 8.265625 
Q 44.046875 -1.421875 31.78125 -1.421875 
Q 19.53125 -1.421875 13.0625 8.265625 
Q 6.59375 17.96875 6.59375 36.375 
Q 6.59375 54.828125 13.0625 64.515625 
Q 19.53125 74.21875 31.78125 74.21875 
z
" id="DejaVuSans-30"/>
       <path d="M 10.6875 12.40625 
L 21 12.40625 
L 21 0 
L 10.6875 0 
z
" id="DejaVuSans-2e"/>
      </defs>
      <g transform="translate(46.048437 266.598437)scale(0.1 -0.1)">
       <use xlink:href="#DejaVuSans-30"/>
       <use x="63.623047" xlink:href="#DejaVuSans-2e"/>
       <use x="95.410156" xlink:href="#DejaVuSans-30"/>
      </g>
     </g>
    </g>
    <g id="xtick_2">
     <g id="line2d_2">
      <g>
       <use style="stroke:#000000;stroke-width:0.8;" x="120.96" xlink:href="#m44ed58258c" y="252"/>
      </g>
     </g>
     <g id="text_2">
      <!-- 0.2 -->
      <defs>
       <path d="M 19.1875 8.296875 
L 53.609375 8.296875 
L 53.609375 0 
L 7.328125 0 
L 7.328125 8.296875 
Q 12.9375 14.109375 22.625 23.890625 
Q 32.328125 33.6875 34.8125 36.53125 
Q 39.546875 41.84375 41.421875 45.53125 
Q 43.3125 49.21875 43.3125 52.78125 
Q 43.3125 58.59375 39.234375 62.25 
Q 35.15625 65.921875 28.609375 65.921875 
Q 23.96875 65.921875 18.8125 64.3125 
Q 13.671875 62.703125 7.8125 59.421875 
L 7.8125 69.390625 
Q 13.765625 71.78125 18.9375 73 
Q 24.125 74.21875 28.421875 74.21875 
Q 39.75 74.21875 46.484375 68.546875 
Q 53.21875 62.890625 53.21875 53.421875 
Q 53.21875 48.921875 51.53125 44.890625 
Q 49.859375 40.875 45.40625 35.40625 
Q 44.1875 33.984375 37.640625 27.21875 
Q 31.109375 20.453125 19.1875 8.296875 
z
" id="DejaVuSans-32"/>
      </defs>
      <g transform="translate(113.008438 266.598437)scale(0.1 -0.1)">
       <use xlink:href="#DejaVuSans-30"/>
       <use x="63.623047" xlink:href="#DejaVuSans-2e"/>
       <use x="95.410156" xlink:href="#DejaVuSans-32"/>
      </g>
     </g>
    </g>
    <g id="xtick_3">
     <g id="line2d_3">
      <g>
       <use style="stroke:#000000;stroke-width:0.8;" x="187.92" xlink:href="#m44ed58258c" y="252"/>
      </g>
     </g>
     <g id="text_3">
      <!-- 0.4 -->
      <defs>
       <path d="M 37.796875 64.3125 
L 12.890625 25.390625 
L 37.796875 25.390625 
z
M 35.203125 72.90625 
L 47.609375 72.90625 
L 47.609375 25.390625 
L 58.015625 25.390625 
L 58.015625 17.1875 
L 47.609375 17.1875 
L 47.609375 0 
L 37.796875 0 
L 37.796875 17.1875 
L 4.890625 17.1875 
L 4.890625 26.703125 
z
" id="DejaVuSans-34"/>
      </defs>
      <g transform="translate(179.968438 266.598437)scale(0.1 -0.1)">
       <use xlink:href="#DejaVuSans-30"/>
       <use x="63.623047" xlink:href="#DejaVuSans-2e"/>
       <use x="95.410156" xlink:href="#DejaVuSans-34"/>
      </g>
     </g>
    </g>
    <g id="xtick_4">
     <g id="line2d_4">
      <g>
       <use style="stroke:#000000;stroke-width:0.8;" x="254.88" xlink:href="#m44ed58258c" y="252"/>
      </g>
     </g>
     <g id="text_4">
      <!-- 0.6 -->
      <defs>
       <path d="M 33.015625 40.375 
Q 26.375 40.375 22.484375 35.828125 
Q 18.609375 31.296875 18.609375 23.390625 
Q 18.609375 15.53125 22.484375 10.953125 
Q 26.375 6.390625 33.015625 6.390625 
Q 39.65625 6.390625 43.53125 10.953125 
Q 47.40625 15.53125 47.40625 23.390625 
Q 47.40625 31.296875 43.53125 35.828125 
Q 39.65625 40.375 33.015625 40.375 
z
M 52.59375 71.296875 
L 52.59375 62.3125 
Q 48.875 64.0625 45.09375 64.984375 
Q 41.3125 65.921875 37.59375 65.921875 
Q 27.828125 65.921875 22.671875 59.328125 
Q 17.53125 52.734375 16.796875 39.40625 
Q 19.671875 43.65625 24.015625 45.921875 
Q 28.375 48.1875 33.59375 48.1875 
Q 44.578125 48.1875 50.953125 41.515625 
Q 57.328125 34.859375 57.328125 23.390625 
Q 57.328125 12.15625 50.6875 5.359375 
Q 44.046875 -1.421875 33.015625 -1.421875 
Q 20.359375 -1.421875 13.671875 8.265625 
Q 6.984375 17.96875 6.984375 36.375 
Q 6.984375 53.65625 15.1875 63.9375 
Q 23.390625 74.21875 37.203125 74.21875 
Q 40.921875 74.21875 44.703125 73.484375 
Q 48.484375 72.75 52.59375 71.296875 
z
" id="DejaVuSans-36"/>
      </defs>
      <g transform="translate(246.928438 266.598437)scale(0.1 -0.1)">
       <use xlink:href="#DejaVuSans-30"/>
       <use x="63.623047" xlink:href="#DejaVuSans-2e"/>
       <use x="95.410156" xlink:href="#DejaVuSans-36"/>
      </g>
     </g>
    </g>
    <g id="xtick_5">
     <g id="line2d_5">
      <g>
       <use style="stroke:#000000;stroke-width:0.8;" x="321.84" xlink:href="#m44ed58258c" y="252"/>
      </g>
     </g>
     <g id="text_5">
      <!-- 0.8 -->
      <defs>
       <path d="M 31.78125 34.625 
Q 24.75 34.625 20.71875 30.859375 
Q 16.703125 27.09375 16.703125 20.515625 
Q 16.703125 13.921875 20.71875 10.15625 
Q 24.75 6.390625 31.78125 6.390625 
Q 38.8125 6.390625 42.859375 10.171875 
Q 46.921875 13.96875 46.921875 20.515625 
Q 46.921875 27.09375 42.890625 30.859375 
Q 38.875 34.625 31.78125 34.625 
z
M 21.921875 38.8125 
Q 15.578125 40.375 12.03125 44.71875 
Q 8.5 49.078125 8.5 55.328125 
Q 8.5 64.0625 14.71875 69.140625 
Q 20.953125 74.21875 31.78125 74.21875 
Q 42.671875 74.21875 48.875 69.140625 
Q 55.078125 64.0625 55.078125 55.328125 
Q 55.078125 49.078125 51.53125 44.71875 
Q 48 40.375 41.703125 38.8125 
Q 48.828125 37.15625 52.796875 32.3125 
Q 56.78125 27.484375 56.78125 20.515625 
Q 56.78125 9.90625 50.3125 4.234375 
Q 43.84375 -1.421875 31.78125 -1.421875 
Q 19.734375 -1.421875 13.25 4.234375 
Q 6.78125 9.90625 6.78125 20.515625 
Q 6.78125 27.484375 10.78125 32.3125 
Q 14.796875 37.15625 21.921875 38.8125 
z
M 18.3125 54.390625 
Q 18.3125 48.734375 21.84375 45.5625 
Q 25.390625 42.390625 31.78125 42.390625 
Q 38.140625 42.390625 41.71875 45.5625 
Q 45.3125 48.734375 45.3125 54.390625 
Q 45.3125 60.0625 41.71875 63.234375 
Q 38.140625 66.40625 31.78125 66.40625 
Q 25.390625 66.40625 21.84375 63.234375 
Q 18.3125 60.0625 18.3125 54.390625 
z
" id="DejaVuSans-38"/>
      </defs>
      <g transform="translate(313.888438 266.598437)scale(0.1 -0.1)">
       <use xlink:href="#DejaVuSans-30"/>
       <use x="63.623047" xlink:href="#DejaVuSans-2e"/>
       <use x="95.410156" xlink:href="#DejaVuSans-38"/>
      </g>
     </g>
    </g>
    <g id="xtick_6">
     <g id="line2d_6">
      <g>
       <use style="stroke:#000000;stroke-width:0.8;" x="388.8" xlink:href="#m44ed58258c" y="252"/>
      </g>
     </g>
     <g id="text_6">
      <!-- 1.0 -->
      <defs>
       <path d="M 12.40625 8.296875 
L 28.515625 8.296875 
L 28.515625 63.921875 
L 10.984375 60.40625 
L 10.984375 69.390625 
L 28.421875 72.90625 
L 38.28125 72.90625 
L 38.28125 8.296875 
L 54.390625 8.296875 
L 54.390625 0 
L 12.40625 0 
z
" id="DejaVuSans-31"/>
      </defs>
      <g transform="translate(380.848437 266.598437)scale(0.1 -0.1)">
       <use xlink:href="#DejaVuSans-31"/>
       <use x="63.623047" xlink:href="#DejaVuSans-2e"/>
       <use x="95.410156" xlink:href="#DejaVuSans-30"/>
      </g>
     </g>
    </g>
    <g id="text_7">
     <!-- $t$ -->
     <defs>
      <path d="M 42.28125 54.6875 
L 40.921875 47.703125 
L 23 47.703125 
L 17.1875 18.015625 
Q 16.890625 16.359375 16.75 15.234375 
Q 16.609375 14.109375 16.609375 13.484375 
Q 16.609375 10.359375 18.484375 8.9375 
Q 20.359375 7.515625 24.515625 7.515625 
L 33.59375 7.515625 
L 32.078125 0 
L 23.484375 0 
Q 15.484375 0 11.546875 3.125 
Q 7.625 6.25 7.625 12.59375 
Q 7.625 13.71875 7.765625 15.0625 
Q 7.90625 16.40625 8.203125 18.015625 
L 14.015625 47.703125 
L 6.390625 47.703125 
L 7.8125 54.6875 
L 15.28125 54.6875 
L 18.3125 70.21875 
L 27.296875 70.21875 
L 24.3125 54.6875 
z
" id="DejaVuSans-Oblique-74"/>
     </defs>
     <g transform="translate(219.4 280.276563)scale(0.1 -0.1)">
      <use transform="translate(0 0.78125)" xlink:href="#DejaVuSans-Oblique-74"/>
     </g>
    </g>
   </g>
   <g id="matplotlib.axis_2">
    <g id="ytick_1">
     <g id="line2d_7">
      <defs>
       <path d="M 0 0 
L -3.5 0 
" id="m78a7aa5d9f" style="stroke:#000000;stroke-width:0.8;"/>
      </defs>
      <g>
       <use style="stroke:#000000;stroke-width:0.8;" x="54" xlink:href="#m78a7aa5d9f" y="227.997848"/>
      </g>
     </g>
     <g id="text_8">
      <!-- 0.25 -->
      <defs>
       <path d="M 10.796875 72.90625 
L 49.515625 72.90625 
L 49.515625 64.59375 
L 19.828125 64.59375 
L 19.828125 46.734375 
Q 21.96875 47.46875 24.109375 47.828125 
Q 26.265625 48.1875 28.421875 48.1875 
Q 40.625 48.1875 47.75 41.5 
Q 54.890625 34.8125 54.890625 23.390625 
Q 54.890625 11.625 47.5625 5.09375 
Q 40.234375 -1.421875 26.90625 -1.421875 
Q 22.3125 -1.421875 17.546875 -0.640625 
Q 12.796875 0.140625 7.71875 1.703125 
L 7.71875 11.625 
Q 12.109375 9.234375 16.796875 8.0625 
Q 21.484375 6.890625 26.703125 6.890625 
Q 35.15625 6.890625 40.078125 11.328125 
Q 45.015625 15.765625 45.015625 23.390625 
Q 45.015625 31 40.078125 35.4375 
Q 35.15625 39.890625 26.703125 39.890625 
Q 22.75 39.890625 18.8125 39.015625 
Q 14.890625 38.140625 10.796875 36.28125 
z
" id="DejaVuSans-35"/>
      </defs>
      <g transform="translate(24.734375 231.797067)scale(0.1 -0.1)">
       <use xlink:href="#DejaVuSans-30"/>
       <use x="63.623047" xlink:href="#DejaVuSans-2e"/>
       <use x="95.410156" xlink:href="#DejaVuSans-32"/>
       <use x="159.033203" xlink:href="#DejaVuSans-35"/>
      </g>
     </g>
    </g>
    <g id="ytick_2">
     <g id="line2d_8">
      <g>
       <use style="stroke:#000000;stroke-width:0.8;" x="54" xlink:href="#m78a7aa5d9f" y="200.476379"/>
      </g>
     </g>
     <g id="text_9">
      <!-- 0.50 -->
      <g transform="translate(24.734375 204.275597)scale(0.1 -0.1)">
       <use xlink:href="#DejaVuSans-30"/>
       <use x="63.623047" xlink:href="#DejaVuSans-2e"/>
       <use x="95.410156" xlink:href="#DejaVuSans-35"/>
       <use x="159.033203" xlink:href="#DejaVuSans-30"/>
      </g>
     </g>
    </g>
    <g id="ytick_3">
     <g id="line2d_9">
      <g>
       <use style="stroke:#000000;stroke-width:0.8;" x="54" xlink:href="#m78a7aa5d9f" y="172.954909"/>
      </g>
     </g>
     <g id="text_10">
      <!-- 0.75 -->
      <defs>
       <path d="M 8.203125 72.90625 
L 55.078125 72.90625 
L 55.078125 68.703125 
L 28.609375 0 
L 18.3125 0 
L 43.21875 64.59375 
L 8.203125 64.59375 
z
" id="DejaVuSans-37"/>
      </defs>
      <g transform="translate(24.734375 176.754128)scale(0.1 -0.1)">
       <use xlink:href="#DejaVuSans-30"/>
       <use x="63.623047" xlink:href="#DejaVuSans-2e"/>
       <use x="95.410156" xlink:href="#DejaVuSans-37"/>
       <use x="159.033203" xlink:href="#DejaVuSans-35"/>
      </g>
     </g>
    </g>
    <g id="ytick_4">
     <g id="line2d_10">
      <g>
       <use style="stroke:#000000;stroke-width:0.8;" x="54" xlink:href="#m78a7aa5d9f" y="145.43344"/>
      </g>
     </g>
     <g id="text_11">
      <!-- 1.00 -->
      <g transform="translate(24.734375 149.232659)scale(0.1 -0.1)">
       <use xlink:href="#DejaVuSans-31"/>
       <use x="63.623047" xlink:href="#DejaVuSans-2e"/>
       <use x="95.410156" xlink:href="#DejaVuSans-30"/>
       <use x="159.033203" xlink:href="#DejaVuSans-30"/>
      </g>
     </g>
    </g>
    <g id="ytick_5">
     <g id="line2d_11">
      <g>
       <use style="stroke:#000000;stroke-width:0.8;" x="54" xlink:href="#m78a7aa5d9f" y="117.91197"/>
      </g>
     </g>
     <g id="text_12">
      <!-- 1.25 -->
      <g transform="translate(24.734375 121.711189)scale(0.1 -0.1)">
       <use xlink:href="#DejaVuSans-31"/>
       <use x="63.623047" xlink:href="#DejaVuSans-2e"/>
       <use x="95.410156" xlink:href="#DejaVuSans-32"/>
       <use x="159.033203" xlink:href="#DejaVuSans-35"/>
      </g>
     </g>
    </g>
    <g id="ytick_6">
     <g id="line2d_12">
      <g>
       <use style="stroke:#000000;stroke-width:0.8;" x="54" xlink:href="#m78a7aa5d9f" y="90.390501"/>
      </g>
     </g>
     <g id="text_13">
      <!-- 1.50 -->
      <g transform="translate(24.734375 94.18972)scale(0.1 -0.1)">
       <use xlink:href="#DejaVuSans-31"/>
       <use x="63.623047" xlink:href="#DejaVuSans-2e"/>
       <use x="95.410156" xlink:href="#DejaVuSans-35"/>
       <use x="159.033203" xlink:href="#DejaVuSans-30"/>
      </g>
     </g>
    </g>
    <g id="ytick_7">
     <g id="line2d_13">
      <g>
       <use style="stroke:#000000;stroke-width:0.8;" x="54" xlink:href="#m78a7aa5d9f" y="62.869032"/>
      </g>
     </g>
     <g id="text_14">
      <!-- 1.75 -->
      <g transform="translate(24.734375 66.668251)scale(0.1 -0.1)">
       <use xlink:href="#DejaVuSans-31"/>
       <use x="63.623047" xlink:href="#DejaVuSans-2e"/>
       <use x="95.410156" xlink:href="#DejaVuSans-37"/>
       <use x="159.033203" xlink:href="#DejaVuSans-35"/>
      </g>
     </g>
    </g>
    <g id="ytick_8">
     <g id="line2d_14">
      <g>
       <use style="stroke:#000000;stroke-width:0.8;" x="54" xlink:href="#m78a7aa5d9f" y="35.347562"/>
      </g>
     </g>
     <g id="text_15">
      <!-- 2.00 -->
      <g transform="translate(24.734375 39.146781)scale(0.1 -0.1)">
       <use xlink:href="#DejaVuSans-32"/>
       <use x="63.623047" xlink:href="#DejaVuSans-2e"/>
       <use x="95.410156" xlink:href="#DejaVuSans-30"/>
       <use x="159.033203" xlink:href="#DejaVuSans-30"/>
      </g>
     </g>
    </g>
    <g id="text_16">
     <!-- $\exp(W_t)$ -->
     <defs>
      <path d="M 56.203125 29.59375 
L 56.203125 25.203125 
L 14.890625 25.203125 
Q 15.484375 15.921875 20.484375 11.0625 
Q 25.484375 6.203125 34.421875 6.203125 
Q 39.59375 6.203125 44.453125 7.46875 
Q 49.3125 8.734375 54.109375 11.28125 
L 54.109375 2.78125 
Q 49.265625 0.734375 44.1875 -0.34375 
Q 39.109375 -1.421875 33.890625 -1.421875 
Q 20.796875 -1.421875 13.15625 6.1875 
Q 5.515625 13.8125 5.515625 26.8125 
Q 5.515625 40.234375 12.765625 48.109375 
Q 20.015625 56 32.328125 56 
Q 43.359375 56 49.78125 48.890625 
Q 56.203125 41.796875 56.203125 29.59375 
z
M 47.21875 32.234375 
Q 47.125 39.59375 43.09375 43.984375 
Q 39.0625 48.390625 32.421875 48.390625 
Q 24.90625 48.390625 20.390625 44.140625 
Q 15.875 39.890625 15.1875 32.171875 
z
" id="DejaVuSans-65"/>
      <path d="M 54.890625 54.6875 
L 35.109375 28.078125 
L 55.90625 0 
L 45.3125 0 
L 29.390625 21.484375 
L 13.484375 0 
L 2.875 0 
L 24.125 28.609375 
L 4.6875 54.6875 
L 15.28125 54.6875 
L 29.78125 35.203125 
L 44.28125 54.6875 
z
" id="DejaVuSans-78"/>
      <path d="M 18.109375 8.203125 
L 18.109375 -20.796875 
L 9.078125 -20.796875 
L 9.078125 54.6875 
L 18.109375 54.6875 
L 18.109375 46.390625 
Q 20.953125 51.265625 25.265625 53.625 
Q 29.59375 56 35.59375 56 
Q 45.5625 56 51.78125 48.09375 
Q 58.015625 40.1875 58.015625 27.296875 
Q 58.015625 14.40625 51.78125 6.484375 
Q 45.5625 -1.421875 35.59375 -1.421875 
Q 29.59375 -1.421875 25.265625 0.953125 
Q 20.953125 3.328125 18.109375 8.203125 
z
M 48.6875 27.296875 
Q 48.6875 37.203125 44.609375 42.84375 
Q 40.53125 48.484375 33.40625 48.484375 
Q 26.265625 48.484375 22.1875 42.84375 
Q 18.109375 37.203125 18.109375 27.296875 
Q 18.109375 17.390625 22.1875 11.75 
Q 26.265625 6.109375 33.40625 6.109375 
Q 40.53125 6.109375 44.609375 11.75 
Q 48.6875 17.390625 48.6875 27.296875 
z
" id="DejaVuSans-70"/>
      <path d="M 31 75.875 
Q 24.46875 64.65625 21.28125 53.65625 
Q 18.109375 42.671875 18.109375 31.390625 
Q 18.109375 20.125 21.3125 9.0625 
Q 24.515625 -2 31 -13.1875 
L 23.1875 -13.1875 
Q 15.875 -1.703125 12.234375 9.375 
Q 8.59375 20.453125 8.59375 31.390625 
Q 8.59375 42.28125 12.203125 53.3125 
Q 15.828125 64.359375 23.1875 75.875 
z
" id="DejaVuSans-28"/>
      <path d="M 9.625 72.90625 
L 19.1875 72.90625 
L 22.703125 10.890625 
L 50.203125 72.90625 
L 61.1875 72.90625 
L 64.796875 10.890625 
L 92 72.90625 
L 102 72.90625 
L 69.578125 0 
L 57.171875 0 
L 53.8125 60.796875 
L 26.515625 0 
L 14.109375 0 
z
" id="DejaVuSans-Oblique-57"/>
      <path d="M 8.015625 75.875 
L 15.828125 75.875 
Q 23.140625 64.359375 26.78125 53.3125 
Q 30.421875 42.28125 30.421875 31.390625 
Q 30.421875 20.453125 26.78125 9.375 
Q 23.140625 -1.703125 15.828125 -13.1875 
L 8.015625 -13.1875 
Q 14.5 -2 17.703125 9.0625 
Q 20.90625 20.125 20.90625 31.390625 
Q 20.90625 42.671875 17.703125 53.65625 
Q 14.5 64.65625 8.015625 75.875 
z
" id="DejaVuSans-29"/>
     </defs>
     <g transform="translate(18.634375 162.88)rotate(-90)scale(0.1 -0.1)">
      <use transform="translate(0 0.125)" xlink:href="#DejaVuSans-65"/>
      <use transform="translate(61.523438 0.125)" xlink:href="#DejaVuSans-78"/>
      <use transform="translate(120.703125 0.125)" xlink:href="#DejaVuSans-70"/>
      <use transform="translate(184.179688 0.125)" xlink:href="#DejaVuSans-28"/>
      <use transform="translate(223.193359 0.125)" xlink:href="#DejaVuSans-Oblique-57"/>
      <use transform="translate(322.070312 -16.28125)scale(0.7)" xlink:href="#DejaVuSans-Oblique-74"/>
      <use transform="translate(352.250977 0.125)" xlink:href="#DejaVuSans-29"/>
     </g>
    </g>
   </g>
   <g id="line2d_15">
    <path clip-path="url(#p3ac8d9c0d9)" d="M 54 145.43344 
L 54.3348 139.117867 
L 54.6696 137.635554 
L 55.0044 133.929954 
L 55.674 117.060889 
L 56.0088 121.274398 
L 56.3436 117.179885 
L 57.0132 118.289102 
L 57.348 116.49565 
L 57.6828 115.860945 
L 58.0176 109.28834 
L 58.3524 105.726438 
L 58.6872 105.14897 
L 59.3568 101.40585 
L 59.6916 93.949709 
L 60.0264 94.994527 
L 60.3612 93.397428 
L 60.696 97.717555 
L 61.0308 109.956613 
L 61.3656 106.916634 
L 61.7004 102.798419 
L 62.0352 106.340942 
L 62.37 95.239895 
L 62.7048 102.444378 
L 63.0396 102.222716 
L 63.3744 103.12744 
L 64.044 87.950975 
L 64.3788 87.127898 
L 64.7136 85.102092 
L 65.0484 89.819894 
L 65.3832 99.880638 
L 65.718 101.583582 
L 66.0528 100.82061 
L 66.7224 88.450267 
L 67.392 92.054269 
L 68.0616 104.329498 
L 68.3964 112.271069 
L 68.7312 103.155977 
L 69.4008 107.65452 
L 69.7356 113.397941 
L 70.0704 109.860378 
L 70.4052 117.107707 
L 70.74 118.035738 
L 71.0748 121.874275 
L 71.4096 120.229093 
L 71.7444 122.396891 
L 72.0792 127.275364 
L 72.414 127.389604 
L 72.7488 125.642274 
L 73.0836 125.368796 
L 73.4184 124.117933 
L 73.7532 126.727457 
L 74.088 128.196373 
L 74.4228 130.875319 
L 74.7576 132.284503 
L 75.0924 135.412961 
L 75.4272 141.7938 
L 75.762 141.153926 
L 76.0968 142.597795 
L 76.4316 148.271556 
L 76.7664 146.690502 
L 77.1012 149.768574 
L 77.436 149.594719 
L 77.7708 147.124164 
L 78.1056 146.681139 
L 78.4404 142.688085 
L 78.7752 147.009075 
L 79.11 145.619662 
L 80.1144 152.792801 
L 80.4492 153.79991 
L 80.784 153.619085 
L 81.1188 157.3053 
L 81.4536 154.467282 
L 81.7884 152.968227 
L 82.1232 157.831112 
L 82.458 153.123743 
L 82.7928 146.797034 
L 83.1276 142.667788 
L 83.4624 143.308058 
L 83.7972 147.043945 
L 84.132 143.365886 
L 84.4668 144.786718 
L 84.8016 140.422301 
L 85.1364 139.661744 
L 85.4712 136.027767 
L 85.806 134.673565 
L 86.1408 131.94302 
L 86.4756 131.901981 
L 86.8104 124.7199 
L 87.1452 124.193906 
L 87.48 122.513839 
L 87.8148 114.352715 
L 88.4844 125.569985 
L 88.8192 121.524699 
L 89.154 126.40448 
L 89.4888 118.219783 
L 89.8236 120.003938 
L 90.1584 123.169501 
L 91.1628 99.163749 
L 91.4976 94.61911 
L 91.8324 98.941989 
L 92.1672 89.193012 
L 92.502 90.596673 
L 93.1716 81.214223 
L 93.5064 82.06655 
L 93.8412 78.665372 
L 94.176 73.431887 
L 94.5108 71.251435 
L 94.8456 77.54763 
L 95.1804 75.861218 
L 95.5152 68.165369 
L 95.85 72.235579 
L 96.1848 73.100803 
L 96.5196 75.593829 
L 96.8544 64.758254 
L 97.1892 60.65929 
L 97.524 58.132258 
L 97.8588 62.879988 
L 98.1936 59.566826 
L 98.5284 63.701133 
L 98.8632 63.507957 
L 99.198 67.330215 
L 99.8676 59.723685 
L 100.2024 61.00915 
L 100.5372 58.558016 
L 101.2068 74.014186 
L 101.5416 71.474609 
L 101.8764 70.502007 
L 102.2112 66.749034 
L 102.546 51.97322 
L 102.8808 45.8022 
L 103.2156 51.76935 
L 103.5504 44.443636 
L 103.8852 53.046812 
L 104.22 55.980755 
L 104.5548 56.410892 
L 104.8896 45.325472 
L 105.5592 55.513854 
L 105.894 56.135571 
L 106.2288 60.275267 
L 106.5636 53.193841 
L 107.2332 66.954635 
L 107.9028 72.4533 
L 108.2376 60.935307 
L 108.5724 55.004665 
L 108.9072 54.448749 
L 109.242 62.091528 
L 109.5768 56.857223 
L 109.9116 63.042489 
L 110.2464 72.219011 
L 110.5812 65.201647 
L 110.916 63.284577 
L 111.2508 57.604377 
L 111.5856 55.599495 
L 111.9204 50.108541 
L 112.2552 54.294149 
L 112.59 60.768887 
L 112.9248 56.525689 
L 113.5944 65.702159 
L 113.9292 68.416914 
L 114.264 68.313466 
L 114.5988 70.397413 
L 114.9336 78.273996 
L 115.2684 81.845006 
L 115.6032 93.636684 
L 115.938 90.404162 
L 116.2728 98.560787 
L 116.6076 103.947741 
L 116.9424 103.697502 
L 117.2772 107.206966 
L 117.612 99.790688 
L 117.9468 106.029061 
L 118.2816 104.761287 
L 118.6164 104.948447 
L 118.9512 110.408819 
L 119.286 107.987631 
L 119.6208 108.78579 
L 120.2904 101.193533 
L 120.6252 90.267021 
L 120.96 83.132981 
L 121.2948 85.133812 
L 121.6296 86.418733 
L 121.9644 80.434942 
L 122.634 73.11386 
L 122.9688 82.206291 
L 123.3036 82.339563 
L 123.6384 86.334534 
L 123.9732 84.830263 
L 124.308 85.359224 
L 124.6428 80.390448 
L 124.9776 78.624833 
L 125.3124 74.171053 
L 125.6472 76.826214 
L 125.982 82.084157 
L 126.3168 84.318557 
L 126.6516 84.410678 
L 126.9864 82.346766 
L 127.3212 69.521651 
L 127.656 69.770032 
L 127.9908 75.301142 
L 128.6604 79.856367 
L 128.9952 77.161296 
L 129.33 85.643343 
L 129.6648 85.303163 
L 129.9996 84.458646 
L 130.3344 83.19806 
L 130.6692 86.422453 
L 131.004 87.68992 
L 131.3388 95.080093 
L 132.0084 100.251997 
L 132.3432 98.195701 
L 132.678 103.843838 
L 133.0128 100.050234 
L 133.3476 92.526418 
L 133.6824 102.854014 
L 134.0172 100.782232 
L 134.352 97.43427 
L 134.6868 100.588972 
L 135.0216 102.523161 
L 135.3564 103.164711 
L 136.026 106.060345 
L 136.3608 113.775401 
L 137.0304 103.409539 
L 137.3652 107.272043 
L 137.7 113.989666 
L 138.0348 111.63829 
L 138.3696 114.234371 
L 138.7044 113.598724 
L 139.0392 115.024634 
L 139.7088 108.728594 
L 140.0436 112.058418 
L 140.7132 124.903568 
L 141.048 122.357949 
L 141.3828 127.271218 
L 142.0524 131.667898 
L 142.3872 131.873608 
L 142.722 139.217377 
L 143.0568 138.521012 
L 143.3916 136.566569 
L 143.7264 136.233494 
L 144.0612 137.400457 
L 144.396 137.036083 
L 144.7308 135.531475 
L 145.0656 145.603657 
L 145.4004 138.590574 
L 145.7352 137.139227 
L 146.07 139.556502 
L 146.4048 140.981328 
L 146.7396 139.178957 
L 147.0744 139.60532 
L 147.4092 146.814879 
L 147.744 139.481329 
L 148.0788 139.886243 
L 148.4136 136.095015 
L 148.7484 138.68017 
L 149.0832 132.86344 
L 149.418 131.74775 
L 149.7528 129.341646 
L 150.0876 133.444125 
L 150.4224 128.677984 
L 150.7572 125.880672 
L 151.092 120.43233 
L 151.7616 125.08815 
L 152.0964 115.230696 
L 152.4312 119.855318 
L 152.766 120.4373 
L 153.1008 115.492523 
L 153.4356 115.059124 
L 153.7704 112.445781 
L 154.1052 114.241674 
L 154.44 112.578705 
L 154.7748 118.364102 
L 155.1096 110.980524 
L 155.4444 111.519611 
L 155.7792 114.583846 
L 156.114 111.582415 
L 156.4488 113.664264 
L 157.1184 125.195028 
L 157.4532 122.304244 
L 158.1228 123.533992 
L 158.4576 118.958236 
L 158.7924 123.738689 
L 159.1272 126.748711 
L 159.462 128.306475 
L 159.7968 127.926349 
L 160.1316 128.096391 
L 160.4664 129.247165 
L 160.8012 129.493004 
L 161.136 129.919923 
L 161.8056 135.861943 
L 162.1404 134.818679 
L 162.81 142.388885 
L 163.1448 143.500612 
L 163.4796 144.057733 
L 163.8144 135.812704 
L 164.1492 138.450811 
L 164.8188 132.022427 
L 165.1536 136.579428 
L 165.4884 133.635211 
L 165.8232 138.1139 
L 166.158 147.582866 
L 166.4928 145.493378 
L 166.8276 151.436176 
L 167.1624 149.941339 
L 167.4972 152.200504 
L 168.1668 142.891546 
L 168.5016 144.494805 
L 168.8364 146.883662 
L 169.1712 150.975407 
L 169.506 152.422969 
L 170.1756 154.504649 
L 170.5104 154.002838 
L 170.8452 152.128557 
L 171.18 150.979017 
L 171.5148 153.474889 
L 171.8496 158.010644 
L 172.1844 153.711019 
L 172.854 157.940348 
L 173.1888 159.535411 
L 173.5236 164.969736 
L 174.1932 167.670738 
L 174.8628 163.929578 
L 175.1976 163.918655 
L 175.5324 161.179237 
L 175.8672 160.15955 
L 176.202 160.206828 
L 176.5368 159.720547 
L 176.8716 160.296379 
L 177.5412 162.270802 
L 177.876 165.538429 
L 178.2108 164.736899 
L 178.5456 167.543646 
L 178.8804 165.170762 
L 179.2152 165.880679 
L 179.55 165.74027 
L 180.2196 162.453077 
L 180.5544 166.962528 
L 180.8892 167.540052 
L 181.224 165.056866 
L 181.5588 169.786469 
L 181.8936 168.730053 
L 182.2284 174.704873 
L 182.5632 177.276173 
L 182.898 177.180532 
L 183.2328 181.17904 
L 183.5676 183.460096 
L 183.9024 186.737131 
L 184.2372 183.057237 
L 184.572 182.679938 
L 184.9068 181.36146 
L 185.2416 181.881816 
L 185.5764 182.700243 
L 185.9112 186.329028 
L 186.246 186.964627 
L 186.5808 188.595741 
L 186.9156 186.755255 
L 187.2504 184.228604 
L 187.5852 180.844467 
L 187.92 178.803845 
L 188.2548 180.242492 
L 188.5896 182.852521 
L 188.9244 181.069256 
L 189.2592 180.225687 
L 189.594 184.320981 
L 189.9288 183.516102 
L 190.2636 181.637397 
L 190.5984 181.499598 
L 190.9332 181.93149 
L 191.268 183.787132 
L 191.6028 186.994492 
L 191.9376 185.238159 
L 192.6072 186.433752 
L 192.942 182.542686 
L 193.2768 180.945826 
L 193.6116 180.066191 
L 193.9464 179.726464 
L 194.9508 169.045456 
L 195.2856 167.438591 
L 195.6204 173.083784 
L 195.9552 172.760629 
L 196.29 173.100427 
L 196.6248 172.855191 
L 196.9596 170.352877 
L 197.2944 177.420785 
L 197.6292 178.81423 
L 197.964 178.156741 
L 198.2988 179.290451 
L 198.6336 182.630611 
L 198.9684 180.599927 
L 199.3032 179.941093 
L 199.638 182.226752 
L 199.9728 181.493452 
L 200.3076 179.544997 
L 200.6424 179.53228 
L 200.9772 177.584029 
L 201.312 177.390916 
L 201.6468 178.361307 
L 201.9816 181.139003 
L 202.3164 181.340848 
L 202.6512 180.883686 
L 202.986 178.787666 
L 203.3208 179.066463 
L 203.6556 177.952554 
L 204.3252 182.122072 
L 204.66 182.377842 
L 204.9948 184.776903 
L 205.3296 182.917945 
L 205.6644 181.84684 
L 206.334 180.392907 
L 206.6688 175.43475 
L 207.0036 176.613387 
L 207.3384 181.919636 
L 207.6732 181.454315 
L 208.008 181.57274 
L 208.3428 182.773056 
L 208.6776 184.990302 
L 209.0124 185.963066 
L 209.3472 185.563055 
L 209.682 186.666595 
L 210.0168 181.208372 
L 210.6864 185.217063 
L 211.0212 190.125263 
L 211.356 189.603135 
L 211.6908 193.675038 
L 212.0256 194.721095 
L 212.3604 195.248798 
L 212.6952 196.586417 
L 213.03 193.255063 
L 213.3648 191.266023 
L 213.6996 188.529021 
L 214.0344 190.372514 
L 214.3692 188.005484 
L 214.704 186.938186 
L 215.0388 185.244646 
L 215.3736 182.9193 
L 215.7084 184.975959 
L 216.0432 185.916194 
L 216.378 183.991451 
L 216.7128 189.752917 
L 217.0476 186.529101 
L 217.3824 185.311738 
L 217.7172 185.413134 
L 218.052 184.922571 
L 218.3868 187.184826 
L 218.7216 187.936859 
L 219.3912 182.611959 
L 219.726 176.123026 
L 220.0608 176.308414 
L 221.0652 181.610372 
L 221.4 181.792111 
L 221.7348 180.894364 
L 222.0696 180.975127 
L 222.4044 178.345393 
L 222.7392 178.914874 
L 223.074 179.751947 
L 223.4088 181.13193 
L 224.0784 188.291924 
L 224.4132 190.752554 
L 225.4176 183.008329 
L 225.7524 185.999637 
L 226.0872 190.195513 
L 226.422 191.544873 
L 226.7568 191.188192 
L 227.0916 190.16565 
L 227.4264 187.963557 
L 227.7612 187.353512 
L 228.096 183.491595 
L 228.4308 183.996847 
L 228.7656 186.032464 
L 229.1004 189.630234 
L 229.4352 191.456698 
L 229.77 190.964323 
L 230.1048 192.753308 
L 230.4396 190.866216 
L 230.7744 187.913246 
L 231.1092 192.794017 
L 231.444 191.056498 
L 231.7788 195.463999 
L 232.1136 194.696644 
L 232.4484 192.294529 
L 232.7832 192.164727 
L 233.118 194.677335 
L 233.4528 195.793338 
L 234.1224 196.625858 
L 234.4572 197.002518 
L 234.792 197.205499 
L 235.1268 196.810501 
L 235.4616 199.011925 
L 235.7964 199.442745 
L 236.1312 196.684739 
L 236.8008 198.206123 
L 237.1356 196.2183 
L 237.4704 200.828384 
L 237.8052 198.74657 
L 238.14 199.869775 
L 238.8096 199.409899 
L 239.1444 197.712475 
L 239.4792 198.199578 
L 239.814 199.415492 
L 240.1488 197.065004 
L 240.4836 201.275786 
L 240.8184 201.240895 
L 241.1532 203.505905 
L 241.488 204.743584 
L 241.8228 201.40926 
L 242.1576 201.485514 
L 242.4924 201.151168 
L 242.8272 204.129475 
L 243.162 205.300686 
L 243.4968 204.98757 
L 243.8316 204.417492 
L 244.1664 203.410828 
L 244.5012 203.396608 
L 245.1708 201.754682 
L 245.5056 204.777294 
L 245.8404 204.71788 
L 246.51 202.489121 
L 246.8448 203.095801 
L 247.1796 204.414481 
L 247.5144 206.190176 
L 247.8492 206.394188 
L 248.184 204.602064 
L 248.5188 207.64973 
L 248.8536 208.638304 
L 249.1884 210.29798 
L 249.5232 209.161424 
L 250.1928 210.639872 
L 250.5276 210.946716 
L 250.8624 210.314488 
L 251.1972 210.871943 
L 251.532 214.972066 
L 252.2016 213.692705 
L 252.5364 213.982081 
L 252.8712 215.381858 
L 253.5408 214.443203 
L 253.8756 215.049233 
L 254.2104 215.325653 
L 254.5452 216.490696 
L 254.88 216.710488 
L 255.2148 218.56735 
L 255.5496 218.076471 
L 255.8844 219.178116 
L 256.2192 218.903453 
L 256.554 220.495751 
L 256.8888 221.143206 
L 257.2236 221.263106 
L 257.5584 223.015681 
L 257.8932 222.89711 
L 258.228 223.285905 
L 258.8976 226.245507 
L 259.2324 225.679942 
L 259.5672 224.822812 
L 259.902 224.95059 
L 260.2368 224.556805 
L 260.9064 224.010124 
L 261.2412 222.702348 
L 261.576 224.229577 
L 261.9108 223.55303 
L 262.5804 224.160046 
L 263.25 224.824655 
L 263.5848 225.992083 
L 263.9196 225.820396 
L 264.2544 224.208908 
L 264.924 224.265806 
L 265.2588 224.937751 
L 265.5936 225.051147 
L 265.9284 224.598674 
L 266.598 225.394016 
L 266.9328 225.007388 
L 267.2676 225.880412 
L 267.6024 225.642809 
L 267.9372 224.857647 
L 268.272 223.510266 
L 268.6068 223.601622 
L 269.2764 221.08276 
L 269.946 223.411449 
L 270.2808 223.719603 
L 270.6156 222.667893 
L 270.9504 222.742903 
L 271.2852 223.359597 
L 271.62 221.741612 
L 271.9548 221.433762 
L 272.2896 223.84551 
L 272.6244 223.52624 
L 272.9592 222.995759 
L 273.294 222.762895 
L 273.6288 222.293733 
L 273.9636 222.364343 
L 274.2984 223.7182 
L 274.6332 224.088818 
L 275.6376 227.061066 
L 275.9724 226.650931 
L 276.3072 226.561423 
L 276.9768 227.549198 
L 277.3116 227.569908 
L 277.6464 226.599613 
L 277.9812 228.375635 
L 278.316 228.050204 
L 278.6508 228.52017 
L 279.3204 231.600131 
L 279.6552 232.280683 
L 279.99 232.118811 
L 280.3248 231.826134 
L 280.6596 232.519318 
L 280.9944 231.767591 
L 281.3292 230.674382 
L 281.664 230.361233 
L 281.9988 230.827362 
L 282.6684 229.315046 
L 283.0032 228.586318 
L 283.338 229.139662 
L 283.6728 231.401362 
L 284.0076 229.731675 
L 284.3424 231.012412 
L 284.6772 231.040115 
L 285.012 229.126032 
L 285.3468 228.848676 
L 285.6816 228.035944 
L 286.3512 230.743787 
L 286.686 231.157649 
L 287.0208 230.302693 
L 287.3556 230.577293 
L 287.6904 231.196242 
L 288.0252 231.043495 
L 288.36 230.191594 
L 289.0296 232.231606 
L 289.3644 232.805217 
L 289.6992 232.00519 
L 290.034 231.829931 
L 290.3688 230.177605 
L 290.7036 229.415939 
L 291.0384 229.444892 
L 291.3732 228.380632 
L 291.708 228.198517 
L 292.0428 228.800802 
L 292.3776 228.220061 
L 292.7124 228.814615 
L 293.0472 229.058726 
L 293.382 227.924039 
L 293.7168 228.01228 
L 294.0516 228.702094 
L 294.3864 229.092992 
L 294.7212 228.225163 
L 295.3908 229.02406 
L 295.7256 229.44818 
L 296.0604 229.296102 
L 296.3952 229.613829 
L 296.73 230.893378 
L 297.3996 232.270649 
L 298.0692 230.708889 
L 298.404 230.243835 
L 298.7388 230.644548 
L 299.0736 231.278051 
L 299.4084 231.663997 
L 299.7432 232.444453 
L 300.078 230.548388 
L 300.4128 232.259925 
L 300.7476 231.84136 
L 301.0824 232.783912 
L 301.4172 232.858807 
L 302.4216 235.108105 
L 302.7564 233.943311 
L 303.0912 234.033857 
L 303.426 234.54785 
L 303.7608 234.176008 
L 304.0956 234.169021 
L 304.4304 233.67731 
L 304.7652 234.901678 
L 305.1 234.702778 
L 305.4348 234.187866 
L 305.7696 235.279775 
L 306.1044 234.990874 
L 306.4392 233.859705 
L 306.774 233.869879 
L 307.4436 232.82397 
L 307.7784 233.326101 
L 308.1132 233.298175 
L 308.448 234.372456 
L 308.7828 234.67211 
L 309.1176 234.496218 
L 309.4524 234.009956 
L 309.7872 233.993209 
L 310.122 233.497483 
L 310.4568 234.252298 
L 311.1264 234.307654 
L 311.4612 233.03 
L 311.796 233.181795 
L 312.1308 233.531521 
L 312.4656 233.51667 
L 312.8004 234.146971 
L 313.1352 234.0163 
L 313.47 234.263105 
L 313.8048 235.433731 
L 314.1396 235.470909 
L 314.4744 235.671219 
L 314.8092 236.669817 
L 315.144 236.709791 
L 315.4788 235.802715 
L 316.1484 235.08334 
L 316.4832 235.932141 
L 316.818 235.634511 
L 317.1528 235.540945 
L 317.8224 234.930566 
L 318.1572 235.797118 
L 318.492 235.822922 
L 318.8268 236.289354 
L 319.1616 236.319786 
L 319.4964 236.856978 
L 319.8312 236.066119 
L 320.5008 237.118016 
L 320.8356 237.074563 
L 321.1704 237.692229 
L 321.5052 237.930029 
L 321.84 238.385668 
L 322.1748 237.603759 
L 322.5096 237.152993 
L 322.8444 237.18634 
L 323.1792 237.411747 
L 323.514 236.864871 
L 324.1836 236.324353 
L 324.5184 236.340245 
L 324.8532 237.337297 
L 325.188 237.401846 
L 325.5228 237.704369 
L 325.8576 237.33724 
L 326.1924 236.746056 
L 326.5272 237.132621 
L 326.862 236.858257 
L 327.1968 235.805253 
L 327.5316 236.21715 
L 327.8664 235.162733 
L 328.2012 235.704237 
L 329.2056 235.689623 
L 329.8752 236.565678 
L 330.21 236.961692 
L 330.8796 236.572104 
L 331.2144 235.190338 
L 331.5492 234.289601 
L 331.884 234.629136 
L 332.2188 234.413419 
L 332.5536 233.737312 
L 333.558 233.728676 
L 333.8928 233.122782 
L 334.2276 233.71561 
L 334.5624 233.939005 
L 335.232 233.398776 
L 335.5668 233.230548 
L 335.9016 233.489678 
L 336.2364 232.801646 
L 336.5712 231.21578 
L 336.906 230.901415 
L 337.2408 231.051342 
L 337.5756 230.459549 
L 338.2452 231.460356 
L 338.58 231.435381 
L 338.9148 233.324255 
L 339.2496 234.119578 
L 339.5844 234.35376 
L 340.254 235.892001 
L 340.5888 236.161215 
L 340.9236 237.141287 
L 341.5932 237.680299 
L 341.928 237.665962 
L 342.2628 237.002303 
L 342.9324 236.888611 
L 343.602 236.695049 
L 343.9368 237.290662 
L 344.2716 237.356703 
L 344.6064 237.178503 
L 344.9412 237.956542 
L 345.6108 236.84121 
L 345.9456 237.210436 
L 346.2804 237.349634 
L 346.6152 237.847279 
L 346.95 237.452084 
L 347.2848 238.048337 
L 347.6196 238.17082 
L 347.9544 238.635689 
L 348.2892 238.608462 
L 348.624 239.541246 
L 348.9588 238.856768 
L 349.2936 239.357361 
L 349.6284 239.326721 
L 349.9632 239.435179 
L 350.6328 240.252841 
L 350.9676 239.794018 
L 351.3024 240.053247 
L 351.6372 239.920053 
L 352.3068 240.618552 
L 352.6416 240.394358 
L 352.9764 239.942739 
L 353.3112 240.028856 
L 353.646 240.709958 
L 353.9808 239.744098 
L 354.3156 240.165658 
L 354.6504 240.896187 
L 354.9852 239.645874 
L 355.32 239.847393 
L 355.6548 240.555325 
L 355.9896 240.875261 
L 356.6592 240.614634 
L 356.994 241.010719 
L 357.3288 240.149879 
L 357.6636 240.4013 
L 357.9984 240.95719 
L 358.3332 240.508007 
L 358.668 239.863656 
L 359.0028 240.26319 
L 359.3376 240.924497 
L 359.6724 240.441086 
L 360.0072 241.386353 
L 360.342 241.924063 
L 360.6768 241.501711 
L 362.016 241.554471 
L 362.3508 242.116364 
L 363.0204 240.967312 
L 363.69 240.851596 
L 364.0248 239.725246 
L 364.6944 239.990701 
L 365.0292 239.810684 
L 365.6988 238.212412 
L 366.0336 238.35335 
L 366.3684 238.185158 
L 366.7032 238.924337 
L 367.038 239.087251 
L 367.7076 240.019572 
L 368.0424 239.173048 
L 368.712 239.84326 
L 369.0468 239.660848 
L 369.3816 238.996463 
L 369.7164 238.743159 
L 370.0512 237.213531 
L 370.386 237.256704 
L 371.0556 236.945506 
L 371.3904 236.083205 
L 371.7252 235.76893 
L 372.06 235.841389 
L 372.3948 236.422238 
L 372.7296 236.274046 
L 373.0644 235.402024 
L 373.3992 235.661408 
L 373.734 235.326458 
L 374.0688 235.168666 
L 374.4036 234.605296 
L 374.7384 235.130812 
L 375.0732 233.56028 
L 375.408 234.430812 
L 375.7428 234.673186 
L 376.0776 234.04552 
L 376.4124 233.843071 
L 376.7472 233.266615 
L 377.082 233.612994 
L 377.7516 233.656298 
L 378.0864 232.543989 
L 378.756 231.437738 
L 379.0908 231.93359 
L 379.4256 231.199768 
L 379.7604 231.025664 
L 380.0952 229.925708 
L 380.43 228.242617 
L 381.0996 228.850803 
L 381.4344 229.569615 
L 381.7692 229.68717 
L 382.104 229.997363 
L 382.4388 229.70556 
L 382.7736 229.823301 
L 383.1084 230.115456 
L 383.4432 229.245673 
L 383.778 230.013464 
L 384.1128 229.661731 
L 384.4476 229.991543 
L 384.7824 229.400042 
L 385.1172 228.230435 
L 385.452 228.490744 
L 385.7868 228.111144 
L 386.1216 227.955741 
L 386.4564 228.643813 
L 387.126 228.189662 
L 387.4608 227.830503 
L 387.7956 228.003677 
L 388.1304 227.921596 
L 388.4652 228.905179 
L 388.8 229.204873 
L 388.8 229.204873 
" style="fill:none;stroke:#1f77b4;stroke-linecap:square;stroke-width:1.5;"/>
   </g>
   <g id="patch_3">
    <path d="M 54 252 
L 54 34.56 
" style="fill:none;stroke:#000000;stroke-linecap:square;stroke-linejoin:miter;stroke-width:0.8;"/>
   </g>
   <g id="patch_4">
    <path d="M 388.8 252 
L 388.8 34.56 
" style="fill:none;stroke:#000000;stroke-linecap:square;stroke-linejoin:miter;stroke-width:0.8;"/>
   </g>
   <g id="patch_5">
    <path d="M 54 252 
L 388.8 252 
" style="fill:none;stroke:#000000;stroke-linecap:square;stroke-linejoin:miter;stroke-width:0.8;"/>
   </g>
   <g id="patch_6">
    <path d="M 54 34.56 
L 388.8 34.56 
" style="fill:none;stroke:#000000;stroke-linecap:square;stroke-linejoin:miter;stroke-width:0.8;"/>
   </g>
   <g id="text_17">
    <!-- Simulated GBM Path, $\mu=0$, $\sigma=1$. -->
    <defs>
     <path d="M 53.515625 70.515625 
L 53.515625 60.890625 
Q 47.90625 63.578125 42.921875 64.890625 
Q 37.9375 66.21875 33.296875 66.21875 
Q 25.25 66.21875 20.875 63.09375 
Q 16.5 59.96875 16.5 54.203125 
Q 16.5 49.359375 19.40625 46.890625 
Q 22.3125 44.4375 30.421875 42.921875 
L 36.375 41.703125 
Q 47.40625 39.59375 52.65625 34.296875 
Q 57.90625 29 57.90625 20.125 
Q 57.90625 9.515625 50.796875 4.046875 
Q 43.703125 -1.421875 29.984375 -1.421875 
Q 24.8125 -1.421875 18.96875 -0.25 
Q 13.140625 0.921875 6.890625 3.21875 
L 6.890625 13.375 
Q 12.890625 10.015625 18.65625 8.296875 
Q 24.421875 6.59375 29.984375 6.59375 
Q 38.421875 6.59375 43.015625 9.90625 
Q 47.609375 13.234375 47.609375 19.390625 
Q 47.609375 24.75 44.3125 27.78125 
Q 41.015625 30.8125 33.5 32.328125 
L 27.484375 33.5 
Q 16.453125 35.6875 11.515625 40.375 
Q 6.59375 45.0625 6.59375 53.421875 
Q 6.59375 63.09375 13.40625 68.65625 
Q 20.21875 74.21875 32.171875 74.21875 
Q 37.3125 74.21875 42.625 73.28125 
Q 47.953125 72.359375 53.515625 70.515625 
z
" id="DejaVuSans-53"/>
     <path d="M 9.421875 54.6875 
L 18.40625 54.6875 
L 18.40625 0 
L 9.421875 0 
z
M 9.421875 75.984375 
L 18.40625 75.984375 
L 18.40625 64.59375 
L 9.421875 64.59375 
z
" id="DejaVuSans-69"/>
     <path d="M 52 44.1875 
Q 55.375 50.25 60.0625 53.125 
Q 64.75 56 71.09375 56 
Q 79.640625 56 84.28125 50.015625 
Q 88.921875 44.046875 88.921875 33.015625 
L 88.921875 0 
L 79.890625 0 
L 79.890625 32.71875 
Q 79.890625 40.578125 77.09375 44.375 
Q 74.3125 48.1875 68.609375 48.1875 
Q 61.625 48.1875 57.5625 43.546875 
Q 53.515625 38.921875 53.515625 30.90625 
L 53.515625 0 
L 44.484375 0 
L 44.484375 32.71875 
Q 44.484375 40.625 41.703125 44.40625 
Q 38.921875 48.1875 33.109375 48.1875 
Q 26.21875 48.1875 22.15625 43.53125 
Q 18.109375 38.875 18.109375 30.90625 
L 18.109375 0 
L 9.078125 0 
L 9.078125 54.6875 
L 18.109375 54.6875 
L 18.109375 46.1875 
Q 21.1875 51.21875 25.484375 53.609375 
Q 29.78125 56 35.6875 56 
Q 41.65625 56 45.828125 52.96875 
Q 50 49.953125 52 44.1875 
z
" id="DejaVuSans-6d"/>
     <path d="M 8.5 21.578125 
L 8.5 54.6875 
L 17.484375 54.6875 
L 17.484375 21.921875 
Q 17.484375 14.15625 20.5 10.265625 
Q 23.53125 6.390625 29.59375 6.390625 
Q 36.859375 6.390625 41.078125 11.03125 
Q 45.3125 15.671875 45.3125 23.6875 
L 45.3125 54.6875 
L 54.296875 54.6875 
L 54.296875 0 
L 45.3125 0 
L 45.3125 8.40625 
Q 42.046875 3.421875 37.71875 1 
Q 33.40625 -1.421875 27.6875 -1.421875 
Q 18.265625 -1.421875 13.375 4.4375 
Q 8.5 10.296875 8.5 21.578125 
z
M 31.109375 56 
z
" id="DejaVuSans-75"/>
     <path d="M 9.421875 75.984375 
L 18.40625 75.984375 
L 18.40625 0 
L 9.421875 0 
z
" id="DejaVuSans-6c"/>
     <path d="M 34.28125 27.484375 
Q 23.390625 27.484375 19.1875 25 
Q 14.984375 22.515625 14.984375 16.5 
Q 14.984375 11.71875 18.140625 8.90625 
Q 21.296875 6.109375 26.703125 6.109375 
Q 34.1875 6.109375 38.703125 11.40625 
Q 43.21875 16.703125 43.21875 25.484375 
L 43.21875 27.484375 
z
M 52.203125 31.203125 
L 52.203125 0 
L 43.21875 0 
L 43.21875 8.296875 
Q 40.140625 3.328125 35.546875 0.953125 
Q 30.953125 -1.421875 24.3125 -1.421875 
Q 15.921875 -1.421875 10.953125 3.296875 
Q 6 8.015625 6 15.921875 
Q 6 25.140625 12.171875 29.828125 
Q 18.359375 34.515625 30.609375 34.515625 
L 43.21875 34.515625 
L 43.21875 35.40625 
Q 43.21875 41.609375 39.140625 45 
Q 35.0625 48.390625 27.6875 48.390625 
Q 23 48.390625 18.546875 47.265625 
Q 14.109375 46.140625 10.015625 43.890625 
L 10.015625 52.203125 
Q 14.9375 54.109375 19.578125 55.046875 
Q 24.21875 56 28.609375 56 
Q 40.484375 56 46.34375 49.84375 
Q 52.203125 43.703125 52.203125 31.203125 
z
" id="DejaVuSans-61"/>
     <path d="M 18.3125 70.21875 
L 18.3125 54.6875 
L 36.8125 54.6875 
L 36.8125 47.703125 
L 18.3125 47.703125 
L 18.3125 18.015625 
Q 18.3125 11.328125 20.140625 9.421875 
Q 21.96875 7.515625 27.59375 7.515625 
L 36.8125 7.515625 
L 36.8125 0 
L 27.59375 0 
Q 17.1875 0 13.234375 3.875 
Q 9.28125 7.765625 9.28125 18.015625 
L 9.28125 47.703125 
L 2.6875 47.703125 
L 2.6875 54.6875 
L 9.28125 54.6875 
L 9.28125 70.21875 
z
" id="DejaVuSans-74"/>
     <path d="M 45.40625 46.390625 
L 45.40625 75.984375 
L 54.390625 75.984375 
L 54.390625 0 
L 45.40625 0 
L 45.40625 8.203125 
Q 42.578125 3.328125 38.25 0.953125 
Q 33.9375 -1.421875 27.875 -1.421875 
Q 17.96875 -1.421875 11.734375 6.484375 
Q 5.515625 14.40625 5.515625 27.296875 
Q 5.515625 40.1875 11.734375 48.09375 
Q 17.96875 56 27.875 56 
Q 33.9375 56 38.25 53.625 
Q 42.578125 51.265625 45.40625 46.390625 
z
M 14.796875 27.296875 
Q 14.796875 17.390625 18.875 11.75 
Q 22.953125 6.109375 30.078125 6.109375 
Q 37.203125 6.109375 41.296875 11.75 
Q 45.40625 17.390625 45.40625 27.296875 
Q 45.40625 37.203125 41.296875 42.84375 
Q 37.203125 48.484375 30.078125 48.484375 
Q 22.953125 48.484375 18.875 42.84375 
Q 14.796875 37.203125 14.796875 27.296875 
z
" id="DejaVuSans-64"/>
     <path id="DejaVuSans-20"/>
     <path d="M 59.515625 10.40625 
L 59.515625 29.984375 
L 43.40625 29.984375 
L 43.40625 38.09375 
L 69.28125 38.09375 
L 69.28125 6.78125 
Q 63.578125 2.734375 56.6875 0.65625 
Q 49.8125 -1.421875 42 -1.421875 
Q 24.90625 -1.421875 15.25 8.5625 
Q 5.609375 18.5625 5.609375 36.375 
Q 5.609375 54.25 15.25 64.234375 
Q 24.90625 74.21875 42 74.21875 
Q 49.125 74.21875 55.546875 72.453125 
Q 61.96875 70.703125 67.390625 67.28125 
L 67.390625 56.78125 
Q 61.921875 61.421875 55.765625 63.765625 
Q 49.609375 66.109375 42.828125 66.109375 
Q 29.4375 66.109375 22.71875 58.640625 
Q 16.015625 51.171875 16.015625 36.375 
Q 16.015625 21.625 22.71875 14.15625 
Q 29.4375 6.6875 42.828125 6.6875 
Q 48.046875 6.6875 52.140625 7.59375 
Q 56.25 8.5 59.515625 10.40625 
z
" id="DejaVuSans-47"/>
     <path d="M 19.671875 34.8125 
L 19.671875 8.109375 
L 35.5 8.109375 
Q 43.453125 8.109375 47.28125 11.40625 
Q 51.125 14.703125 51.125 21.484375 
Q 51.125 28.328125 47.28125 31.5625 
Q 43.453125 34.8125 35.5 34.8125 
z
M 19.671875 64.796875 
L 19.671875 42.828125 
L 34.28125 42.828125 
Q 41.5 42.828125 45.03125 45.53125 
Q 48.578125 48.25 48.578125 53.8125 
Q 48.578125 59.328125 45.03125 62.0625 
Q 41.5 64.796875 34.28125 64.796875 
z
M 9.8125 72.90625 
L 35.015625 72.90625 
Q 46.296875 72.90625 52.390625 68.21875 
Q 58.5 63.53125 58.5 54.890625 
Q 58.5 48.1875 55.375 44.234375 
Q 52.25 40.28125 46.1875 39.3125 
Q 53.46875 37.75 57.5 32.78125 
Q 61.53125 27.828125 61.53125 20.40625 
Q 61.53125 10.640625 54.890625 5.3125 
Q 48.25 0 35.984375 0 
L 9.8125 0 
z
" id="DejaVuSans-42"/>
     <path d="M 9.8125 72.90625 
L 24.515625 72.90625 
L 43.109375 23.296875 
L 61.8125 72.90625 
L 76.515625 72.90625 
L 76.515625 0 
L 66.890625 0 
L 66.890625 64.015625 
L 48.09375 14.015625 
L 38.1875 14.015625 
L 19.390625 64.015625 
L 19.390625 0 
L 9.8125 0 
z
" id="DejaVuSans-4d"/>
     <path d="M 19.671875 64.796875 
L 19.671875 37.40625 
L 32.078125 37.40625 
Q 38.96875 37.40625 42.71875 40.96875 
Q 46.484375 44.53125 46.484375 51.125 
Q 46.484375 57.671875 42.71875 61.234375 
Q 38.96875 64.796875 32.078125 64.796875 
z
M 9.8125 72.90625 
L 32.078125 72.90625 
Q 44.34375 72.90625 50.609375 67.359375 
Q 56.890625 61.8125 56.890625 51.125 
Q 56.890625 40.328125 50.609375 34.8125 
Q 44.34375 29.296875 32.078125 29.296875 
L 19.671875 29.296875 
L 19.671875 0 
L 9.8125 0 
z
" id="DejaVuSans-50"/>
     <path d="M 54.890625 33.015625 
L 54.890625 0 
L 45.90625 0 
L 45.90625 32.71875 
Q 45.90625 40.484375 42.875 44.328125 
Q 39.84375 48.1875 33.796875 48.1875 
Q 26.515625 48.1875 22.3125 43.546875 
Q 18.109375 38.921875 18.109375 30.90625 
L 18.109375 0 
L 9.078125 0 
L 9.078125 75.984375 
L 18.109375 75.984375 
L 18.109375 46.1875 
Q 21.34375 51.125 25.703125 53.5625 
Q 30.078125 56 35.796875 56 
Q 45.21875 56 50.046875 50.171875 
Q 54.890625 44.34375 54.890625 33.015625 
z
" id="DejaVuSans-68"/>
     <path d="M 11.71875 12.40625 
L 22.015625 12.40625 
L 22.015625 4 
L 14.015625 -11.625 
L 7.71875 -11.625 
L 11.71875 4 
z
" id="DejaVuSans-2c"/>
     <path d="M -1.3125 -20.796875 
L 13.375 54.6875 
L 22.40625 54.6875 
L 15.765625 20.65625 
Q 15.578125 19.625 15.421875 18.359375 
Q 15.28125 17.09375 15.28125 15.828125 
Q 15.28125 11.28125 18.140625 8.828125 
Q 21 6.390625 26.3125 6.390625 
Q 33.546875 6.390625 37.984375 10.484375 
Q 42.4375 14.59375 44 22.796875 
L 50.203125 54.6875 
L 59.1875 54.6875 
L 51.03125 12.640625 
Q 50.828125 11.71875 50.75 11.03125 
Q 50.6875 10.359375 50.6875 9.8125 
Q 50.6875 8.296875 51.296875 7.59375 
Q 51.90625 6.890625 53.21875 6.890625 
Q 53.71875 6.890625 54.5625 7.125 
Q 55.421875 7.375 56.984375 8.015625 
L 55.609375 0.78125 
Q 53.46875 -0.296875 51.515625 -0.859375 
Q 49.5625 -1.421875 47.703125 -1.421875 
Q 44.484375 -1.421875 42.65625 0.625 
Q 40.828125 2.6875 40.828125 6.296875 
Q 38.09375 2.390625 34.296875 0.484375 
Q 30.515625 -1.421875 25.390625 -1.421875 
Q 20.84375 -1.421875 17.453125 0.671875 
Q 14.0625 2.78125 12.984375 6.203125 
L 7.71875 -20.796875 
z
" id="DejaVuSans-Oblique-3bc"/>
     <path d="M 10.59375 45.40625 
L 73.1875 45.40625 
L 73.1875 37.203125 
L 10.59375 37.203125 
z
M 10.59375 25.484375 
L 73.1875 25.484375 
L 73.1875 17.1875 
L 10.59375 17.1875 
z
" id="DejaVuSans-3d"/>
     <path d="M 34.671875 47.5625 
Q 27.25 47.5625 22.21875 42.1875 
Q 16.890625 36.578125 15.140625 27.296875 
Q 13.1875 17.484375 16.3125 11.8125 
Q 19.390625 6.203125 26.65625 6.203125 
Q 33.84375 6.203125 39.109375 11.859375 
Q 44.4375 17.53125 46.34375 27.296875 
Q 48.046875 36.234375 45.015625 42.1875 
Q 42.1875 47.5625 34.671875 47.5625 
z
M 36.078125 54.734375 
L 65.921875 54.6875 
L 64.15625 45.703125 
L 54.109375 45.703125 
Q 57.90625 38.09375 55.859375 27.296875 
Q 53.21875 13.875 45.0625 6.25 
Q 36.859375 -1.421875 25.140625 -1.421875 
Q 13.375 -1.421875 8.203125 6.25 
Q 3.03125 13.875 5.671875 27.296875 
Q 8.25 40.765625 16.40625 48.390625 
Q 23.1875 54.734375 36.078125 54.734375 
z
" id="DejaVuSans-Oblique-3c3"/>
    </defs>
    <g transform="translate(120.3 28.56)scale(0.12 -0.12)">
     <use transform="translate(0 0.015625)" xlink:href="#DejaVuSans-53"/>
     <use transform="translate(63.476562 0.015625)" xlink:href="#DejaVuSans-69"/>
     <use transform="translate(91.259766 0.015625)" xlink:href="#DejaVuSans-6d"/>
     <use transform="translate(188.671875 0.015625)" xlink:href="#DejaVuSans-75"/>
     <use transform="translate(252.050781 0.015625)" xlink:href="#DejaVuSans-6c"/>
     <use transform="translate(279.833984 0.015625)" xlink:href="#DejaVuSans-61"/>
     <use transform="translate(341.113281 0.015625)" xlink:href="#DejaVuSans-74"/>
     <use transform="translate(380.322266 0.015625)" xlink:href="#DejaVuSans-65"/>
     <use transform="translate(441.845703 0.015625)" xlink:href="#DejaVuSans-64"/>
     <use transform="translate(505.322266 0.015625)" xlink:href="#DejaVuSans-20"/>
     <use transform="translate(537.109375 0.015625)" xlink:href="#DejaVuSans-47"/>
     <use transform="translate(614.599609 0.015625)" xlink:href="#DejaVuSans-42"/>
     <use transform="translate(683.203125 0.015625)" xlink:href="#DejaVuSans-4d"/>
     <use transform="translate(769.482422 0.015625)" xlink:href="#DejaVuSans-20"/>
     <use transform="translate(801.269531 0.015625)" xlink:href="#DejaVuSans-50"/>
     <use transform="translate(861.572266 0.015625)" xlink:href="#DejaVuSans-61"/>
     <use transform="translate(922.851562 0.015625)" xlink:href="#DejaVuSans-74"/>
     <use transform="translate(962.060547 0.015625)" xlink:href="#DejaVuSans-68"/>
     <use transform="translate(1025.439453 0.015625)" xlink:href="#DejaVuSans-2c"/>
     <use transform="translate(1057.226562 0.015625)" xlink:href="#DejaVuSans-20"/>
     <use transform="translate(1089.013672 0.015625)" xlink:href="#DejaVuSans-Oblique-3bc"/>
     <use transform="translate(1172.119141 0.015625)" xlink:href="#DejaVuSans-3d"/>
     <use transform="translate(1275.390625 0.015625)" xlink:href="#DejaVuSans-30"/>
     <use transform="translate(1339.013672 0.015625)" xlink:href="#DejaVuSans-2c"/>
     <use transform="translate(1370.800781 0.015625)" xlink:href="#DejaVuSans-20"/>
     <use transform="translate(1402.587891 0.015625)" xlink:href="#DejaVuSans-Oblique-3c3"/>
     <use transform="translate(1485.449219 0.015625)" xlink:href="#DejaVuSans-3d"/>
     <use transform="translate(1588.720703 0.015625)" xlink:href="#DejaVuSans-31"/>
     <use transform="translate(1652.34375 0.015625)" xlink:href="#DejaVuSans-2e"/>
    </g>
   </g>
  </g>
 </g>
 <defs>
  <clipPath id="p3ac8d9c0d9">
   <rect height="217.44" width="334.8" x="54" y="34.56"/>
  </clipPath>
 </defs>
</svg>
