<?xml version="1.0" encoding="utf-8" standalone="no"?>
<!DOCTYPE svg PUBLIC "-//W3C//DTD SVG 1.1//EN"
  "http://www.w3.org/Graphics/SVG/1.1/DTD/svg11.dtd">
<!-- Created with matplotlib (http://matplotlib.org/) -->
<svg height="288pt" version="1.1" viewBox="0 0 432 288" width="432pt" xmlns="http://www.w3.org/2000/svg" xmlns:xlink="http://www.w3.org/1999/xlink">
 <defs>
  <style type="text/css">
*{stroke-linecap:butt;stroke-linejoin:round;}
  </style>
 </defs>
 <g id="figure_1">
  <g id="patch_1">
   <path d="M 0 288 
L 432 288 
L 432 0 
L 0 0 
z
" style="fill:#ffffff;"/>
  </g>
  <g id="axes_1">
   <g id="patch_2">
    <path d="M 54 252 
L 388.8 252 
L 388.8 34.56 
L 54 34.56 
z
" style="fill:#ffffff;"/>
   </g>
   <g id="matplotlib.axis_1">
    <g id="xtick_1">
     <g id="line2d_1">
      <defs>
       <path d="M 0 0 
L 0 3.5 
" id="m1b3cc31b22" style="stroke:#000000;stroke-width:0.8;"/>
      </defs>
      <g>
       <use style="stroke:#000000;stroke-width:0.8;" x="54" xlink:href="#m1b3cc31b22" y="252"/>
      </g>
     </g>
     <g id="text_1">
      <!-- 0.0 -->
      <defs>
       <path d="M 31.78125 66.40625 
Q 24.171875 66.40625 20.328125 58.90625 
Q 16.5 51.421875 16.5 36.375 
Q 16.5 21.390625 20.328125 13.890625 
Q 24.171875 6.390625 31.78125 6.390625 
Q 39.453125 6.390625 43.28125 13.890625 
Q 47.125 21.390625 47.125 36.375 
Q 47.125 51.421875 43.28125 58.90625 
Q 39.453125 66.40625 31.78125 66.40625 
z
M 31.78125 74.21875 
Q 44.046875 74.21875 50.515625 64.515625 
Q 56.984375 54.828125 56.984375 36.375 
Q 56.984375 17.96875 50.515625 8.265625 
Q 44.046875 -1.421875 31.78125 -1.421875 
Q 19.53125 -1.421875 13.0625 8.265625 
Q 6.59375 17.96875 6.59375 36.375 
Q 6.59375 54.828125 13.0625 64.515625 
Q 19.53125 74.21875 31.78125 74.21875 
z
" id="DejaVuSans-30"/>
       <path d="M 10.6875 12.40625 
L 21 12.40625 
L 21 0 
L 10.6875 0 
z
" id="DejaVuSans-2e"/>
      </defs>
      <g transform="translate(46.048437 266.598437)scale(0.1 -0.1)">
       <use xlink:href="#DejaVuSans-30"/>
       <use x="63.623047" xlink:href="#DejaVuSans-2e"/>
       <use x="95.410156" xlink:href="#DejaVuSans-30"/>
      </g>
     </g>
    </g>
    <g id="xtick_2">
     <g id="line2d_2">
      <g>
       <use style="stroke:#000000;stroke-width:0.8;" x="120.96" xlink:href="#m1b3cc31b22" y="252"/>
      </g>
     </g>
     <g id="text_2">
      <!-- 0.2 -->
      <defs>
       <path d="M 19.1875 8.296875 
L 53.609375 8.296875 
L 53.609375 0 
L 7.328125 0 
L 7.328125 8.296875 
Q 12.9375 14.109375 22.625 23.890625 
Q 32.328125 33.6875 34.8125 36.53125 
Q 39.546875 41.84375 41.421875 45.53125 
Q 43.3125 49.21875 43.3125 52.78125 
Q 43.3125 58.59375 39.234375 62.25 
Q 35.15625 65.921875 28.609375 65.921875 
Q 23.96875 65.921875 18.8125 64.3125 
Q 13.671875 62.703125 7.8125 59.421875 
L 7.8125 69.390625 
Q 13.765625 71.78125 18.9375 73 
Q 24.125 74.21875 28.421875 74.21875 
Q 39.75 74.21875 46.484375 68.546875 
Q 53.21875 62.890625 53.21875 53.421875 
Q 53.21875 48.921875 51.53125 44.890625 
Q 49.859375 40.875 45.40625 35.40625 
Q 44.1875 33.984375 37.640625 27.21875 
Q 31.109375 20.453125 19.1875 8.296875 
z
" id="DejaVuSans-32"/>
      </defs>
      <g transform="translate(113.008438 266.598437)scale(0.1 -0.1)">
       <use xlink:href="#DejaVuSans-30"/>
       <use x="63.623047" xlink:href="#DejaVuSans-2e"/>
       <use x="95.410156" xlink:href="#DejaVuSans-32"/>
      </g>
     </g>
    </g>
    <g id="xtick_3">
     <g id="line2d_3">
      <g>
       <use style="stroke:#000000;stroke-width:0.8;" x="187.92" xlink:href="#m1b3cc31b22" y="252"/>
      </g>
     </g>
     <g id="text_3">
      <!-- 0.4 -->
      <defs>
       <path d="M 37.796875 64.3125 
L 12.890625 25.390625 
L 37.796875 25.390625 
z
M 35.203125 72.90625 
L 47.609375 72.90625 
L 47.609375 25.390625 
L 58.015625 25.390625 
L 58.015625 17.1875 
L 47.609375 17.1875 
L 47.609375 0 
L 37.796875 0 
L 37.796875 17.1875 
L 4.890625 17.1875 
L 4.890625 26.703125 
z
" id="DejaVuSans-34"/>
      </defs>
      <g transform="translate(179.968438 266.598437)scale(0.1 -0.1)">
       <use xlink:href="#DejaVuSans-30"/>
       <use x="63.623047" xlink:href="#DejaVuSans-2e"/>
       <use x="95.410156" xlink:href="#DejaVuSans-34"/>
      </g>
     </g>
    </g>
    <g id="xtick_4">
     <g id="line2d_4">
      <g>
       <use style="stroke:#000000;stroke-width:0.8;" x="254.88" xlink:href="#m1b3cc31b22" y="252"/>
      </g>
     </g>
     <g id="text_4">
      <!-- 0.6 -->
      <defs>
       <path d="M 33.015625 40.375 
Q 26.375 40.375 22.484375 35.828125 
Q 18.609375 31.296875 18.609375 23.390625 
Q 18.609375 15.53125 22.484375 10.953125 
Q 26.375 6.390625 33.015625 6.390625 
Q 39.65625 6.390625 43.53125 10.953125 
Q 47.40625 15.53125 47.40625 23.390625 
Q 47.40625 31.296875 43.53125 35.828125 
Q 39.65625 40.375 33.015625 40.375 
z
M 52.59375 71.296875 
L 52.59375 62.3125 
Q 48.875 64.0625 45.09375 64.984375 
Q 41.3125 65.921875 37.59375 65.921875 
Q 27.828125 65.921875 22.671875 59.328125 
Q 17.53125 52.734375 16.796875 39.40625 
Q 19.671875 43.65625 24.015625 45.921875 
Q 28.375 48.1875 33.59375 48.1875 
Q 44.578125 48.1875 50.953125 41.515625 
Q 57.328125 34.859375 57.328125 23.390625 
Q 57.328125 12.15625 50.6875 5.359375 
Q 44.046875 -1.421875 33.015625 -1.421875 
Q 20.359375 -1.421875 13.671875 8.265625 
Q 6.984375 17.96875 6.984375 36.375 
Q 6.984375 53.65625 15.1875 63.9375 
Q 23.390625 74.21875 37.203125 74.21875 
Q 40.921875 74.21875 44.703125 73.484375 
Q 48.484375 72.75 52.59375 71.296875 
z
" id="DejaVuSans-36"/>
      </defs>
      <g transform="translate(246.928438 266.598437)scale(0.1 -0.1)">
       <use xlink:href="#DejaVuSans-30"/>
       <use x="63.623047" xlink:href="#DejaVuSans-2e"/>
       <use x="95.410156" xlink:href="#DejaVuSans-36"/>
      </g>
     </g>
    </g>
    <g id="xtick_5">
     <g id="line2d_5">
      <g>
       <use style="stroke:#000000;stroke-width:0.8;" x="321.84" xlink:href="#m1b3cc31b22" y="252"/>
      </g>
     </g>
     <g id="text_5">
      <!-- 0.8 -->
      <defs>
       <path d="M 31.78125 34.625 
Q 24.75 34.625 20.71875 30.859375 
Q 16.703125 27.09375 16.703125 20.515625 
Q 16.703125 13.921875 20.71875 10.15625 
Q 24.75 6.390625 31.78125 6.390625 
Q 38.8125 6.390625 42.859375 10.171875 
Q 46.921875 13.96875 46.921875 20.515625 
Q 46.921875 27.09375 42.890625 30.859375 
Q 38.875 34.625 31.78125 34.625 
z
M 21.921875 38.8125 
Q 15.578125 40.375 12.03125 44.71875 
Q 8.5 49.078125 8.5 55.328125 
Q 8.5 64.0625 14.71875 69.140625 
Q 20.953125 74.21875 31.78125 74.21875 
Q 42.671875 74.21875 48.875 69.140625 
Q 55.078125 64.0625 55.078125 55.328125 
Q 55.078125 49.078125 51.53125 44.71875 
Q 48 40.375 41.703125 38.8125 
Q 48.828125 37.15625 52.796875 32.3125 
Q 56.78125 27.484375 56.78125 20.515625 
Q 56.78125 9.90625 50.3125 4.234375 
Q 43.84375 -1.421875 31.78125 -1.421875 
Q 19.734375 -1.421875 13.25 4.234375 
Q 6.78125 9.90625 6.78125 20.515625 
Q 6.78125 27.484375 10.78125 32.3125 
Q 14.796875 37.15625 21.921875 38.8125 
z
M 18.3125 54.390625 
Q 18.3125 48.734375 21.84375 45.5625 
Q 25.390625 42.390625 31.78125 42.390625 
Q 38.140625 42.390625 41.71875 45.5625 
Q 45.3125 48.734375 45.3125 54.390625 
Q 45.3125 60.0625 41.71875 63.234375 
Q 38.140625 66.40625 31.78125 66.40625 
Q 25.390625 66.40625 21.84375 63.234375 
Q 18.3125 60.0625 18.3125 54.390625 
z
" id="DejaVuSans-38"/>
      </defs>
      <g transform="translate(313.888438 266.598437)scale(0.1 -0.1)">
       <use xlink:href="#DejaVuSans-30"/>
       <use x="63.623047" xlink:href="#DejaVuSans-2e"/>
       <use x="95.410156" xlink:href="#DejaVuSans-38"/>
      </g>
     </g>
    </g>
    <g id="xtick_6">
     <g id="line2d_6">
      <g>
       <use style="stroke:#000000;stroke-width:0.8;" x="388.8" xlink:href="#m1b3cc31b22" y="252"/>
      </g>
     </g>
     <g id="text_6">
      <!-- 1.0 -->
      <defs>
       <path d="M 12.40625 8.296875 
L 28.515625 8.296875 
L 28.515625 63.921875 
L 10.984375 60.40625 
L 10.984375 69.390625 
L 28.421875 72.90625 
L 38.28125 72.90625 
L 38.28125 8.296875 
L 54.390625 8.296875 
L 54.390625 0 
L 12.40625 0 
z
" id="DejaVuSans-31"/>
      </defs>
      <g transform="translate(380.848437 266.598437)scale(0.1 -0.1)">
       <use xlink:href="#DejaVuSans-31"/>
       <use x="63.623047" xlink:href="#DejaVuSans-2e"/>
       <use x="95.410156" xlink:href="#DejaVuSans-30"/>
      </g>
     </g>
    </g>
    <g id="text_7">
     <!-- $t$ -->
     <defs>
      <path d="M 42.28125 54.6875 
L 40.921875 47.703125 
L 23 47.703125 
L 17.1875 18.015625 
Q 16.890625 16.359375 16.75 15.234375 
Q 16.609375 14.109375 16.609375 13.484375 
Q 16.609375 10.359375 18.484375 8.9375 
Q 20.359375 7.515625 24.515625 7.515625 
L 33.59375 7.515625 
L 32.078125 0 
L 23.484375 0 
Q 15.484375 0 11.546875 3.125 
Q 7.625 6.25 7.625 12.59375 
Q 7.625 13.71875 7.765625 15.0625 
Q 7.90625 16.40625 8.203125 18.015625 
L 14.015625 47.703125 
L 6.390625 47.703125 
L 7.8125 54.6875 
L 15.28125 54.6875 
L 18.3125 70.21875 
L 27.296875 70.21875 
L 24.3125 54.6875 
z
" id="DejaVuSans-Oblique-74"/>
     </defs>
     <g transform="translate(219.4 280.276563)scale(0.1 -0.1)">
      <use transform="translate(0 0.78125)" xlink:href="#DejaVuSans-Oblique-74"/>
     </g>
    </g>
   </g>
   <g id="matplotlib.axis_2">
    <g id="ytick_1">
     <g id="line2d_7">
      <defs>
       <path d="M 0 0 
L -3.5 0 
" id="mdda2a8952e" style="stroke:#000000;stroke-width:0.8;"/>
      </defs>
      <g>
       <use style="stroke:#000000;stroke-width:0.8;" x="54" xlink:href="#mdda2a8952e" y="251.096718"/>
      </g>
     </g>
     <g id="text_8">
      <!-- 0.0 -->
      <g transform="translate(31.096875 254.895937)scale(0.1 -0.1)">
       <use xlink:href="#DejaVuSans-30"/>
       <use x="63.623047" xlink:href="#DejaVuSans-2e"/>
       <use x="95.410156" xlink:href="#DejaVuSans-30"/>
      </g>
     </g>
    </g>
    <g id="ytick_2">
     <g id="line2d_8">
      <g>
       <use style="stroke:#000000;stroke-width:0.8;" x="54" xlink:href="#mdda2a8952e" y="226.501304"/>
      </g>
     </g>
     <g id="text_9">
      <!-- 0.2 -->
      <g transform="translate(31.096875 230.300523)scale(0.1 -0.1)">
       <use xlink:href="#DejaVuSans-30"/>
       <use x="63.623047" xlink:href="#DejaVuSans-2e"/>
       <use x="95.410156" xlink:href="#DejaVuSans-32"/>
      </g>
     </g>
    </g>
    <g id="ytick_3">
     <g id="line2d_9">
      <g>
       <use style="stroke:#000000;stroke-width:0.8;" x="54" xlink:href="#mdda2a8952e" y="201.90589"/>
      </g>
     </g>
     <g id="text_10">
      <!-- 0.4 -->
      <g transform="translate(31.096875 205.705109)scale(0.1 -0.1)">
       <use xlink:href="#DejaVuSans-30"/>
       <use x="63.623047" xlink:href="#DejaVuSans-2e"/>
       <use x="95.410156" xlink:href="#DejaVuSans-34"/>
      </g>
     </g>
    </g>
    <g id="ytick_4">
     <g id="line2d_10">
      <g>
       <use style="stroke:#000000;stroke-width:0.8;" x="54" xlink:href="#mdda2a8952e" y="177.310476"/>
      </g>
     </g>
     <g id="text_11">
      <!-- 0.6 -->
      <g transform="translate(31.096875 181.109695)scale(0.1 -0.1)">
       <use xlink:href="#DejaVuSans-30"/>
       <use x="63.623047" xlink:href="#DejaVuSans-2e"/>
       <use x="95.410156" xlink:href="#DejaVuSans-36"/>
      </g>
     </g>
    </g>
    <g id="ytick_5">
     <g id="line2d_11">
      <g>
       <use style="stroke:#000000;stroke-width:0.8;" x="54" xlink:href="#mdda2a8952e" y="152.715062"/>
      </g>
     </g>
     <g id="text_12">
      <!-- 0.8 -->
      <g transform="translate(31.096875 156.514281)scale(0.1 -0.1)">
       <use xlink:href="#DejaVuSans-30"/>
       <use x="63.623047" xlink:href="#DejaVuSans-2e"/>
       <use x="95.410156" xlink:href="#DejaVuSans-38"/>
      </g>
     </g>
    </g>
    <g id="ytick_6">
     <g id="line2d_12">
      <g>
       <use style="stroke:#000000;stroke-width:0.8;" x="54" xlink:href="#mdda2a8952e" y="128.119648"/>
      </g>
     </g>
     <g id="text_13">
      <!-- 1.0 -->
      <g transform="translate(31.096875 131.918867)scale(0.1 -0.1)">
       <use xlink:href="#DejaVuSans-31"/>
       <use x="63.623047" xlink:href="#DejaVuSans-2e"/>
       <use x="95.410156" xlink:href="#DejaVuSans-30"/>
      </g>
     </g>
    </g>
    <g id="ytick_7">
     <g id="line2d_13">
      <g>
       <use style="stroke:#000000;stroke-width:0.8;" x="54" xlink:href="#mdda2a8952e" y="103.524234"/>
      </g>
     </g>
     <g id="text_14">
      <!-- 1.2 -->
      <g transform="translate(31.096875 107.323453)scale(0.1 -0.1)">
       <use xlink:href="#DejaVuSans-31"/>
       <use x="63.623047" xlink:href="#DejaVuSans-2e"/>
       <use x="95.410156" xlink:href="#DejaVuSans-32"/>
      </g>
     </g>
    </g>
    <g id="ytick_8">
     <g id="line2d_14">
      <g>
       <use style="stroke:#000000;stroke-width:0.8;" x="54" xlink:href="#mdda2a8952e" y="78.92882"/>
      </g>
     </g>
     <g id="text_15">
      <!-- 1.4 -->
      <g transform="translate(31.096875 82.728039)scale(0.1 -0.1)">
       <use xlink:href="#DejaVuSans-31"/>
       <use x="63.623047" xlink:href="#DejaVuSans-2e"/>
       <use x="95.410156" xlink:href="#DejaVuSans-34"/>
      </g>
     </g>
    </g>
    <g id="ytick_9">
     <g id="line2d_15">
      <g>
       <use style="stroke:#000000;stroke-width:0.8;" x="54" xlink:href="#mdda2a8952e" y="54.333406"/>
      </g>
     </g>
     <g id="text_16">
      <!-- 1.6 -->
      <g transform="translate(31.096875 58.132625)scale(0.1 -0.1)">
       <use xlink:href="#DejaVuSans-31"/>
       <use x="63.623047" xlink:href="#DejaVuSans-2e"/>
       <use x="95.410156" xlink:href="#DejaVuSans-36"/>
      </g>
     </g>
    </g>
    <g id="text_17">
     <!-- $S_t$ -->
     <defs>
      <path d="M 60.296875 70.515625 
L 58.40625 60.890625 
Q 53.46875 63.53125 48.609375 64.875 
Q 43.75 66.21875 39.203125 66.21875 
Q 30.375 66.21875 25.140625 62.359375 
Q 19.921875 58.5 19.921875 52.09375 
Q 19.921875 48.578125 21.84375 46.703125 
Q 23.78125 44.828125 31.78125 42.671875 
L 37.703125 41.21875 
Q 47.703125 38.625 51.609375 34.640625 
Q 55.515625 30.671875 55.515625 23.484375 
Q 55.515625 12.453125 46.84375 5.515625 
Q 38.1875 -1.421875 24.03125 -1.421875 
Q 18.21875 -1.421875 12.359375 -0.265625 
Q 6.5 0.875 0.59375 3.21875 
L 2.59375 13.375 
Q 8.015625 10.015625 13.453125 8.296875 
Q 18.890625 6.59375 24.3125 6.59375 
Q 33.546875 6.59375 39.109375 10.6875 
Q 44.671875 14.796875 44.671875 21.390625 
Q 44.671875 25.78125 42.453125 28.046875 
Q 40.234375 30.328125 32.90625 32.171875 
L 27 33.6875 
Q 16.890625 36.328125 13.203125 39.765625 
Q 9.515625 43.21875 9.515625 49.421875 
Q 9.515625 60.296875 17.890625 67.25 
Q 26.265625 74.21875 39.703125 74.21875 
Q 44.921875 74.21875 50.046875 73.28125 
Q 55.171875 72.359375 60.296875 70.515625 
z
" id="DejaVuSans-Oblique-53"/>
     </defs>
     <g transform="translate(25.017187 147.98)rotate(-90)scale(0.1 -0.1)">
      <use transform="translate(0 0.78125)" xlink:href="#DejaVuSans-Oblique-53"/>
      <use transform="translate(63.476562 -15.625)scale(0.7)" xlink:href="#DejaVuSans-Oblique-74"/>
     </g>
    </g>
   </g>
   <g id="line2d_16">
    <path clip-path="url(#pf66e4c3c3a)" d="M 54 128.119648 
L 54.3348 126.563486 
L 54.6696 122.709131 
L 55.3392 105.491633 
L 55.674 109.991447 
L 56.0088 105.752019 
L 56.6784 106.919832 
L 57.0132 105.047801 
L 57.348 104.38254 
L 57.6828 97.635424 
L 58.0176 93.942205 
L 58.3524 93.337521 
L 59.022 89.435189 
L 59.3568 81.797178 
L 59.6916 82.895539 
L 60.0264 81.230335 
L 60.3612 85.818236 
L 60.696 99.161602 
L 61.0308 96.021219 
L 61.3656 91.782095 
L 61.7004 95.521101 
L 62.0352 84.354514 
L 62.37 92.023168 
L 62.7048 91.792987 
L 63.0396 92.735949 
L 63.7092 77.34516 
L 64.044 76.493801 
L 64.3788 74.405803 
L 64.7136 79.366268 
L 65.0484 90.123169 
L 65.3832 91.894192 
L 65.718 91.107064 
L 66.3876 78.562744 
L 67.0572 82.305163 
L 67.7268 95.230225 
L 68.0616 103.640313 
L 68.3964 94.543885 
L 69.066 99.20078 
L 69.4008 105.218421 
L 69.7356 101.631799 
L 70.0704 109.25988 
L 70.4052 110.214079 
L 70.74 114.203472 
L 71.0748 112.528592 
L 71.4096 114.766894 
L 71.7444 119.85675 
L 72.0792 119.973711 
L 72.414 118.197644 
L 72.7488 117.918097 
L 73.0836 116.644243 
L 73.4184 119.341229 
L 73.7532 120.85258 
L 74.088 123.622231 
L 74.4228 125.071624 
L 74.7576 128.312226 
L 75.0924 135.015013 
L 75.4272 134.363713 
L 75.762 135.846856 
L 76.0968 141.788147 
L 76.4316 140.188475 
L 76.7664 143.370576 
L 77.1012 143.193619 
L 77.436 140.70582 
L 77.7708 140.255557 
L 78.1056 136.261838 
L 78.4404 140.745982 
L 78.7752 139.341972 
L 79.7796 146.719079 
L 80.1144 147.747424 
L 80.4492 147.563864 
L 80.784 151.378561 
L 81.1188 148.537926 
L 81.4536 147.027692 
L 81.7884 152.083396 
L 82.1232 147.423565 
L 82.458 141.208019 
L 82.7928 137.111777 
L 83.1276 137.76032 
L 83.4624 141.59791 
L 83.7972 137.946706 
L 84.132 139.38932 
L 84.4668 135.071035 
L 84.8016 134.306863 
L 85.1364 130.699921 
L 85.4712 129.343134 
L 85.806 126.622695 
L 86.1408 126.581365 
L 86.4756 119.549462 
L 86.8104 119.021522 
L 87.1452 117.342579 
L 87.48 109.37746 
L 88.1496 120.868601 
L 88.4844 116.876456 
L 88.8192 121.855682 
L 89.154 113.912179 
L 89.4888 115.706523 
L 89.8236 118.906686 
L 90.828 95.633919 
L 91.1628 91.179653 
L 91.4976 95.53489 
L 91.8324 86.138713 
L 92.1672 87.536734 
L 92.8368 78.36253 
L 93.1716 79.209247 
L 93.5064 75.871382 
L 93.8412 70.761332 
L 94.176 68.614688 
L 94.5108 74.958877 
L 94.8456 73.2977 
L 95.1804 65.840097 
L 95.5152 69.909104 
L 95.85 70.766459 
L 96.1848 73.247941 
L 96.5196 62.847548 
L 96.8544 58.845403 
L 97.1892 56.368231 
L 97.524 61.109263 
L 97.8588 57.869491 
L 98.1936 61.989921 
L 98.5284 61.799571 
L 98.8632 65.60581 
L 99.5328 58.183554 
L 99.8676 59.45427 
L 100.2024 57.054364 
L 100.872 72.595858 
L 101.2068 70.115627 
L 101.5416 69.161734 
L 101.8764 65.508214 
L 102.2112 51.521957 
L 102.546 45.561245 
L 102.8808 51.494226 
L 103.2156 44.443636 
L 103.5504 53.043018 
L 103.8852 55.933926 
L 104.22 56.355085 
L 104.5548 45.803856 
L 105.2244 55.877577 
L 105.5592 56.485361 
L 105.894 60.568507 
L 106.2288 53.780491 
L 106.8984 67.434259 
L 107.568 72.829565 
L 107.9028 61.952209 
L 108.2376 56.273463 
L 108.5724 55.734073 
L 108.9072 63.304702 
L 109.242 58.290448 
L 109.5768 64.388831 
L 109.9116 73.509502 
L 110.2464 66.837763 
L 110.5812 64.991009 
L 110.916 59.571589 
L 111.2508 57.641197 
L 111.5856 52.39945 
L 111.9204 56.490077 
L 112.2552 62.85481 
L 112.59 58.797461 
L 113.2596 67.76967 
L 113.5944 70.410533 
L 113.9292 70.310661 
L 114.264 72.334429 
L 114.5988 80.106973 
L 114.9336 83.587128 
L 115.2684 95.364757 
L 115.6032 92.285694 
L 115.938 100.331301 
L 116.2728 105.596582 
L 116.6076 105.356564 
L 116.9424 108.764995 
L 117.2772 101.820003 
L 117.612 107.922991 
L 117.9468 106.713905 
L 118.2816 106.893262 
L 118.6164 112.219901 
L 118.9512 109.921842 
L 119.286 110.687683 
L 119.9556 103.515138 
L 120.2904 93.419447 
L 120.6252 86.75526 
L 120.96 88.673874 
L 121.2948 89.903388 
L 121.6296 84.298004 
L 122.2992 77.395298 
L 122.634 86.27711 
L 122.9688 86.403899 
L 123.3036 90.247597 
L 123.6384 88.823761 
L 123.9732 89.327422 
L 124.308 84.671316 
L 124.6428 83.001849 
L 124.9776 78.822024 
L 125.3124 81.362984 
L 125.6472 86.432254 
L 125.982 88.567443 
L 126.3168 88.654921 
L 126.6516 86.707272 
L 126.9864 74.962365 
L 127.3212 75.197732 
L 127.656 80.515094 
L 128.3256 84.85481 
L 128.6604 82.323647 
L 128.9952 90.546993 
L 129.33 90.22581 
L 129.6648 89.429633 
L 129.9996 88.242639 
L 130.3344 91.318756 
L 130.6692 92.520885 
L 131.004 99.661992 
L 131.6736 104.583489 
L 132.0084 102.655864 
L 132.3432 108.083114 
L 132.678 104.550156 
L 133.0128 97.624402 
L 133.3476 107.670496 
L 133.6824 105.737185 
L 134.0172 102.62566 
L 134.352 105.61847 
L 134.6868 107.44609 
L 135.0216 108.049717 
L 135.6912 110.781457 
L 136.026 118.218151 
L 136.6956 108.674209 
L 137.0304 112.337435 
L 137.3652 118.772037 
L 137.7 116.591655 
L 138.0348 119.040725 
L 138.3696 118.447932 
L 138.7044 119.787426 
L 139.374 113.967967 
L 139.7088 117.114441 
L 140.3784 129.388951 
L 140.7132 127.039761 
L 141.048 131.703686 
L 141.7176 135.832515 
L 142.0524 136.024122 
L 142.3872 143.070079 
L 142.722 142.425192 
L 143.0568 140.624843 
L 143.3916 140.315947 
L 143.7264 141.405042 
L 144.0612 141.067185 
L 144.396 139.678727 
L 144.7308 149.447531 
L 145.0656 143.160389 
L 145.4004 141.828905 
L 145.7352 144.083206 
L 146.07 145.406217 
L 146.4048 143.75602 
L 146.7396 144.150124 
L 147.0744 151.017794 
L 147.4092 144.484142 
L 147.744 144.856817 
L 148.0788 141.429444 
L 148.4136 143.829462 
L 148.7484 138.617935 
L 149.0832 137.599441 
L 149.418 135.414241 
L 149.7528 139.237988 
L 150.0876 134.953823 
L 150.4224 132.420286 
L 150.7572 127.534616 
L 151.4268 131.831013 
L 151.7616 123.141762 
L 152.0964 127.430894 
L 152.4312 127.962547 
L 152.766 123.535669 
L 153.1008 123.141463 
L 153.4356 120.782657 
L 153.7704 122.428743 
L 154.1052 120.923046 
L 154.44 126.301302 
L 154.7748 119.757692 
L 155.1096 120.248464 
L 155.4444 123.062895 
L 155.7792 120.364853 
L 156.114 122.269517 
L 156.7836 132.959989 
L 157.1184 130.368183 
L 157.788 131.485264 
L 158.1228 127.408756 
L 158.4576 131.816174 
L 158.7924 134.572278 
L 159.1272 135.990493 
L 159.462 135.647055 
L 159.7968 135.801016 
L 160.1316 136.846998 
L 160.4664 137.069648 
L 160.8012 137.456575 
L 161.4708 142.89766 
L 161.8056 141.958387 
L 162.4752 148.914961 
L 162.81 149.924062 
L 163.1448 150.428496 
L 163.4796 143.244422 
L 163.8144 145.647865 
L 164.484 139.936599 
L 164.8188 144.115968 
L 165.1536 141.500031 
L 165.4884 145.603068 
L 165.8232 154.474072 
L 166.158 152.621477 
L 166.4928 158.089427 
L 166.8276 156.763161 
L 167.1624 158.803627 
L 167.832 150.67795 
L 168.1668 152.117686 
L 168.5016 154.270612 
L 168.8364 157.988008 
L 169.1712 159.286242 
L 169.8408 161.149627 
L 170.1756 160.703902 
L 170.5104 159.050215 
L 170.8452 158.032452 
L 171.18 160.28129 
L 171.5148 164.410391 
L 171.8496 160.669852 
L 172.5192 164.465963 
L 172.854 165.893764 
L 173.1888 170.859646 
L 173.8584 173.271063 
L 174.528 169.991653 
L 174.8628 169.981982 
L 175.1976 167.591722 
L 175.5324 166.69399 
L 175.8672 166.735847 
L 176.202 166.306535 
L 176.5368 166.817734 
L 177.2064 168.574698 
L 177.5412 171.518329 
L 177.876 170.8126 
L 178.2108 173.333949 
L 178.5456 171.264315 
L 178.8804 171.894079 
L 179.2152 171.770113 
L 179.8848 168.892337 
L 180.2196 172.97522 
L 180.5544 173.486359 
L 180.8892 171.326176 
L 181.224 175.60976 
L 181.5588 174.68528 
L 181.8936 180.135494 
L 182.2284 182.42999 
L 182.5632 182.346106 
L 182.898 185.947946 
L 183.2328 187.978281 
L 183.5676 190.916034 
L 183.9024 187.779501 
L 184.2372 187.450674 
L 184.572 186.308908 
L 184.9068 186.765119 
L 185.2416 187.48412 
L 185.5764 190.735831 
L 185.9112 191.292884 
L 186.246 192.73299 
L 186.5808 191.149586 
L 187.5852 184.353741 
L 187.92 185.617259 
L 188.2548 187.927882 
L 188.5896 186.396416 
L 188.9244 185.667439 
L 189.2592 189.326644 
L 189.594 188.632266 
L 189.9288 187.023346 
L 190.2636 186.903952 
L 190.5984 187.279602 
L 190.9332 188.909497 
L 191.268 191.754155 
L 191.6028 190.252334 
L 192.2724 191.291906 
L 192.6072 188.014994 
L 192.942 186.649538 
L 193.2768 185.893797 
L 193.6116 185.60088 
L 194.616 176.592584 
L 194.9508 175.220847 
L 195.2856 180.246649 
L 195.6204 179.969453 
L 195.9552 180.262095 
L 196.29 180.051641 
L 196.6248 177.932954 
L 196.9596 184.271584 
L 197.2944 185.474652 
L 197.6292 184.91456 
L 197.964 185.891604 
L 198.2988 188.813217 
L 198.6336 187.101727 
L 198.9684 186.541421 
L 199.3032 188.523851 
L 199.638 187.900914 
L 199.9728 186.259035 
L 200.3076 186.248183 
L 200.6424 184.606472 
L 200.9772 184.441922 
L 201.312 185.274989 
L 201.6468 187.688283 
L 201.9816 187.860588 
L 202.3164 187.47206 
L 202.6512 185.709894 
L 202.986 185.947903 
L 203.3208 185.005542 
L 203.9904 188.607358 
L 204.3252 188.825497 
L 204.66 190.90226 
L 204.9948 189.340905 
L 205.3296 188.436462 
L 205.9992 187.205974 
L 206.334 183.122652 
L 206.6688 184.130489 
L 207.0036 188.792389 
L 207.3384 188.399721 
L 207.6732 188.50005 
L 208.008 189.524469 
L 208.3428 191.430334 
L 208.6776 192.259004 
L 209.0124 191.921604 
L 209.3472 192.862515 
L 209.682 188.419916 
L 210.3516 191.847873 
L 210.6864 196.135862 
L 211.0212 195.698778 
L 211.356 199.231193 
L 211.6908 200.11597 
L 212.0256 200.560393 
L 212.3604 201.694608 
L 212.6952 198.978086 
L 213.03 197.339189 
L 213.3648 195.096706 
L 213.6996 196.65936 
L 214.0344 194.71653 
L 214.3692 193.832211 
L 214.704 192.435301 
L 215.0388 190.525654 
L 215.3736 192.266322 
L 215.7084 193.055714 
L 216.0432 191.47249 
L 216.378 196.479616 
L 216.7128 193.86588 
L 217.0476 192.864823 
L 217.3824 192.948985 
L 217.7172 192.543517 
L 218.052 194.45056 
L 218.3868 195.077417 
L 219.0564 190.748845 
L 219.3912 185.603459 
L 219.726 185.756563 
L 220.7304 190.183907 
L 221.0652 190.333873 
L 221.4 189.598457 
L 221.7348 189.665049 
L 222.0696 187.535242 
L 222.4044 188.006013 
L 222.7392 188.699213 
L 223.074 189.846162 
L 223.7436 195.888285 
L 224.0784 197.946911 
L 225.0828 191.718726 
L 225.4176 194.220215 
L 225.7524 197.76097 
L 226.0872 198.874237 
L 226.422 198.583886 
L 226.7568 197.75576 
L 227.0916 195.988052 
L 227.4264 195.492641 
L 227.7612 192.42841 
L 228.096 192.8414 
L 228.4308 194.52347 
L 228.7656 197.531175 
L 229.1004 199.036996 
L 229.4352 198.638404 
L 229.77 200.112682 
L 230.1048 198.602412 
L 230.4396 196.257926 
L 230.7744 200.367157 
L 231.1092 198.981036 
L 231.444 202.671999 
L 231.7788 202.057174 
L 232.1136 200.157685 
L 232.4484 200.053213 
L 232.7832 202.118807 
L 233.118 203.025533 
L 233.7876 203.698018 
L 234.4572 204.16578 
L 234.792 203.848957 
L 235.1268 205.654694 
L 235.4616 206.002477 
L 235.7964 203.837429 
L 236.466 205.067501 
L 236.8008 203.498108 
L 237.1356 207.350193 
L 237.4704 205.71589 
L 237.8052 206.622715 
L 238.4748 206.255999 
L 238.8096 204.91959 
L 239.1444 205.310345 
L 239.4792 206.292054 
L 239.814 204.453204 
L 240.1488 207.940354 
L 240.4836 207.912603 
L 240.8184 209.753333 
L 241.1532 210.749008 
L 241.488 208.182832 
L 241.8228 208.243351 
L 242.1576 207.979004 
L 242.4924 210.408168 
L 242.8272 211.346219 
L 243.162 211.099142 
L 243.4968 210.650432 
L 243.8316 209.861419 
L 244.1664 209.850169 
L 244.836 208.561036 
L 245.1708 211.022213 
L 245.5056 210.975317 
L 246.1752 209.234457 
L 246.51 209.716133 
L 246.8448 210.770351 
L 247.1796 212.196458 
L 247.5144 212.357672 
L 247.8492 210.969608 
L 248.184 213.446312 
L 248.5188 214.231986 
L 248.8536 215.560728 
L 249.1884 214.678635 
L 249.858 215.849505 
L 250.1928 216.09132 
L 250.5276 215.598284 
L 250.8624 216.038764 
L 251.1972 219.415809 
L 251.8668 218.424092 
L 252.2016 218.650921 
L 252.5364 219.763171 
L 253.206 219.034661 
L 253.5408 219.511224 
L 253.8756 219.7277 
L 254.2104 220.650392 
L 254.5452 220.822337 
L 254.88 222.306656 
L 255.2148 221.92672 
L 255.5496 222.79784 
L 255.8844 222.584764 
L 256.2192 223.852418 
L 256.554 224.360777 
L 256.8888 224.454192 
L 257.2236 225.853349 
L 257.5584 225.76143 
L 257.8932 226.065193 
L 258.5628 228.419147 
L 258.8976 227.985199 
L 259.2324 227.330681 
L 259.5672 227.429817 
L 260.2368 226.957216 
L 260.5716 226.705596 
L 260.9064 225.713697 
L 261.2412 226.923337 
L 261.576 226.40623 
L 262.2456 226.877478 
L 262.9152 227.393536 
L 263.25 228.312644 
L 263.5848 228.180549 
L 263.9196 226.969662 
L 264.5892 227.013545 
L 264.924 227.536976 
L 265.2588 227.624497 
L 265.5936 227.278482 
L 266.2632 227.895151 
L 266.598 227.599276 
L 266.9328 228.281404 
L 267.2676 228.099232 
L 267.6024 227.502657 
L 267.9372 226.487986 
L 268.272 226.558321 
L 268.9416 224.659717 
L 269.6112 226.478696 
L 269.946 226.716107 
L 270.2808 225.922816 
L 270.6156 225.980361 
L 270.9504 226.457433 
L 271.2852 225.247983 
L 271.62 225.013465 
L 271.9548 226.927549 
L 272.2896 226.685144 
L 272.6244 226.283693 
L 272.9592 226.106667 
L 273.294 225.75128 
L 273.6288 225.805201 
L 273.9636 226.859638 
L 274.2984 227.143762 
L 275.3028 229.446151 
L 275.6376 229.136354 
L 275.9724 229.06837 
L 276.642 229.826478 
L 276.9768 229.842233 
L 277.3116 229.116878 
L 277.6464 230.509936 
L 277.9812 230.264585 
L 278.316 230.624083 
L 278.9856 233.028749 
L 279.3204 233.550276 
L 279.99 233.208866 
L 280.3248 233.740013 
L 280.6596 233.181804 
L 280.9944 232.375656 
L 281.3292 232.141168 
L 281.664 232.495671 
L 282.3336 231.374133 
L 282.6684 230.833146 
L 283.0032 231.253801 
L 283.338 233.032451 
L 283.6728 231.82325 
L 284.0076 232.805049 
L 284.3424 232.825739 
L 284.6772 231.450194 
L 285.012 231.244814 
L 285.3468 230.648903 
L 286.0164 232.715236 
L 286.3512 233.024882 
L 286.686 232.401538 
L 287.0208 232.606239 
L 287.3556 233.070879 
L 287.6904 232.958032 
L 288.0252 232.337439 
L 288.6948 233.879913 
L 289.0296 234.309298 
L 289.3644 233.728193 
L 289.6992 233.59922 
L 290.034 232.419458 
L 290.3688 231.866368 
L 290.7036 231.88771 
L 291.0384 231.119248 
L 291.3732 230.985636 
L 291.708 231.433944 
L 292.0428 231.011141 
L 292.3776 231.453421 
L 292.7124 231.633809 
L 293.0472 230.816597 
L 293.382 230.88155 
L 293.7168 231.394966 
L 294.0516 231.68426 
L 294.3864 231.057007 
L 295.3908 231.96188 
L 295.7256 231.850587 
L 296.0604 232.085202 
L 296.3952 233.048221 
L 297.0648 234.072021 
L 297.7344 232.947938 
L 298.0692 232.610901 
L 298.404 232.90632 
L 299.4084 234.240001 
L 299.7432 232.908853 
L 300.078 234.200251 
L 300.4128 233.898894 
L 300.7476 234.597489 
L 301.0824 234.65193 
L 302.0868 236.312009 
L 302.4216 235.491494 
L 302.7564 235.557122 
L 303.0912 235.933392 
L 303.426 235.666888 
L 303.7608 235.661838 
L 304.0956 235.310394 
L 304.4304 236.221077 
L 304.7652 236.078259 
L 305.1 235.711286 
L 305.4348 236.519704 
L 305.7696 236.313101 
L 306.1044 235.520138 
L 306.4392 235.527457 
L 307.1088 234.784316 
L 307.4436 235.149278 
L 307.7784 235.129224 
L 308.1132 235.920457 
L 308.448 236.137044 
L 308.7828 236.011356 
L 309.1176 235.666408 
L 309.4524 235.654398 
L 309.7872 235.302809 
L 310.122 235.853653 
L 310.7916 235.89341 
L 311.1264 235.004181 
L 311.4612 235.113168 
L 311.796 235.365393 
L 312.1308 235.354772 
L 312.4656 235.81231 
L 312.8004 235.719145 
L 313.1352 235.896665 
L 313.47 236.757699 
L 313.8048 236.784264 
L 314.1396 236.927984 
L 314.4744 237.659399 
L 314.8092 237.687926 
L 315.144 237.056404 
L 315.8136 236.548778 
L 316.1484 237.165929 
L 316.4832 236.95584 
L 316.818 236.889458 
L 317.4876 236.45872 
L 317.8224 237.088154 
L 318.1572 237.106494 
L 318.492 237.441784 
L 318.8268 237.46341 
L 319.1616 237.850301 
L 319.4964 237.300522 
L 320.166 238.056801 
L 320.5008 238.026045 
L 320.8356 238.471244 
L 321.1704 238.640791 
L 321.5052 238.967707 
L 321.84 238.426448 
L 322.1748 238.1116 
L 322.5096 238.135199 
L 322.8444 238.295551 
L 323.1792 237.914659 
L 323.8488 237.535473 
L 324.1836 237.546706 
L 324.5184 238.270094 
L 324.8532 238.315712 
L 325.188 238.530928 
L 325.5228 238.274606 
L 325.8576 237.864333 
L 326.1924 238.13965 
L 326.5272 237.947734 
L 326.862 237.225943 
L 327.1968 237.518823 
L 327.5316 236.796655 
L 327.8664 237.182201 
L 328.8708 237.171945 
L 329.5404 237.794234 
L 329.8752 238.075118 
L 330.5448 237.803175 
L 331.2144 236.250532 
L 331.5492 236.489892 
L 331.884 236.339832 
L 332.2188 235.874523 
L 333.2232 235.868552 
L 333.558 235.450909 
L 333.8928 235.870627 
L 334.2276 236.027434 
L 334.8972 235.652635 
L 335.232 235.535627 
L 335.5668 235.7176 
L 335.9016 235.244626 
L 336.2364 234.174946 
L 336.5712 233.957467 
L 336.906 234.062167 
L 337.2408 233.655065 
L 337.9104 234.35887 
L 338.2452 234.341505 
L 338.58 235.70999 
L 338.9148 236.271469 
L 339.2496 236.434599 
L 339.9192 237.520408 
L 340.254 237.707913 
L 340.5888 238.40353 
L 341.2584 238.77862 
L 341.5932 238.768724 
L 341.928 238.318771 
L 343.2672 238.107339 
L 343.602 238.524975 
L 343.9368 238.570604 
L 344.2716 238.448304 
L 344.6064 238.996578 
L 345.276 238.24024 
L 345.6108 238.496931 
L 345.9456 238.593089 
L 346.2804 238.940325 
L 346.6152 238.67147 
L 346.95 239.088447 
L 347.2848 239.172929 
L 347.6196 239.496796 
L 347.9544 239.478105 
L 348.2892 240.137328 
L 348.624 239.677621 
L 348.9588 240.025944 
L 349.6284 240.079518 
L 350.298 240.646878 
L 350.6328 240.337442 
L 350.9676 240.516285 
L 351.3024 240.425556 
L 351.972 240.90888 
L 352.3068 240.756737 
L 352.6416 240.452514 
L 352.9764 240.511525 
L 353.3112 240.987489 
L 353.646 240.348778 
L 353.9808 240.639902 
L 354.3156 241.149664 
L 354.6504 240.333579 
L 354.9852 240.471096 
L 355.32 240.962255 
L 355.6548 241.181284 
L 356.3244 241.005672 
L 356.6592 241.277465 
L 356.994 240.711487 
L 357.3288 240.882779 
L 357.6636 241.265425 
L 358.3332 240.541003 
L 358.668 240.813883 
L 359.0028 241.269562 
L 359.3376 240.949341 
L 359.6724 241.606303 
L 360.0072 241.974428 
L 360.342 241.695347 
L 361.6812 241.731763 
L 362.016 242.116364 
L 362.6856 241.362512 
L 363.3552 241.285323 
L 363.69 240.559423 
L 364.3596 240.737275 
L 364.6944 240.617873 
L 365.364 239.577967 
L 365.6988 239.672153 
L 366.0336 239.56076 
L 366.3684 240.063484 
L 366.7032 240.172333 
L 367.3728 240.801196 
L 367.7076 240.25372 
L 368.3772 240.703097 
L 368.712 240.582852 
L 369.0468 240.151354 
L 369.3816 239.984829 
L 369.7164 239.015222 
L 370.0512 239.043749 
L 370.7208 238.839236 
L 371.0556 238.282988 
L 371.3904 238.077452 
L 371.7252 238.125305 
L 372.06 238.513957 
L 372.3948 238.416692 
L 372.7296 237.854785 
L 373.0644 238.026631 
L 374.0688 237.338876 
L 374.4036 237.688993 
L 374.7384 236.69404 
L 375.0732 237.276637 
L 375.408 237.436393 
L 375.7428 237.031159 
L 376.0776 236.899174 
L 376.4124 236.526539 
L 376.7472 236.755118 
L 377.4168 236.783509 
L 377.7516 236.073225 
L 378.4212 235.358463 
L 378.756 235.685904 
L 379.0908 235.213736 
L 379.4256 235.100435 
L 379.7604 234.39774 
L 380.0952 233.334179 
L 380.7648 233.732496 
L 381.0996 234.206948 
L 381.4344 234.283634 
L 381.7692 234.486748 
L 382.104 234.297917 
L 382.4388 234.374714 
L 382.7736 234.565927 
L 383.1084 234.009415 
L 383.4432 234.516197 
L 383.778 234.289109 
L 384.1128 234.504868 
L 384.4476 234.124806 
L 384.7824 233.381338 
L 385.1172 233.551136 
L 385.452 233.306434 
L 385.7868 233.205849 
L 386.1216 233.658129 
L 386.7912 233.364694 
L 387.126 233.133182 
L 387.4608 233.245884 
L 387.7956 233.192713 
L 388.1304 233.842461 
L 388.4652 234.037858 
L 388.8 233.737945 
L 388.8 233.737945 
" style="fill:none;stroke:#1f77b4;stroke-linecap:square;stroke-width:1.5;"/>
   </g>
   <g id="patch_3">
    <path d="M 54 252 
L 54 34.56 
" style="fill:none;stroke:#000000;stroke-linecap:square;stroke-linejoin:miter;stroke-width:0.8;"/>
   </g>
   <g id="patch_4">
    <path d="M 388.8 252 
L 388.8 34.56 
" style="fill:none;stroke:#000000;stroke-linecap:square;stroke-linejoin:miter;stroke-width:0.8;"/>
   </g>
   <g id="patch_5">
    <path d="M 54 252 
L 388.8 252 
" style="fill:none;stroke:#000000;stroke-linecap:square;stroke-linejoin:miter;stroke-width:0.8;"/>
   </g>
   <g id="patch_6">
    <path d="M 54 34.56 
L 388.8 34.56 
" style="fill:none;stroke:#000000;stroke-linecap:square;stroke-linejoin:miter;stroke-width:0.8;"/>
   </g>
   <g id="text_18">
    <!-- Simulated Geometric Brownian Motion Path -->
    <defs>
     <path d="M 53.515625 70.515625 
L 53.515625 60.890625 
Q 47.90625 63.578125 42.921875 64.890625 
Q 37.9375 66.21875 33.296875 66.21875 
Q 25.25 66.21875 20.875 63.09375 
Q 16.5 59.96875 16.5 54.203125 
Q 16.5 49.359375 19.40625 46.890625 
Q 22.3125 44.4375 30.421875 42.921875 
L 36.375 41.703125 
Q 47.40625 39.59375 52.65625 34.296875 
Q 57.90625 29 57.90625 20.125 
Q 57.90625 9.515625 50.796875 4.046875 
Q 43.703125 -1.421875 29.984375 -1.421875 
Q 24.8125 -1.421875 18.96875 -0.25 
Q 13.140625 0.921875 6.890625 3.21875 
L 6.890625 13.375 
Q 12.890625 10.015625 18.65625 8.296875 
Q 24.421875 6.59375 29.984375 6.59375 
Q 38.421875 6.59375 43.015625 9.90625 
Q 47.609375 13.234375 47.609375 19.390625 
Q 47.609375 24.75 44.3125 27.78125 
Q 41.015625 30.8125 33.5 32.328125 
L 27.484375 33.5 
Q 16.453125 35.6875 11.515625 40.375 
Q 6.59375 45.0625 6.59375 53.421875 
Q 6.59375 63.09375 13.40625 68.65625 
Q 20.21875 74.21875 32.171875 74.21875 
Q 37.3125 74.21875 42.625 73.28125 
Q 47.953125 72.359375 53.515625 70.515625 
z
" id="DejaVuSans-53"/>
     <path d="M 9.421875 54.6875 
L 18.40625 54.6875 
L 18.40625 0 
L 9.421875 0 
z
M 9.421875 75.984375 
L 18.40625 75.984375 
L 18.40625 64.59375 
L 9.421875 64.59375 
z
" id="DejaVuSans-69"/>
     <path d="M 52 44.1875 
Q 55.375 50.25 60.0625 53.125 
Q 64.75 56 71.09375 56 
Q 79.640625 56 84.28125 50.015625 
Q 88.921875 44.046875 88.921875 33.015625 
L 88.921875 0 
L 79.890625 0 
L 79.890625 32.71875 
Q 79.890625 40.578125 77.09375 44.375 
Q 74.3125 48.1875 68.609375 48.1875 
Q 61.625 48.1875 57.5625 43.546875 
Q 53.515625 38.921875 53.515625 30.90625 
L 53.515625 0 
L 44.484375 0 
L 44.484375 32.71875 
Q 44.484375 40.625 41.703125 44.40625 
Q 38.921875 48.1875 33.109375 48.1875 
Q 26.21875 48.1875 22.15625 43.53125 
Q 18.109375 38.875 18.109375 30.90625 
L 18.109375 0 
L 9.078125 0 
L 9.078125 54.6875 
L 18.109375 54.6875 
L 18.109375 46.1875 
Q 21.1875 51.21875 25.484375 53.609375 
Q 29.78125 56 35.6875 56 
Q 41.65625 56 45.828125 52.96875 
Q 50 49.953125 52 44.1875 
z
" id="DejaVuSans-6d"/>
     <path d="M 8.5 21.578125 
L 8.5 54.6875 
L 17.484375 54.6875 
L 17.484375 21.921875 
Q 17.484375 14.15625 20.5 10.265625 
Q 23.53125 6.390625 29.59375 6.390625 
Q 36.859375 6.390625 41.078125 11.03125 
Q 45.3125 15.671875 45.3125 23.6875 
L 45.3125 54.6875 
L 54.296875 54.6875 
L 54.296875 0 
L 45.3125 0 
L 45.3125 8.40625 
Q 42.046875 3.421875 37.71875 1 
Q 33.40625 -1.421875 27.6875 -1.421875 
Q 18.265625 -1.421875 13.375 4.4375 
Q 8.5 10.296875 8.5 21.578125 
z
M 31.109375 56 
z
" id="DejaVuSans-75"/>
     <path d="M 9.421875 75.984375 
L 18.40625 75.984375 
L 18.40625 0 
L 9.421875 0 
z
" id="DejaVuSans-6c"/>
     <path d="M 34.28125 27.484375 
Q 23.390625 27.484375 19.1875 25 
Q 14.984375 22.515625 14.984375 16.5 
Q 14.984375 11.71875 18.140625 8.90625 
Q 21.296875 6.109375 26.703125 6.109375 
Q 34.1875 6.109375 38.703125 11.40625 
Q 43.21875 16.703125 43.21875 25.484375 
L 43.21875 27.484375 
z
M 52.203125 31.203125 
L 52.203125 0 
L 43.21875 0 
L 43.21875 8.296875 
Q 40.140625 3.328125 35.546875 0.953125 
Q 30.953125 -1.421875 24.3125 -1.421875 
Q 15.921875 -1.421875 10.953125 3.296875 
Q 6 8.015625 6 15.921875 
Q 6 25.140625 12.171875 29.828125 
Q 18.359375 34.515625 30.609375 34.515625 
L 43.21875 34.515625 
L 43.21875 35.40625 
Q 43.21875 41.609375 39.140625 45 
Q 35.0625 48.390625 27.6875 48.390625 
Q 23 48.390625 18.546875 47.265625 
Q 14.109375 46.140625 10.015625 43.890625 
L 10.015625 52.203125 
Q 14.9375 54.109375 19.578125 55.046875 
Q 24.21875 56 28.609375 56 
Q 40.484375 56 46.34375 49.84375 
Q 52.203125 43.703125 52.203125 31.203125 
z
" id="DejaVuSans-61"/>
     <path d="M 18.3125 70.21875 
L 18.3125 54.6875 
L 36.8125 54.6875 
L 36.8125 47.703125 
L 18.3125 47.703125 
L 18.3125 18.015625 
Q 18.3125 11.328125 20.140625 9.421875 
Q 21.96875 7.515625 27.59375 7.515625 
L 36.8125 7.515625 
L 36.8125 0 
L 27.59375 0 
Q 17.1875 0 13.234375 3.875 
Q 9.28125 7.765625 9.28125 18.015625 
L 9.28125 47.703125 
L 2.6875 47.703125 
L 2.6875 54.6875 
L 9.28125 54.6875 
L 9.28125 70.21875 
z
" id="DejaVuSans-74"/>
     <path d="M 56.203125 29.59375 
L 56.203125 25.203125 
L 14.890625 25.203125 
Q 15.484375 15.921875 20.484375 11.0625 
Q 25.484375 6.203125 34.421875 6.203125 
Q 39.59375 6.203125 44.453125 7.46875 
Q 49.3125 8.734375 54.109375 11.28125 
L 54.109375 2.78125 
Q 49.265625 0.734375 44.1875 -0.34375 
Q 39.109375 -1.421875 33.890625 -1.421875 
Q 20.796875 -1.421875 13.15625 6.1875 
Q 5.515625 13.8125 5.515625 26.8125 
Q 5.515625 40.234375 12.765625 48.109375 
Q 20.015625 56 32.328125 56 
Q 43.359375 56 49.78125 48.890625 
Q 56.203125 41.796875 56.203125 29.59375 
z
M 47.21875 32.234375 
Q 47.125 39.59375 43.09375 43.984375 
Q 39.0625 48.390625 32.421875 48.390625 
Q 24.90625 48.390625 20.390625 44.140625 
Q 15.875 39.890625 15.1875 32.171875 
z
" id="DejaVuSans-65"/>
     <path d="M 45.40625 46.390625 
L 45.40625 75.984375 
L 54.390625 75.984375 
L 54.390625 0 
L 45.40625 0 
L 45.40625 8.203125 
Q 42.578125 3.328125 38.25 0.953125 
Q 33.9375 -1.421875 27.875 -1.421875 
Q 17.96875 -1.421875 11.734375 6.484375 
Q 5.515625 14.40625 5.515625 27.296875 
Q 5.515625 40.1875 11.734375 48.09375 
Q 17.96875 56 27.875 56 
Q 33.9375 56 38.25 53.625 
Q 42.578125 51.265625 45.40625 46.390625 
z
M 14.796875 27.296875 
Q 14.796875 17.390625 18.875 11.75 
Q 22.953125 6.109375 30.078125 6.109375 
Q 37.203125 6.109375 41.296875 11.75 
Q 45.40625 17.390625 45.40625 27.296875 
Q 45.40625 37.203125 41.296875 42.84375 
Q 37.203125 48.484375 30.078125 48.484375 
Q 22.953125 48.484375 18.875 42.84375 
Q 14.796875 37.203125 14.796875 27.296875 
z
" id="DejaVuSans-64"/>
     <path id="DejaVuSans-20"/>
     <path d="M 59.515625 10.40625 
L 59.515625 29.984375 
L 43.40625 29.984375 
L 43.40625 38.09375 
L 69.28125 38.09375 
L 69.28125 6.78125 
Q 63.578125 2.734375 56.6875 0.65625 
Q 49.8125 -1.421875 42 -1.421875 
Q 24.90625 -1.421875 15.25 8.5625 
Q 5.609375 18.5625 5.609375 36.375 
Q 5.609375 54.25 15.25 64.234375 
Q 24.90625 74.21875 42 74.21875 
Q 49.125 74.21875 55.546875 72.453125 
Q 61.96875 70.703125 67.390625 67.28125 
L 67.390625 56.78125 
Q 61.921875 61.421875 55.765625 63.765625 
Q 49.609375 66.109375 42.828125 66.109375 
Q 29.4375 66.109375 22.71875 58.640625 
Q 16.015625 51.171875 16.015625 36.375 
Q 16.015625 21.625 22.71875 14.15625 
Q 29.4375 6.6875 42.828125 6.6875 
Q 48.046875 6.6875 52.140625 7.59375 
Q 56.25 8.5 59.515625 10.40625 
z
" id="DejaVuSans-47"/>
     <path d="M 30.609375 48.390625 
Q 23.390625 48.390625 19.1875 42.75 
Q 14.984375 37.109375 14.984375 27.296875 
Q 14.984375 17.484375 19.15625 11.84375 
Q 23.34375 6.203125 30.609375 6.203125 
Q 37.796875 6.203125 41.984375 11.859375 
Q 46.1875 17.53125 46.1875 27.296875 
Q 46.1875 37.015625 41.984375 42.703125 
Q 37.796875 48.390625 30.609375 48.390625 
z
M 30.609375 56 
Q 42.328125 56 49.015625 48.375 
Q 55.71875 40.765625 55.71875 27.296875 
Q 55.71875 13.875 49.015625 6.21875 
Q 42.328125 -1.421875 30.609375 -1.421875 
Q 18.84375 -1.421875 12.171875 6.21875 
Q 5.515625 13.875 5.515625 27.296875 
Q 5.515625 40.765625 12.171875 48.375 
Q 18.84375 56 30.609375 56 
z
" id="DejaVuSans-6f"/>
     <path d="M 41.109375 46.296875 
Q 39.59375 47.171875 37.8125 47.578125 
Q 36.03125 48 33.890625 48 
Q 26.265625 48 22.1875 43.046875 
Q 18.109375 38.09375 18.109375 28.8125 
L 18.109375 0 
L 9.078125 0 
L 9.078125 54.6875 
L 18.109375 54.6875 
L 18.109375 46.1875 
Q 20.953125 51.171875 25.484375 53.578125 
Q 30.03125 56 36.53125 56 
Q 37.453125 56 38.578125 55.875 
Q 39.703125 55.765625 41.0625 55.515625 
z
" id="DejaVuSans-72"/>
     <path d="M 48.78125 52.59375 
L 48.78125 44.1875 
Q 44.96875 46.296875 41.140625 47.34375 
Q 37.3125 48.390625 33.40625 48.390625 
Q 24.65625 48.390625 19.8125 42.84375 
Q 14.984375 37.3125 14.984375 27.296875 
Q 14.984375 17.28125 19.8125 11.734375 
Q 24.65625 6.203125 33.40625 6.203125 
Q 37.3125 6.203125 41.140625 7.25 
Q 44.96875 8.296875 48.78125 10.40625 
L 48.78125 2.09375 
Q 45.015625 0.34375 40.984375 -0.53125 
Q 36.96875 -1.421875 32.421875 -1.421875 
Q 20.0625 -1.421875 12.78125 6.34375 
Q 5.515625 14.109375 5.515625 27.296875 
Q 5.515625 40.671875 12.859375 48.328125 
Q 20.21875 56 33.015625 56 
Q 37.15625 56 41.109375 55.140625 
Q 45.0625 54.296875 48.78125 52.59375 
z
" id="DejaVuSans-63"/>
     <path d="M 19.671875 34.8125 
L 19.671875 8.109375 
L 35.5 8.109375 
Q 43.453125 8.109375 47.28125 11.40625 
Q 51.125 14.703125 51.125 21.484375 
Q 51.125 28.328125 47.28125 31.5625 
Q 43.453125 34.8125 35.5 34.8125 
z
M 19.671875 64.796875 
L 19.671875 42.828125 
L 34.28125 42.828125 
Q 41.5 42.828125 45.03125 45.53125 
Q 48.578125 48.25 48.578125 53.8125 
Q 48.578125 59.328125 45.03125 62.0625 
Q 41.5 64.796875 34.28125 64.796875 
z
M 9.8125 72.90625 
L 35.015625 72.90625 
Q 46.296875 72.90625 52.390625 68.21875 
Q 58.5 63.53125 58.5 54.890625 
Q 58.5 48.1875 55.375 44.234375 
Q 52.25 40.28125 46.1875 39.3125 
Q 53.46875 37.75 57.5 32.78125 
Q 61.53125 27.828125 61.53125 20.40625 
Q 61.53125 10.640625 54.890625 5.3125 
Q 48.25 0 35.984375 0 
L 9.8125 0 
z
" id="DejaVuSans-42"/>
     <path d="M 4.203125 54.6875 
L 13.1875 54.6875 
L 24.421875 12.015625 
L 35.59375 54.6875 
L 46.1875 54.6875 
L 57.421875 12.015625 
L 68.609375 54.6875 
L 77.59375 54.6875 
L 63.28125 0 
L 52.6875 0 
L 40.921875 44.828125 
L 29.109375 0 
L 18.5 0 
z
" id="DejaVuSans-77"/>
     <path d="M 54.890625 33.015625 
L 54.890625 0 
L 45.90625 0 
L 45.90625 32.71875 
Q 45.90625 40.484375 42.875 44.328125 
Q 39.84375 48.1875 33.796875 48.1875 
Q 26.515625 48.1875 22.3125 43.546875 
Q 18.109375 38.921875 18.109375 30.90625 
L 18.109375 0 
L 9.078125 0 
L 9.078125 54.6875 
L 18.109375 54.6875 
L 18.109375 46.1875 
Q 21.34375 51.125 25.703125 53.5625 
Q 30.078125 56 35.796875 56 
Q 45.21875 56 50.046875 50.171875 
Q 54.890625 44.34375 54.890625 33.015625 
z
" id="DejaVuSans-6e"/>
     <path d="M 9.8125 72.90625 
L 24.515625 72.90625 
L 43.109375 23.296875 
L 61.8125 72.90625 
L 76.515625 72.90625 
L 76.515625 0 
L 66.890625 0 
L 66.890625 64.015625 
L 48.09375 14.015625 
L 38.1875 14.015625 
L 19.390625 64.015625 
L 19.390625 0 
L 9.8125 0 
z
" id="DejaVuSans-4d"/>
     <path d="M 19.671875 64.796875 
L 19.671875 37.40625 
L 32.078125 37.40625 
Q 38.96875 37.40625 42.71875 40.96875 
Q 46.484375 44.53125 46.484375 51.125 
Q 46.484375 57.671875 42.71875 61.234375 
Q 38.96875 64.796875 32.078125 64.796875 
z
M 9.8125 72.90625 
L 32.078125 72.90625 
Q 44.34375 72.90625 50.609375 67.359375 
Q 56.890625 61.8125 56.890625 51.125 
Q 56.890625 40.328125 50.609375 34.8125 
Q 44.34375 29.296875 32.078125 29.296875 
L 19.671875 29.296875 
L 19.671875 0 
L 9.8125 0 
z
" id="DejaVuSans-50"/>
     <path d="M 54.890625 33.015625 
L 54.890625 0 
L 45.90625 0 
L 45.90625 32.71875 
Q 45.90625 40.484375 42.875 44.328125 
Q 39.84375 48.1875 33.796875 48.1875 
Q 26.515625 48.1875 22.3125 43.546875 
Q 18.109375 38.921875 18.109375 30.90625 
L 18.109375 0 
L 9.078125 0 
L 9.078125 75.984375 
L 18.109375 75.984375 
L 18.109375 46.1875 
Q 21.34375 51.125 25.703125 53.5625 
Q 30.078125 56 35.796875 56 
Q 45.21875 56 50.046875 50.171875 
Q 54.890625 44.34375 54.890625 33.015625 
z
" id="DejaVuSans-68"/>
    </defs>
    <g transform="translate(90.225 28.56)scale(0.12 -0.12)">
     <use xlink:href="#DejaVuSans-53"/>
     <use x="63.476562" xlink:href="#DejaVuSans-69"/>
     <use x="91.259766" xlink:href="#DejaVuSans-6d"/>
     <use x="188.671875" xlink:href="#DejaVuSans-75"/>
     <use x="252.050781" xlink:href="#DejaVuSans-6c"/>
     <use x="279.833984" xlink:href="#DejaVuSans-61"/>
     <use x="341.113281" xlink:href="#DejaVuSans-74"/>
     <use x="380.322266" xlink:href="#DejaVuSans-65"/>
     <use x="441.845703" xlink:href="#DejaVuSans-64"/>
     <use x="505.322266" xlink:href="#DejaVuSans-20"/>
     <use x="537.109375" xlink:href="#DejaVuSans-47"/>
     <use x="614.599609" xlink:href="#DejaVuSans-65"/>
     <use x="676.123047" xlink:href="#DejaVuSans-6f"/>
     <use x="737.304688" xlink:href="#DejaVuSans-6d"/>
     <use x="834.716797" xlink:href="#DejaVuSans-65"/>
     <use x="896.240234" xlink:href="#DejaVuSans-74"/>
     <use x="935.449219" xlink:href="#DejaVuSans-72"/>
     <use x="976.5625" xlink:href="#DejaVuSans-69"/>
     <use x="1004.345703" xlink:href="#DejaVuSans-63"/>
     <use x="1059.326172" xlink:href="#DejaVuSans-20"/>
     <use x="1091.113281" xlink:href="#DejaVuSans-42"/>
     <use x="1159.716797" xlink:href="#DejaVuSans-72"/>
     <use x="1200.798828" xlink:href="#DejaVuSans-6f"/>
     <use x="1261.980469" xlink:href="#DejaVuSans-77"/>
     <use x="1343.767578" xlink:href="#DejaVuSans-6e"/>
     <use x="1407.146484" xlink:href="#DejaVuSans-69"/>
     <use x="1434.929688" xlink:href="#DejaVuSans-61"/>
     <use x="1496.208984" xlink:href="#DejaVuSans-6e"/>
     <use x="1559.587891" xlink:href="#DejaVuSans-20"/>
     <use x="1591.375" xlink:href="#DejaVuSans-4d"/>
     <use x="1677.654297" xlink:href="#DejaVuSans-6f"/>
     <use x="1738.835938" xlink:href="#DejaVuSans-74"/>
     <use x="1778.044922" xlink:href="#DejaVuSans-69"/>
     <use x="1805.828125" xlink:href="#DejaVuSans-6f"/>
     <use x="1867.009766" xlink:href="#DejaVuSans-6e"/>
     <use x="1930.388672" xlink:href="#DejaVuSans-20"/>
     <use x="1962.175781" xlink:href="#DejaVuSans-50"/>
     <use x="2022.416016" xlink:href="#DejaVuSans-61"/>
     <use x="2083.695312" xlink:href="#DejaVuSans-74"/>
     <use x="2122.904297" xlink:href="#DejaVuSans-68"/>
    </g>
   </g>
  </g>
 </g>
 <defs>
  <clipPath id="pf66e4c3c3a">
   <rect height="217.44" width="334.8" x="54" y="34.56"/>
  </clipPath>
 </defs>
</svg>
