<?xml version="1.0" encoding="utf-8" standalone="no"?>
<!DOCTYPE svg PUBLIC "-//W3C//DTD SVG 1.1//EN"
  "http://www.w3.org/Graphics/SVG/1.1/DTD/svg11.dtd">
<!-- Created with matplotlib (http://matplotlib.org/) -->
<svg height="288pt" version="1.1" viewBox="0 0 432 288" width="432pt" xmlns="http://www.w3.org/2000/svg" xmlns:xlink="http://www.w3.org/1999/xlink">
 <defs>
  <style type="text/css">
*{stroke-linecap:butt;stroke-linejoin:round;}
  </style>
 </defs>
 <g id="figure_1">
  <g id="patch_1">
   <path d="M 0 288 
L 432 288 
L 432 0 
L 0 0 
z
" style="fill:#ffffff;"/>
  </g>
  <g id="axes_1">
   <g id="patch_2">
    <path d="M 54 252 
L 388.8 252 
L 388.8 34.56 
L 54 34.56 
z
" style="fill:#ffffff;"/>
   </g>
   <g id="matplotlib.axis_1">
    <g id="xtick_1">
     <g id="line2d_1">
      <defs>
       <path d="M 0 0 
L 0 3.5 
" id="m6fd3feccb8" style="stroke:#000000;stroke-width:0.8;"/>
      </defs>
      <g>
       <use style="stroke:#000000;stroke-width:0.8;" x="54" xlink:href="#m6fd3feccb8" y="252"/>
      </g>
     </g>
     <g id="text_1">
      <!-- 0.0 -->
      <defs>
       <path d="M 31.78125 66.40625 
Q 24.171875 66.40625 20.328125 58.90625 
Q 16.5 51.421875 16.5 36.375 
Q 16.5 21.390625 20.328125 13.890625 
Q 24.171875 6.390625 31.78125 6.390625 
Q 39.453125 6.390625 43.28125 13.890625 
Q 47.125 21.390625 47.125 36.375 
Q 47.125 51.421875 43.28125 58.90625 
Q 39.453125 66.40625 31.78125 66.40625 
z
M 31.78125 74.21875 
Q 44.046875 74.21875 50.515625 64.515625 
Q 56.984375 54.828125 56.984375 36.375 
Q 56.984375 17.96875 50.515625 8.265625 
Q 44.046875 -1.421875 31.78125 -1.421875 
Q 19.53125 -1.421875 13.0625 8.265625 
Q 6.59375 17.96875 6.59375 36.375 
Q 6.59375 54.828125 13.0625 64.515625 
Q 19.53125 74.21875 31.78125 74.21875 
z
" id="DejaVuSans-30"/>
       <path d="M 10.6875 12.40625 
L 21 12.40625 
L 21 0 
L 10.6875 0 
z
" id="DejaVuSans-2e"/>
      </defs>
      <g transform="translate(46.048437 266.598437)scale(0.1 -0.1)">
       <use xlink:href="#DejaVuSans-30"/>
       <use x="63.623047" xlink:href="#DejaVuSans-2e"/>
       <use x="95.410156" xlink:href="#DejaVuSans-30"/>
      </g>
     </g>
    </g>
    <g id="xtick_2">
     <g id="line2d_2">
      <g>
       <use style="stroke:#000000;stroke-width:0.8;" x="120.96" xlink:href="#m6fd3feccb8" y="252"/>
      </g>
     </g>
     <g id="text_2">
      <!-- 0.2 -->
      <defs>
       <path d="M 19.1875 8.296875 
L 53.609375 8.296875 
L 53.609375 0 
L 7.328125 0 
L 7.328125 8.296875 
Q 12.9375 14.109375 22.625 23.890625 
Q 32.328125 33.6875 34.8125 36.53125 
Q 39.546875 41.84375 41.421875 45.53125 
Q 43.3125 49.21875 43.3125 52.78125 
Q 43.3125 58.59375 39.234375 62.25 
Q 35.15625 65.921875 28.609375 65.921875 
Q 23.96875 65.921875 18.8125 64.3125 
Q 13.671875 62.703125 7.8125 59.421875 
L 7.8125 69.390625 
Q 13.765625 71.78125 18.9375 73 
Q 24.125 74.21875 28.421875 74.21875 
Q 39.75 74.21875 46.484375 68.546875 
Q 53.21875 62.890625 53.21875 53.421875 
Q 53.21875 48.921875 51.53125 44.890625 
Q 49.859375 40.875 45.40625 35.40625 
Q 44.1875 33.984375 37.640625 27.21875 
Q 31.109375 20.453125 19.1875 8.296875 
z
" id="DejaVuSans-32"/>
      </defs>
      <g transform="translate(113.008438 266.598437)scale(0.1 -0.1)">
       <use xlink:href="#DejaVuSans-30"/>
       <use x="63.623047" xlink:href="#DejaVuSans-2e"/>
       <use x="95.410156" xlink:href="#DejaVuSans-32"/>
      </g>
     </g>
    </g>
    <g id="xtick_3">
     <g id="line2d_3">
      <g>
       <use style="stroke:#000000;stroke-width:0.8;" x="187.92" xlink:href="#m6fd3feccb8" y="252"/>
      </g>
     </g>
     <g id="text_3">
      <!-- 0.4 -->
      <defs>
       <path d="M 37.796875 64.3125 
L 12.890625 25.390625 
L 37.796875 25.390625 
z
M 35.203125 72.90625 
L 47.609375 72.90625 
L 47.609375 25.390625 
L 58.015625 25.390625 
L 58.015625 17.1875 
L 47.609375 17.1875 
L 47.609375 0 
L 37.796875 0 
L 37.796875 17.1875 
L 4.890625 17.1875 
L 4.890625 26.703125 
z
" id="DejaVuSans-34"/>
      </defs>
      <g transform="translate(179.968438 266.598437)scale(0.1 -0.1)">
       <use xlink:href="#DejaVuSans-30"/>
       <use x="63.623047" xlink:href="#DejaVuSans-2e"/>
       <use x="95.410156" xlink:href="#DejaVuSans-34"/>
      </g>
     </g>
    </g>
    <g id="xtick_4">
     <g id="line2d_4">
      <g>
       <use style="stroke:#000000;stroke-width:0.8;" x="254.88" xlink:href="#m6fd3feccb8" y="252"/>
      </g>
     </g>
     <g id="text_4">
      <!-- 0.6 -->
      <defs>
       <path d="M 33.015625 40.375 
Q 26.375 40.375 22.484375 35.828125 
Q 18.609375 31.296875 18.609375 23.390625 
Q 18.609375 15.53125 22.484375 10.953125 
Q 26.375 6.390625 33.015625 6.390625 
Q 39.65625 6.390625 43.53125 10.953125 
Q 47.40625 15.53125 47.40625 23.390625 
Q 47.40625 31.296875 43.53125 35.828125 
Q 39.65625 40.375 33.015625 40.375 
z
M 52.59375 71.296875 
L 52.59375 62.3125 
Q 48.875 64.0625 45.09375 64.984375 
Q 41.3125 65.921875 37.59375 65.921875 
Q 27.828125 65.921875 22.671875 59.328125 
Q 17.53125 52.734375 16.796875 39.40625 
Q 19.671875 43.65625 24.015625 45.921875 
Q 28.375 48.1875 33.59375 48.1875 
Q 44.578125 48.1875 50.953125 41.515625 
Q 57.328125 34.859375 57.328125 23.390625 
Q 57.328125 12.15625 50.6875 5.359375 
Q 44.046875 -1.421875 33.015625 -1.421875 
Q 20.359375 -1.421875 13.671875 8.265625 
Q 6.984375 17.96875 6.984375 36.375 
Q 6.984375 53.65625 15.1875 63.9375 
Q 23.390625 74.21875 37.203125 74.21875 
Q 40.921875 74.21875 44.703125 73.484375 
Q 48.484375 72.75 52.59375 71.296875 
z
" id="DejaVuSans-36"/>
      </defs>
      <g transform="translate(246.928438 266.598437)scale(0.1 -0.1)">
       <use xlink:href="#DejaVuSans-30"/>
       <use x="63.623047" xlink:href="#DejaVuSans-2e"/>
       <use x="95.410156" xlink:href="#DejaVuSans-36"/>
      </g>
     </g>
    </g>
    <g id="xtick_5">
     <g id="line2d_5">
      <g>
       <use style="stroke:#000000;stroke-width:0.8;" x="321.84" xlink:href="#m6fd3feccb8" y="252"/>
      </g>
     </g>
     <g id="text_5">
      <!-- 0.8 -->
      <defs>
       <path d="M 31.78125 34.625 
Q 24.75 34.625 20.71875 30.859375 
Q 16.703125 27.09375 16.703125 20.515625 
Q 16.703125 13.921875 20.71875 10.15625 
Q 24.75 6.390625 31.78125 6.390625 
Q 38.8125 6.390625 42.859375 10.171875 
Q 46.921875 13.96875 46.921875 20.515625 
Q 46.921875 27.09375 42.890625 30.859375 
Q 38.875 34.625 31.78125 34.625 
z
M 21.921875 38.8125 
Q 15.578125 40.375 12.03125 44.71875 
Q 8.5 49.078125 8.5 55.328125 
Q 8.5 64.0625 14.71875 69.140625 
Q 20.953125 74.21875 31.78125 74.21875 
Q 42.671875 74.21875 48.875 69.140625 
Q 55.078125 64.0625 55.078125 55.328125 
Q 55.078125 49.078125 51.53125 44.71875 
Q 48 40.375 41.703125 38.8125 
Q 48.828125 37.15625 52.796875 32.3125 
Q 56.78125 27.484375 56.78125 20.515625 
Q 56.78125 9.90625 50.3125 4.234375 
Q 43.84375 -1.421875 31.78125 -1.421875 
Q 19.734375 -1.421875 13.25 4.234375 
Q 6.78125 9.90625 6.78125 20.515625 
Q 6.78125 27.484375 10.78125 32.3125 
Q 14.796875 37.15625 21.921875 38.8125 
z
M 18.3125 54.390625 
Q 18.3125 48.734375 21.84375 45.5625 
Q 25.390625 42.390625 31.78125 42.390625 
Q 38.140625 42.390625 41.71875 45.5625 
Q 45.3125 48.734375 45.3125 54.390625 
Q 45.3125 60.0625 41.71875 63.234375 
Q 38.140625 66.40625 31.78125 66.40625 
Q 25.390625 66.40625 21.84375 63.234375 
Q 18.3125 60.0625 18.3125 54.390625 
z
" id="DejaVuSans-38"/>
      </defs>
      <g transform="translate(313.888438 266.598437)scale(0.1 -0.1)">
       <use xlink:href="#DejaVuSans-30"/>
       <use x="63.623047" xlink:href="#DejaVuSans-2e"/>
       <use x="95.410156" xlink:href="#DejaVuSans-38"/>
      </g>
     </g>
    </g>
    <g id="xtick_6">
     <g id="line2d_6">
      <g>
       <use style="stroke:#000000;stroke-width:0.8;" x="388.8" xlink:href="#m6fd3feccb8" y="252"/>
      </g>
     </g>
     <g id="text_6">
      <!-- 1.0 -->
      <defs>
       <path d="M 12.40625 8.296875 
L 28.515625 8.296875 
L 28.515625 63.921875 
L 10.984375 60.40625 
L 10.984375 69.390625 
L 28.421875 72.90625 
L 38.28125 72.90625 
L 38.28125 8.296875 
L 54.390625 8.296875 
L 54.390625 0 
L 12.40625 0 
z
" id="DejaVuSans-31"/>
      </defs>
      <g transform="translate(380.848437 266.598437)scale(0.1 -0.1)">
       <use xlink:href="#DejaVuSans-31"/>
       <use x="63.623047" xlink:href="#DejaVuSans-2e"/>
       <use x="95.410156" xlink:href="#DejaVuSans-30"/>
      </g>
     </g>
    </g>
    <g id="text_7">
     <!-- $t$ -->
     <defs>
      <path d="M 42.28125 54.6875 
L 40.921875 47.703125 
L 23 47.703125 
L 17.1875 18.015625 
Q 16.890625 16.359375 16.75 15.234375 
Q 16.609375 14.109375 16.609375 13.484375 
Q 16.609375 10.359375 18.484375 8.9375 
Q 20.359375 7.515625 24.515625 7.515625 
L 33.59375 7.515625 
L 32.078125 0 
L 23.484375 0 
Q 15.484375 0 11.546875 3.125 
Q 7.625 6.25 7.625 12.59375 
Q 7.625 13.71875 7.765625 15.0625 
Q 7.90625 16.40625 8.203125 18.015625 
L 14.015625 47.703125 
L 6.390625 47.703125 
L 7.8125 54.6875 
L 15.28125 54.6875 
L 18.3125 70.21875 
L 27.296875 70.21875 
L 24.3125 54.6875 
z
" id="DejaVuSans-Oblique-74"/>
     </defs>
     <g transform="translate(219.4 280.276563)scale(0.1 -0.1)">
      <use transform="translate(0 0.78125)" xlink:href="#DejaVuSans-Oblique-74"/>
     </g>
    </g>
   </g>
   <g id="matplotlib.axis_2">
    <g id="ytick_1">
     <g id="line2d_7">
      <defs>
       <path d="M 0 0 
L -3.5 0 
" id="m0594e79edf" style="stroke:#000000;stroke-width:0.8;"/>
      </defs>
      <g>
       <use style="stroke:#000000;stroke-width:0.8;" x="54" xlink:href="#m0594e79edf" y="250.05311"/>
      </g>
     </g>
     <g id="text_8">
      <!-- 0.00 -->
      <g transform="translate(24.734375 253.852329)scale(0.1 -0.1)">
       <use xlink:href="#DejaVuSans-30"/>
       <use x="63.623047" xlink:href="#DejaVuSans-2e"/>
       <use x="95.410156" xlink:href="#DejaVuSans-30"/>
       <use x="159.033203" xlink:href="#DejaVuSans-30"/>
      </g>
     </g>
    </g>
    <g id="ytick_2">
     <g id="line2d_8">
      <g>
       <use style="stroke:#000000;stroke-width:0.8;" x="54" xlink:href="#m0594e79edf" y="222.881638"/>
      </g>
     </g>
     <g id="text_9">
      <!-- 0.25 -->
      <defs>
       <path d="M 10.796875 72.90625 
L 49.515625 72.90625 
L 49.515625 64.59375 
L 19.828125 64.59375 
L 19.828125 46.734375 
Q 21.96875 47.46875 24.109375 47.828125 
Q 26.265625 48.1875 28.421875 48.1875 
Q 40.625 48.1875 47.75 41.5 
Q 54.890625 34.8125 54.890625 23.390625 
Q 54.890625 11.625 47.5625 5.09375 
Q 40.234375 -1.421875 26.90625 -1.421875 
Q 22.3125 -1.421875 17.546875 -0.640625 
Q 12.796875 0.140625 7.71875 1.703125 
L 7.71875 11.625 
Q 12.109375 9.234375 16.796875 8.0625 
Q 21.484375 6.890625 26.703125 6.890625 
Q 35.15625 6.890625 40.078125 11.328125 
Q 45.015625 15.765625 45.015625 23.390625 
Q 45.015625 31 40.078125 35.4375 
Q 35.15625 39.890625 26.703125 39.890625 
Q 22.75 39.890625 18.8125 39.015625 
Q 14.890625 38.140625 10.796875 36.28125 
z
" id="DejaVuSans-35"/>
      </defs>
      <g transform="translate(24.734375 226.680857)scale(0.1 -0.1)">
       <use xlink:href="#DejaVuSans-30"/>
       <use x="63.623047" xlink:href="#DejaVuSans-2e"/>
       <use x="95.410156" xlink:href="#DejaVuSans-32"/>
       <use x="159.033203" xlink:href="#DejaVuSans-35"/>
      </g>
     </g>
    </g>
    <g id="ytick_3">
     <g id="line2d_9">
      <g>
       <use style="stroke:#000000;stroke-width:0.8;" x="54" xlink:href="#m0594e79edf" y="195.710167"/>
      </g>
     </g>
     <g id="text_10">
      <!-- 0.50 -->
      <g transform="translate(24.734375 199.509385)scale(0.1 -0.1)">
       <use xlink:href="#DejaVuSans-30"/>
       <use x="63.623047" xlink:href="#DejaVuSans-2e"/>
       <use x="95.410156" xlink:href="#DejaVuSans-35"/>
       <use x="159.033203" xlink:href="#DejaVuSans-30"/>
      </g>
     </g>
    </g>
    <g id="ytick_4">
     <g id="line2d_10">
      <g>
       <use style="stroke:#000000;stroke-width:0.8;" x="54" xlink:href="#m0594e79edf" y="168.538695"/>
      </g>
     </g>
     <g id="text_11">
      <!-- 0.75 -->
      <defs>
       <path d="M 8.203125 72.90625 
L 55.078125 72.90625 
L 55.078125 68.703125 
L 28.609375 0 
L 18.3125 0 
L 43.21875 64.59375 
L 8.203125 64.59375 
z
" id="DejaVuSans-37"/>
      </defs>
      <g transform="translate(24.734375 172.337914)scale(0.1 -0.1)">
       <use xlink:href="#DejaVuSans-30"/>
       <use x="63.623047" xlink:href="#DejaVuSans-2e"/>
       <use x="95.410156" xlink:href="#DejaVuSans-37"/>
       <use x="159.033203" xlink:href="#DejaVuSans-35"/>
      </g>
     </g>
    </g>
    <g id="ytick_5">
     <g id="line2d_11">
      <g>
       <use style="stroke:#000000;stroke-width:0.8;" x="54" xlink:href="#m0594e79edf" y="141.367223"/>
      </g>
     </g>
     <g id="text_12">
      <!-- 1.00 -->
      <g transform="translate(24.734375 145.166442)scale(0.1 -0.1)">
       <use xlink:href="#DejaVuSans-31"/>
       <use x="63.623047" xlink:href="#DejaVuSans-2e"/>
       <use x="95.410156" xlink:href="#DejaVuSans-30"/>
       <use x="159.033203" xlink:href="#DejaVuSans-30"/>
      </g>
     </g>
    </g>
    <g id="ytick_6">
     <g id="line2d_12">
      <g>
       <use style="stroke:#000000;stroke-width:0.8;" x="54" xlink:href="#m0594e79edf" y="114.195752"/>
      </g>
     </g>
     <g id="text_13">
      <!-- 1.25 -->
      <g transform="translate(24.734375 117.99497)scale(0.1 -0.1)">
       <use xlink:href="#DejaVuSans-31"/>
       <use x="63.623047" xlink:href="#DejaVuSans-2e"/>
       <use x="95.410156" xlink:href="#DejaVuSans-32"/>
       <use x="159.033203" xlink:href="#DejaVuSans-35"/>
      </g>
     </g>
    </g>
    <g id="ytick_7">
     <g id="line2d_13">
      <g>
       <use style="stroke:#000000;stroke-width:0.8;" x="54" xlink:href="#m0594e79edf" y="87.02428"/>
      </g>
     </g>
     <g id="text_14">
      <!-- 1.50 -->
      <g transform="translate(24.734375 90.823499)scale(0.1 -0.1)">
       <use xlink:href="#DejaVuSans-31"/>
       <use x="63.623047" xlink:href="#DejaVuSans-2e"/>
       <use x="95.410156" xlink:href="#DejaVuSans-35"/>
       <use x="159.033203" xlink:href="#DejaVuSans-30"/>
      </g>
     </g>
    </g>
    <g id="ytick_8">
     <g id="line2d_14">
      <g>
       <use style="stroke:#000000;stroke-width:0.8;" x="54" xlink:href="#m0594e79edf" y="59.852808"/>
      </g>
     </g>
     <g id="text_15">
      <!-- 1.75 -->
      <g transform="translate(24.734375 63.652027)scale(0.1 -0.1)">
       <use xlink:href="#DejaVuSans-31"/>
       <use x="63.623047" xlink:href="#DejaVuSans-2e"/>
       <use x="95.410156" xlink:href="#DejaVuSans-37"/>
       <use x="159.033203" xlink:href="#DejaVuSans-35"/>
      </g>
     </g>
    </g>
    <g id="text_16">
     <!-- $S_t$ -->
     <defs>
      <path d="M 60.296875 70.515625 
L 58.40625 60.890625 
Q 53.46875 63.53125 48.609375 64.875 
Q 43.75 66.21875 39.203125 66.21875 
Q 30.375 66.21875 25.140625 62.359375 
Q 19.921875 58.5 19.921875 52.09375 
Q 19.921875 48.578125 21.84375 46.703125 
Q 23.78125 44.828125 31.78125 42.671875 
L 37.703125 41.21875 
Q 47.703125 38.625 51.609375 34.640625 
Q 55.515625 30.671875 55.515625 23.484375 
Q 55.515625 12.453125 46.84375 5.515625 
Q 38.1875 -1.421875 24.03125 -1.421875 
Q 18.21875 -1.421875 12.359375 -0.265625 
Q 6.5 0.875 0.59375 3.21875 
L 2.59375 13.375 
Q 8.015625 10.015625 13.453125 8.296875 
Q 18.890625 6.59375 24.3125 6.59375 
Q 33.546875 6.59375 39.109375 10.6875 
Q 44.671875 14.796875 44.671875 21.390625 
Q 44.671875 25.78125 42.453125 28.046875 
Q 40.234375 30.328125 32.90625 32.171875 
L 27 33.6875 
Q 16.890625 36.328125 13.203125 39.765625 
Q 9.515625 43.21875 9.515625 49.421875 
Q 9.515625 60.296875 17.890625 67.25 
Q 26.265625 74.21875 39.703125 74.21875 
Q 44.921875 74.21875 50.046875 73.28125 
Q 55.171875 72.359375 60.296875 70.515625 
z
" id="DejaVuSans-Oblique-53"/>
     </defs>
     <g transform="translate(18.654688 147.98)rotate(-90)scale(0.1 -0.1)">
      <use transform="translate(0 0.78125)" xlink:href="#DejaVuSans-Oblique-53"/>
      <use transform="translate(63.476562 -15.625)scale(0.7)" xlink:href="#DejaVuSans-Oblique-74"/>
     </g>
    </g>
   </g>
   <g id="line2d_15">
    <path clip-path="url(#p7ae33ca655)" d="M 54 141.367223 
L 54.3348 139.991903 
L 54.6696 136.585463 
L 55.3392 121.368813 
L 55.674 125.345703 
L 56.0088 121.59894 
L 56.6784 122.631041 
L 57.0132 120.976559 
L 57.348 120.388608 
L 57.6828 114.425575 
L 58.0176 111.161546 
L 58.3524 110.627133 
L 59.022 107.178291 
L 59.3568 100.427895 
L 59.6916 101.398614 
L 60.0264 99.926925 
L 60.3612 103.981664 
L 60.696 115.774396 
L 61.0308 112.998958 
L 61.3656 109.252463 
L 61.7004 112.556958 
L 62.0352 102.688042 
L 62.37 109.465521 
L 62.7048 109.262089 
L 63.0396 110.095469 
L 63.7092 96.493246 
L 64.044 95.740823 
L 64.3788 93.895472 
L 64.7136 98.279481 
L 65.0484 107.786321 
L 65.3832 109.351533 
L 65.718 108.655877 
L 66.3876 97.569334 
L 67.0572 100.876846 
L 67.7268 112.299885 
L 68.0616 119.732636 
L 68.3964 111.693305 
L 69.066 115.809021 
L 69.4008 121.127352 
L 69.7356 117.957531 
L 70.0704 124.699152 
L 70.4052 125.542463 
L 70.74 129.068248 
L 71.0748 127.588007 
L 71.4096 129.566195 
L 71.7444 134.064558 
L 72.0792 134.167927 
L 72.414 132.598257 
L 72.7488 132.351196 
L 73.0836 131.225377 
L 73.4184 133.608945 
L 73.7532 134.944663 
L 74.088 137.392451 
L 74.4228 138.673411 
L 74.7576 141.537422 
L 75.0924 147.461277 
L 75.4272 146.885664 
L 75.762 148.196451 
L 76.0968 153.447304 
L 76.4316 152.03353 
L 76.7664 154.845839 
L 77.1012 154.689446 
L 77.436 152.490754 
L 77.7708 152.092817 
L 78.1056 148.563208 
L 78.4404 152.526249 
L 78.7752 151.285399 
L 79.7796 157.805211 
L 80.1144 158.714052 
L 80.4492 158.551824 
L 80.784 161.923214 
L 81.1188 159.41269 
L 81.4536 158.077961 
L 81.7884 162.546141 
L 82.1232 158.427829 
L 82.458 152.934593 
L 82.7928 149.314376 
L 83.1276 149.887551 
L 83.4624 153.279174 
L 83.7972 150.052277 
L 84.132 151.327245 
L 84.4668 147.510789 
L 84.8016 146.835421 
L 85.1364 143.647642 
L 85.4712 142.448528 
L 85.806 140.044232 
L 86.1408 140.007705 
L 86.4756 133.79298 
L 86.8104 133.326392 
L 87.1452 131.842559 
L 87.48 124.803068 
L 88.1496 134.958822 
L 88.4844 131.430605 
L 88.8192 135.831193 
L 89.154 128.810806 
L 89.4888 130.396629 
L 89.8236 133.224901 
L 90.828 112.656665 
L 91.1628 108.720031 
L 91.4976 112.569145 
L 91.8324 104.264899 
L 92.1672 105.500456 
L 92.8368 97.392387 
L 93.1716 98.140707 
L 93.5064 95.190736 
L 93.8412 90.674526 
L 94.176 88.777343 
L 94.5108 94.384274 
L 94.8456 92.916142 
L 95.1804 86.325189 
L 95.5152 89.921336 
L 95.85 90.679057 
L 96.1848 92.872165 
L 96.5196 83.680404 
L 96.8544 80.143349 
L 97.1892 77.954049 
L 97.524 82.144125 
L 97.8588 79.280847 
L 98.1936 82.922441 
L 98.5284 82.754212 
L 98.8632 86.118128 
L 99.5328 79.558413 
L 99.8676 80.681459 
L 100.2024 78.560446 
L 100.872 92.295861 
L 101.2068 90.103858 
L 101.5416 89.260817 
L 101.8764 86.031873 
L 102.2112 73.670961 
L 102.546 68.402945 
L 102.8808 73.646453 
L 103.2156 67.415213 
L 103.5504 75.01526 
L 103.8852 77.570215 
L 104.22 77.942431 
L 104.5548 68.617362 
L 105.2244 77.520414 
L 105.5592 78.057568 
L 105.894 81.666211 
L 106.2288 75.667031 
L 106.8984 87.734092 
L 107.568 92.502409 
L 107.9028 82.889113 
L 108.2376 77.870294 
L 108.5724 77.393586 
L 108.9072 84.084432 
L 109.242 79.652885 
L 109.5768 85.042574 
L 109.9116 93.103331 
L 110.2464 87.206916 
L 110.5812 85.574772 
L 110.916 80.785145 
L 111.2508 79.079084 
L 111.5856 74.446481 
L 111.9204 78.061736 
L 112.2552 83.686822 
L 112.59 80.100978 
L 113.2596 88.030525 
L 113.5944 90.364493 
L 113.9292 90.276227 
L 114.264 92.064813 
L 114.5988 98.934109 
L 114.9336 102.009834 
L 115.2684 112.418783 
L 115.6032 109.697539 
L 115.938 116.808164 
L 116.2728 121.461566 
L 116.6076 121.249441 
L 116.9424 124.261777 
L 117.2772 118.123864 
L 117.612 123.517623 
L 117.9468 122.449045 
L 118.2816 122.607558 
L 118.6164 127.315188 
L 118.9512 125.284187 
L 119.286 125.96103 
L 119.9556 119.622007 
L 120.2904 110.699538 
L 120.6252 104.809797 
L 120.96 106.505448 
L 121.2948 107.59208 
L 121.6296 102.638099 
L 122.2992 96.537557 
L 122.634 104.387213 
L 122.9688 104.499268 
L 123.3036 107.896289 
L 123.6384 106.637917 
L 123.9732 107.083048 
L 124.308 102.968028 
L 124.6428 101.492571 
L 124.9776 97.798483 
L 125.3124 100.044158 
L 125.6472 104.524327 
L 125.982 106.411386 
L 126.3168 106.488698 
L 126.6516 104.767385 
L 126.9864 94.387356 
L 127.3212 94.595371 
L 127.656 99.294802 
L 128.3256 103.130199 
L 128.6604 100.893182 
L 128.9952 108.160893 
L 129.33 107.877034 
L 129.6648 107.173381 
L 129.9996 106.124328 
L 130.3344 108.842969 
L 130.6692 109.905398 
L 131.004 116.216636 
L 131.6736 120.566205 
L 132.0084 118.86259 
L 132.3432 123.659138 
L 132.678 120.536745 
L 133.0128 114.415834 
L 133.3476 123.29447 
L 133.6824 121.585829 
L 134.0172 118.835896 
L 134.352 121.48091 
L 134.6868 123.096142 
L 135.0216 123.629622 
L 135.6912 126.043906 
L 136.026 132.616381 
L 136.6956 124.181542 
L 137.0304 127.419064 
L 137.3652 133.1059 
L 137.7 131.1789 
L 138.0348 133.343364 
L 138.3696 132.819459 
L 138.7044 134.00329 
L 139.374 128.860111 
L 139.7088 131.640933 
L 140.3784 142.489021 
L 140.7132 140.41283 
L 141.048 144.53476 
L 141.7176 148.183777 
L 142.0524 148.353117 
L 142.3872 154.580263 
L 142.722 154.010318 
L 143.0568 152.419188 
L 143.3916 152.146189 
L 143.7264 153.10872 
L 144.0612 152.810125 
L 144.396 151.58302 
L 144.7308 160.21659 
L 145.0656 154.660078 
L 145.4004 153.483325 
L 145.7352 155.475654 
L 146.07 156.644918 
L 146.4048 155.18649 
L 146.7396 155.534796 
L 147.0744 161.604372 
L 147.4092 155.829997 
L 147.744 156.159364 
L 148.0788 153.130286 
L 148.4136 155.251397 
L 148.7484 150.645503 
L 149.0832 149.745369 
L 149.418 147.81411 
L 149.7528 151.193499 
L 150.0876 147.407198 
L 150.4224 145.168084 
L 150.7572 140.850178 
L 151.4268 144.64729 
L 151.7616 136.967818 
L 152.0964 140.75851 
L 152.4312 141.228379 
L 152.766 137.315949 
L 153.1008 136.967554 
L 153.4356 134.882865 
L 153.7704 136.33766 
L 154.1052 135.006939 
L 154.44 139.760188 
L 154.7748 133.977012 
L 155.1096 134.41075 
L 155.4444 136.898116 
L 155.7792 134.513614 
L 156.114 136.196937 
L 156.7836 145.645068 
L 157.1184 143.354456 
L 157.788 144.341721 
L 158.1228 140.738945 
L 158.4576 144.634176 
L 158.7924 147.069992 
L 159.1272 148.323396 
L 159.462 148.019869 
L 159.7968 148.155939 
L 160.1316 149.080367 
L 160.4664 149.277142 
L 160.8012 149.619105 
L 161.4708 154.42788 
L 161.8056 153.59776 
L 162.4752 159.74591 
L 162.81 160.637743 
L 163.1448 161.083556 
L 163.4796 154.734345 
L 163.8144 156.858484 
L 164.484 151.810925 
L 164.8188 155.504609 
L 165.1536 153.19267 
L 165.4884 156.818892 
L 165.8232 164.658996 
L 166.158 163.021691 
L 166.4928 167.854209 
L 166.8276 166.68207 
L 167.1624 168.485412 
L 167.832 161.304022 
L 168.1668 162.576446 
L 168.5016 164.47918 
L 168.8364 167.764577 
L 169.1712 168.911942 
L 169.8408 170.558783 
L 170.1756 170.164856 
L 170.5104 168.703344 
L 170.8452 167.803856 
L 171.18 169.791356 
L 171.5148 173.440614 
L 171.8496 170.134763 
L 172.5192 173.489728 
L 172.854 174.751604 
L 173.1888 179.1404 
L 173.8584 181.271585 
L 174.528 178.373276 
L 174.8628 178.364729 
L 175.1976 176.252242 
L 175.5324 175.458836 
L 175.8672 175.495828 
L 176.202 175.116406 
L 176.5368 175.568199 
L 177.2064 177.120986 
L 177.5412 179.722537 
L 177.876 179.098821 
L 178.2108 181.327164 
L 178.5456 179.498042 
L 178.8804 180.054621 
L 179.2152 179.945061 
L 179.8848 177.401712 
L 180.2196 181.010123 
L 180.5544 181.461862 
L 180.8892 179.552714 
L 181.224 183.338502 
L 181.5588 182.521456 
L 181.8936 187.3383 
L 182.2284 189.366152 
L 182.5632 189.292017 
L 182.898 192.475286 
L 183.2328 194.269675 
L 183.5676 196.866032 
L 183.9024 194.093996 
L 184.2372 193.803382 
L 184.572 192.794301 
L 184.9068 193.197495 
L 185.2416 193.832941 
L 185.5764 196.70677 
L 185.9112 197.199088 
L 186.246 198.471839 
L 186.5808 197.072443 
L 187.5852 191.066344 
L 187.92 192.183028 
L 188.2548 194.225134 
L 188.5896 192.871639 
L 188.9244 192.227377 
L 189.2592 195.461345 
L 189.594 194.847661 
L 189.9288 193.425714 
L 190.2636 193.320195 
L 190.5984 193.652191 
L 190.9332 195.092675 
L 191.268 197.606755 
L 191.6028 196.279461 
L 192.2724 197.198224 
L 192.6072 194.302122 
L 192.942 193.095346 
L 193.2768 192.42743 
L 193.6116 192.168553 
L 194.616 184.207112 
L 194.9508 182.994785 
L 195.2856 187.436538 
L 195.6204 187.191555 
L 195.9552 187.450189 
L 196.29 187.264192 
L 196.6248 185.391717 
L 196.9596 190.993735 
L 197.2944 192.056994 
L 197.6292 191.56199 
L 197.964 192.425492 
L 198.2988 195.007584 
L 198.6336 193.494986 
L 198.9684 192.999793 
L 199.3032 194.751845 
L 199.638 194.201299 
L 199.9728 192.750223 
L 200.3076 192.740633 
L 200.6424 191.289705 
L 200.9772 191.144277 
L 201.312 191.880534 
L 201.6468 194.013379 
L 201.9816 194.165659 
L 202.3164 193.822282 
L 202.6512 192.264898 
L 202.986 192.475249 
L 203.3208 191.642399 
L 203.9904 194.825648 
L 204.3252 195.018436 
L 204.66 196.853858 
L 204.9948 195.473949 
L 205.3296 194.674611 
L 205.9992 193.587118 
L 206.334 189.97832 
L 206.6688 190.869036 
L 207.0036 194.989176 
L 207.3384 194.64214 
L 207.6732 194.73081 
L 208.008 195.636181 
L 208.3428 197.320565 
L 208.6776 198.052935 
L 209.0124 197.754744 
L 209.3472 198.586312 
L 209.682 194.659988 
L 210.3516 197.689582 
L 210.6864 201.479263 
L 211.0212 201.092972 
L 211.356 204.214885 
L 211.6908 204.996842 
L 212.0256 205.389618 
L 212.3604 206.392026 
L 212.6952 203.991192 
L 213.03 202.542751 
L 213.3648 200.560867 
L 213.6996 201.941925 
L 214.0344 200.224872 
L 214.3692 199.443319 
L 214.704 198.208744 
L 215.0388 196.521018 
L 215.3736 198.059402 
L 215.7084 198.757059 
L 216.0432 197.357822 
L 216.378 201.783069 
L 216.7128 199.473076 
L 217.0476 198.588352 
L 217.3824 198.662733 
L 217.7172 198.304385 
L 218.052 199.98981 
L 218.3868 200.54382 
L 219.0564 196.718272 
L 219.3912 192.170832 
L 219.726 192.306143 
L 220.7304 196.218985 
L 221.0652 196.351524 
L 221.4 195.70157 
L 221.7348 195.760424 
L 222.0696 193.878122 
L 222.4044 194.294185 
L 222.7392 194.906828 
L 223.074 195.92049 
L 223.7436 201.260457 
L 224.0784 203.07985 
L 225.0828 197.575443 
L 225.4176 199.786234 
L 225.7524 202.915517 
L 226.0872 203.899411 
L 226.422 203.642802 
L 226.7568 202.910913 
L 227.0916 201.34863 
L 227.4264 200.910791 
L 227.7612 198.202655 
L 228.096 198.567651 
L 228.4308 200.054248 
L 228.7656 202.712427 
L 229.1004 204.043256 
L 229.4352 203.690984 
L 229.77 204.993936 
L 230.1048 203.659175 
L 230.4396 201.587142 
L 230.7744 205.218838 
L 231.1092 203.993799 
L 231.444 207.255834 
L 231.7788 206.712458 
L 232.1136 205.033709 
L 232.4484 204.941378 
L 232.7832 206.766929 
L 233.118 207.568284 
L 233.7876 208.16262 
L 234.4572 208.576023 
L 234.792 208.296018 
L 235.1268 209.89191 
L 235.4616 210.199277 
L 235.7964 208.285829 
L 236.466 209.372955 
L 236.8008 207.985941 
L 237.1356 211.390375 
L 237.4704 209.945994 
L 237.8052 210.747437 
L 238.4748 210.423337 
L 238.8096 209.242233 
L 239.1444 209.587578 
L 239.4792 210.455202 
L 239.814 208.830045 
L 240.1488 211.911953 
L 240.4836 211.887427 
L 240.8184 213.514245 
L 241.1532 214.394213 
L 241.488 212.126253 
L 241.8228 212.179739 
L 242.1576 211.946111 
L 242.4924 214.092982 
L 242.8272 214.922022 
L 243.162 214.703658 
L 243.4968 214.307093 
L 243.8316 213.609771 
L 244.1664 213.599828 
L 244.836 212.460505 
L 245.1708 214.635669 
L 245.5056 214.594223 
L 246.1752 213.055668 
L 246.51 213.481369 
L 246.8448 214.413076 
L 247.1796 215.673455 
L 247.5144 215.815934 
L 247.8492 214.589177 
L 248.184 216.778063 
L 248.5188 217.472434 
L 248.8536 218.646763 
L 249.1884 217.867177 
L 249.858 218.901981 
L 250.1928 219.115695 
L 250.5276 218.679954 
L 250.8624 219.069246 
L 251.1972 222.053844 
L 251.8668 221.177374 
L 252.2016 221.377844 
L 252.5364 222.360839 
L 253.206 221.716989 
L 253.5408 222.13817 
L 253.8756 222.32949 
L 254.2104 223.144956 
L 254.5452 223.296919 
L 254.88 224.608745 
L 255.2148 224.272962 
L 255.5496 225.042848 
L 255.8844 224.854534 
L 256.2192 225.974874 
L 256.554 226.424156 
L 256.8888 226.506715 
L 257.2236 227.743276 
L 257.5584 227.66204 
L 257.8932 227.930502 
L 258.5628 230.010903 
L 258.8976 229.627383 
L 259.2324 229.048928 
L 259.5672 229.136543 
L 260.2368 228.718863 
L 260.5716 228.496483 
L 260.9064 227.619853 
L 261.2412 228.688921 
L 261.576 228.231907 
L 262.2456 228.648391 
L 262.9152 229.104478 
L 263.25 229.916777 
L 263.5848 229.800032 
L 263.9196 228.729863 
L 264.5892 228.768645 
L 264.924 229.231248 
L 265.2588 229.308599 
L 265.5936 229.002794 
L 266.2632 229.5478 
L 266.598 229.286309 
L 266.9328 229.889167 
L 267.2676 229.728165 
L 267.6024 229.200918 
L 267.9372 228.304162 
L 268.272 228.366324 
L 268.9416 226.688357 
L 269.6112 228.295952 
L 269.946 228.505773 
L 270.2808 227.80467 
L 270.6156 227.855528 
L 270.9504 228.27716 
L 271.2852 227.20826 
L 271.62 227.000995 
L 271.9548 228.692643 
L 272.2896 228.478408 
L 272.6244 228.12361 
L 272.9592 227.967156 
L 273.294 227.653069 
L 273.6288 227.700724 
L 273.9636 228.632625 
L 274.2984 228.88373 
L 275.3028 230.918559 
L 275.6376 230.644763 
L 275.9724 230.58468 
L 276.9768 231.268612 
L 277.3116 230.62755 
L 277.6464 231.85872 
L 277.9812 231.641882 
L 278.316 231.959603 
L 278.9856 234.084822 
L 279.3204 234.545742 
L 279.99 234.244007 
L 280.3248 234.71343 
L 280.6596 234.22009 
L 280.9944 233.507625 
L 281.3292 233.300387 
L 281.664 233.613693 
L 282.3336 232.622489 
L 282.6684 232.14437 
L 283.0032 232.516141 
L 283.338 234.088094 
L 283.6728 233.019414 
L 284.0076 233.887118 
L 284.3424 233.905404 
L 284.6772 232.689711 
L 285.012 232.508198 
L 285.3468 231.981538 
L 286.0164 233.807742 
L 286.3512 234.081404 
L 286.686 233.5305 
L 287.0208 233.711412 
L 287.3556 234.122056 
L 287.6904 234.022323 
L 288.0252 233.473849 
L 288.6948 234.837072 
L 289.0296 235.216559 
L 289.3644 234.702984 
L 289.6992 234.588998 
L 290.034 233.546337 
L 290.3688 233.057521 
L 290.7036 233.076383 
L 291.0384 232.397224 
L 291.3732 232.27914 
L 291.708 232.675349 
L 292.0428 232.301681 
L 292.3776 232.692563 
L 292.7124 232.851988 
L 293.0472 232.129744 
L 293.382 232.187149 
L 293.7168 232.640901 
L 294.0516 232.896576 
L 294.3864 232.342216 
L 295.3908 233.141934 
L 295.7256 233.043575 
L 296.0604 233.250925 
L 296.3952 234.102031 
L 297.0648 235.006856 
L 297.7344 234.013402 
L 298.0692 233.715532 
L 298.404 233.97662 
L 299.4084 235.155314 
L 299.7432 233.978859 
L 300.078 235.120184 
L 300.4128 234.853848 
L 300.7476 235.471258 
L 301.0824 235.519373 
L 302.0868 236.986534 
L 302.4216 236.261371 
L 302.7564 236.319372 
L 303.0912 236.651916 
L 303.426 236.416383 
L 303.7608 236.41192 
L 304.0956 236.101317 
L 304.4304 236.906169 
L 304.7652 236.779948 
L 305.1 236.455621 
L 305.4348 237.170093 
L 305.7696 236.987499 
L 306.1044 236.286686 
L 306.4392 236.293154 
L 307.1088 235.636375 
L 307.4436 235.958924 
L 307.7784 235.941201 
L 308.1132 236.640484 
L 308.448 236.831902 
L 308.7828 236.72082 
L 309.1176 236.415958 
L 309.4524 236.405344 
L 309.7872 236.094613 
L 310.122 236.581443 
L 310.7916 236.616581 
L 311.1264 235.830689 
L 311.4612 235.927011 
L 311.796 236.149924 
L 312.1308 236.140537 
L 312.4656 236.544905 
L 312.8004 236.462567 
L 313.1352 236.619457 
L 313.47 237.38043 
L 314.1396 237.530926 
L 314.4744 238.177343 
L 314.8092 238.202555 
L 315.144 237.644423 
L 315.8136 237.195788 
L 316.1484 237.741219 
L 317.4876 237.116195 
L 317.8224 237.672483 
L 318.1572 237.688692 
L 318.492 237.985017 
L 318.8268 238.004131 
L 319.1616 238.34606 
L 319.4964 237.860172 
L 320.166 238.528564 
L 320.5008 238.501382 
L 320.8356 238.894843 
L 321.1704 239.044688 
L 321.5052 239.333613 
L 321.84 238.855253 
L 322.1748 238.576995 
L 322.5096 238.597851 
L 322.8444 238.739568 
L 323.1792 238.40294 
L 323.8488 238.067819 
L 324.1836 238.077746 
L 324.5184 238.717069 
L 324.8532 238.757386 
L 325.188 238.947592 
L 325.5228 238.721057 
L 325.8576 238.358462 
L 326.1924 238.601784 
L 326.5272 238.432171 
L 326.862 237.794259 
L 327.1968 238.053104 
L 327.5316 237.414859 
L 327.8664 237.755601 
L 328.8708 237.746536 
L 329.5404 238.296509 
L 329.8752 238.544752 
L 330.5448 238.304411 
L 331.2144 236.932201 
L 331.5492 237.143745 
L 331.884 237.011123 
L 332.2188 236.599888 
L 333.2232 236.594611 
L 333.558 236.225503 
L 333.8928 236.596445 
L 334.2276 236.73503 
L 334.8972 236.403786 
L 335.232 236.300375 
L 335.5668 236.461201 
L 335.9016 236.043192 
L 336.2364 235.097819 
L 336.5712 234.905614 
L 336.906 234.998147 
L 337.2408 234.638354 
L 337.9104 235.26037 
L 338.2452 235.245022 
L 338.58 236.454476 
L 338.9148 236.950705 
L 339.2496 237.094878 
L 339.9192 238.054505 
L 340.254 238.22022 
L 340.5888 238.834999 
L 341.5932 239.157754 
L 341.928 238.760089 
L 343.2672 238.573228 
L 343.602 238.94233 
L 343.9368 238.982657 
L 344.2716 238.87457 
L 344.6064 239.359129 
L 345.276 238.690685 
L 345.6108 238.917545 
L 345.9456 239.00253 
L 346.2804 239.309413 
L 346.6152 239.071802 
L 346.95 239.440321 
L 347.2848 239.514986 
L 347.6196 239.801216 
L 347.9544 239.784697 
L 348.2892 240.367312 
L 348.624 239.961027 
L 348.9588 240.268872 
L 349.6284 240.31622 
L 350.298 240.817647 
L 350.6328 240.544171 
L 350.9676 240.702231 
L 351.3024 240.622045 
L 351.972 241.049202 
L 352.3068 240.91474 
L 352.6416 240.64587 
L 352.9764 240.698023 
L 353.3112 241.118675 
L 353.646 240.55419 
L 353.9808 240.811482 
L 354.3156 241.262005 
L 354.6504 240.540757 
L 354.9852 240.662292 
L 355.32 241.096374 
L 355.6548 241.289949 
L 356.3244 241.134746 
L 356.6592 241.374953 
L 356.994 240.874748 
L 357.3288 241.026134 
L 357.6636 241.364312 
L 358.3332 240.724076 
L 358.668 240.965245 
L 359.0028 241.367969 
L 359.3376 241.084961 
L 359.6724 241.665577 
L 360.0072 241.990923 
L 360.342 241.744273 
L 361.6812 241.776457 
L 362.016 242.116364 
L 362.6856 241.450118 
L 363.3552 241.381898 
L 363.69 240.740355 
L 364.3596 240.897539 
L 364.6944 240.792013 
L 365.364 239.872954 
L 365.6988 239.956195 
L 366.0336 239.857747 
L 366.3684 240.302049 
L 366.7032 240.398249 
L 367.3728 240.954032 
L 367.7076 240.470178 
L 368.3772 240.867333 
L 368.712 240.761061 
L 369.0468 240.379708 
L 369.3816 240.232535 
L 369.7164 239.375607 
L 370.0512 239.400818 
L 370.7208 239.220071 
L 371.0556 238.728465 
L 371.3904 238.546815 
L 371.7252 238.589106 
L 372.06 238.932593 
L 372.3948 238.846632 
L 372.7296 238.350023 
L 373.0644 238.501899 
L 374.0688 237.894069 
L 374.4036 238.203499 
L 374.7384 237.324169 
L 375.0732 237.839062 
L 375.408 237.980254 
L 375.7428 237.622111 
L 376.0776 237.505465 
L 376.4124 237.176133 
L 376.7472 237.378149 
L 377.4168 237.403241 
L 377.7516 236.775499 
L 378.4212 236.1438 
L 378.756 236.433189 
L 379.0908 236.015892 
L 379.4256 235.915757 
L 379.7604 235.294722 
L 380.0952 234.354758 
L 380.7648 234.706787 
L 381.0996 235.126102 
L 381.7692 235.373387 
L 382.104 235.2065 
L 382.7736 235.443364 
L 383.1084 234.951525 
L 383.4432 235.399413 
L 383.778 235.198715 
L 384.1128 235.389401 
L 384.4476 235.053506 
L 384.7824 234.396436 
L 385.1172 234.546503 
L 385.7868 234.241341 
L 386.1216 234.641062 
L 387.4608 234.276724 
L 387.7956 234.229732 
L 388.1304 234.803973 
L 388.4652 234.976662 
L 388.8 234.711602 
L 388.8 234.711602 
" style="fill:none;stroke:#1f77b4;stroke-linecap:square;stroke-width:1.5;"/>
   </g>
   <g id="line2d_16">
    <path clip-path="url(#p7ae33ca655)" d="M 54 141.367223 
L 54.3348 142.818698 
L 54.6696 142.463608 
L 55.3392 140.997272 
L 55.674 139.132334 
L 56.0088 145.509465 
L 56.3436 145.672528 
L 56.6784 144.883525 
L 57.0132 148.210378 
L 57.348 142.819224 
L 57.6828 142.271371 
L 58.0176 136.942728 
L 58.6872 142.934484 
L 59.022 142.174854 
L 59.3568 147.901548 
L 59.6916 147.207142 
L 60.0264 146.890958 
L 60.696 141.217137 
L 61.0308 142.653967 
L 61.3656 146.38135 
L 61.7004 140.767748 
L 62.37 147.027951 
L 62.7048 150.562349 
L 63.0396 147.047112 
L 63.3744 148.737344 
L 63.7092 151.152127 
L 64.044 150.721499 
L 64.3788 151.371541 
L 64.7136 153.487596 
L 65.0484 151.185155 
L 66.0528 142.114352 
L 66.3876 140.740061 
L 66.7224 146.878919 
L 67.0572 141.432731 
L 67.392 140.395435 
L 67.7268 138.286543 
L 68.7312 127.500936 
L 69.066 125.813003 
L 69.4008 128.167246 
L 69.7356 128.039706 
L 70.74 137.316461 
L 71.0748 137.872694 
L 71.4096 134.151082 
L 71.7444 122.529003 
L 72.0792 121.764814 
L 72.414 127.235099 
L 72.7488 122.322098 
L 73.0836 123.537027 
L 73.4184 126.179983 
L 73.7532 125.357958 
L 74.088 130.249998 
L 74.4228 129.407195 
L 74.7576 129.744361 
L 75.0924 129.370083 
L 75.4272 127.914472 
L 75.762 127.653792 
L 76.0968 127.590554 
L 76.4316 126.489516 
L 76.7664 124.866369 
L 77.1012 128.949753 
L 77.436 134.426082 
L 77.7708 134.651459 
L 78.1056 139.87997 
L 78.4404 139.575012 
L 78.7752 136.295383 
L 79.11 134.111399 
L 79.7796 141.00393 
L 80.1144 139.871803 
L 80.784 142.359322 
L 81.1188 140.326512 
L 81.4536 143.752258 
L 81.7884 145.10102 
L 82.7928 153.811931 
L 83.1276 151.750133 
L 83.4624 151.589044 
L 83.7972 154.326492 
L 84.132 155.02607 
L 84.4668 159.950717 
L 84.8016 162.040136 
L 85.1364 156.057409 
L 85.4712 156.32565 
L 85.806 154.157069 
L 86.1408 154.355663 
L 86.4756 153.302027 
L 86.8104 151.272763 
L 87.1452 154.723264 
L 87.48 154.816524 
L 87.8148 150.061542 
L 88.4844 154.322956 
L 88.8192 155.254416 
L 89.154 154.447936 
L 89.4888 152.860951 
L 89.8236 148.965579 
L 90.1584 147.368849 
L 90.4932 147.570346 
L 90.828 143.48965 
L 91.1628 141.116914 
L 91.4976 146.269328 
L 92.1672 131.705134 
L 92.502 132.334674 
L 92.8368 130.927872 
L 93.1716 125.938919 
L 93.5064 126.614779 
L 93.8412 123.763878 
L 94.176 119.352615 
L 94.5108 123.547005 
L 94.8456 125.956618 
L 95.1804 122.340757 
L 95.5152 120.479703 
L 95.85 116.694474 
L 96.1848 117.253535 
L 96.5196 118.46721 
L 96.8544 126.783772 
L 97.1892 131.251018 
L 97.524 131.074197 
L 97.8588 127.971847 
L 98.1936 125.921208 
L 98.5284 126.424608 
L 98.8632 127.487093 
L 99.198 126.645331 
L 99.5328 126.340112 
L 99.8676 120.845321 
L 100.2024 120.246978 
L 100.872 131.306195 
L 101.2068 125.603091 
L 101.5416 130.212141 
L 101.8764 127.314922 
L 102.2112 128.356563 
L 102.8808 129.523281 
L 103.2156 124.867987 
L 103.5504 125.63139 
L 103.8852 125.762487 
L 104.22 131.779179 
L 104.5548 131.006126 
L 104.8896 129.006965 
L 105.2244 128.09156 
L 105.5592 122.700206 
L 105.894 122.478017 
L 106.2288 121.271858 
L 106.5636 114.558456 
L 106.8984 121.199829 
L 107.2332 123.05718 
L 107.9028 113.400768 
L 108.9072 105.312229 
L 109.242 97.844231 
L 109.5768 96.025975 
L 110.2464 94.077515 
L 110.5812 93.126237 
L 110.916 98.867893 
L 111.2508 95.183385 
L 111.5856 95.822202 
L 111.9204 86.93634 
L 112.2552 87.32656 
L 112.59 85.160572 
L 112.9248 83.874699 
L 113.2596 87.162016 
L 113.5944 82.051451 
L 113.9292 71.930459 
L 114.264 72.013695 
L 114.9336 75.685276 
L 115.2684 86.11975 
L 115.6032 87.041538 
L 115.938 85.747673 
L 116.6076 75.112779 
L 116.9424 77.416893 
L 117.2772 78.928135 
L 117.612 72.846182 
L 117.9468 73.818234 
L 118.2816 76.660647 
L 118.9512 63.085492 
L 119.286 62.974387 
L 119.6208 66.487144 
L 119.9556 78.165838 
L 120.2904 74.960473 
L 120.6252 79.923597 
L 120.96 90.483031 
L 121.2948 82.485949 
L 121.6296 79.052407 
L 122.2992 91.541979 
L 122.634 87.176229 
L 122.9688 91.698322 
L 123.3036 85.207698 
L 123.9732 79.142439 
L 124.308 76.955194 
L 124.6428 75.907223 
L 124.9776 71.058269 
L 125.3124 73.628506 
L 125.6472 73.148977 
L 126.3168 65.71807 
L 126.6516 72.68387 
L 126.9864 75.490622 
L 127.3212 74.095108 
L 127.656 76.365417 
L 127.9908 66.618127 
L 128.3256 68.8987 
L 128.6604 69.827986 
L 128.9952 65.442835 
L 129.33 63.513221 
L 129.6648 64.370182 
L 129.9996 68.812168 
L 130.3344 67.084088 
L 130.6692 61.071888 
L 131.004 58.208762 
L 131.3388 62.92973 
L 131.6736 52.652605 
L 132.3432 71.110391 
L 132.678 65.674919 
L 133.0128 64.358144 
L 133.3476 67.584904 
L 133.6824 73.923824 
L 134.0172 60.997672 
L 134.352 60.297649 
L 134.6868 57.092124 
L 135.0216 55.152401 
L 135.6912 49.098014 
L 136.026 44.443636 
L 136.6956 48.75705 
L 137.0304 59.839601 
L 137.3652 64.533194 
L 137.7 62.942669 
L 138.0348 56.759316 
L 138.3696 53.097695 
L 138.7044 55.219621 
L 139.0392 63.002252 
L 139.374 79.430519 
L 139.7088 73.216269 
L 140.3784 78.972399 
L 140.7132 78.260578 
L 141.048 85.896363 
L 141.3828 87.712114 
L 141.7176 77.324271 
L 142.3872 72.570125 
L 142.722 81.451883 
L 143.0568 69.489808 
L 143.3916 77.613843 
L 143.7264 67.13139 
L 144.0612 79.365916 
L 144.7308 62.658561 
L 145.0656 67.543957 
L 145.7352 61.903078 
L 146.07 66.745014 
L 146.7396 82.433524 
L 147.0744 79.565858 
L 147.4092 80.02474 
L 147.744 83.058856 
L 148.0788 77.953527 
L 148.4136 75.188486 
L 148.7484 79.365972 
L 149.0832 85.849578 
L 149.418 83.132504 
L 149.7528 85.970134 
L 150.0876 85.455384 
L 150.4224 77.25069 
L 150.7572 74.505721 
L 151.092 79.29242 
L 151.4268 78.424861 
L 151.7616 83.59521 
L 152.0964 75.128173 
L 152.4312 78.234609 
L 152.766 77.108429 
L 153.1008 75.425442 
L 153.4356 74.546027 
L 154.1052 92.946492 
L 154.44 95.193834 
L 154.7748 93.629551 
L 155.1096 94.311082 
L 155.4444 99.025029 
L 155.7792 105.465006 
L 156.4488 109.415841 
L 156.7836 107.135082 
L 157.1184 108.609867 
L 157.4532 105.914059 
L 157.788 108.624519 
L 158.1228 109.769255 
L 158.4576 111.313246 
L 158.7924 114.745756 
L 159.1272 112.071001 
L 159.462 115.621028 
L 159.7968 117.838586 
L 160.1316 118.144299 
L 160.4664 123.556088 
L 160.8012 124.855889 
L 161.136 127.67201 
L 161.4708 129.174179 
L 161.8056 129.403255 
L 162.1404 132.455152 
L 162.4752 133.273564 
L 162.81 128.44079 
L 163.1448 128.540004 
L 163.4796 124.139241 
L 163.8144 122.759588 
L 164.1492 119.643301 
L 164.484 122.837108 
L 165.1536 121.874566 
L 165.8232 127.628367 
L 166.158 133.397796 
L 166.4928 127.878589 
L 166.8276 131.635466 
L 167.1624 126.594279 
L 167.4972 128.419424 
L 167.832 131.736914 
L 168.1668 129.407767 
L 168.5016 131.815853 
L 168.8364 129.69039 
L 169.1712 130.95714 
L 169.506 129.147791 
L 169.8408 132.849517 
L 170.1756 129.768278 
L 170.5104 127.912157 
L 170.8452 131.464249 
L 171.18 121.552951 
L 171.5148 119.358144 
L 172.1844 102.798935 
L 172.5192 103.67826 
L 173.1888 107.429752 
L 173.5236 115.683449 
L 173.8584 118.640151 
L 174.1932 117.614679 
L 174.528 111.223861 
L 174.8628 114.616458 
L 175.1976 110.838713 
L 175.5324 116.353062 
L 176.202 120.731018 
L 176.8716 117.31832 
L 177.5412 109.944938 
L 177.876 108.867554 
L 178.2108 107.1247 
L 178.5456 99.94487 
L 178.8804 102.370155 
L 179.2152 98.752061 
L 179.55 107.403233 
L 179.8848 105.54771 
L 180.2196 107.755997 
L 180.5544 107.744427 
L 180.8892 103.063836 
L 181.224 102.298537 
L 181.5588 98.162578 
L 181.8936 91.08379 
L 182.2284 89.127795 
L 182.5632 83.168478 
L 182.898 84.891856 
L 183.2328 84.934735 
L 183.5676 87.663593 
L 183.9024 82.307687 
L 184.2372 80.111108 
L 184.572 82.837005 
L 184.9068 82.019141 
L 185.2416 76.484559 
L 185.5764 76.70009 
L 185.9112 81.902048 
L 186.246 81.20062 
L 186.5808 91.776017 
L 186.9156 87.928197 
L 187.5852 92.462299 
L 187.92 88.098306 
L 188.2548 95.089933 
L 188.5896 85.548438 
L 189.2592 90.727365 
L 189.9288 81.89616 
L 190.2636 68.861526 
L 190.5984 70.071691 
L 190.9332 70.756986 
L 191.268 79.144473 
L 191.6028 80.939355 
L 191.9376 84.797459 
L 192.2724 87.142645 
L 192.6072 96.128144 
L 192.942 88.045079 
L 193.2768 95.302542 
L 193.6116 109.015521 
L 193.9464 114.315894 
L 194.2812 116.907808 
L 194.616 121.747918 
L 194.9508 117.291698 
L 195.2856 117.870386 
L 195.6204 117.764275 
L 195.9552 115.210798 
L 196.29 113.991216 
L 196.6248 109.780778 
L 196.9596 114.702199 
L 197.2944 117.045671 
L 197.6292 114.24457 
L 197.964 125.129577 
L 198.2988 130.562146 
L 198.6336 128.669078 
L 198.9684 130.512514 
L 199.638 123.824418 
L 199.9728 128.606847 
L 200.3076 127.045094 
L 200.6424 122.370663 
L 200.9772 121.775371 
L 201.312 125.740456 
L 201.9816 119.716087 
L 202.3164 117.479653 
L 202.6512 114.478193 
L 202.986 127.316863 
L 203.3208 123.897714 
L 203.6556 116.684382 
L 203.9904 114.842864 
L 204.3252 114.018808 
L 204.66 111.022881 
L 204.9948 109.535865 
L 205.3296 106.639645 
L 205.6644 106.632974 
L 206.334 114.554755 
L 207.3384 128.767697 
L 207.6732 122.012569 
L 208.008 118.959238 
L 208.3428 121.550321 
L 208.6776 123.136727 
L 209.0124 122.684983 
L 209.3472 125.325344 
L 209.682 125.059041 
L 210.0168 121.985437 
L 210.3516 122.13019 
L 210.6864 120.770913 
L 211.0212 117.146703 
L 211.356 118.290437 
L 211.6908 117.1038 
L 212.0256 118.404493 
L 212.3604 118.523262 
L 212.6952 119.873925 
L 213.03 122.051085 
L 213.3648 121.347938 
L 213.6996 119.04209 
L 214.0344 118.435961 
L 214.3692 116.360209 
L 214.704 119.479994 
L 215.0388 124.450318 
L 215.3736 122.793859 
L 215.7084 120.025624 
L 216.0432 119.82062 
L 216.7128 110.371445 
L 217.0476 98.531036 
L 217.3824 99.49322 
L 218.052 107.661435 
L 218.3868 110.20777 
L 218.7216 108.102618 
L 219.0564 117.789904 
L 219.3912 112.275025 
L 220.0608 114.384747 
L 220.3956 119.015356 
L 220.7304 119.488682 
L 221.0652 119.434017 
L 221.4 119.937715 
L 221.7348 118.542619 
L 222.0696 120.994737 
L 222.4044 124.650726 
L 222.7392 122.476292 
L 223.074 122.078234 
L 223.4088 121.280258 
L 223.7436 116.967735 
L 224.4132 124.754143 
L 224.748 119.77266 
L 225.4176 131.023475 
L 225.7524 127.945005 
L 226.0872 127.025219 
L 226.422 126.615815 
L 226.7568 126.973601 
L 227.0916 126.851904 
L 227.4264 127.21077 
L 227.7612 121.945396 
L 228.096 123.558342 
L 228.4308 124.203855 
L 228.7656 117.062482 
L 229.1004 116.946789 
L 229.4352 107.551805 
L 229.77 108.024873 
L 230.1048 101.883365 
L 230.4396 109.639544 
L 230.7744 108.957321 
L 231.1092 116.02699 
L 231.444 112.447958 
L 231.7788 117.7257 
L 232.1136 116.538249 
L 232.4484 117.729711 
L 232.7832 122.576135 
L 233.118 129.10406 
L 233.4528 131.058659 
L 233.7876 124.508784 
L 234.1224 125.673937 
L 234.4572 122.066308 
L 234.792 122.297178 
L 235.1268 118.755204 
L 235.4616 126.340548 
L 235.7964 127.917875 
L 236.1312 124.251028 
L 236.466 124.900491 
L 236.8008 125.242653 
L 237.1356 126.941623 
L 237.4704 122.466943 
L 237.8052 121.266583 
L 238.14 121.087298 
L 238.8096 116.017041 
L 239.1444 115.115971 
L 239.4792 108.514653 
L 239.814 108.784491 
L 240.1488 107.542217 
L 240.4836 110.439741 
L 240.8184 109.776988 
L 241.1532 102.733804 
L 241.488 105.730513 
L 241.8228 110.904096 
L 242.1576 106.518077 
L 242.4924 107.193323 
L 242.8272 106.759612 
L 243.162 106.964036 
L 243.4968 106.60602 
L 243.8316 102.747846 
L 244.5012 111.244641 
L 244.836 110.871672 
L 245.5056 123.67833 
L 245.8404 116.218464 
L 246.1752 113.012689 
L 246.51 113.05627 
L 246.8448 107.692951 
L 247.1796 112.377545 
L 247.5144 113.751581 
L 247.8492 111.064351 
L 248.184 107.149661 
L 248.5188 104.831788 
L 248.8536 116.501923 
L 249.1884 120.590385 
L 249.5232 118.637282 
L 249.858 120.116521 
L 250.1928 109.678822 
L 250.5276 105.565807 
L 250.8624 103.01588 
L 251.1972 108.209389 
L 251.532 108.367713 
L 251.8668 107.287002 
L 252.8712 93.111066 
L 253.206 97.696389 
L 253.5408 90.892723 
L 253.8756 97.84056 
L 254.2104 100.420123 
L 254.5452 98.381795 
L 254.88 99.100715 
L 255.8844 114.669621 
L 256.2192 112.392131 
L 256.554 106.904594 
L 256.8888 107.359051 
L 257.2236 109.165578 
L 257.5584 115.725152 
L 257.8932 111.846032 
L 258.228 102.181545 
L 258.5628 110.586645 
L 258.8976 115.276721 
L 259.5672 120.526586 
L 259.902 119.59538 
L 260.2368 112.935897 
L 260.5716 108.562592 
L 260.9064 106.201951 
L 261.2412 109.495083 
L 261.9108 117.88779 
L 262.2456 111.417747 
L 262.5804 111.688432 
L 262.9152 113.643553 
L 263.25 114.43621 
L 263.5848 110.899767 
L 263.9196 116.67685 
L 264.2544 110.709296 
L 264.5892 110.019793 
L 264.924 110.977817 
L 265.2588 109.030203 
L 265.5936 108.056254 
L 266.2632 110.724215 
L 266.598 114.552395 
L 266.9328 111.73982 
L 267.2676 114.066681 
L 267.6024 118.178849 
L 267.9372 117.48716 
L 268.272 111.915262 
L 268.6068 112.126446 
L 268.9416 114.778755 
L 269.2764 113.050989 
L 269.6112 104.6604 
L 269.946 111.335857 
L 270.2808 109.659277 
L 270.6156 108.748765 
L 271.2852 98.968075 
L 271.62 99.86012 
L 271.9548 107.860767 
L 272.2896 104.23404 
L 272.9592 112.335596 
L 273.294 107.334518 
L 273.6288 111.445329 
L 273.9636 105.296432 
L 274.968 100.846933 
L 275.6376 116.524827 
L 275.9724 115.614647 
L 276.3072 113.199867 
L 276.642 112.842353 
L 276.9768 116.406979 
L 277.3116 116.32701 
L 277.6464 116.673915 
L 277.9812 120.711036 
L 278.316 116.563732 
L 278.6508 123.867755 
L 279.3204 119.956348 
L 279.6552 115.802372 
L 279.99 120.070304 
L 280.3248 119.653479 
L 280.6596 110.700466 
L 280.9944 107.782892 
L 281.3292 107.330379 
L 281.664 104.896989 
L 281.9988 104.501416 
L 282.3336 94.417263 
L 282.6684 89.576162 
L 283.0032 90.010635 
L 283.338 88.733589 
L 283.6728 90.727194 
L 284.0076 84.631573 
L 284.6772 100.008298 
L 285.012 93.086939 
L 285.3468 82.399485 
L 285.6816 79.916686 
L 286.0164 79.310134 
L 286.3512 75.761305 
L 286.686 79.327599 
L 287.0208 78.403087 
L 287.3556 78.191889 
L 287.6904 74.786682 
L 288.0252 83.42175 
L 288.36 86.093492 
L 288.6948 81.712309 
L 289.0296 85.308768 
L 289.3644 90.483856 
L 289.6992 80.179514 
L 290.034 79.974748 
L 290.3688 83.088373 
L 290.7036 92.0239 
L 291.3732 84.804732 
L 291.708 86.365934 
L 292.0428 92.071345 
L 292.3776 92.193989 
L 293.0472 100.945107 
L 293.382 101.431777 
L 293.7168 106.373122 
L 294.0516 105.252457 
L 294.3864 102.46846 
L 294.7212 106.387056 
L 295.056 112.603157 
L 295.3908 105.816978 
L 296.0604 113.026282 
L 296.3952 112.103243 
L 296.73 109.488579 
L 297.0648 110.627918 
L 297.3996 108.596271 
L 297.7344 110.389985 
L 298.0692 114.679195 
L 298.404 108.573277 
L 299.0736 89.255193 
L 299.4084 88.534124 
L 299.7432 79.169525 
L 300.078 77.24737 
L 300.4128 79.855547 
L 300.7476 77.345436 
L 301.0824 77.86096 
L 301.752 87.953694 
L 302.0868 83.84235 
L 302.4216 93.547807 
L 302.7564 90.557854 
L 303.7608 117.130749 
L 304.0956 108.863704 
L 304.4304 109.73985 
L 304.7652 109.355672 
L 305.4348 98.698125 
L 305.7696 105.358238 
L 306.1044 101.381966 
L 306.4392 100.516057 
L 306.774 102.131776 
L 307.1088 102.018151 
L 307.4436 96.026997 
L 307.7784 100.342304 
L 308.1132 98.444402 
L 308.448 98.490702 
L 308.7828 107.104196 
L 309.1176 110.730734 
L 309.4524 109.879482 
L 310.122 99.508106 
L 310.4568 96.664985 
L 310.7916 100.619528 
L 311.1264 92.107882 
L 311.4612 91.032828 
L 311.796 96.093501 
L 312.1308 96.983998 
L 312.4656 92.645734 
L 312.8004 92.607816 
L 313.8048 80.421332 
L 314.1396 85.022244 
L 314.4744 84.315342 
L 314.8092 84.078624 
L 315.144 74.319707 
L 315.4788 83.357468 
L 315.8136 84.068168 
L 316.1484 87.13402 
L 316.4832 85.407571 
L 316.818 98.098869 
L 317.1528 92.741417 
L 317.4876 92.673023 
L 317.8224 101.853724 
L 318.1572 103.546072 
L 318.492 100.724774 
L 318.8268 108.239872 
L 319.1616 108.225422 
L 319.4964 112.968175 
L 319.8312 115.378374 
L 320.166 115.264501 
L 320.5008 114.482564 
L 320.8356 116.500693 
L 321.1704 115.348592 
L 321.5052 111.864228 
L 321.84 113.08306 
L 322.5096 100.262296 
L 322.8444 102.292973 
L 323.1792 105.273337 
L 323.514 112.892484 
L 323.8488 113.441466 
L 324.1836 115.011532 
L 324.5184 111.68468 
L 324.8532 118.290346 
L 325.188 119.446154 
L 325.5228 115.44509 
L 326.1924 121.724165 
L 326.5272 127.596019 
L 326.862 117.448022 
L 327.1968 120.582432 
L 327.5316 125.906341 
L 328.2012 132.024657 
L 328.536 133.030124 
L 328.8708 129.975758 
L 329.2056 131.108544 
L 329.5404 134.579613 
L 329.8752 139.87931 
L 330.5448 139.65485 
L 330.8796 134.310213 
L 331.2144 133.971844 
L 331.5492 134.335285 
L 331.884 138.179962 
L 332.2188 139.262343 
L 332.8884 142.077435 
L 333.2232 145.352804 
L 333.558 143.570441 
L 334.2276 144.721701 
L 334.5624 150.430968 
L 335.232 147.317618 
L 335.5668 150.043767 
L 335.9016 146.912435 
L 336.2364 151.363723 
L 336.5712 151.431976 
L 336.906 152.277783 
L 337.2408 156.350392 
L 337.5756 155.788276 
L 337.9104 150.713058 
L 338.2452 150.500591 
L 338.58 151.958243 
L 338.9148 150.571559 
L 339.2496 150.238977 
L 339.5844 150.151348 
L 339.9192 151.495709 
L 340.254 147.063896 
L 340.5888 145.57761 
L 340.9236 147.324235 
L 341.2584 147.675093 
L 341.928 151.996823 
L 342.2628 153.983593 
L 342.5976 157.429614 
L 342.9324 155.152961 
L 343.2672 156.026378 
L 343.602 154.378743 
L 343.9368 156.406201 
L 344.2716 156.584957 
L 344.6064 158.686596 
L 344.9412 156.607285 
L 345.276 157.341369 
L 345.6108 159.484146 
L 345.9456 164.186053 
L 346.2804 163.43752 
L 346.6152 165.377805 
L 346.95 165.420057 
L 347.2848 166.73609 
L 347.6196 164.222072 
L 348.2892 161.510428 
L 348.624 163.235546 
L 348.9588 161.955388 
L 349.2936 157.178048 
L 349.6284 159.622151 
L 349.9632 159.129317 
L 350.298 163.871249 
L 350.6328 160.059734 
L 350.9676 161.192128 
L 351.3024 158.993057 
L 351.6372 163.955217 
L 351.972 159.061138 
L 352.3068 160.088007 
L 352.6416 158.535641 
L 352.9764 158.099168 
L 353.3112 158.842036 
L 353.646 153.979625 
L 353.9808 158.986571 
L 354.3156 158.126342 
L 354.6504 155.479114 
L 354.9852 155.568404 
L 355.6548 156.346222 
L 355.9896 159.984043 
L 356.3244 159.875447 
L 356.6592 158.413347 
L 356.994 158.214553 
L 357.3288 159.005295 
L 357.6636 160.415303 
L 357.9984 161.206997 
L 358.3332 157.673288 
L 358.668 163.768988 
L 359.0028 163.659651 
L 359.3376 164.555078 
L 359.6724 160.619032 
L 360.0072 160.462091 
L 360.342 156.255124 
L 360.6768 162.554906 
L 361.0116 161.283264 
L 361.3464 160.4971 
L 361.6812 156.559094 
L 362.016 161.411807 
L 362.3508 161.846386 
L 362.6856 161.662121 
L 363.0204 163.047953 
L 363.3552 159.700729 
L 363.69 160.668409 
L 364.0248 154.916965 
L 364.6944 148.78959 
L 365.0292 146.998584 
L 365.364 150.46503 
L 365.6988 151.82266 
L 366.3684 147.900683 
L 366.7032 143.67803 
L 367.038 145.250443 
L 367.3728 148.101122 
L 367.7076 145.331365 
L 368.0424 148.012519 
L 368.3772 145.19451 
L 368.712 141.216281 
L 369.0468 139.646328 
L 369.3816 140.894769 
L 369.7164 140.752957 
L 370.0512 138.701717 
L 370.386 138.665851 
L 370.7208 130.922629 
L 371.7252 141.765547 
L 372.06 143.784477 
L 372.3948 151.106797 
L 373.0644 155.080345 
L 373.3992 154.844544 
L 373.734 153.586647 
L 374.0688 157.369973 
L 374.4036 154.732006 
L 374.7384 149.299474 
L 375.0732 149.963094 
L 375.408 144.980013 
L 375.7428 144.31883 
L 376.0776 137.669283 
L 376.4124 133.698582 
L 376.7472 139.452896 
L 377.082 139.387747 
L 377.4168 135.698088 
L 377.7516 135.587625 
L 378.0864 135.721133 
L 378.4212 131.130305 
L 378.756 133.799832 
L 379.0908 133.73544 
L 379.4256 132.545052 
L 379.7604 133.785396 
L 380.0952 133.859405 
L 380.43 131.011685 
L 380.7648 129.382302 
L 381.7692 139.405568 
L 382.104 139.4012 
L 382.4388 139.960848 
L 383.1084 144.884873 
L 383.4432 149.940086 
L 383.778 148.617223 
L 384.1128 148.74559 
L 384.4476 152.781476 
L 384.7824 152.69344 
L 385.1172 148.559798 
L 385.452 150.934622 
L 385.7868 146.812452 
L 386.1216 147.868462 
L 386.4564 147.229208 
L 386.7912 146.911363 
L 387.126 142.340115 
L 387.4608 141.80046 
L 388.1304 150.035198 
L 388.8 160.035804 
L 388.8 160.035804 
" style="fill:none;stroke:#ff7f0e;stroke-linecap:square;stroke-width:1.5;"/>
   </g>
   <g id="line2d_17">
    <path clip-path="url(#p7ae33ca655)" d="M 54 141.367223 
L 54.3348 144.661108 
L 54.6696 144.930436 
L 55.674 151.300306 
L 56.0088 149.103122 
L 56.3436 146.136995 
L 56.6784 144.917278 
L 57.0132 148.208129 
L 57.6828 143.871403 
L 58.0176 142.949204 
L 58.3524 144.99362 
L 58.6872 142.638595 
L 59.022 141.202388 
L 59.3568 151.931113 
L 59.6916 149.93145 
L 60.0264 155.990598 
L 60.3612 154.016822 
L 60.696 154.48473 
L 61.0308 150.877471 
L 61.3656 151.185325 
L 61.7004 153.957302 
L 62.0352 154.405082 
L 62.37 151.199533 
L 62.7048 151.117485 
L 63.0396 151.475196 
L 63.3744 149.157311 
L 63.7092 148.486138 
L 64.044 148.505176 
L 65.0484 136.753243 
L 65.3832 137.777794 
L 66.0528 128.063618 
L 66.3876 125.290367 
L 66.7224 130.088208 
L 67.0572 129.554551 
L 67.392 132.388313 
L 67.7268 132.97998 
L 68.0616 132.091247 
L 68.3964 131.717624 
L 68.7312 133.495775 
L 69.066 128.803838 
L 69.4008 135.30721 
L 69.7356 132.657677 
L 70.0704 139.553342 
L 70.4052 138.216425 
L 70.74 141.353039 
L 71.0748 138.33396 
L 71.4096 138.028534 
L 71.7444 137.151027 
L 72.0792 140.786567 
L 72.414 143.048311 
L 72.7488 142.347131 
L 73.0836 140.359514 
L 73.4184 130.199017 
L 73.7532 129.354358 
L 74.088 125.628989 
L 74.7576 136.729971 
L 75.0924 138.00392 
L 75.4272 142.246773 
L 75.762 137.179436 
L 76.0968 138.643662 
L 76.7664 128.307136 
L 77.1012 128.142436 
L 77.436 126.207921 
L 77.7708 126.427625 
L 78.4404 122.400928 
L 78.7752 122.900067 
L 79.11 120.869617 
L 79.4448 113.828075 
L 79.7796 110.756534 
L 80.1144 109.321404 
L 80.4492 108.766139 
L 81.1188 117.73351 
L 81.4536 116.380485 
L 81.7884 122.169038 
L 82.1232 125.268104 
L 82.458 120.211199 
L 82.7928 112.351445 
L 83.1276 119.605865 
L 83.4624 112.895767 
L 83.7972 113.812837 
L 84.132 113.877484 
L 84.4668 114.365863 
L 84.8016 109.729456 
L 85.1364 116.863398 
L 85.4712 114.942115 
L 85.806 118.979153 
L 86.1408 116.613279 
L 86.4756 110.103082 
L 86.8104 110.104929 
L 87.48 106.61515 
L 87.8148 110.242032 
L 88.8192 92.226946 
L 89.154 91.861186 
L 89.4888 94.171795 
L 89.8236 97.260016 
L 90.4932 81.789873 
L 90.828 82.128612 
L 91.1628 90.518421 
L 91.4976 104.805722 
L 91.8324 109.782037 
L 92.1672 110.361438 
L 92.502 104.17398 
L 92.8368 107.180137 
L 93.1716 104.899361 
L 93.5064 98.917546 
L 93.8412 98.303229 
L 94.176 98.986801 
L 94.8456 110.745589 
L 95.1804 108.912549 
L 95.5152 109.809251 
L 95.85 109.265837 
L 96.1848 109.476321 
L 96.5196 106.523916 
L 96.8544 110.085449 
L 97.1892 111.570785 
L 97.524 103.267032 
L 97.8588 106.979466 
L 98.1936 108.253422 
L 98.5284 110.89629 
L 98.8632 108.939019 
L 99.198 104.376676 
L 99.8676 108.627866 
L 100.2024 109.875544 
L 100.5372 107.526895 
L 100.872 110.859405 
L 101.2068 112.514265 
L 101.5416 122.83179 
L 101.8764 128.390677 
L 102.2112 128.823282 
L 102.546 125.381209 
L 102.8808 124.217881 
L 103.5504 133.968543 
L 103.8852 133.327307 
L 104.22 139.428126 
L 104.5548 135.699227 
L 104.8896 135.468166 
L 105.2244 141.292282 
L 105.894 147.029549 
L 106.2288 149.548526 
L 106.5636 154.283881 
L 107.2332 158.94816 
L 107.568 160.997368 
L 107.9028 157.820829 
L 108.2376 157.515083 
L 108.5724 160.421661 
L 108.9072 161.370111 
L 109.242 163.836744 
L 109.5768 164.654682 
L 109.9116 162.290338 
L 110.2464 161.590211 
L 110.5812 155.196373 
L 110.916 154.068728 
L 111.2508 156.841755 
L 111.5856 154.454962 
L 112.2552 147.76953 
L 112.59 151.308843 
L 112.9248 151.76985 
L 113.2596 148.252191 
L 113.5944 153.675717 
L 113.9292 155.1978 
L 114.264 159.478025 
L 114.9336 164.963522 
L 115.2684 161.598528 
L 115.6032 162.254573 
L 116.2728 167.448412 
L 116.6076 167.078351 
L 116.9424 167.107569 
L 117.2772 163.582105 
L 117.612 162.214833 
L 117.9468 166.191923 
L 118.2816 167.859932 
L 118.6164 165.078625 
L 118.9512 166.747554 
L 119.286 162.178079 
L 119.6208 165.230063 
L 119.9556 163.694119 
L 120.2904 166.046022 
L 120.6252 167.399781 
L 120.96 164.528387 
L 121.2948 164.872044 
L 121.6296 162.680879 
L 121.9644 161.3732 
L 122.2992 159.25913 
L 122.634 161.809259 
L 122.9688 162.427566 
L 123.3036 161.251977 
L 123.6384 163.636291 
L 123.9732 159.183292 
L 124.308 161.4167 
L 124.6428 162.257589 
L 124.9776 165.052137 
L 125.3124 170.813278 
L 125.6472 166.310589 
L 125.982 166.851714 
L 126.3168 168.030204 
L 126.6516 168.54563 
L 126.9864 164.885941 
L 127.3212 167.485187 
L 127.656 165.710817 
L 127.9908 166.841119 
L 128.3256 168.411195 
L 128.6604 166.947196 
L 128.9952 164.35006 
L 129.33 165.742824 
L 129.6648 167.792672 
L 129.9996 170.833845 
L 130.3344 168.069421 
L 130.6692 169.560802 
L 131.004 174.267561 
L 131.3388 170.888541 
L 131.6736 174.317852 
L 132.0084 172.451076 
L 132.3432 172.000944 
L 132.678 171.290303 
L 133.0128 172.745806 
L 133.3476 171.852055 
L 133.6824 175.976365 
L 134.0172 174.59888 
L 134.352 170.883741 
L 134.6868 168.67053 
L 135.0216 173.867904 
L 135.3564 176.239048 
L 135.6912 176.6774 
L 136.026 175.547538 
L 136.3608 175.79882 
L 136.6956 176.95695 
L 137.0304 175.580911 
L 137.3652 172.839313 
L 137.7 173.406509 
L 138.0348 171.639744 
L 138.3696 178.034883 
L 138.7044 180.169982 
L 139.0392 180.879932 
L 139.374 181.948645 
L 139.7088 181.231913 
L 140.0436 179.025671 
L 140.3784 177.887649 
L 140.7132 179.307612 
L 141.048 182.714302 
L 141.3828 181.52828 
L 141.7176 185.511509 
L 142.0524 184.17867 
L 142.3872 184.571234 
L 142.722 187.006058 
L 143.0568 186.433346 
L 143.7264 186.512754 
L 144.0612 186.681985 
L 144.396 185.841271 
L 144.7308 183.964156 
L 145.0656 182.926271 
L 145.4004 180.777779 
L 145.7352 180.874475 
L 146.07 177.3339 
L 146.4048 176.020585 
L 146.7396 177.293435 
L 147.0744 179.810338 
L 147.4092 179.353207 
L 148.0788 184.360524 
L 148.4136 183.863849 
L 148.7484 185.136211 
L 149.0832 187.052172 
L 149.418 187.120855 
L 149.7528 186.976219 
L 150.0876 187.38679 
L 150.4224 188.134968 
L 150.7572 186.461557 
L 151.092 185.772956 
L 151.4268 186.227118 
L 151.7616 181.253241 
L 152.0964 180.831533 
L 152.4312 178.353598 
L 152.766 179.625531 
L 153.1008 182.660958 
L 153.4356 184.348292 
L 153.7704 184.905154 
L 154.1052 185.928246 
L 154.44 183.218314 
L 154.7748 183.472021 
L 155.1096 182.500408 
L 155.4444 182.599701 
L 155.7792 183.524501 
L 156.114 183.444564 
L 156.4488 179.834176 
L 156.7836 181.53942 
L 157.1184 179.877664 
L 157.4532 182.15452 
L 157.788 183.141403 
L 158.1228 183.133821 
L 158.4576 182.443155 
L 158.7924 179.272204 
L 159.1272 179.384304 
L 159.462 181.269568 
L 159.7968 179.855645 
L 160.1316 180.664043 
L 160.4664 180.14031 
L 160.8012 180.397259 
L 161.136 184.678134 
L 161.8056 182.401903 
L 162.1404 180.4196 
L 162.4752 176.454972 
L 162.81 179.236429 
L 163.4796 177.148198 
L 163.8144 178.114373 
L 164.484 176.060073 
L 164.8188 178.911629 
L 165.1536 178.357704 
L 165.8232 181.873957 
L 166.158 185.700332 
L 166.4928 186.663628 
L 166.8276 187.071696 
L 167.1624 185.976575 
L 167.4972 185.974751 
L 167.832 189.099945 
L 168.1668 187.438147 
L 168.5016 187.672956 
L 168.8364 186.70958 
L 169.1712 184.774715 
L 169.506 181.838054 
L 169.8408 177.607394 
L 170.1756 177.772889 
L 170.5104 177.061751 
L 170.8452 179.550813 
L 171.18 177.183998 
L 171.5148 179.914362 
L 171.8496 183.918378 
L 172.1844 182.181739 
L 172.5192 183.301446 
L 172.854 181.660016 
L 173.1888 180.77744 
L 173.5236 184.348269 
L 173.8584 189.999136 
L 174.1932 192.081663 
L 174.528 192.051431 
L 174.8628 194.292381 
L 175.1976 195.443402 
L 175.5324 197.962862 
L 176.202 197.532617 
L 176.5368 198.332135 
L 177.2064 193.489324 
L 177.5412 192.478228 
L 177.876 195.755031 
L 178.2108 197.651846 
L 178.5456 196.977201 
L 179.2152 198.833465 
L 179.55 197.377401 
L 179.8848 196.52641 
L 180.2196 194.30199 
L 180.5544 195.058688 
L 180.8892 192.667066 
L 181.224 193.672651 
L 181.5588 190.999198 
L 181.8936 190.801557 
L 182.2284 192.413893 
L 182.5632 195.387137 
L 183.2328 196.347013 
L 183.5676 194.890415 
L 183.9024 195.083329 
L 184.2372 195.835024 
L 184.572 193.988415 
L 184.9068 194.387015 
L 185.2416 195.401383 
L 185.5764 194.408321 
L 185.9112 195.270244 
L 186.246 194.128944 
L 186.5808 195.184578 
L 186.9156 195.571434 
L 187.2504 195.309254 
L 187.5852 195.956923 
L 187.92 195.979935 
L 188.2548 194.585523 
L 188.9244 193.010718 
L 189.2592 194.156932 
L 190.2636 189.572156 
L 190.5984 190.961385 
L 190.9332 191.283649 
L 191.268 190.106256 
L 191.6028 191.260378 
L 191.9376 191.680782 
L 192.942 181.725742 
L 193.2768 179.69774 
L 193.6116 181.965403 
L 193.9464 180.861793 
L 194.2812 181.647548 
L 194.616 183.937423 
L 194.9508 185.001633 
L 195.2856 184.763698 
L 195.9552 187.0113 
L 196.29 185.43232 
L 196.6248 185.13784 
L 196.9596 184.658597 
L 197.2944 184.42725 
L 197.6292 185.829518 
L 197.964 188.613051 
L 198.2988 188.009653 
L 198.6336 189.004452 
L 198.9684 192.886324 
L 199.3032 193.595996 
L 199.638 195.545967 
L 200.3076 193.422753 
L 200.6424 192.532913 
L 200.9772 193.742589 
L 201.312 192.439919 
L 201.6468 191.857552 
L 202.3164 193.435276 
L 202.6512 191.83696 
L 202.986 192.708844 
L 203.3208 192.158198 
L 203.6556 190.265232 
L 204.3252 183.31956 
L 204.66 181.418554 
L 204.9948 184.687006 
L 205.6644 187.219551 
L 205.9992 183.934789 
L 206.334 185.396955 
L 206.6688 184.607396 
L 207.0036 184.398644 
L 207.3384 186.340133 
L 208.008 184.758673 
L 208.3428 187.351586 
L 208.6776 184.926869 
L 209.0124 189.223979 
L 209.3472 190.360351 
L 209.682 188.525611 
L 210.0168 190.847297 
L 210.3516 190.191511 
L 210.6864 192.645508 
L 211.0212 192.814383 
L 211.356 197.002422 
L 211.6908 198.415929 
L 212.0256 200.935383 
L 212.6952 202.196177 
L 213.03 203.21568 
L 213.3648 202.033867 
L 213.6996 203.380595 
L 214.0344 202.444295 
L 214.3692 199.991383 
L 214.704 199.771231 
L 215.0388 201.134972 
L 215.3736 203.067608 
L 215.7084 204.122215 
L 216.0432 203.098748 
L 216.378 202.867723 
L 217.0476 200.286413 
L 217.3824 200.06481 
L 217.7172 199.316335 
L 218.3868 193.935121 
L 218.7216 194.472376 
L 219.0564 192.732899 
L 219.3912 191.670971 
L 219.726 189.572966 
L 220.0608 188.288465 
L 220.3956 190.191179 
L 220.7304 193.257243 
L 221.0652 192.22878 
L 221.4 188.749718 
L 221.7348 190.253407 
L 222.0696 190.609091 
L 222.4044 192.556074 
L 222.7392 190.414526 
L 223.4088 198.719848 
L 223.7436 198.111078 
L 224.0784 198.246332 
L 224.4132 199.032086 
L 224.748 199.51788 
L 225.0828 198.659739 
L 225.4176 199.332253 
L 226.0872 202.527482 
L 226.422 201.192405 
L 226.7568 202.003189 
L 227.0916 204.10808 
L 227.4264 203.959624 
L 227.7612 203.223542 
L 228.096 201.255509 
L 228.4308 200.919259 
L 228.7656 201.944284 
L 229.1004 201.22316 
L 229.4352 200.100301 
L 230.1048 200.232122 
L 230.4396 199.822289 
L 230.7744 199.933251 
L 231.1092 199.536838 
L 232.1136 204.193178 
L 232.4484 203.261832 
L 232.7832 202.878897 
L 233.118 201.32709 
L 233.4528 201.614753 
L 233.7876 203.366532 
L 234.1224 201.676759 
L 234.4572 201.705469 
L 234.792 199.743212 
L 235.1268 198.791916 
L 235.4616 195.244118 
L 235.7964 195.625032 
L 236.466 192.49685 
L 236.8008 193.507229 
L 237.1356 193.815651 
L 237.8052 199.042222 
L 238.14 198.838053 
L 238.8096 196.494496 
L 239.1444 195.918606 
L 239.4792 194.441221 
L 239.814 195.478265 
L 240.1488 195.948604 
L 240.4836 194.686753 
L 240.8184 193.928432 
L 241.1532 194.301479 
L 241.488 191.972891 
L 241.8228 194.345855 
L 242.1576 195.259569 
L 242.4924 195.750619 
L 242.8272 194.348469 
L 243.162 194.344267 
L 243.4968 196.566597 
L 243.8316 195.697214 
L 244.5012 192.513365 
L 244.836 191.386772 
L 245.1708 194.863984 
L 245.5056 196.434496 
L 245.8404 195.617095 
L 246.1752 195.711581 
L 246.51 194.813602 
L 246.8448 197.025683 
L 247.1796 197.128802 
L 247.5144 199.454758 
L 247.8492 202.580762 
L 248.184 202.136736 
L 248.5188 200.860005 
L 248.8536 200.477918 
L 249.1884 200.529647 
L 249.5232 202.97587 
L 249.858 201.478065 
L 250.1928 201.545721 
L 250.5276 198.539874 
L 250.8624 197.004852 
L 251.1972 200.368517 
L 251.532 199.182209 
L 251.8668 201.428786 
L 252.2016 202.596614 
L 252.5364 202.972926 
L 252.8712 203.112967 
L 253.206 202.52283 
L 253.8756 205.733814 
L 254.2104 204.892066 
L 254.5452 204.910989 
L 254.88 204.662068 
L 255.2148 207.810861 
L 255.5496 208.047484 
L 256.2192 210.419125 
L 256.554 209.26363 
L 257.2236 212.037769 
L 257.5584 212.435693 
L 257.8932 211.900045 
L 258.228 212.966614 
L 258.8976 209.752528 
L 259.2324 210.875858 
L 259.5672 211.179488 
L 259.902 212.136708 
L 260.2368 214.157518 
L 260.5716 213.813565 
L 260.9064 212.972869 
L 261.2412 210.613796 
L 261.576 211.733028 
L 262.2456 208.418413 
L 262.5804 208.157919 
L 262.9152 207.360147 
L 263.25 206.181167 
L 263.5848 203.442394 
L 263.9196 202.738124 
L 264.2544 202.828104 
L 264.5892 204.121628 
L 264.924 203.678155 
L 265.2588 202.176213 
L 265.5936 201.805872 
L 265.9284 202.99581 
L 266.2632 202.863258 
L 266.598 203.05599 
L 266.9328 202.662541 
L 267.2676 205.153022 
L 268.272 202.856097 
L 268.6068 202.861713 
L 268.9416 205.556753 
L 269.2764 205.583942 
L 269.6112 204.092324 
L 269.946 205.342442 
L 270.6156 210.196159 
L 271.2852 209.325729 
L 271.62 208.184261 
L 271.9548 208.257424 
L 272.2896 210.240402 
L 272.6244 211.270889 
L 272.9592 210.266663 
L 273.294 210.089897 
L 273.9636 208.707922 
L 274.6332 209.201928 
L 274.968 206.802872 
L 275.3028 206.235725 
L 275.6376 206.413899 
L 275.9724 205.785423 
L 276.3072 205.473384 
L 276.642 208.514685 
L 276.9768 207.660759 
L 277.3116 205.219674 
L 277.6464 206.325922 
L 277.9812 204.315317 
L 278.316 204.686842 
L 278.6508 204.265826 
L 278.9856 202.716029 
L 279.3204 203.793821 
L 279.6552 201.976242 
L 280.3248 205.101677 
L 280.6596 205.94536 
L 280.9944 205.021988 
L 281.3292 205.507397 
L 281.664 207.648523 
L 281.9988 207.938882 
L 282.3336 208.983284 
L 282.6684 208.033522 
L 283.0032 208.489605 
L 283.338 208.396583 
L 283.6728 208.93071 
L 284.0076 208.366413 
L 284.3424 208.608432 
L 284.6772 208.182228 
L 285.012 211.616065 
L 285.3468 211.497858 
L 285.6816 210.993204 
L 286.0164 211.239352 
L 286.686 209.491984 
L 287.0208 207.819127 
L 287.3556 207.679146 
L 288.36 214.991585 
L 288.6948 215.033614 
L 289.0296 215.207816 
L 289.3644 214.903426 
L 290.034 216.400852 
L 290.7036 215.099911 
L 291.0384 215.38359 
L 291.3732 215.425774 
L 292.0428 214.423721 
L 292.3776 215.712645 
L 292.7124 216.494059 
L 293.0472 217.799952 
L 293.382 218.316964 
L 294.0516 216.939404 
L 294.3864 218.089275 
L 294.7212 217.571483 
L 295.056 217.483309 
L 295.3908 217.992027 
L 295.7256 219.417981 
L 296.0604 219.587344 
L 296.3952 218.932278 
L 296.73 221.061041 
L 297.0648 221.424211 
L 297.3996 219.383351 
L 297.7344 218.730985 
L 298.0692 218.473623 
L 298.7388 219.871409 
L 299.0736 219.950902 
L 299.4084 218.425111 
L 299.7432 217.959445 
L 300.078 218.844591 
L 300.4128 217.683219 
L 300.7476 217.982726 
L 301.0824 216.261355 
L 301.4172 216.866821 
L 301.752 217.91969 
L 302.0868 217.742241 
L 302.7564 215.645592 
L 303.0912 215.472381 
L 303.426 216.552903 
L 303.7608 217.088246 
L 304.0956 219.192185 
L 304.4304 220.083308 
L 304.7652 220.252436 
L 305.1 219.885848 
L 305.4348 220.209678 
L 305.7696 220.263451 
L 306.1044 220.636671 
L 306.4392 219.938045 
L 306.774 220.79429 
L 307.1088 220.019353 
L 307.4436 218.157004 
L 307.7784 217.680128 
L 308.448 218.759566 
L 308.7828 217.562325 
L 310.122 221.967257 
L 310.4568 222.895213 
L 310.7916 222.216836 
L 311.1264 221.246541 
L 311.4612 221.881535 
L 311.796 221.696829 
L 312.1308 221.01609 
L 312.4656 220.923748 
L 312.8004 221.803395 
L 313.1352 223.116956 
L 313.47 222.256277 
L 314.1396 221.30502 
L 314.4744 222.311976 
L 314.8092 222.105842 
L 315.144 221.54995 
L 315.4788 221.266896 
L 315.8136 221.945091 
L 316.1484 221.04534 
L 316.4832 222.446646 
L 317.1528 220.664389 
L 317.4876 219.203139 
L 317.8224 219.537261 
L 318.1572 220.501707 
L 318.492 219.759828 
L 318.8268 220.429647 
L 319.1616 220.388433 
L 319.4964 220.686237 
L 319.8312 221.523957 
L 320.166 221.234361 
L 320.5008 222.502945 
L 320.8356 221.987008 
L 321.1704 222.845187 
L 321.5052 224.335151 
L 321.84 224.375902 
L 322.5096 223.550566 
L 322.8444 222.864717 
L 323.1792 224.888312 
L 323.514 225.688187 
L 323.8488 225.606012 
L 324.1836 224.431694 
L 324.5184 223.796688 
L 324.8532 222.218003 
L 325.188 222.680067 
L 325.5228 222.442529 
L 325.8576 223.402939 
L 326.1924 223.743708 
L 326.862 224.870655 
L 327.1968 225.183974 
L 327.8664 225.164367 
L 328.2012 224.736641 
L 328.536 224.62457 
L 329.5404 225.557116 
L 329.8752 225.904954 
L 330.21 225.530033 
L 330.5448 224.858829 
L 330.8796 223.843781 
L 331.2144 224.504926 
L 331.5492 224.125718 
L 331.884 225.269211 
L 332.2188 224.97674 
L 332.5536 224.118198 
L 332.8884 224.240881 
L 333.2232 223.365338 
L 333.8928 225.049185 
L 334.2276 225.156569 
L 334.5624 224.351785 
L 335.232 225.054807 
L 335.5668 225.838705 
L 335.9016 225.683354 
L 336.2364 224.722601 
L 336.906 223.590946 
L 337.2408 223.764143 
L 337.5756 224.232439 
L 337.9104 223.679454 
L 338.2452 223.706068 
L 338.58 223.850712 
L 338.9148 223.106437 
L 339.2496 223.274977 
L 339.5844 223.984405 
L 339.9192 223.234902 
L 340.254 223.166446 
L 340.9236 224.963358 
L 341.2584 224.887657 
L 341.5932 223.027543 
L 342.2628 223.647074 
L 342.5976 222.374676 
L 342.9324 222.424813 
L 343.602 225.001499 
L 343.9368 224.029734 
L 344.6064 222.7872 
L 344.9412 222.836999 
L 345.276 223.462443 
L 345.6108 223.645049 
L 345.9456 223.53145 
L 346.2804 224.234532 
L 346.6152 223.776133 
L 346.95 224.822796 
L 347.6196 225.249344 
L 347.9544 225.791355 
L 348.2892 227.483471 
L 348.624 227.16382 
L 348.9588 227.71085 
L 349.2936 226.774205 
L 349.6284 227.025953 
L 349.9632 227.420162 
L 350.298 227.354658 
L 350.6328 226.598512 
L 350.9676 227.016391 
L 351.3024 226.27717 
L 352.9764 220.651192 
L 353.3112 219.159538 
L 353.646 218.956266 
L 353.9808 219.378351 
L 354.3156 221.572775 
L 354.6504 222.764065 
L 355.32 223.475663 
L 355.6548 223.60408 
L 355.9896 224.441108 
L 356.3244 225.733564 
L 356.994 225.978785 
L 357.9984 227.825235 
L 358.3332 228.103954 
L 358.668 228.698308 
L 359.0028 227.847517 
L 359.3376 227.678288 
L 359.6724 228.366256 
L 360.0072 228.558586 
L 360.342 229.360846 
L 360.6768 228.698537 
L 361.3464 226.881335 
L 361.6812 227.720115 
L 362.016 227.784571 
L 362.3508 228.067354 
L 362.6856 227.676614 
L 363.3552 228.85284 
L 363.69 229.129865 
L 364.0248 229.028442 
L 364.3596 228.566945 
L 364.6944 228.790299 
L 365.364 227.779496 
L 365.6988 227.929674 
L 366.3684 229.588236 
L 366.7032 229.205297 
L 367.038 229.519255 
L 367.3728 230.63133 
L 367.7076 230.254872 
L 368.0424 230.173761 
L 368.3772 231.057609 
L 369.0468 229.827839 
L 369.3816 229.739101 
L 370.0512 231.42224 
L 370.386 231.603153 
L 370.7208 232.603117 
L 371.0556 232.379587 
L 371.3904 233.168076 
L 371.7252 233.080021 
L 372.06 233.234672 
L 372.3948 232.856112 
L 372.7296 233.366183 
L 373.0644 233.22174 
L 373.3992 233.96415 
L 373.734 233.559392 
L 374.0688 233.619354 
L 374.4036 233.361669 
L 374.7384 234.058682 
L 375.408 233.648933 
L 376.0776 233.296223 
L 376.4124 233.39874 
L 376.7472 232.745 
L 377.082 232.830328 
L 377.4168 233.232903 
L 377.7516 233.26414 
L 378.0864 233.768783 
L 378.4212 234.00772 
L 379.4256 234.189762 
L 379.7604 233.213684 
L 380.0952 232.909648 
L 380.43 232.328328 
L 381.4344 233.13917 
L 381.7692 232.682988 
L 382.104 233.862931 
L 382.4388 234.39189 
L 382.7736 234.341208 
L 383.1084 234.452549 
L 383.4432 233.481803 
L 383.778 233.247203 
L 384.1128 233.599124 
L 384.4476 234.419986 
L 384.7824 234.588346 
L 385.1172 235.225671 
L 385.452 235.006819 
L 386.1216 234.777115 
L 386.4564 233.772728 
L 386.7912 234.23992 
L 387.126 234.336133 
L 387.4608 234.938771 
L 387.7956 234.977293 
L 388.1304 234.217717 
L 388.4652 233.932925 
L 388.8 233.991286 
L 388.8 233.991286 
" style="fill:none;stroke:#2ca02c;stroke-linecap:square;stroke-width:1.5;"/>
   </g>
   <g id="patch_3">
    <path d="M 54 252 
L 54 34.56 
" style="fill:none;stroke:#000000;stroke-linecap:square;stroke-linejoin:miter;stroke-width:0.8;"/>
   </g>
   <g id="patch_4">
    <path d="M 388.8 252 
L 388.8 34.56 
" style="fill:none;stroke:#000000;stroke-linecap:square;stroke-linejoin:miter;stroke-width:0.8;"/>
   </g>
   <g id="patch_5">
    <path d="M 54 252 
L 388.8 252 
" style="fill:none;stroke:#000000;stroke-linecap:square;stroke-linejoin:miter;stroke-width:0.8;"/>
   </g>
   <g id="patch_6">
    <path d="M 54 34.56 
L 388.8 34.56 
" style="fill:none;stroke:#000000;stroke-linecap:square;stroke-linejoin:miter;stroke-width:0.8;"/>
   </g>
   <g id="text_17">
    <!-- Simulated Geometric Brownian Motion Paths -->
    <defs>
     <path d="M 53.515625 70.515625 
L 53.515625 60.890625 
Q 47.90625 63.578125 42.921875 64.890625 
Q 37.9375 66.21875 33.296875 66.21875 
Q 25.25 66.21875 20.875 63.09375 
Q 16.5 59.96875 16.5 54.203125 
Q 16.5 49.359375 19.40625 46.890625 
Q 22.3125 44.4375 30.421875 42.921875 
L 36.375 41.703125 
Q 47.40625 39.59375 52.65625 34.296875 
Q 57.90625 29 57.90625 20.125 
Q 57.90625 9.515625 50.796875 4.046875 
Q 43.703125 -1.421875 29.984375 -1.421875 
Q 24.8125 -1.421875 18.96875 -0.25 
Q 13.140625 0.921875 6.890625 3.21875 
L 6.890625 13.375 
Q 12.890625 10.015625 18.65625 8.296875 
Q 24.421875 6.59375 29.984375 6.59375 
Q 38.421875 6.59375 43.015625 9.90625 
Q 47.609375 13.234375 47.609375 19.390625 
Q 47.609375 24.75 44.3125 27.78125 
Q 41.015625 30.8125 33.5 32.328125 
L 27.484375 33.5 
Q 16.453125 35.6875 11.515625 40.375 
Q 6.59375 45.0625 6.59375 53.421875 
Q 6.59375 63.09375 13.40625 68.65625 
Q 20.21875 74.21875 32.171875 74.21875 
Q 37.3125 74.21875 42.625 73.28125 
Q 47.953125 72.359375 53.515625 70.515625 
z
" id="DejaVuSans-53"/>
     <path d="M 9.421875 54.6875 
L 18.40625 54.6875 
L 18.40625 0 
L 9.421875 0 
z
M 9.421875 75.984375 
L 18.40625 75.984375 
L 18.40625 64.59375 
L 9.421875 64.59375 
z
" id="DejaVuSans-69"/>
     <path d="M 52 44.1875 
Q 55.375 50.25 60.0625 53.125 
Q 64.75 56 71.09375 56 
Q 79.640625 56 84.28125 50.015625 
Q 88.921875 44.046875 88.921875 33.015625 
L 88.921875 0 
L 79.890625 0 
L 79.890625 32.71875 
Q 79.890625 40.578125 77.09375 44.375 
Q 74.3125 48.1875 68.609375 48.1875 
Q 61.625 48.1875 57.5625 43.546875 
Q 53.515625 38.921875 53.515625 30.90625 
L 53.515625 0 
L 44.484375 0 
L 44.484375 32.71875 
Q 44.484375 40.625 41.703125 44.40625 
Q 38.921875 48.1875 33.109375 48.1875 
Q 26.21875 48.1875 22.15625 43.53125 
Q 18.109375 38.875 18.109375 30.90625 
L 18.109375 0 
L 9.078125 0 
L 9.078125 54.6875 
L 18.109375 54.6875 
L 18.109375 46.1875 
Q 21.1875 51.21875 25.484375 53.609375 
Q 29.78125 56 35.6875 56 
Q 41.65625 56 45.828125 52.96875 
Q 50 49.953125 52 44.1875 
z
" id="DejaVuSans-6d"/>
     <path d="M 8.5 21.578125 
L 8.5 54.6875 
L 17.484375 54.6875 
L 17.484375 21.921875 
Q 17.484375 14.15625 20.5 10.265625 
Q 23.53125 6.390625 29.59375 6.390625 
Q 36.859375 6.390625 41.078125 11.03125 
Q 45.3125 15.671875 45.3125 23.6875 
L 45.3125 54.6875 
L 54.296875 54.6875 
L 54.296875 0 
L 45.3125 0 
L 45.3125 8.40625 
Q 42.046875 3.421875 37.71875 1 
Q 33.40625 -1.421875 27.6875 -1.421875 
Q 18.265625 -1.421875 13.375 4.4375 
Q 8.5 10.296875 8.5 21.578125 
z
M 31.109375 56 
z
" id="DejaVuSans-75"/>
     <path d="M 9.421875 75.984375 
L 18.40625 75.984375 
L 18.40625 0 
L 9.421875 0 
z
" id="DejaVuSans-6c"/>
     <path d="M 34.28125 27.484375 
Q 23.390625 27.484375 19.1875 25 
Q 14.984375 22.515625 14.984375 16.5 
Q 14.984375 11.71875 18.140625 8.90625 
Q 21.296875 6.109375 26.703125 6.109375 
Q 34.1875 6.109375 38.703125 11.40625 
Q 43.21875 16.703125 43.21875 25.484375 
L 43.21875 27.484375 
z
M 52.203125 31.203125 
L 52.203125 0 
L 43.21875 0 
L 43.21875 8.296875 
Q 40.140625 3.328125 35.546875 0.953125 
Q 30.953125 -1.421875 24.3125 -1.421875 
Q 15.921875 -1.421875 10.953125 3.296875 
Q 6 8.015625 6 15.921875 
Q 6 25.140625 12.171875 29.828125 
Q 18.359375 34.515625 30.609375 34.515625 
L 43.21875 34.515625 
L 43.21875 35.40625 
Q 43.21875 41.609375 39.140625 45 
Q 35.0625 48.390625 27.6875 48.390625 
Q 23 48.390625 18.546875 47.265625 
Q 14.109375 46.140625 10.015625 43.890625 
L 10.015625 52.203125 
Q 14.9375 54.109375 19.578125 55.046875 
Q 24.21875 56 28.609375 56 
Q 40.484375 56 46.34375 49.84375 
Q 52.203125 43.703125 52.203125 31.203125 
z
" id="DejaVuSans-61"/>
     <path d="M 18.3125 70.21875 
L 18.3125 54.6875 
L 36.8125 54.6875 
L 36.8125 47.703125 
L 18.3125 47.703125 
L 18.3125 18.015625 
Q 18.3125 11.328125 20.140625 9.421875 
Q 21.96875 7.515625 27.59375 7.515625 
L 36.8125 7.515625 
L 36.8125 0 
L 27.59375 0 
Q 17.1875 0 13.234375 3.875 
Q 9.28125 7.765625 9.28125 18.015625 
L 9.28125 47.703125 
L 2.6875 47.703125 
L 2.6875 54.6875 
L 9.28125 54.6875 
L 9.28125 70.21875 
z
" id="DejaVuSans-74"/>
     <path d="M 56.203125 29.59375 
L 56.203125 25.203125 
L 14.890625 25.203125 
Q 15.484375 15.921875 20.484375 11.0625 
Q 25.484375 6.203125 34.421875 6.203125 
Q 39.59375 6.203125 44.453125 7.46875 
Q 49.3125 8.734375 54.109375 11.28125 
L 54.109375 2.78125 
Q 49.265625 0.734375 44.1875 -0.34375 
Q 39.109375 -1.421875 33.890625 -1.421875 
Q 20.796875 -1.421875 13.15625 6.1875 
Q 5.515625 13.8125 5.515625 26.8125 
Q 5.515625 40.234375 12.765625 48.109375 
Q 20.015625 56 32.328125 56 
Q 43.359375 56 49.78125 48.890625 
Q 56.203125 41.796875 56.203125 29.59375 
z
M 47.21875 32.234375 
Q 47.125 39.59375 43.09375 43.984375 
Q 39.0625 48.390625 32.421875 48.390625 
Q 24.90625 48.390625 20.390625 44.140625 
Q 15.875 39.890625 15.1875 32.171875 
z
" id="DejaVuSans-65"/>
     <path d="M 45.40625 46.390625 
L 45.40625 75.984375 
L 54.390625 75.984375 
L 54.390625 0 
L 45.40625 0 
L 45.40625 8.203125 
Q 42.578125 3.328125 38.25 0.953125 
Q 33.9375 -1.421875 27.875 -1.421875 
Q 17.96875 -1.421875 11.734375 6.484375 
Q 5.515625 14.40625 5.515625 27.296875 
Q 5.515625 40.1875 11.734375 48.09375 
Q 17.96875 56 27.875 56 
Q 33.9375 56 38.25 53.625 
Q 42.578125 51.265625 45.40625 46.390625 
z
M 14.796875 27.296875 
Q 14.796875 17.390625 18.875 11.75 
Q 22.953125 6.109375 30.078125 6.109375 
Q 37.203125 6.109375 41.296875 11.75 
Q 45.40625 17.390625 45.40625 27.296875 
Q 45.40625 37.203125 41.296875 42.84375 
Q 37.203125 48.484375 30.078125 48.484375 
Q 22.953125 48.484375 18.875 42.84375 
Q 14.796875 37.203125 14.796875 27.296875 
z
" id="DejaVuSans-64"/>
     <path id="DejaVuSans-20"/>
     <path d="M 59.515625 10.40625 
L 59.515625 29.984375 
L 43.40625 29.984375 
L 43.40625 38.09375 
L 69.28125 38.09375 
L 69.28125 6.78125 
Q 63.578125 2.734375 56.6875 0.65625 
Q 49.8125 -1.421875 42 -1.421875 
Q 24.90625 -1.421875 15.25 8.5625 
Q 5.609375 18.5625 5.609375 36.375 
Q 5.609375 54.25 15.25 64.234375 
Q 24.90625 74.21875 42 74.21875 
Q 49.125 74.21875 55.546875 72.453125 
Q 61.96875 70.703125 67.390625 67.28125 
L 67.390625 56.78125 
Q 61.921875 61.421875 55.765625 63.765625 
Q 49.609375 66.109375 42.828125 66.109375 
Q 29.4375 66.109375 22.71875 58.640625 
Q 16.015625 51.171875 16.015625 36.375 
Q 16.015625 21.625 22.71875 14.15625 
Q 29.4375 6.6875 42.828125 6.6875 
Q 48.046875 6.6875 52.140625 7.59375 
Q 56.25 8.5 59.515625 10.40625 
z
" id="DejaVuSans-47"/>
     <path d="M 30.609375 48.390625 
Q 23.390625 48.390625 19.1875 42.75 
Q 14.984375 37.109375 14.984375 27.296875 
Q 14.984375 17.484375 19.15625 11.84375 
Q 23.34375 6.203125 30.609375 6.203125 
Q 37.796875 6.203125 41.984375 11.859375 
Q 46.1875 17.53125 46.1875 27.296875 
Q 46.1875 37.015625 41.984375 42.703125 
Q 37.796875 48.390625 30.609375 48.390625 
z
M 30.609375 56 
Q 42.328125 56 49.015625 48.375 
Q 55.71875 40.765625 55.71875 27.296875 
Q 55.71875 13.875 49.015625 6.21875 
Q 42.328125 -1.421875 30.609375 -1.421875 
Q 18.84375 -1.421875 12.171875 6.21875 
Q 5.515625 13.875 5.515625 27.296875 
Q 5.515625 40.765625 12.171875 48.375 
Q 18.84375 56 30.609375 56 
z
" id="DejaVuSans-6f"/>
     <path d="M 41.109375 46.296875 
Q 39.59375 47.171875 37.8125 47.578125 
Q 36.03125 48 33.890625 48 
Q 26.265625 48 22.1875 43.046875 
Q 18.109375 38.09375 18.109375 28.8125 
L 18.109375 0 
L 9.078125 0 
L 9.078125 54.6875 
L 18.109375 54.6875 
L 18.109375 46.1875 
Q 20.953125 51.171875 25.484375 53.578125 
Q 30.03125 56 36.53125 56 
Q 37.453125 56 38.578125 55.875 
Q 39.703125 55.765625 41.0625 55.515625 
z
" id="DejaVuSans-72"/>
     <path d="M 48.78125 52.59375 
L 48.78125 44.1875 
Q 44.96875 46.296875 41.140625 47.34375 
Q 37.3125 48.390625 33.40625 48.390625 
Q 24.65625 48.390625 19.8125 42.84375 
Q 14.984375 37.3125 14.984375 27.296875 
Q 14.984375 17.28125 19.8125 11.734375 
Q 24.65625 6.203125 33.40625 6.203125 
Q 37.3125 6.203125 41.140625 7.25 
Q 44.96875 8.296875 48.78125 10.40625 
L 48.78125 2.09375 
Q 45.015625 0.34375 40.984375 -0.53125 
Q 36.96875 -1.421875 32.421875 -1.421875 
Q 20.0625 -1.421875 12.78125 6.34375 
Q 5.515625 14.109375 5.515625 27.296875 
Q 5.515625 40.671875 12.859375 48.328125 
Q 20.21875 56 33.015625 56 
Q 37.15625 56 41.109375 55.140625 
Q 45.0625 54.296875 48.78125 52.59375 
z
" id="DejaVuSans-63"/>
     <path d="M 19.671875 34.8125 
L 19.671875 8.109375 
L 35.5 8.109375 
Q 43.453125 8.109375 47.28125 11.40625 
Q 51.125 14.703125 51.125 21.484375 
Q 51.125 28.328125 47.28125 31.5625 
Q 43.453125 34.8125 35.5 34.8125 
z
M 19.671875 64.796875 
L 19.671875 42.828125 
L 34.28125 42.828125 
Q 41.5 42.828125 45.03125 45.53125 
Q 48.578125 48.25 48.578125 53.8125 
Q 48.578125 59.328125 45.03125 62.0625 
Q 41.5 64.796875 34.28125 64.796875 
z
M 9.8125 72.90625 
L 35.015625 72.90625 
Q 46.296875 72.90625 52.390625 68.21875 
Q 58.5 63.53125 58.5 54.890625 
Q 58.5 48.1875 55.375 44.234375 
Q 52.25 40.28125 46.1875 39.3125 
Q 53.46875 37.75 57.5 32.78125 
Q 61.53125 27.828125 61.53125 20.40625 
Q 61.53125 10.640625 54.890625 5.3125 
Q 48.25 0 35.984375 0 
L 9.8125 0 
z
" id="DejaVuSans-42"/>
     <path d="M 4.203125 54.6875 
L 13.1875 54.6875 
L 24.421875 12.015625 
L 35.59375 54.6875 
L 46.1875 54.6875 
L 57.421875 12.015625 
L 68.609375 54.6875 
L 77.59375 54.6875 
L 63.28125 0 
L 52.6875 0 
L 40.921875 44.828125 
L 29.109375 0 
L 18.5 0 
z
" id="DejaVuSans-77"/>
     <path d="M 54.890625 33.015625 
L 54.890625 0 
L 45.90625 0 
L 45.90625 32.71875 
Q 45.90625 40.484375 42.875 44.328125 
Q 39.84375 48.1875 33.796875 48.1875 
Q 26.515625 48.1875 22.3125 43.546875 
Q 18.109375 38.921875 18.109375 30.90625 
L 18.109375 0 
L 9.078125 0 
L 9.078125 54.6875 
L 18.109375 54.6875 
L 18.109375 46.1875 
Q 21.34375 51.125 25.703125 53.5625 
Q 30.078125 56 35.796875 56 
Q 45.21875 56 50.046875 50.171875 
Q 54.890625 44.34375 54.890625 33.015625 
z
" id="DejaVuSans-6e"/>
     <path d="M 9.8125 72.90625 
L 24.515625 72.90625 
L 43.109375 23.296875 
L 61.8125 72.90625 
L 76.515625 72.90625 
L 76.515625 0 
L 66.890625 0 
L 66.890625 64.015625 
L 48.09375 14.015625 
L 38.1875 14.015625 
L 19.390625 64.015625 
L 19.390625 0 
L 9.8125 0 
z
" id="DejaVuSans-4d"/>
     <path d="M 19.671875 64.796875 
L 19.671875 37.40625 
L 32.078125 37.40625 
Q 38.96875 37.40625 42.71875 40.96875 
Q 46.484375 44.53125 46.484375 51.125 
Q 46.484375 57.671875 42.71875 61.234375 
Q 38.96875 64.796875 32.078125 64.796875 
z
M 9.8125 72.90625 
L 32.078125 72.90625 
Q 44.34375 72.90625 50.609375 67.359375 
Q 56.890625 61.8125 56.890625 51.125 
Q 56.890625 40.328125 50.609375 34.8125 
Q 44.34375 29.296875 32.078125 29.296875 
L 19.671875 29.296875 
L 19.671875 0 
L 9.8125 0 
z
" id="DejaVuSans-50"/>
     <path d="M 54.890625 33.015625 
L 54.890625 0 
L 45.90625 0 
L 45.90625 32.71875 
Q 45.90625 40.484375 42.875 44.328125 
Q 39.84375 48.1875 33.796875 48.1875 
Q 26.515625 48.1875 22.3125 43.546875 
Q 18.109375 38.921875 18.109375 30.90625 
L 18.109375 0 
L 9.078125 0 
L 9.078125 75.984375 
L 18.109375 75.984375 
L 18.109375 46.1875 
Q 21.34375 51.125 25.703125 53.5625 
Q 30.078125 56 35.796875 56 
Q 45.21875 56 50.046875 50.171875 
Q 54.890625 44.34375 54.890625 33.015625 
z
" id="DejaVuSans-68"/>
     <path d="M 44.28125 53.078125 
L 44.28125 44.578125 
Q 40.484375 46.53125 36.375 47.5 
Q 32.28125 48.484375 27.875 48.484375 
Q 21.1875 48.484375 17.84375 46.4375 
Q 14.5 44.390625 14.5 40.28125 
Q 14.5 37.15625 16.890625 35.375 
Q 19.28125 33.59375 26.515625 31.984375 
L 29.59375 31.296875 
Q 39.15625 29.25 43.1875 25.515625 
Q 47.21875 21.78125 47.21875 15.09375 
Q 47.21875 7.46875 41.1875 3.015625 
Q 35.15625 -1.421875 24.609375 -1.421875 
Q 20.21875 -1.421875 15.453125 -0.5625 
Q 10.6875 0.296875 5.421875 2 
L 5.421875 11.28125 
Q 10.40625 8.6875 15.234375 7.390625 
Q 20.0625 6.109375 24.8125 6.109375 
Q 31.15625 6.109375 34.5625 8.28125 
Q 37.984375 10.453125 37.984375 14.40625 
Q 37.984375 18.0625 35.515625 20.015625 
Q 33.0625 21.96875 24.703125 23.78125 
L 21.578125 24.515625 
Q 13.234375 26.265625 9.515625 29.90625 
Q 5.8125 33.546875 5.8125 39.890625 
Q 5.8125 47.609375 11.28125 51.796875 
Q 16.75 56 26.8125 56 
Q 31.78125 56 36.171875 55.265625 
Q 40.578125 54.546875 44.28125 53.078125 
z
" id="DejaVuSans-73"/>
    </defs>
    <g transform="translate(87.099375 28.56)scale(0.12 -0.12)">
     <use xlink:href="#DejaVuSans-53"/>
     <use x="63.476562" xlink:href="#DejaVuSans-69"/>
     <use x="91.259766" xlink:href="#DejaVuSans-6d"/>
     <use x="188.671875" xlink:href="#DejaVuSans-75"/>
     <use x="252.050781" xlink:href="#DejaVuSans-6c"/>
     <use x="279.833984" xlink:href="#DejaVuSans-61"/>
     <use x="341.113281" xlink:href="#DejaVuSans-74"/>
     <use x="380.322266" xlink:href="#DejaVuSans-65"/>
     <use x="441.845703" xlink:href="#DejaVuSans-64"/>
     <use x="505.322266" xlink:href="#DejaVuSans-20"/>
     <use x="537.109375" xlink:href="#DejaVuSans-47"/>
     <use x="614.599609" xlink:href="#DejaVuSans-65"/>
     <use x="676.123047" xlink:href="#DejaVuSans-6f"/>
     <use x="737.304688" xlink:href="#DejaVuSans-6d"/>
     <use x="834.716797" xlink:href="#DejaVuSans-65"/>
     <use x="896.240234" xlink:href="#DejaVuSans-74"/>
     <use x="935.449219" xlink:href="#DejaVuSans-72"/>
     <use x="976.5625" xlink:href="#DejaVuSans-69"/>
     <use x="1004.345703" xlink:href="#DejaVuSans-63"/>
     <use x="1059.326172" xlink:href="#DejaVuSans-20"/>
     <use x="1091.113281" xlink:href="#DejaVuSans-42"/>
     <use x="1159.716797" xlink:href="#DejaVuSans-72"/>
     <use x="1200.798828" xlink:href="#DejaVuSans-6f"/>
     <use x="1261.980469" xlink:href="#DejaVuSans-77"/>
     <use x="1343.767578" xlink:href="#DejaVuSans-6e"/>
     <use x="1407.146484" xlink:href="#DejaVuSans-69"/>
     <use x="1434.929688" xlink:href="#DejaVuSans-61"/>
     <use x="1496.208984" xlink:href="#DejaVuSans-6e"/>
     <use x="1559.587891" xlink:href="#DejaVuSans-20"/>
     <use x="1591.375" xlink:href="#DejaVuSans-4d"/>
     <use x="1677.654297" xlink:href="#DejaVuSans-6f"/>
     <use x="1738.835938" xlink:href="#DejaVuSans-74"/>
     <use x="1778.044922" xlink:href="#DejaVuSans-69"/>
     <use x="1805.828125" xlink:href="#DejaVuSans-6f"/>
     <use x="1867.009766" xlink:href="#DejaVuSans-6e"/>
     <use x="1930.388672" xlink:href="#DejaVuSans-20"/>
     <use x="1962.175781" xlink:href="#DejaVuSans-50"/>
     <use x="2022.416016" xlink:href="#DejaVuSans-61"/>
     <use x="2083.695312" xlink:href="#DejaVuSans-74"/>
     <use x="2122.904297" xlink:href="#DejaVuSans-68"/>
     <use x="2186.283203" xlink:href="#DejaVuSans-73"/>
    </g>
   </g>
  </g>
 </g>
 <defs>
  <clipPath id="p7ae33ca655">
   <rect height="217.44" width="334.8" x="54" y="34.56"/>
  </clipPath>
 </defs>
</svg>
