<?xml version="1.0" encoding="utf-8" standalone="no"?>
<!DOCTYPE svg PUBLIC "-//W3C//DTD SVG 1.1//EN"
  "http://www.w3.org/Graphics/SVG/1.1/DTD/svg11.dtd">
<!-- Created with matplotlib (http://matplotlib.org/) -->
<svg height="288pt" version="1.1" viewBox="0 0 864 288" width="864pt" xmlns="http://www.w3.org/2000/svg" xmlns:xlink="http://www.w3.org/1999/xlink">
 <defs>
  <style type="text/css">
*{stroke-linecap:butt;stroke-linejoin:round;}
  </style>
 </defs>
 <g id="figure_1">
  <g id="patch_1">
   <path d="M 0 288 
L 864 288 
L 864 0 
L 0 0 
z
" style="fill:#ffffff;"/>
  </g>
  <g id="axes_1">
   <g id="patch_2">
    <path d="M 108 230.4 
L 412.363636 230.4 
L 412.363636 34.56 
L 108 34.56 
z
" style="fill:#ffffff;"/>
   </g>
   <g id="patch_3">
    <path clip-path="url(#p5973b95e95)" d="M 138.942296 230.4 
L 143.791876 230.4 
L 143.791876 229.241526 
L 138.942296 229.241526 
z
" style="fill:#1f77b4;opacity:0.4;"/>
   </g>
   <g id="patch_4">
    <path clip-path="url(#p5973b95e95)" d="M 143.791876 230.4 
L 148.641457 230.4 
L 148.641457 230.4 
L 143.791876 230.4 
z
" style="fill:#1f77b4;opacity:0.4;"/>
   </g>
   <g id="patch_5">
    <path clip-path="url(#p5973b95e95)" d="M 148.641457 230.4 
L 153.491038 230.4 
L 153.491038 229.241526 
L 148.641457 229.241526 
z
" style="fill:#1f77b4;opacity:0.4;"/>
   </g>
   <g id="patch_6">
    <path clip-path="url(#p5973b95e95)" d="M 153.491038 230.4 
L 158.340619 230.4 
L 158.340619 230.4 
L 153.491038 230.4 
z
" style="fill:#1f77b4;opacity:0.4;"/>
   </g>
   <g id="patch_7">
    <path clip-path="url(#p5973b95e95)" d="M 158.340619 230.4 
L 163.1902 230.4 
L 163.1902 229.241526 
L 158.340619 229.241526 
z
" style="fill:#1f77b4;opacity:0.4;"/>
   </g>
   <g id="patch_8">
    <path clip-path="url(#p5973b95e95)" d="M 163.1902 230.4 
L 168.039781 230.4 
L 168.039781 230.4 
L 163.1902 230.4 
z
" style="fill:#1f77b4;opacity:0.4;"/>
   </g>
   <g id="patch_9">
    <path clip-path="url(#p5973b95e95)" d="M 168.039781 230.4 
L 172.889362 230.4 
L 172.889362 229.241526 
L 168.039781 229.241526 
z
" style="fill:#1f77b4;opacity:0.4;"/>
   </g>
   <g id="patch_10">
    <path clip-path="url(#p5973b95e95)" d="M 172.889362 230.4 
L 177.738943 230.4 
L 177.738943 230.4 
L 172.889362 230.4 
z
" style="fill:#1f77b4;opacity:0.4;"/>
   </g>
   <g id="patch_11">
    <path clip-path="url(#p5973b95e95)" d="M 177.738943 230.4 
L 182.588524 230.4 
L 182.588524 230.4 
L 177.738943 230.4 
z
" style="fill:#1f77b4;opacity:0.4;"/>
   </g>
   <g id="patch_12">
    <path clip-path="url(#p5973b95e95)" d="M 182.588524 230.4 
L 187.438105 230.4 
L 187.438105 225.766105 
L 182.588524 225.766105 
z
" style="fill:#1f77b4;opacity:0.4;"/>
   </g>
   <g id="patch_13">
    <path clip-path="url(#p5973b95e95)" d="M 187.438105 230.4 
L 192.287686 230.4 
L 192.287686 226.924579 
L 187.438105 226.924579 
z
" style="fill:#1f77b4;opacity:0.4;"/>
   </g>
   <g id="patch_14">
    <path clip-path="url(#p5973b95e95)" d="M 192.287686 230.4 
L 197.137266 230.4 
L 197.137266 229.241526 
L 192.287686 229.241526 
z
" style="fill:#1f77b4;opacity:0.4;"/>
   </g>
   <g id="patch_15">
    <path clip-path="url(#p5973b95e95)" d="M 197.137266 230.4 
L 201.986847 230.4 
L 201.986847 223.449157 
L 197.137266 223.449157 
z
" style="fill:#1f77b4;opacity:0.4;"/>
   </g>
   <g id="patch_16">
    <path clip-path="url(#p5973b95e95)" d="M 201.986847 230.4 
L 206.836428 230.4 
L 206.836428 222.290683 
L 201.986847 222.290683 
z
" style="fill:#1f77b4;opacity:0.4;"/>
   </g>
   <g id="patch_17">
    <path clip-path="url(#p5973b95e95)" d="M 206.836428 230.4 
L 211.686009 230.4 
L 211.686009 226.924579 
L 206.836428 226.924579 
z
" style="fill:#1f77b4;opacity:0.4;"/>
   </g>
   <g id="patch_18">
    <path clip-path="url(#p5973b95e95)" d="M 211.686009 230.4 
L 216.53559 230.4 
L 216.53559 216.498314 
L 211.686009 216.498314 
z
" style="fill:#1f77b4;opacity:0.4;"/>
   </g>
   <g id="patch_19">
    <path clip-path="url(#p5973b95e95)" d="M 216.53559 230.4 
L 221.385171 230.4 
L 221.385171 213.022893 
L 216.53559 213.022893 
z
" style="fill:#1f77b4;opacity:0.4;"/>
   </g>
   <g id="patch_20">
    <path clip-path="url(#p5973b95e95)" d="M 221.385171 230.4 
L 226.234752 230.4 
L 226.234752 211.864419 
L 221.385171 211.864419 
z
" style="fill:#1f77b4;opacity:0.4;"/>
   </g>
   <g id="patch_21">
    <path clip-path="url(#p5973b95e95)" d="M 226.234752 230.4 
L 231.084333 230.4 
L 231.084333 211.864419 
L 226.234752 211.864419 
z
" style="fill:#1f77b4;opacity:0.4;"/>
   </g>
   <g id="patch_22">
    <path clip-path="url(#p5973b95e95)" d="M 231.084333 230.4 
L 235.933914 230.4 
L 235.933914 200.279681 
L 231.084333 200.279681 
z
" style="fill:#1f77b4;opacity:0.4;"/>
   </g>
   <g id="patch_23">
    <path clip-path="url(#p5973b95e95)" d="M 235.933914 230.4 
L 240.783495 230.4 
L 240.783495 194.487311 
L 235.933914 194.487311 
z
" style="fill:#1f77b4;opacity:0.4;"/>
   </g>
   <g id="patch_24">
    <path clip-path="url(#p5973b95e95)" d="M 240.783495 230.4 
L 245.633075 230.4 
L 245.633075 178.268678 
L 240.783495 178.268678 
z
" style="fill:#1f77b4;opacity:0.4;"/>
   </g>
   <g id="patch_25">
    <path clip-path="url(#p5973b95e95)" d="M 245.633075 230.4 
L 250.482656 230.4 
L 250.482656 178.268678 
L 245.633075 178.268678 
z
" style="fill:#1f77b4;opacity:0.4;"/>
   </g>
   <g id="patch_26">
    <path clip-path="url(#p5973b95e95)" d="M 250.482656 230.4 
L 255.332237 230.4 
L 255.332237 123.820408 
L 250.482656 123.820408 
z
" style="fill:#1f77b4;opacity:0.4;"/>
   </g>
   <g id="patch_27">
    <path clip-path="url(#p5973b95e95)" d="M 255.332237 230.4 
L 260.181818 230.4 
L 260.181818 78.639929 
L 255.332237 78.639929 
z
" style="fill:#1f77b4;opacity:0.4;"/>
   </g>
   <g id="patch_28">
    <path clip-path="url(#p5973b95e95)" d="M 260.181818 230.4 
L 265.031399 230.4 
L 265.031399 43.885714 
L 260.181818 43.885714 
z
" style="fill:#1f77b4;opacity:0.4;"/>
   </g>
   <g id="patch_29">
    <path clip-path="url(#p5973b95e95)" d="M 265.031399 230.4 
L 269.88098 230.4 
L 269.88098 77.481455 
L 265.031399 77.481455 
z
" style="fill:#1f77b4;opacity:0.4;"/>
   </g>
   <g id="patch_30">
    <path clip-path="url(#p5973b95e95)" d="M 269.88098 230.4 
L 274.730561 230.4 
L 274.730561 123.820408 
L 269.88098 123.820408 
z
" style="fill:#1f77b4;opacity:0.4;"/>
   </g>
   <g id="patch_31">
    <path clip-path="url(#p5973b95e95)" d="M 274.730561 230.4 
L 279.580142 230.4 
L 279.580142 101.809406 
L 274.730561 101.809406 
z
" style="fill:#1f77b4;opacity:0.4;"/>
   </g>
   <g id="patch_32">
    <path clip-path="url(#p5973b95e95)" d="M 279.580142 230.4 
L 284.429723 230.4 
L 284.429723 155.099201 
L 279.580142 155.099201 
z
" style="fill:#1f77b4;opacity:0.4;"/>
   </g>
   <g id="patch_33">
    <path clip-path="url(#p5973b95e95)" d="M 284.429723 230.4 
L 289.279304 230.4 
L 289.279304 175.95173 
L 284.429723 175.95173 
z
" style="fill:#1f77b4;opacity:0.4;"/>
   </g>
   <g id="patch_34">
    <path clip-path="url(#p5973b95e95)" d="M 289.279304 230.4 
L 294.128885 230.4 
L 294.128885 193.328838 
L 289.279304 193.328838 
z
" style="fill:#1f77b4;opacity:0.4;"/>
   </g>
   <g id="patch_35">
    <path clip-path="url(#p5973b95e95)" d="M 294.128885 230.4 
L 298.978465 230.4 
L 298.978465 193.328838 
L 294.128885 193.328838 
z
" style="fill:#1f77b4;opacity:0.4;"/>
   </g>
   <g id="patch_36">
    <path clip-path="url(#p5973b95e95)" d="M 298.978465 230.4 
L 303.828046 230.4 
L 303.828046 202.596628 
L 298.978465 202.596628 
z
" style="fill:#1f77b4;opacity:0.4;"/>
   </g>
   <g id="patch_37">
    <path clip-path="url(#p5973b95e95)" d="M 303.828046 230.4 
L 308.677627 230.4 
L 308.677627 208.388997 
L 303.828046 208.388997 
z
" style="fill:#1f77b4;opacity:0.4;"/>
   </g>
   <g id="patch_38">
    <path clip-path="url(#p5973b95e95)" d="M 308.677627 230.4 
L 313.527208 230.4 
L 313.527208 222.290683 
L 308.677627 222.290683 
z
" style="fill:#1f77b4;opacity:0.4;"/>
   </g>
   <g id="patch_39">
    <path clip-path="url(#p5973b95e95)" d="M 313.527208 230.4 
L 318.376789 230.4 
L 318.376789 219.973736 
L 313.527208 219.973736 
z
" style="fill:#1f77b4;opacity:0.4;"/>
   </g>
   <g id="patch_40">
    <path clip-path="url(#p5973b95e95)" d="M 318.376789 230.4 
L 323.22637 230.4 
L 323.22637 224.607631 
L 318.376789 224.607631 
z
" style="fill:#1f77b4;opacity:0.4;"/>
   </g>
   <g id="patch_41">
    <path clip-path="url(#p5973b95e95)" d="M 323.22637 230.4 
L 328.075951 230.4 
L 328.075951 226.924579 
L 323.22637 226.924579 
z
" style="fill:#1f77b4;opacity:0.4;"/>
   </g>
   <g id="patch_42">
    <path clip-path="url(#p5973b95e95)" d="M 328.075951 230.4 
L 332.925532 230.4 
L 332.925532 228.083052 
L 328.075951 228.083052 
z
" style="fill:#1f77b4;opacity:0.4;"/>
   </g>
   <g id="patch_43">
    <path clip-path="url(#p5973b95e95)" d="M 332.925532 230.4 
L 337.775113 230.4 
L 337.775113 226.924579 
L 332.925532 226.924579 
z
" style="fill:#1f77b4;opacity:0.4;"/>
   </g>
   <g id="patch_44">
    <path clip-path="url(#p5973b95e95)" d="M 337.775113 230.4 
L 342.624694 230.4 
L 342.624694 226.924579 
L 337.775113 226.924579 
z
" style="fill:#1f77b4;opacity:0.4;"/>
   </g>
   <g id="patch_45">
    <path clip-path="url(#p5973b95e95)" d="M 342.624694 230.4 
L 347.474274 230.4 
L 347.474274 230.4 
L 342.624694 230.4 
z
" style="fill:#1f77b4;opacity:0.4;"/>
   </g>
   <g id="patch_46">
    <path clip-path="url(#p5973b95e95)" d="M 347.474274 230.4 
L 352.323855 230.4 
L 352.323855 230.4 
L 347.474274 230.4 
z
" style="fill:#1f77b4;opacity:0.4;"/>
   </g>
   <g id="patch_47">
    <path clip-path="url(#p5973b95e95)" d="M 352.323855 230.4 
L 357.173436 230.4 
L 357.173436 230.4 
L 352.323855 230.4 
z
" style="fill:#1f77b4;opacity:0.4;"/>
   </g>
   <g id="patch_48">
    <path clip-path="url(#p5973b95e95)" d="M 357.173436 230.4 
L 362.023017 230.4 
L 362.023017 230.4 
L 357.173436 230.4 
z
" style="fill:#1f77b4;opacity:0.4;"/>
   </g>
   <g id="patch_49">
    <path clip-path="url(#p5973b95e95)" d="M 362.023017 230.4 
L 366.872598 230.4 
L 366.872598 230.4 
L 362.023017 230.4 
z
" style="fill:#1f77b4;opacity:0.4;"/>
   </g>
   <g id="patch_50">
    <path clip-path="url(#p5973b95e95)" d="M 366.872598 230.4 
L 371.722179 230.4 
L 371.722179 230.4 
L 366.872598 230.4 
z
" style="fill:#1f77b4;opacity:0.4;"/>
   </g>
   <g id="patch_51">
    <path clip-path="url(#p5973b95e95)" d="M 371.722179 230.4 
L 376.57176 230.4 
L 376.57176 230.4 
L 371.722179 230.4 
z
" style="fill:#1f77b4;opacity:0.4;"/>
   </g>
   <g id="patch_52">
    <path clip-path="url(#p5973b95e95)" d="M 376.57176 230.4 
L 381.421341 230.4 
L 381.421341 229.241526 
L 376.57176 229.241526 
z
" style="fill:#1f77b4;opacity:0.4;"/>
   </g>
   <g id="matplotlib.axis_1">
    <g id="xtick_1">
     <g id="line2d_1">
      <defs>
       <path d="M 0 0 
L 0 3.5 
" id="ma910fa293b" style="stroke:#000000;stroke-width:0.8;"/>
      </defs>
      <g>
       <use style="stroke:#000000;stroke-width:0.8;" x="139.595405" xlink:href="#ma910fa293b" y="230.4"/>
      </g>
     </g>
     <g id="text_1">
      <!-- −0.04 -->
      <defs>
       <path d="M 10.59375 35.5 
L 73.1875 35.5 
L 73.1875 27.203125 
L 10.59375 27.203125 
z
" id="DejaVuSans-2212"/>
       <path d="M 31.78125 66.40625 
Q 24.171875 66.40625 20.328125 58.90625 
Q 16.5 51.421875 16.5 36.375 
Q 16.5 21.390625 20.328125 13.890625 
Q 24.171875 6.390625 31.78125 6.390625 
Q 39.453125 6.390625 43.28125 13.890625 
Q 47.125 21.390625 47.125 36.375 
Q 47.125 51.421875 43.28125 58.90625 
Q 39.453125 66.40625 31.78125 66.40625 
z
M 31.78125 74.21875 
Q 44.046875 74.21875 50.515625 64.515625 
Q 56.984375 54.828125 56.984375 36.375 
Q 56.984375 17.96875 50.515625 8.265625 
Q 44.046875 -1.421875 31.78125 -1.421875 
Q 19.53125 -1.421875 13.0625 8.265625 
Q 6.59375 17.96875 6.59375 36.375 
Q 6.59375 54.828125 13.0625 64.515625 
Q 19.53125 74.21875 31.78125 74.21875 
z
" id="DejaVuSans-30"/>
       <path d="M 10.6875 12.40625 
L 21 12.40625 
L 21 0 
L 10.6875 0 
z
" id="DejaVuSans-2e"/>
       <path d="M 37.796875 64.3125 
L 12.890625 25.390625 
L 37.796875 25.390625 
z
M 35.203125 72.90625 
L 47.609375 72.90625 
L 47.609375 25.390625 
L 58.015625 25.390625 
L 58.015625 17.1875 
L 47.609375 17.1875 
L 47.609375 0 
L 37.796875 0 
L 37.796875 17.1875 
L 4.890625 17.1875 
L 4.890625 26.703125 
z
" id="DejaVuSans-34"/>
      </defs>
      <g transform="translate(124.272748 244.998437)scale(0.1 -0.1)">
       <use xlink:href="#DejaVuSans-2212"/>
       <use x="83.789062" xlink:href="#DejaVuSans-30"/>
       <use x="147.412109" xlink:href="#DejaVuSans-2e"/>
       <use x="179.199219" xlink:href="#DejaVuSans-30"/>
       <use x="242.822266" xlink:href="#DejaVuSans-34"/>
      </g>
     </g>
    </g>
    <g id="xtick_2">
     <g id="line2d_2">
      <g>
       <use style="stroke:#000000;stroke-width:0.8;" x="201.371346" xlink:href="#ma910fa293b" y="230.4"/>
      </g>
     </g>
     <g id="text_2">
      <!-- −0.02 -->
      <defs>
       <path d="M 19.1875 8.296875 
L 53.609375 8.296875 
L 53.609375 0 
L 7.328125 0 
L 7.328125 8.296875 
Q 12.9375 14.109375 22.625 23.890625 
Q 32.328125 33.6875 34.8125 36.53125 
Q 39.546875 41.84375 41.421875 45.53125 
Q 43.3125 49.21875 43.3125 52.78125 
Q 43.3125 58.59375 39.234375 62.25 
Q 35.15625 65.921875 28.609375 65.921875 
Q 23.96875 65.921875 18.8125 64.3125 
Q 13.671875 62.703125 7.8125 59.421875 
L 7.8125 69.390625 
Q 13.765625 71.78125 18.9375 73 
Q 24.125 74.21875 28.421875 74.21875 
Q 39.75 74.21875 46.484375 68.546875 
Q 53.21875 62.890625 53.21875 53.421875 
Q 53.21875 48.921875 51.53125 44.890625 
Q 49.859375 40.875 45.40625 35.40625 
Q 44.1875 33.984375 37.640625 27.21875 
Q 31.109375 20.453125 19.1875 8.296875 
z
" id="DejaVuSans-32"/>
      </defs>
      <g transform="translate(186.04869 244.998437)scale(0.1 -0.1)">
       <use xlink:href="#DejaVuSans-2212"/>
       <use x="83.789062" xlink:href="#DejaVuSans-30"/>
       <use x="147.412109" xlink:href="#DejaVuSans-2e"/>
       <use x="179.199219" xlink:href="#DejaVuSans-30"/>
       <use x="242.822266" xlink:href="#DejaVuSans-32"/>
      </g>
     </g>
    </g>
    <g id="xtick_3">
     <g id="line2d_3">
      <g>
       <use style="stroke:#000000;stroke-width:0.8;" x="263.147287" xlink:href="#ma910fa293b" y="230.4"/>
      </g>
     </g>
     <g id="text_3">
      <!-- 0.00 -->
      <g transform="translate(252.014474 244.998437)scale(0.1 -0.1)">
       <use xlink:href="#DejaVuSans-30"/>
       <use x="63.623047" xlink:href="#DejaVuSans-2e"/>
       <use x="95.410156" xlink:href="#DejaVuSans-30"/>
       <use x="159.033203" xlink:href="#DejaVuSans-30"/>
      </g>
     </g>
    </g>
    <g id="xtick_4">
     <g id="line2d_4">
      <g>
       <use style="stroke:#000000;stroke-width:0.8;" x="324.923228" xlink:href="#ma910fa293b" y="230.4"/>
      </g>
     </g>
     <g id="text_4">
      <!-- 0.02 -->
      <g transform="translate(313.790416 244.998437)scale(0.1 -0.1)">
       <use xlink:href="#DejaVuSans-30"/>
       <use x="63.623047" xlink:href="#DejaVuSans-2e"/>
       <use x="95.410156" xlink:href="#DejaVuSans-30"/>
       <use x="159.033203" xlink:href="#DejaVuSans-32"/>
      </g>
     </g>
    </g>
    <g id="xtick_5">
     <g id="line2d_5">
      <g>
       <use style="stroke:#000000;stroke-width:0.8;" x="386.699169" xlink:href="#ma910fa293b" y="230.4"/>
      </g>
     </g>
     <g id="text_5">
      <!-- 0.04 -->
      <g transform="translate(375.566357 244.998437)scale(0.1 -0.1)">
       <use xlink:href="#DejaVuSans-30"/>
       <use x="63.623047" xlink:href="#DejaVuSans-2e"/>
       <use x="95.410156" xlink:href="#DejaVuSans-30"/>
       <use x="159.033203" xlink:href="#DejaVuSans-34"/>
      </g>
     </g>
    </g>
    <g id="text_6">
     <!-- Return -->
     <defs>
      <path d="M 44.390625 34.1875 
Q 47.5625 33.109375 50.5625 29.59375 
Q 53.5625 26.078125 56.59375 19.921875 
L 66.609375 0 
L 56 0 
L 46.6875 18.703125 
Q 43.0625 26.03125 39.671875 28.421875 
Q 36.28125 30.8125 30.421875 30.8125 
L 19.671875 30.8125 
L 19.671875 0 
L 9.8125 0 
L 9.8125 72.90625 
L 32.078125 72.90625 
Q 44.578125 72.90625 50.734375 67.671875 
Q 56.890625 62.453125 56.890625 51.90625 
Q 56.890625 45.015625 53.6875 40.46875 
Q 50.484375 35.9375 44.390625 34.1875 
z
M 19.671875 64.796875 
L 19.671875 38.921875 
L 32.078125 38.921875 
Q 39.203125 38.921875 42.84375 42.21875 
Q 46.484375 45.515625 46.484375 51.90625 
Q 46.484375 58.296875 42.84375 61.546875 
Q 39.203125 64.796875 32.078125 64.796875 
z
" id="DejaVuSans-52"/>
      <path d="M 56.203125 29.59375 
L 56.203125 25.203125 
L 14.890625 25.203125 
Q 15.484375 15.921875 20.484375 11.0625 
Q 25.484375 6.203125 34.421875 6.203125 
Q 39.59375 6.203125 44.453125 7.46875 
Q 49.3125 8.734375 54.109375 11.28125 
L 54.109375 2.78125 
Q 49.265625 0.734375 44.1875 -0.34375 
Q 39.109375 -1.421875 33.890625 -1.421875 
Q 20.796875 -1.421875 13.15625 6.1875 
Q 5.515625 13.8125 5.515625 26.8125 
Q 5.515625 40.234375 12.765625 48.109375 
Q 20.015625 56 32.328125 56 
Q 43.359375 56 49.78125 48.890625 
Q 56.203125 41.796875 56.203125 29.59375 
z
M 47.21875 32.234375 
Q 47.125 39.59375 43.09375 43.984375 
Q 39.0625 48.390625 32.421875 48.390625 
Q 24.90625 48.390625 20.390625 44.140625 
Q 15.875 39.890625 15.1875 32.171875 
z
" id="DejaVuSans-65"/>
      <path d="M 18.3125 70.21875 
L 18.3125 54.6875 
L 36.8125 54.6875 
L 36.8125 47.703125 
L 18.3125 47.703125 
L 18.3125 18.015625 
Q 18.3125 11.328125 20.140625 9.421875 
Q 21.96875 7.515625 27.59375 7.515625 
L 36.8125 7.515625 
L 36.8125 0 
L 27.59375 0 
Q 17.1875 0 13.234375 3.875 
Q 9.28125 7.765625 9.28125 18.015625 
L 9.28125 47.703125 
L 2.6875 47.703125 
L 2.6875 54.6875 
L 9.28125 54.6875 
L 9.28125 70.21875 
z
" id="DejaVuSans-74"/>
      <path d="M 8.5 21.578125 
L 8.5 54.6875 
L 17.484375 54.6875 
L 17.484375 21.921875 
Q 17.484375 14.15625 20.5 10.265625 
Q 23.53125 6.390625 29.59375 6.390625 
Q 36.859375 6.390625 41.078125 11.03125 
Q 45.3125 15.671875 45.3125 23.6875 
L 45.3125 54.6875 
L 54.296875 54.6875 
L 54.296875 0 
L 45.3125 0 
L 45.3125 8.40625 
Q 42.046875 3.421875 37.71875 1 
Q 33.40625 -1.421875 27.6875 -1.421875 
Q 18.265625 -1.421875 13.375 4.4375 
Q 8.5 10.296875 8.5 21.578125 
z
M 31.109375 56 
z
" id="DejaVuSans-75"/>
      <path d="M 41.109375 46.296875 
Q 39.59375 47.171875 37.8125 47.578125 
Q 36.03125 48 33.890625 48 
Q 26.265625 48 22.1875 43.046875 
Q 18.109375 38.09375 18.109375 28.8125 
L 18.109375 0 
L 9.078125 0 
L 9.078125 54.6875 
L 18.109375 54.6875 
L 18.109375 46.1875 
Q 20.953125 51.171875 25.484375 53.578125 
Q 30.03125 56 36.53125 56 
Q 37.453125 56 38.578125 55.875 
Q 39.703125 55.765625 41.0625 55.515625 
z
" id="DejaVuSans-72"/>
      <path d="M 54.890625 33.015625 
L 54.890625 0 
L 45.90625 0 
L 45.90625 32.71875 
Q 45.90625 40.484375 42.875 44.328125 
Q 39.84375 48.1875 33.796875 48.1875 
Q 26.515625 48.1875 22.3125 43.546875 
Q 18.109375 38.921875 18.109375 30.90625 
L 18.109375 0 
L 9.078125 0 
L 9.078125 54.6875 
L 18.109375 54.6875 
L 18.109375 46.1875 
Q 21.34375 51.125 25.703125 53.5625 
Q 30.078125 56 35.796875 56 
Q 45.21875 56 50.046875 50.171875 
Q 54.890625 44.34375 54.890625 33.015625 
z
" id="DejaVuSans-6e"/>
     </defs>
     <g transform="translate(243.281818 258.676562)scale(0.1 -0.1)">
      <use xlink:href="#DejaVuSans-52"/>
      <use x="69.419922" xlink:href="#DejaVuSans-65"/>
      <use x="130.943359" xlink:href="#DejaVuSans-74"/>
      <use x="170.152344" xlink:href="#DejaVuSans-75"/>
      <use x="233.53125" xlink:href="#DejaVuSans-72"/>
      <use x="274.628906" xlink:href="#DejaVuSans-6e"/>
     </g>
    </g>
   </g>
   <g id="matplotlib.axis_2">
    <g id="ytick_1">
     <g id="line2d_6">
      <defs>
       <path d="M 0 0 
L -3.5 0 
" id="m7976ac03fa" style="stroke:#000000;stroke-width:0.8;"/>
      </defs>
      <g>
       <use style="stroke:#000000;stroke-width:0.8;" x="108" xlink:href="#m7976ac03fa" y="230.4"/>
      </g>
     </g>
     <g id="text_7">
      <!-- 0 -->
      <g transform="translate(94.6375 234.199219)scale(0.1 -0.1)">
       <use xlink:href="#DejaVuSans-30"/>
      </g>
     </g>
    </g>
    <g id="ytick_2">
     <g id="line2d_7">
      <g>
       <use style="stroke:#000000;stroke-width:0.8;" x="108" xlink:href="#m7976ac03fa" y="208.482647"/>
      </g>
     </g>
     <g id="text_8">
      <!-- 10 -->
      <defs>
       <path d="M 12.40625 8.296875 
L 28.515625 8.296875 
L 28.515625 63.921875 
L 10.984375 60.40625 
L 10.984375 69.390625 
L 28.421875 72.90625 
L 38.28125 72.90625 
L 38.28125 8.296875 
L 54.390625 8.296875 
L 54.390625 0 
L 12.40625 0 
z
" id="DejaVuSans-31"/>
      </defs>
      <g transform="translate(88.275 212.281866)scale(0.1 -0.1)">
       <use xlink:href="#DejaVuSans-31"/>
       <use x="63.623047" xlink:href="#DejaVuSans-30"/>
      </g>
     </g>
    </g>
    <g id="ytick_3">
     <g id="line2d_8">
      <g>
       <use style="stroke:#000000;stroke-width:0.8;" x="108" xlink:href="#m7976ac03fa" y="186.565294"/>
      </g>
     </g>
     <g id="text_9">
      <!-- 20 -->
      <g transform="translate(88.275 190.364512)scale(0.1 -0.1)">
       <use xlink:href="#DejaVuSans-32"/>
       <use x="63.623047" xlink:href="#DejaVuSans-30"/>
      </g>
     </g>
    </g>
    <g id="ytick_4">
     <g id="line2d_9">
      <g>
       <use style="stroke:#000000;stroke-width:0.8;" x="108" xlink:href="#m7976ac03fa" y="164.64794"/>
      </g>
     </g>
     <g id="text_10">
      <!-- 30 -->
      <defs>
       <path d="M 40.578125 39.3125 
Q 47.65625 37.796875 51.625 33 
Q 55.609375 28.21875 55.609375 21.1875 
Q 55.609375 10.40625 48.1875 4.484375 
Q 40.765625 -1.421875 27.09375 -1.421875 
Q 22.515625 -1.421875 17.65625 -0.515625 
Q 12.796875 0.390625 7.625 2.203125 
L 7.625 11.71875 
Q 11.71875 9.328125 16.59375 8.109375 
Q 21.484375 6.890625 26.8125 6.890625 
Q 36.078125 6.890625 40.9375 10.546875 
Q 45.796875 14.203125 45.796875 21.1875 
Q 45.796875 27.640625 41.28125 31.265625 
Q 36.765625 34.90625 28.71875 34.90625 
L 20.21875 34.90625 
L 20.21875 43.015625 
L 29.109375 43.015625 
Q 36.375 43.015625 40.234375 45.921875 
Q 44.09375 48.828125 44.09375 54.296875 
Q 44.09375 59.90625 40.109375 62.90625 
Q 36.140625 65.921875 28.71875 65.921875 
Q 24.65625 65.921875 20.015625 65.03125 
Q 15.375 64.15625 9.8125 62.3125 
L 9.8125 71.09375 
Q 15.4375 72.65625 20.34375 73.4375 
Q 25.25 74.21875 29.59375 74.21875 
Q 40.828125 74.21875 47.359375 69.109375 
Q 53.90625 64.015625 53.90625 55.328125 
Q 53.90625 49.265625 50.4375 45.09375 
Q 46.96875 40.921875 40.578125 39.3125 
z
" id="DejaVuSans-33"/>
      </defs>
      <g transform="translate(88.275 168.447159)scale(0.1 -0.1)">
       <use xlink:href="#DejaVuSans-33"/>
       <use x="63.623047" xlink:href="#DejaVuSans-30"/>
      </g>
     </g>
    </g>
    <g id="ytick_5">
     <g id="line2d_10">
      <g>
       <use style="stroke:#000000;stroke-width:0.8;" x="108" xlink:href="#m7976ac03fa" y="142.730587"/>
      </g>
     </g>
     <g id="text_11">
      <!-- 40 -->
      <g transform="translate(88.275 146.529806)scale(0.1 -0.1)">
       <use xlink:href="#DejaVuSans-34"/>
       <use x="63.623047" xlink:href="#DejaVuSans-30"/>
      </g>
     </g>
    </g>
    <g id="ytick_6">
     <g id="line2d_11">
      <g>
       <use style="stroke:#000000;stroke-width:0.8;" x="108" xlink:href="#m7976ac03fa" y="120.813234"/>
      </g>
     </g>
     <g id="text_12">
      <!-- 50 -->
      <defs>
       <path d="M 10.796875 72.90625 
L 49.515625 72.90625 
L 49.515625 64.59375 
L 19.828125 64.59375 
L 19.828125 46.734375 
Q 21.96875 47.46875 24.109375 47.828125 
Q 26.265625 48.1875 28.421875 48.1875 
Q 40.625 48.1875 47.75 41.5 
Q 54.890625 34.8125 54.890625 23.390625 
Q 54.890625 11.625 47.5625 5.09375 
Q 40.234375 -1.421875 26.90625 -1.421875 
Q 22.3125 -1.421875 17.546875 -0.640625 
Q 12.796875 0.140625 7.71875 1.703125 
L 7.71875 11.625 
Q 12.109375 9.234375 16.796875 8.0625 
Q 21.484375 6.890625 26.703125 6.890625 
Q 35.15625 6.890625 40.078125 11.328125 
Q 45.015625 15.765625 45.015625 23.390625 
Q 45.015625 31 40.078125 35.4375 
Q 35.15625 39.890625 26.703125 39.890625 
Q 22.75 39.890625 18.8125 39.015625 
Q 14.890625 38.140625 10.796875 36.28125 
z
" id="DejaVuSans-35"/>
      </defs>
      <g transform="translate(88.275 124.612453)scale(0.1 -0.1)">
       <use xlink:href="#DejaVuSans-35"/>
       <use x="63.623047" xlink:href="#DejaVuSans-30"/>
      </g>
     </g>
    </g>
    <g id="ytick_7">
     <g id="line2d_12">
      <g>
       <use style="stroke:#000000;stroke-width:0.8;" x="108" xlink:href="#m7976ac03fa" y="98.895881"/>
      </g>
     </g>
     <g id="text_13">
      <!-- 60 -->
      <defs>
       <path d="M 33.015625 40.375 
Q 26.375 40.375 22.484375 35.828125 
Q 18.609375 31.296875 18.609375 23.390625 
Q 18.609375 15.53125 22.484375 10.953125 
Q 26.375 6.390625 33.015625 6.390625 
Q 39.65625 6.390625 43.53125 10.953125 
Q 47.40625 15.53125 47.40625 23.390625 
Q 47.40625 31.296875 43.53125 35.828125 
Q 39.65625 40.375 33.015625 40.375 
z
M 52.59375 71.296875 
L 52.59375 62.3125 
Q 48.875 64.0625 45.09375 64.984375 
Q 41.3125 65.921875 37.59375 65.921875 
Q 27.828125 65.921875 22.671875 59.328125 
Q 17.53125 52.734375 16.796875 39.40625 
Q 19.671875 43.65625 24.015625 45.921875 
Q 28.375 48.1875 33.59375 48.1875 
Q 44.578125 48.1875 50.953125 41.515625 
Q 57.328125 34.859375 57.328125 23.390625 
Q 57.328125 12.15625 50.6875 5.359375 
Q 44.046875 -1.421875 33.015625 -1.421875 
Q 20.359375 -1.421875 13.671875 8.265625 
Q 6.984375 17.96875 6.984375 36.375 
Q 6.984375 53.65625 15.1875 63.9375 
Q 23.390625 74.21875 37.203125 74.21875 
Q 40.921875 74.21875 44.703125 73.484375 
Q 48.484375 72.75 52.59375 71.296875 
z
" id="DejaVuSans-36"/>
      </defs>
      <g transform="translate(88.275 102.695099)scale(0.1 -0.1)">
       <use xlink:href="#DejaVuSans-36"/>
       <use x="63.623047" xlink:href="#DejaVuSans-30"/>
      </g>
     </g>
    </g>
    <g id="ytick_8">
     <g id="line2d_13">
      <g>
       <use style="stroke:#000000;stroke-width:0.8;" x="108" xlink:href="#m7976ac03fa" y="76.978527"/>
      </g>
     </g>
     <g id="text_14">
      <!-- 70 -->
      <defs>
       <path d="M 8.203125 72.90625 
L 55.078125 72.90625 
L 55.078125 68.703125 
L 28.609375 0 
L 18.3125 0 
L 43.21875 64.59375 
L 8.203125 64.59375 
z
" id="DejaVuSans-37"/>
      </defs>
      <g transform="translate(88.275 80.777746)scale(0.1 -0.1)">
       <use xlink:href="#DejaVuSans-37"/>
       <use x="63.623047" xlink:href="#DejaVuSans-30"/>
      </g>
     </g>
    </g>
    <g id="ytick_9">
     <g id="line2d_14">
      <g>
       <use style="stroke:#000000;stroke-width:0.8;" x="108" xlink:href="#m7976ac03fa" y="55.061174"/>
      </g>
     </g>
     <g id="text_15">
      <!-- 80 -->
      <defs>
       <path d="M 31.78125 34.625 
Q 24.75 34.625 20.71875 30.859375 
Q 16.703125 27.09375 16.703125 20.515625 
Q 16.703125 13.921875 20.71875 10.15625 
Q 24.75 6.390625 31.78125 6.390625 
Q 38.8125 6.390625 42.859375 10.171875 
Q 46.921875 13.96875 46.921875 20.515625 
Q 46.921875 27.09375 42.890625 30.859375 
Q 38.875 34.625 31.78125 34.625 
z
M 21.921875 38.8125 
Q 15.578125 40.375 12.03125 44.71875 
Q 8.5 49.078125 8.5 55.328125 
Q 8.5 64.0625 14.71875 69.140625 
Q 20.953125 74.21875 31.78125 74.21875 
Q 42.671875 74.21875 48.875 69.140625 
Q 55.078125 64.0625 55.078125 55.328125 
Q 55.078125 49.078125 51.53125 44.71875 
Q 48 40.375 41.703125 38.8125 
Q 48.828125 37.15625 52.796875 32.3125 
Q 56.78125 27.484375 56.78125 20.515625 
Q 56.78125 9.90625 50.3125 4.234375 
Q 43.84375 -1.421875 31.78125 -1.421875 
Q 19.734375 -1.421875 13.25 4.234375 
Q 6.78125 9.90625 6.78125 20.515625 
Q 6.78125 27.484375 10.78125 32.3125 
Q 14.796875 37.15625 21.921875 38.8125 
z
M 18.3125 54.390625 
Q 18.3125 48.734375 21.84375 45.5625 
Q 25.390625 42.390625 31.78125 42.390625 
Q 38.140625 42.390625 41.71875 45.5625 
Q 45.3125 48.734375 45.3125 54.390625 
Q 45.3125 60.0625 41.71875 63.234375 
Q 38.140625 66.40625 31.78125 66.40625 
Q 25.390625 66.40625 21.84375 63.234375 
Q 18.3125 60.0625 18.3125 54.390625 
z
" id="DejaVuSans-38"/>
      </defs>
      <g transform="translate(88.275 58.860393)scale(0.1 -0.1)">
       <use xlink:href="#DejaVuSans-38"/>
       <use x="63.623047" xlink:href="#DejaVuSans-30"/>
      </g>
     </g>
    </g>
   </g>
   <g id="line2d_15">
    <path clip-path="url(#p5973b95e95)" d="M 121.834711 230.399999 
L 176.061215 230.302544 
L 184.403754 230.053282 
L 189.965447 229.646375 
L 194.136717 229.099379 
L 196.917563 228.561 
L 199.698409 227.835755 
L 202.479256 226.873984 
L 205.260102 225.618588 
L 208.040949 224.005964 
L 210.821795 221.967799 
L 213.602641 219.433857 
L 216.383488 216.335839 
L 219.164334 212.612258 
L 221.94518 208.214215 
L 224.726027 203.111742 
L 227.506873 197.300316 
L 230.28772 190.806955 
L 233.068566 183.695258 
L 237.239836 172.105879 
L 248.363221 140.088012 
L 251.144067 133.093217 
L 253.924914 127.007783 
L 255.315337 124.379378 
L 256.70576 122.062302 
L 258.096183 120.079654 
L 259.486607 118.451473 
L 260.87703 117.194402 
L 262.267453 116.321401 
L 263.657876 115.841528 
L 265.048299 115.759783 
L 266.438723 116.077019 
L 267.829146 116.789927 
L 269.219569 117.891096 
L 270.609992 119.369141 
L 272.000415 121.208894 
L 273.390838 123.391671 
L 274.781262 125.89558 
L 276.171685 128.695894 
L 278.952531 135.075088 
L 281.733378 142.290779 
L 285.904647 154.122852 
L 294.247186 178.366504 
L 297.028033 185.85422 
L 299.808879 192.792267 
L 302.589725 199.089157 
L 305.370572 204.692527 
L 308.151418 209.585258 
L 310.932265 213.780051 
L 313.713111 217.313142 
L 316.493957 220.237792 
L 319.274804 222.618061 
L 322.05565 224.523286 
L 324.836497 226.023486 
L 327.617343 227.185828 
L 330.398189 228.072139 
L 333.179036 228.737385 
L 337.350305 229.422325 
L 341.521575 229.842842 
L 347.083268 230.14929 
L 355.425807 230.331835 
L 372.110885 230.396541 
L 398.528926 230.399989 
L 398.528926 230.399989 
" style="fill:none;stroke:#282828;stroke-linecap:square;stroke-width:1.5;"/>
   </g>
   <g id="patch_53">
    <path d="M 108 230.4 
L 108 34.56 
" style="fill:none;stroke:#000000;stroke-linecap:square;stroke-linejoin:miter;stroke-width:0.8;"/>
   </g>
   <g id="patch_54">
    <path d="M 412.363636 230.4 
L 412.363636 34.56 
" style="fill:none;stroke:#000000;stroke-linecap:square;stroke-linejoin:miter;stroke-width:0.8;"/>
   </g>
   <g id="patch_55">
    <path d="M 108 230.4 
L 412.363636 230.4 
" style="fill:none;stroke:#000000;stroke-linecap:square;stroke-linejoin:miter;stroke-width:0.8;"/>
   </g>
   <g id="patch_56">
    <path d="M 108 34.56 
L 412.363636 34.56 
" style="fill:none;stroke:#000000;stroke-linecap:square;stroke-linejoin:miter;stroke-width:0.8;"/>
   </g>
  </g>
  <g id="axes_2">
   <g id="patch_57">
    <path d="M 473.236364 230.4 
L 777.6 230.4 
L 777.6 34.56 
L 473.236364 34.56 
z
" style="fill:#ffffff;"/>
   </g>
   <g id="matplotlib.axis_3">
    <g id="xtick_6">
     <g id="line2d_16">
      <g>
       <use style="stroke:#000000;stroke-width:0.8;" x="486.912419" xlink:href="#ma910fa293b" y="230.4"/>
      </g>
     </g>
     <g id="text_16">
      <!-- 2013 -->
      <g transform="translate(463.832229 256.70544)rotate(-30)scale(0.1 -0.1)">
       <use xlink:href="#DejaVuSans-32"/>
       <use x="63.623047" xlink:href="#DejaVuSans-30"/>
       <use x="127.246094" xlink:href="#DejaVuSans-31"/>
       <use x="190.869141" xlink:href="#DejaVuSans-33"/>
      </g>
     </g>
    </g>
    <g id="xtick_7">
     <g id="line2d_17">
      <g>
       <use style="stroke:#000000;stroke-width:0.8;" x="544.821472" xlink:href="#ma910fa293b" y="230.4"/>
      </g>
     </g>
     <g id="text_17">
      <!-- 2014 -->
      <g transform="translate(521.741282 256.70544)rotate(-30)scale(0.1 -0.1)">
       <use xlink:href="#DejaVuSans-32"/>
       <use x="63.623047" xlink:href="#DejaVuSans-30"/>
       <use x="127.246094" xlink:href="#DejaVuSans-31"/>
       <use x="190.869141" xlink:href="#DejaVuSans-34"/>
      </g>
     </g>
    </g>
    <g id="xtick_8">
     <g id="line2d_18">
      <g>
       <use style="stroke:#000000;stroke-width:0.8;" x="602.730525" xlink:href="#ma910fa293b" y="230.4"/>
      </g>
     </g>
     <g id="text_18">
      <!-- 2015 -->
      <g transform="translate(579.650335 256.70544)rotate(-30)scale(0.1 -0.1)">
       <use xlink:href="#DejaVuSans-32"/>
       <use x="63.623047" xlink:href="#DejaVuSans-30"/>
       <use x="127.246094" xlink:href="#DejaVuSans-31"/>
       <use x="190.869141" xlink:href="#DejaVuSans-35"/>
      </g>
     </g>
    </g>
    <g id="xtick_9">
     <g id="line2d_19">
      <g>
       <use style="stroke:#000000;stroke-width:0.8;" x="660.639578" xlink:href="#ma910fa293b" y="230.4"/>
      </g>
     </g>
     <g id="text_19">
      <!-- 2016 -->
      <g transform="translate(637.559388 256.70544)rotate(-30)scale(0.1 -0.1)">
       <use xlink:href="#DejaVuSans-32"/>
       <use x="63.623047" xlink:href="#DejaVuSans-30"/>
       <use x="127.246094" xlink:href="#DejaVuSans-31"/>
       <use x="190.869141" xlink:href="#DejaVuSans-36"/>
      </g>
     </g>
    </g>
    <g id="xtick_10">
     <g id="line2d_20">
      <g>
       <use style="stroke:#000000;stroke-width:0.8;" x="718.707286" xlink:href="#ma910fa293b" y="230.4"/>
      </g>
     </g>
     <g id="text_20">
      <!-- 2017 -->
      <g transform="translate(695.627096 256.70544)rotate(-30)scale(0.1 -0.1)">
       <use xlink:href="#DejaVuSans-32"/>
       <use x="63.623047" xlink:href="#DejaVuSans-30"/>
       <use x="127.246094" xlink:href="#DejaVuSans-31"/>
       <use x="190.869141" xlink:href="#DejaVuSans-37"/>
      </g>
     </g>
    </g>
    <g id="xtick_11">
     <g id="line2d_21">
      <g>
       <use style="stroke:#000000;stroke-width:0.8;" x="776.616339" xlink:href="#ma910fa293b" y="230.4"/>
      </g>
     </g>
     <g id="text_21">
      <!-- 2018 -->
      <g transform="translate(753.536149 256.70544)rotate(-30)scale(0.1 -0.1)">
       <use xlink:href="#DejaVuSans-32"/>
       <use x="63.623047" xlink:href="#DejaVuSans-30"/>
       <use x="127.246094" xlink:href="#DejaVuSans-31"/>
       <use x="190.869141" xlink:href="#DejaVuSans-38"/>
      </g>
     </g>
    </g>
    <g id="text_22">
     <!-- Date -->
     <defs>
      <path d="M 19.671875 64.796875 
L 19.671875 8.109375 
L 31.59375 8.109375 
Q 46.6875 8.109375 53.6875 14.9375 
Q 60.6875 21.78125 60.6875 36.53125 
Q 60.6875 51.171875 53.6875 57.984375 
Q 46.6875 64.796875 31.59375 64.796875 
z
M 9.8125 72.90625 
L 30.078125 72.90625 
Q 51.265625 72.90625 61.171875 64.09375 
Q 71.09375 55.28125 71.09375 36.53125 
Q 71.09375 17.671875 61.125 8.828125 
Q 51.171875 0 30.078125 0 
L 9.8125 0 
z
" id="DejaVuSans-44"/>
      <path d="M 34.28125 27.484375 
Q 23.390625 27.484375 19.1875 25 
Q 14.984375 22.515625 14.984375 16.5 
Q 14.984375 11.71875 18.140625 8.90625 
Q 21.296875 6.109375 26.703125 6.109375 
Q 34.1875 6.109375 38.703125 11.40625 
Q 43.21875 16.703125 43.21875 25.484375 
L 43.21875 27.484375 
z
M 52.203125 31.203125 
L 52.203125 0 
L 43.21875 0 
L 43.21875 8.296875 
Q 40.140625 3.328125 35.546875 0.953125 
Q 30.953125 -1.421875 24.3125 -1.421875 
Q 15.921875 -1.421875 10.953125 3.296875 
Q 6 8.015625 6 15.921875 
Q 6 25.140625 12.171875 29.828125 
Q 18.359375 34.515625 30.609375 34.515625 
L 43.21875 34.515625 
L 43.21875 35.40625 
Q 43.21875 41.609375 39.140625 45 
Q 35.0625 48.390625 27.6875 48.390625 
Q 23 48.390625 18.546875 47.265625 
Q 14.109375 46.140625 10.015625 43.890625 
L 10.015625 52.203125 
Q 14.9375 54.109375 19.578125 55.046875 
Q 24.21875 56 28.609375 56 
Q 40.484375 56 46.34375 49.84375 
Q 52.203125 43.703125 52.203125 31.203125 
z
" id="DejaVuSans-61"/>
     </defs>
     <g transform="translate(613.467401 270.10494)scale(0.1 -0.1)">
      <use xlink:href="#DejaVuSans-44"/>
      <use x="77.001953" xlink:href="#DejaVuSans-61"/>
      <use x="138.28125" xlink:href="#DejaVuSans-74"/>
      <use x="177.490234" xlink:href="#DejaVuSans-65"/>
     </g>
    </g>
   </g>
   <g id="matplotlib.axis_4">
    <g id="ytick_10">
     <g id="line2d_22">
      <g>
       <use style="stroke:#000000;stroke-width:0.8;" x="473.236364" xlink:href="#m7976ac03fa" y="221.018647"/>
      </g>
     </g>
     <g id="text_23">
      <!-- −0.04 -->
      <g transform="translate(435.591051 224.817866)scale(0.1 -0.1)">
       <use xlink:href="#DejaVuSans-2212"/>
       <use x="83.789062" xlink:href="#DejaVuSans-30"/>
       <use x="147.412109" xlink:href="#DejaVuSans-2e"/>
       <use x="179.199219" xlink:href="#DejaVuSans-30"/>
       <use x="242.822266" xlink:href="#DejaVuSans-34"/>
      </g>
     </g>
    </g>
    <g id="ytick_11">
     <g id="line2d_23">
      <g>
       <use style="stroke:#000000;stroke-width:0.8;" x="473.236364" xlink:href="#m7976ac03fa" y="198.339648"/>
      </g>
     </g>
     <g id="text_24">
      <!-- −0.03 -->
      <g transform="translate(435.591051 202.138867)scale(0.1 -0.1)">
       <use xlink:href="#DejaVuSans-2212"/>
       <use x="83.789062" xlink:href="#DejaVuSans-30"/>
       <use x="147.412109" xlink:href="#DejaVuSans-2e"/>
       <use x="179.199219" xlink:href="#DejaVuSans-30"/>
       <use x="242.822266" xlink:href="#DejaVuSans-33"/>
      </g>
     </g>
    </g>
    <g id="ytick_12">
     <g id="line2d_24">
      <g>
       <use style="stroke:#000000;stroke-width:0.8;" x="473.236364" xlink:href="#m7976ac03fa" y="175.660649"/>
      </g>
     </g>
     <g id="text_25">
      <!-- −0.02 -->
      <g transform="translate(435.591051 179.459868)scale(0.1 -0.1)">
       <use xlink:href="#DejaVuSans-2212"/>
       <use x="83.789062" xlink:href="#DejaVuSans-30"/>
       <use x="147.412109" xlink:href="#DejaVuSans-2e"/>
       <use x="179.199219" xlink:href="#DejaVuSans-30"/>
       <use x="242.822266" xlink:href="#DejaVuSans-32"/>
      </g>
     </g>
    </g>
    <g id="ytick_13">
     <g id="line2d_25">
      <g>
       <use style="stroke:#000000;stroke-width:0.8;" x="473.236364" xlink:href="#m7976ac03fa" y="152.981651"/>
      </g>
     </g>
     <g id="text_26">
      <!-- −0.01 -->
      <g transform="translate(435.591051 156.780869)scale(0.1 -0.1)">
       <use xlink:href="#DejaVuSans-2212"/>
       <use x="83.789062" xlink:href="#DejaVuSans-30"/>
       <use x="147.412109" xlink:href="#DejaVuSans-2e"/>
       <use x="179.199219" xlink:href="#DejaVuSans-30"/>
       <use x="242.822266" xlink:href="#DejaVuSans-31"/>
      </g>
     </g>
    </g>
    <g id="ytick_14">
     <g id="line2d_26">
      <g>
       <use style="stroke:#000000;stroke-width:0.8;" x="473.236364" xlink:href="#m7976ac03fa" y="130.302652"/>
      </g>
     </g>
     <g id="text_27">
      <!-- 0.00 -->
      <g transform="translate(443.970739 134.101871)scale(0.1 -0.1)">
       <use xlink:href="#DejaVuSans-30"/>
       <use x="63.623047" xlink:href="#DejaVuSans-2e"/>
       <use x="95.410156" xlink:href="#DejaVuSans-30"/>
       <use x="159.033203" xlink:href="#DejaVuSans-30"/>
      </g>
     </g>
    </g>
    <g id="ytick_15">
     <g id="line2d_27">
      <g>
       <use style="stroke:#000000;stroke-width:0.8;" x="473.236364" xlink:href="#m7976ac03fa" y="107.623653"/>
      </g>
     </g>
     <g id="text_28">
      <!-- 0.01 -->
      <g transform="translate(443.970739 111.422872)scale(0.1 -0.1)">
       <use xlink:href="#DejaVuSans-30"/>
       <use x="63.623047" xlink:href="#DejaVuSans-2e"/>
       <use x="95.410156" xlink:href="#DejaVuSans-30"/>
       <use x="159.033203" xlink:href="#DejaVuSans-31"/>
      </g>
     </g>
    </g>
    <g id="ytick_16">
     <g id="line2d_28">
      <g>
       <use style="stroke:#000000;stroke-width:0.8;" x="473.236364" xlink:href="#m7976ac03fa" y="84.944655"/>
      </g>
     </g>
     <g id="text_29">
      <!-- 0.02 -->
      <g transform="translate(443.970739 88.743873)scale(0.1 -0.1)">
       <use xlink:href="#DejaVuSans-30"/>
       <use x="63.623047" xlink:href="#DejaVuSans-2e"/>
       <use x="95.410156" xlink:href="#DejaVuSans-30"/>
       <use x="159.033203" xlink:href="#DejaVuSans-32"/>
      </g>
     </g>
    </g>
    <g id="ytick_17">
     <g id="line2d_29">
      <g>
       <use style="stroke:#000000;stroke-width:0.8;" x="473.236364" xlink:href="#m7976ac03fa" y="62.265656"/>
      </g>
     </g>
     <g id="text_30">
      <!-- 0.03 -->
      <g transform="translate(443.970739 66.064875)scale(0.1 -0.1)">
       <use xlink:href="#DejaVuSans-30"/>
       <use x="63.623047" xlink:href="#DejaVuSans-2e"/>
       <use x="95.410156" xlink:href="#DejaVuSans-30"/>
       <use x="159.033203" xlink:href="#DejaVuSans-33"/>
      </g>
     </g>
    </g>
    <g id="ytick_18">
     <g id="line2d_30">
      <g>
       <use style="stroke:#000000;stroke-width:0.8;" x="473.236364" xlink:href="#m7976ac03fa" y="39.586657"/>
      </g>
     </g>
     <g id="text_31">
      <!-- 0.04 -->
      <g transform="translate(443.970739 43.385876)scale(0.1 -0.1)">
       <use xlink:href="#DejaVuSans-30"/>
       <use x="63.623047" xlink:href="#DejaVuSans-2e"/>
       <use x="95.410156" xlink:href="#DejaVuSans-30"/>
       <use x="159.033203" xlink:href="#DejaVuSans-34"/>
      </g>
     </g>
    </g>
   </g>
   <g id="line2d_31">
    <path clip-path="url(#pb761d4f102)" d="M 487.071074 73.409852 
L 487.229729 135.037563 
L 487.388384 119.295853 
L 487.864349 137.39665 
L 488.023004 137.667974 
L 488.340314 113.137599 
L 488.498969 130.410411 
L 488.974934 132.414304 
L 489.133589 127.744386 
L 489.292244 129.855938 
L 489.450898 117.541043 
L 489.609553 122.59748 
L 490.244173 120.282317 
L 490.561483 130.287652 
L 490.720138 117.986348 
L 491.196103 134.501292 
L 491.354758 118.75223 
L 491.513413 139.163892 
L 491.672068 136.123426 
L 491.830723 107.617953 
L 492.306687 156.623518 
L 492.465342 106.80124 
L 492.623997 129.05753 
L 492.782652 134.400817 
L 492.941307 117.507173 
L 493.417272 131.677683 
L 493.575927 126.687617 
L 493.734582 128.959857 
L 493.893237 128.736818 
L 494.051892 132.674031 
L 494.686511 113.724997 
L 494.845166 158.609923 
L 495.003821 144.642595 
L 495.162476 110.49433 
L 495.638441 172.211799 
L 495.797096 116.489154 
L 495.955751 101.623472 
L 496.114406 132.263145 
L 496.273061 125.038495 
L 496.749026 119.870026 
L 496.907681 108.710993 
L 497.066336 127.844418 
L 497.224991 126.186768 
L 497.383645 120.16258 
L 497.85961 122.945996 
L 498.018265 135.75955 
L 498.335575 117.631098 
L 498.49423 133.976136 
L 498.970195 142.834091 
L 499.12885 135.803375 
L 499.287505 115.164049 
L 499.44616 149.164602 
L 499.604815 114.090243 
L 500.080779 137.890205 
L 500.239434 112.715171 
L 500.398089 131.637363 
L 500.556744 121.121144 
L 501.191364 140.471045 
L 501.350019 118.602707 
L 501.508674 154.347229 
L 501.667329 121.139704 
L 501.825984 140.064022 
L 502.301949 116.053531 
L 502.460604 122.278673 
L 502.619258 102.82604 
L 502.936568 136.745297 
L 503.412533 182.995321 
L 503.571188 98.085227 
L 503.729843 163.031426 
L 503.888498 145.551005 
L 504.047153 110.324746 
L 504.523118 119.755107 
L 504.681773 106.795161 
L 504.840428 130.288273 
L 504.999083 121.170693 
L 505.157738 134.484233 
L 505.633702 114.063774 
L 505.792357 124.674138 
L 505.951012 151.510855 
L 506.109667 109.066028 
L 506.268322 106.53605 
L 506.744287 125.980123 
L 506.902942 118.471837 
L 507.061597 120.935004 
L 507.220252 138.680088 
L 507.378907 120.522688 
L 507.854871 130.205384 
L 508.013526 107.417123 
L 508.172181 118.733861 
L 508.330836 141.692797 
L 508.489491 107.062548 
L 508.965456 131.908027 
L 509.124111 126.399813 
L 509.282766 149.144532 
L 509.600076 131.553438 
L 510.234696 115.967343 
L 510.393351 146.343364 
L 510.552005 121.993917 
L 510.71066 162.984398 
L 511.186625 116.880223 
L 511.503935 161.771021 
L 511.66259 111.128795 
L 511.821245 101.387123 
L 512.29721 131.089326 
L 512.455865 153.44717 
L 512.61452 149.363844 
L 512.773175 97.018798 
L 512.93183 143.688707 
L 513.407794 113.205236 
L 513.566449 112.701563 
L 513.883759 187.744983 
L 514.042414 124.255933 
L 514.518379 158.014957 
L 514.677034 108.865428 
L 514.835689 108.656024 
L 514.994344 116.285464 
L 515.152999 140.051875 
L 515.628964 118.080486 
L 515.787618 131.538786 
L 515.946273 128.434565 
L 516.263583 107.283364 
L 516.739548 118.423835 
L 516.898203 113.965468 
L 517.056858 129.890856 
L 517.215513 99.769433 
L 517.374168 123.313598 
L 517.850133 127.186704 
L 518.008788 138.729386 
L 518.326098 118.91702 
L 518.484752 126.654155 
L 518.960717 125.696633 
L 519.278027 138.962635 
L 519.436682 124.512227 
L 520.071302 138.791478 
L 520.229957 129.455031 
L 520.388612 130.612036 
L 520.547267 102.038749 
L 520.705922 126.585305 
L 521.181886 133.661255 
L 521.340541 143.319202 
L 521.499196 138.950439 
L 521.657851 121.507916 
L 521.816506 138.413451 
L 522.292471 132.918869 
L 522.451126 124.015558 
L 522.768436 162.925406 
L 522.927091 137.809554 
L 523.403056 143.723579 
L 523.561711 121.653079 
L 523.720365 143.448238 
L 523.87902 110.838534 
L 524.037675 121.368846 
L 524.51364 139.482746 
L 524.672295 166.592541 
L 524.83095 124.079812 
L 524.989605 125.854219 
L 525.14826 137.513138 
L 525.78288 120.878223 
L 525.941535 111.968524 
L 526.10019 127.560463 
L 526.258844 130.179211 
L 526.734809 107.752284 
L 527.052119 123.390921 
L 527.210774 137.982083 
L 527.369429 124.154372 
L 527.845394 117.427765 
L 528.004049 120.757357 
L 528.162704 102.851716 
L 528.480014 146.729174 
L 528.955978 141.031539 
L 529.114633 136.200375 
L 529.273288 136.524011 
L 529.431943 122.411799 
L 529.590598 139.560495 
L 530.066563 144.017731 
L 530.225218 112.234918 
L 530.542528 150.759047 
L 530.701183 114.362793 
L 531.335803 158.444454 
L 531.653112 81.32594 
L 531.811767 116.090641 
L 532.287732 121.08037 
L 532.446387 146.379317 
L 532.605042 99.158027 
L 532.763697 115.059384 
L 532.922352 115.499149 
L 533.398317 130.094613 
L 533.556972 117.327733 
L 533.715627 141.042866 
L 533.874282 122.92554 
L 534.032937 120.357424 
L 534.508901 127.28903 
L 534.667556 117.673486 
L 534.826211 141.387805 
L 534.984866 139.026743 
L 535.143521 123.727523 
L 535.619486 122.219405 
L 535.778141 136.674387 
L 535.936796 120.649408 
L 536.095451 160.398672 
L 536.254106 100.05293 
L 536.888725 135.684845 
L 537.04738 112.017136 
L 537.206035 119.358682 
L 537.36469 120.747658 
L 537.840655 138.705341 
L 537.99931 134.940632 
L 538.157965 138.562879 
L 538.31662 111.942402 
L 538.475275 119.078384 
L 538.95124 133.169598 
L 539.26855 124.673728 
L 539.585859 132.085217 
L 540.220479 137.555296 
L 540.379134 133.260771 
L 540.537789 140.165785 
L 540.696444 104.958428 
L 541.331064 137.525289 
L 541.489719 156.114522 
L 541.807029 130.532652 
L 542.282993 116.014537 
L 542.441648 137.346309 
L 542.600303 92.857571 
L 542.758958 131.618254 
L 542.917613 119.400506 
L 543.393578 118.273645 
L 543.552233 123.699652 
L 543.869543 119.565722 
L 544.028198 131.066121 
L 544.504163 130.709218 
L 544.662817 121.340238 
L 544.980127 150.490166 
L 545.138782 131.057909 
L 545.614747 136.006254 
L 545.773402 116.551592 
L 545.932057 130.783972 
L 546.090712 129.512859 
L 546.249367 125.077342 
L 546.725332 159.005117 
L 546.883987 105.90033 
L 547.359951 139.153768 
L 547.994571 124.020768 
L 548.153226 128.99929 
L 548.470536 178.147224 
L 548.946501 141.388649 
L 549.105156 116.418852 
L 549.263811 153.575169 
L 549.422466 104.893001 
L 549.581121 145.012908 
L 550.057085 182.683439 
L 550.21574 113.0393 
L 550.374395 134.907129 
L 550.53305 102.264482 
L 550.691705 100.334184 
L 551.16767 126.746574 
L 551.326325 105.352633 
L 551.48498 130.913394 
L 551.643635 117.164228 
L 552.43691 127.67687 
L 552.595564 145.148011 
L 552.754219 116.664995 
L 552.912874 134.658305 
L 553.388839 116.315481 
L 553.547494 133.36112 
L 553.706149 130.253439 
L 553.864804 119.108567 
L 554.023459 124.000557 
L 554.499424 147.098415 
L 554.658079 95.938701 
L 554.816734 130.42365 
L 554.975389 126.40882 
L 555.134044 129.082647 
L 555.610008 131.353492 
L 555.768663 141.857822 
L 555.927318 129.610661 
L 556.085973 156.996041 
L 556.244628 136.711207 
L 556.720593 108.604026 
L 556.879248 113.988101 
L 557.037903 144.251426 
L 557.196558 116.644602 
L 557.355213 136.963429 
L 557.831177 141.36225 
L 557.989832 120.336885 
L 558.148487 146.234505 
L 558.465797 119.803434 
L 558.941762 112.40241 
L 559.100417 114.394042 
L 559.417727 132.858767 
L 559.576382 158.915708 
L 560.052347 154.814822 
L 560.369657 105.675438 
L 560.528311 178.168874 
L 560.686966 151.920409 
L 561.162931 111.742821 
L 561.321586 115.0293 
L 561.480241 106.639683 
L 561.638896 127.211677 
L 562.432171 121.041028 
L 562.590826 135.327789 
L 562.749481 126.412097 
L 562.908136 148.739192 
L 563.542755 119.531352 
L 563.70141 123.527188 
L 564.01872 133.362854 
L 564.494685 126.062887 
L 564.65334 150.779591 
L 564.811995 117.600701 
L 564.97065 133.420037 
L 565.60527 108.471267 
L 565.922579 140.989199 
L 566.081234 151.6343 
L 566.239889 121.820792 
L 566.715854 121.59978 
L 566.874509 145.088462 
L 567.033164 111.970445 
L 567.191819 124.951669 
L 567.350474 120.688133 
L 567.985094 116.763403 
L 568.143749 132.830664 
L 568.302404 118.163131 
L 568.461058 126.125225 
L 568.937023 128.652615 
L 569.095678 131.162841 
L 569.254333 126.016601 
L 569.412988 115.552045 
L 569.571643 119.831569 
L 570.206263 130.860587 
L 570.523573 146.436808 
L 570.682228 123.204898 
L 571.158192 128.405882 
L 571.316847 125.380827 
L 571.475502 112.864219 
L 571.634157 127.407307 
L 571.792812 126.382443 
L 572.268777 130.603087 
L 572.427432 144.944455 
L 572.586087 119.222697 
L 572.744742 132.977819 
L 572.903397 125.973129 
L 573.379362 131.147051 
L 573.538017 115.208479 
L 573.696671 128.809022 
L 573.855326 117.9096 
L 574.648601 146.345236 
L 574.807256 119.794301 
L 574.965911 139.690914 
L 575.124566 126.969198 
L 575.600531 119.344475 
L 575.759186 134.688691 
L 575.917841 120.794969 
L 576.076496 157.301106 
L 576.235151 107.141477 
L 576.711115 135.570862 
L 576.86977 118.954963 
L 577.345735 141.32679 
L 577.8217 129.64924 
L 577.980355 140.594537 
L 578.13901 130.164512 
L 578.297665 176.118611 
L 578.45632 136.79614 
L 578.932284 114.056972 
L 579.090939 152.375394 
L 579.249594 130.267186 
L 579.408249 142.939652 
L 579.566904 104.300221 
L 580.201524 134.017432 
L 580.360179 115.142269 
L 580.518834 120.468135 
L 580.677489 130.441844 
L 581.153454 111.035747 
L 581.470764 124.690171 
L 581.629418 123.622446 
L 581.788073 134.826149 
L 582.264038 119.470359 
L 582.422693 127.920157 
L 582.581348 130.189289 
L 582.740003 134.13842 
L 582.898658 122.784758 
L 583.533278 131.536876 
L 583.691933 132.070354 
L 583.850588 133.785238 
L 584.009243 118.910429 
L 584.643862 145.194866 
L 584.802517 122.048758 
L 584.961172 128.30346 
L 585.119827 143.865613 
L 585.595792 131.913776 
L 585.754447 113.392041 
L 585.913102 127.366164 
L 586.071757 119.236985 
L 586.230412 131.38531 
L 586.706377 148.549273 
L 586.865031 143.441162 
L 587.023686 112.60855 
L 587.182341 167.271492 
L 587.340996 110.936462 
L 587.816961 136.085912 
L 587.975616 136.629677 
L 588.134271 160.549873 
L 588.451581 105.120719 
L 588.927546 133.855058 
L 589.086201 164.869116 
L 589.244856 91.043156 
L 589.403511 177.651522 
L 589.562165 156.422236 
L 590.03813 167.961205 
L 590.196785 126.724768 
L 590.35544 148.748164 
L 590.67275 101.269421 
L 591.148715 109.662232 
L 591.30737 86.338573 
L 591.466025 146.917515 
L 591.62468 102.570079 
L 591.783335 114.362286 
L 592.259299 133.710618 
L 592.417954 103.386389 
L 592.576609 133.446678 
L 592.893919 103.851876 
L 593.528539 136.729547 
L 593.687194 117.411204 
L 593.845849 121.756289 
L 594.004504 129.509964 
L 594.480469 123.237402 
L 594.797778 131.893272 
L 594.956433 129.101335 
L 595.115088 129.757809 
L 595.591053 128.635544 
L 595.749708 118.689078 
L 595.908363 133.709688 
L 596.225673 118.456929 
L 596.701638 123.816618 
L 596.860293 132.912305 
L 597.018948 123.947877 
L 597.336257 136.075964 
L 597.812222 145.844093 
L 597.970877 115.869358 
L 598.129532 121.780624 
L 598.288187 132.939248 
L 598.446842 126.529249 
L 598.922807 146.819816 
L 599.081462 130.842077 
L 599.240117 167.691523 
L 599.398772 120.039421 
L 599.557427 167.3748 
L 600.033391 144.732814 
L 600.192046 149.637088 
L 600.350701 84.608839 
L 600.509356 76.482271 
L 600.668011 119.961849 
L 601.143976 121.677324 
L 601.461286 130.618585 
L 601.778596 122.809261 
L 602.254561 128.349076 
L 602.57187 153.808037 
L 602.88918 131.073786 
L 603.365145 172.139085 
L 603.5238 150.562379 
L 603.84111 90.092405 
L 603.999765 149.44219 
L 604.47573 148.733005 
L 604.634385 136.15811 
L 604.951695 151.37349 
L 605.11035 100.060449 
L 605.744969 126.790236 
L 605.903624 119.59711 
L 606.062279 95.934188 
L 606.220934 142.791197 
L 606.696899 124.485107 
L 606.855554 160.870059 
L 607.014209 161.117748 
L 607.172864 108.781377 
L 607.331519 159.960203 
L 607.807484 101.093983 
L 607.966138 97.789499 
L 608.124793 139.747789 
L 608.283448 107.082054 
L 608.442103 138.068004 
L 608.918068 139.955377 
L 609.076723 106.219869 
L 609.235378 130.368499 
L 609.394033 108.53468 
L 609.552688 121.080329 
L 610.187308 126.682404 
L 610.504617 132.712572 
L 610.663272 116.450676 
L 611.139237 130.9907 
L 611.297892 124.054651 
L 611.456547 132.039902 
L 611.615202 133.652609 
L 611.773857 137.017184 
L 612.249822 116.454315 
L 612.408477 140.61904 
L 612.567132 140.277241 
L 612.725787 127.591683 
L 612.884442 162.677731 
L 613.360406 121.374696 
L 613.519061 169.09921 
L 613.836371 101.902417 
L 613.995026 144.121504 
L 614.470991 99.81548 
L 614.629646 137.845001 
L 614.788301 102.894852 
L 614.946956 141.380184 
L 615.105611 109.954188 
L 615.74023 144.269164 
L 615.898885 163.563505 
L 616.216195 124.937343 
L 616.69216 102.719587 
L 616.850815 150.338835 
L 617.168125 122.311814 
L 617.802745 115.363831 
L 617.9614 134.983671 
L 618.27871 120.215994 
L 618.437364 118.533665 
L 618.913329 140.71641 
L 619.230639 118.657011 
L 619.389294 132.068772 
L 619.547949 156.101609 
L 620.023914 109.454419 
L 620.182569 133.663005 
L 620.341224 118.794006 
L 620.499879 124.961882 
L 620.658534 125.199273 
L 621.134498 139.714239 
L 621.293153 124.030991 
L 621.610463 153.391127 
L 621.769118 105.664695 
L 622.245083 123.643116 
L 622.403738 157.308811 
L 622.879703 99.985031 
L 623.355668 141.87474 
L 623.672977 130.994365 
L 623.831632 105.987126 
L 623.990287 128.560636 
L 624.466252 123.400724 
L 624.624907 131.762231 
L 624.783562 132.413952 
L 624.942217 125.006776 
L 625.100872 135.374549 
L 625.735492 153.741862 
L 625.894147 109.617321 
L 626.211457 144.677769 
L 626.687421 125.636804 
L 626.846076 132.591201 
L 627.004731 125.502349 
L 627.163386 149.943939 
L 627.322041 133.562112 
L 627.798006 145.033933 
L 628.115316 103.154775 
L 628.432626 146.220757 
L 628.90859 140.810488 
L 629.067245 117.4352 
L 629.2259 125.817462 
L 629.384555 107.954766 
L 629.54321 142.362471 
L 630.019175 116.522057 
L 630.336485 147.040809 
L 630.653795 131.187487 
L 631.12976 178.125787 
L 631.288415 124.281464 
L 631.44707 114.626709 
L 631.605724 131.001325 
L 632.240344 139.077684 
L 632.398999 116.553372 
L 632.557654 168.387415 
L 632.874964 102.491427 
L 633.350929 105.343804 
L 633.668239 131.97014 
L 633.826894 112.198612 
L 633.985549 127.795326 
L 634.461513 128.554246 
L 634.620168 139.98839 
L 634.778823 135.724215 
L 635.096133 154.707569 
L 635.572098 143.437772 
L 635.730753 102.384638 
L 636.206718 135.460092 
L 636.682683 136.56363 
L 636.841337 135.410505 
L 636.999992 123.24985 
L 637.158647 147.954161 
L 637.793267 101.439462 
L 637.951922 152.081442 
L 638.110577 128.149045 
L 638.269232 133.196551 
L 638.427887 121.448018 
L 638.903852 118.514354 
L 639.379817 178.667795 
L 639.538471 203.712852 
L 640.014436 221.498182 
L 640.173091 161.178408 
L 640.331746 43.461818 
L 640.649056 128.922519 
L 641.125021 149.414422 
L 641.283676 198.391016 
L 641.442331 89.190909 
L 641.759641 165.337869 
L 642.39426 74.118524 
L 642.552915 162.041992 
L 642.71157 118.364256 
L 642.870225 120.149249 
L 643.34619 139.5966 
L 643.504845 101.387636 
L 643.6635 110.645084 
L 643.98081 167.260872 
L 644.456775 119.971478 
L 644.61543 158.413113 
L 644.774084 134.953534 
L 644.932739 137.942418 
L 645.091394 131.35927 
L 645.567359 189.270795 
L 645.884669 87.448647 
L 646.043324 125.830492 
L 646.201979 98.067193 
L 646.677944 89.197888 
L 646.836599 138.455048 
L 646.995254 112.15147 
L 647.153909 110.390989 
L 647.312563 128.658768 
L 647.788528 127.411841 
L 647.947183 145.835099 
L 648.105838 141.023992 
L 648.264493 96.865754 
L 648.423148 119.960889 
L 649.057768 133.527834 
L 649.216423 143.552742 
L 649.375078 92.903061 
L 650.009697 134.645528 
L 650.168352 136.102547 
L 650.327007 103.608363 
L 650.644317 141.23729 
L 651.120282 103.532642 
L 651.437592 138.357476 
L 651.754902 131.09116 
L 652.230867 152.689751 
L 652.389522 126.879358 
L 652.548177 137.63547 
L 652.706831 162.255463 
L 652.865486 155.863336 
L 653.341451 96.752923 
L 653.500106 133.342266 
L 653.658761 93.940892 
L 653.817416 132.851183 
L 653.976071 121.67793 
L 654.452036 133.104923 
L 654.610691 127.532979 
L 654.769346 130.595531 
L 655.086656 128.956786 
L 655.56262 140.852469 
L 655.721275 106.208622 
L 655.87993 155.377897 
L 656.038585 163.136913 
L 656.19724 84.223788 
L 656.673205 146.209801 
L 656.83186 145.069067 
L 656.990515 147.922162 
L 657.14917 125.202471 
L 657.307825 174.78494 
L 657.942444 106.347778 
L 658.101099 97.620773 
L 658.259754 164.672167 
L 658.418409 171.028453 
L 658.894374 112.730269 
L 659.053029 110.394809 
L 659.211684 102.313147 
L 659.370339 133.9311 
L 660.004959 135.248797 
L 660.163614 106.322641 
L 660.322269 146.729955 
L 660.480923 151.749013 
L 661.115543 165.278298 
L 661.274198 125.74371 
L 661.591508 184.700082 
L 661.750163 155.017176 
L 662.226128 128.368341 
L 662.384783 112.675368 
L 662.543438 187.640548 
L 662.702093 92.750627 
L 662.860748 179.823998 
L 663.495367 129.096855 
L 663.654022 156.979428 
L 663.971332 84.761574 
L 664.447297 166.048258 
L 664.605952 98.449459 
L 664.764607 155.074746 
L 665.081917 74.83288 
L 665.557882 131.308091 
L 665.716537 173.213515 
L 665.875191 119.009372 
L 666.033846 126.842816 
L 666.192501 172.608415 
L 666.668466 162.631697 
L 666.827121 131.808176 
L 666.985776 130.731213 
L 667.144431 158.373463 
L 667.303086 86.464113 
L 667.937706 93.150511 
L 668.096361 93.23131 
L 668.255016 140.908785 
L 668.889635 97.75663 
L 669.04829 158.725283 
L 669.3656 104.710839 
L 669.524255 134.547855 
L 670.00022 148.795406 
L 670.158875 76.806555 
L 670.31753 121.036127 
L 671.110804 128.296416 
L 671.269459 155.938439 
L 671.428114 118.873179 
L 671.586769 129.94933 
L 671.745424 93.420827 
L 672.221389 133.164216 
L 672.380044 134.472483 
L 672.538699 117.637048 
L 672.697354 115.394424 
L 672.856009 120.333039 
L 673.490629 132.293353 
L 673.649283 144.831974 
L 673.807938 131.16024 
L 674.442558 129.066403 
L 674.601213 110.394999 
L 674.918523 134.933346 
L 675.077178 115.990029 
L 675.553143 137.590502 
L 675.711798 153.426836 
L 675.870453 106.596753 
L 676.029108 157.626477 
L 676.187763 123.99176 
L 676.663727 136.52474 
L 676.822382 108.495084 
L 676.981037 107.646174 
L 677.139692 129.910504 
L 677.298347 132.536011 
L 677.774312 115.516566 
L 678.250277 142.112883 
L 678.408932 130.194113 
L 678.884897 134.415918 
L 679.043551 126.059411 
L 679.202206 126.565167 
L 679.360861 151.334329 
L 679.995481 112.659283 
L 680.154136 150.066265 
L 680.312791 143.807049 
L 680.630101 123.114292 
L 681.106066 128.594441 
L 681.264721 102.166257 
L 681.423376 152.091552 
L 681.58203 130.687015 
L 681.740685 149.612536 
L 682.21665 108.192949 
L 682.375305 151.747604 
L 682.53396 129.837375 
L 682.692615 138.724713 
L 682.85127 116.691944 
L 683.327235 135.037202 
L 683.48589 99.484982 
L 683.8032 130.779967 
L 683.961855 120.601268 
L 684.596474 132.583635 
L 684.913784 123.905595 
L 685.072439 136.915989 
L 685.548404 119.223216 
L 685.707059 127.3802 
L 685.865714 122.80928 
L 686.183024 151.207092 
L 686.658989 148.782177 
L 686.817643 134.386018 
L 686.976298 134.481051 
L 687.134953 123.20845 
L 687.293608 137.703453 
L 687.769573 117.168376 
L 688.086883 134.051329 
L 688.245538 100.194995 
L 688.404193 213.264227 
L 688.880158 171.719598 
L 689.038813 90.355588 
L 689.197468 91.99954 
L 689.356123 99.74528 
L 689.514777 125.887717 
L 690.149397 145.885457 
L 690.308052 118.195045 
L 690.466707 132.280165 
L 690.625362 95.970761 
L 691.101327 122.585398 
L 691.259982 114.461728 
L 691.418637 129.997033 
L 691.577292 118.406559 
L 691.735947 132.410391 
L 692.211911 124.90627 
L 692.370566 133.559821 
L 692.529221 120.638657 
L 692.687876 138.51034 
L 692.846531 119.998162 
L 693.322496 137.142681 
L 693.481151 129.570727 
L 693.639806 133.022456 
L 693.798461 126.662853 
L 693.957116 126.60602 
L 694.433081 133.184233 
L 694.591736 144.776255 
L 694.75039 123.206296 
L 694.909045 129.820611 
L 695.0677 110.87424 
L 695.543665 132.360946 
L 695.70232 129.418811 
L 695.860975 136.808796 
L 696.01963 119.590419 
L 696.178285 132.108724 
L 696.65425 123.977443 
L 696.812905 142.762816 
L 696.97156 126.068831 
L 697.130215 125.319618 
L 697.28887 133.571398 
L 697.764834 131.580572 
L 697.923489 125.880549 
L 698.082144 142.218323 
L 698.240799 133.400966 
L 698.399454 133.88608 
L 698.875419 118.47685 
L 699.034074 134.737738 
L 699.192729 135.697285 
L 699.351384 130.39651 
L 699.510039 120.795068 
L 700.144658 123.550564 
L 700.461968 135.349836 
L 700.620623 186.609486 
L 701.096588 97.258473 
L 701.255243 164.18904 
L 701.572553 107.490944 
L 701.731208 138.874016 
L 702.207173 130.344842 
L 702.365828 129.624337 
L 702.524483 105.677795 
L 702.683137 115.609491 
L 702.841792 143.350545 
L 703.317757 149.862948 
L 703.476412 115.734808 
L 703.635067 118.322298 
L 703.793722 151.541824 
L 703.952377 112.303708 
L 704.586997 141.569311 
L 704.745652 120.579063 
L 705.062962 137.693256 
L 705.538926 119.880903 
L 705.697581 158.707141 
L 705.856236 127.703792 
L 706.014891 137.342387 
L 706.173546 129.84548 
L 706.649511 137.203005 
L 706.808166 116.374332 
L 707.125476 133.424804 
L 707.284131 130.493485 
L 707.760096 119.555994 
L 707.91875 138.931915 
L 708.077405 134.25317 
L 708.23606 137.086385 
L 708.394715 137.362942 
L 708.87068 130.57998 
L 709.029335 145.747093 
L 709.18799 145.150331 
L 709.5053 134.08442 
L 709.981265 80.45376 
L 710.13992 121.764285 
L 710.298575 105.319195 
L 710.615884 133.475281 
L 711.091849 130.564616 
L 711.250504 113.400096 
L 711.409159 133.89391 
L 711.567814 119.721834 
L 711.726469 135.722142 
L 712.202434 113.443759 
L 712.361089 125.396979 
L 712.519744 128.470873 
L 712.837054 121.442544 
L 713.313018 142.250831 
L 713.471673 127.276361 
L 713.630328 136.328304 
L 713.788983 138.289568 
L 713.947638 129.40246 
L 714.423603 117.138793 
L 714.582258 122.580262 
L 714.740913 100.644511 
L 714.899568 125.410759 
L 715.058223 116.873468 
L 715.534188 132.883708 
L 715.692843 115.519385 
L 715.851497 148.786707 
L 716.010152 121.512935 
L 716.168807 134.276368 
L 716.803427 122.068106 
L 716.962082 135.88256 
L 717.120737 134.531631 
L 717.279392 127.465662 
L 717.914012 125.209291 
L 718.072667 149.334053 
L 718.231322 130.967935 
L 718.389976 140.843476 
L 719.024596 111.137159 
L 719.183251 117.362097 
L 719.341906 132.051129 
L 719.500561 122.340534 
L 719.976526 138.364822 
L 720.293836 123.894378 
L 720.452491 135.172088 
L 720.611146 126.111274 
L 721.245765 137.042656 
L 721.40442 126.306158 
L 721.563075 138.503011 
L 721.72173 122.681183 
L 722.197695 136.411807 
L 722.35635 115.463465 
L 722.515005 112.17294 
L 722.67366 131.971043 
L 722.832315 132.268558 
L 723.30828 143.972812 
L 723.466935 132.321767 
L 723.62559 129.626094 
L 723.784244 129.009616 
L 723.942899 113.886466 
L 724.418864 135.105151 
L 724.577519 129.788285 
L 724.736174 128.730811 
L 724.894829 117.293834 
L 725.053484 122.229593 
L 725.529449 118.436697 
L 725.688104 121.232578 
L 725.846759 119.008763 
L 726.005414 132.263232 
L 726.164069 126.499046 
L 726.798688 116.627556 
L 726.957343 132.758303 
L 727.274653 126.918378 
L 727.750618 127.995143 
L 727.909273 136.157703 
L 728.067928 99.501825 
L 728.226583 143.631365 
L 728.385238 129.160197 
L 728.861203 137.747311 
L 729.019857 136.919535 
L 729.178512 135.48895 
L 729.495822 122.901724 
L 729.971787 129.471318 
L 730.130442 137.978924 
L 730.289097 111.388641 
L 730.447752 133.994872 
L 730.606407 133.285347 
L 731.082372 134.865476 
L 731.241027 158.61873 
L 731.399682 126.020624 
L 731.558336 132.708513 
L 731.716991 132.217559 
L 732.192956 132.616153 
L 732.351611 113.916375 
L 732.510266 127.842578 
L 732.668921 123.655866 
L 732.827576 135.422649 
L 733.303541 134.02989 
L 733.462196 129.034066 
L 733.620851 137.241375 
L 733.779506 125.930934 
L 733.938161 132.179277 
L 734.414125 128.743584 
L 734.89009 145.810598 
L 735.52471 110.852086 
L 735.683365 136.896805 
L 735.84202 134.198507 
L 736.000675 113.227973 
L 736.15933 137.196361 
L 736.635295 105.850753 
L 736.952604 131.404446 
L 737.111259 129.049031 
L 737.269914 134.645634 
L 737.745879 126.377389 
L 737.904534 127.607607 
L 738.063189 133.187805 
L 738.221844 128.982885 
L 738.380499 121.048806 
L 739.015119 132.629006 
L 739.173774 127.74001 
L 739.332429 135.212999 
L 739.491083 133.65809 
L 739.967048 119.495786 
L 740.125703 131.861 
L 740.284358 171.908337 
L 740.443013 121.956692 
L 740.601668 115.006341 
L 741.077633 118.63008 
L 741.236288 126.138368 
L 741.394943 124.664576 
L 741.553598 120.251066 
L 741.712253 129.598465 
L 742.346872 133.036267 
L 742.505527 131.346055 
L 742.664182 113.1968 
L 742.822837 121.90944 
L 743.457457 136.614011 
L 743.616112 126.748787 
L 743.933422 132.185766 
L 744.409387 132.523476 
L 744.568042 120.094021 
L 744.726696 132.562222 
L 744.885351 135.387533 
L 745.519971 111.450545 
L 745.678626 145.541035 
L 745.837281 131.624416 
L 745.995936 131.336555 
L 746.154591 126.765412 
L 746.630556 129.586559 
L 746.789211 148.68531 
L 746.947866 110.414301 
L 747.106521 149.890995 
L 747.265176 126.828099 
L 747.74114 125.067958 
L 748.05845 127.009154 
L 748.217105 151.650365 
L 748.37576 115.827299 
L 749.01038 132.078389 
L 749.169035 113.794493 
L 749.32769 126.055262 
L 749.486345 119.728305 
L 749.96231 130.422656 
L 750.120964 128.947177 
L 750.279619 118.150659 
L 750.438274 130.651163 
L 751.072894 132.71638 
L 751.231549 123.682862 
L 751.548859 132.509685 
L 751.707514 133.346209 
L 752.183479 131.954615 
L 752.342134 124.755095 
L 752.659443 135.260376 
L 752.818098 126.022396 
L 753.294063 126.570041 
L 753.452718 135.784965 
L 753.611373 131.12743 
L 753.770028 163.369128 
L 753.928683 127.411631 
L 754.404648 107.638051 
L 754.563303 131.434181 
L 754.721958 127.084285 
L 754.880613 165.585146 
L 755.039268 134.468906 
L 755.515232 127.667408 
L 755.673887 107.869277 
L 755.832542 138.148611 
L 755.991197 135.012211 
L 756.149852 126.511922 
L 756.625817 129.198291 
L 756.784472 128.392021 
L 756.943127 119.860035 
L 757.101782 117.365024 
L 757.260437 125.810899 
L 757.895056 147.492105 
L 758.053711 123.21809 
L 758.371021 133.681732 
L 758.846986 105.85248 
L 759.164296 128.586227 
L 759.322951 132.800344 
L 759.481606 126.117294 
L 759.957571 127.003171 
L 760.274881 128.864471 
L 760.433536 137.22103 
L 760.59219 128.833996 
L 761.068155 135.347647 
L 761.22681 130.138991 
L 761.385465 121.056827 
L 761.54412 127.572348 
L 761.702775 121.915362 
L 762.17874 121.533774 
L 762.49605 127.476977 
L 762.654705 117.532326 
L 762.81336 132.738855 
L 763.289324 134.398624 
L 763.447979 125.041759 
L 763.606634 126.216163 
L 763.765289 134.131268 
L 763.765289 134.131268 
" style="fill:none;stroke:#1f77b4;stroke-linecap:square;stroke-width:1.5;"/>
   </g>
   <g id="patch_58">
    <path d="M 473.236364 230.4 
L 473.236364 34.56 
" style="fill:none;stroke:#000000;stroke-linecap:square;stroke-linejoin:miter;stroke-width:0.8;"/>
   </g>
   <g id="patch_59">
    <path d="M 777.6 230.4 
L 777.6 34.56 
" style="fill:none;stroke:#000000;stroke-linecap:square;stroke-linejoin:miter;stroke-width:0.8;"/>
   </g>
   <g id="patch_60">
    <path d="M 473.236364 230.4 
L 777.6 230.4 
" style="fill:none;stroke:#000000;stroke-linecap:square;stroke-linejoin:miter;stroke-width:0.8;"/>
   </g>
   <g id="patch_61">
    <path d="M 473.236364 34.56 
L 777.6 34.56 
" style="fill:none;stroke:#000000;stroke-linecap:square;stroke-linejoin:miter;stroke-width:0.8;"/>
   </g>
  </g>
 </g>
 <defs>
  <clipPath id="p5973b95e95">
   <rect height="195.84" width="304.363636" x="108" y="34.56"/>
  </clipPath>
  <clipPath id="pb761d4f102">
   <rect height="195.84" width="304.363636" x="473.236364" y="34.56"/>
  </clipPath>
 </defs>
</svg>
