<?xml version="1.0" encoding="utf-8" standalone="no"?>
<!DOCTYPE svg PUBLIC "-//W3C//DTD SVG 1.1//EN"
  "http://www.w3.org/Graphics/SVG/1.1/DTD/svg11.dtd">
<!-- Created with matplotlib (http://matplotlib.org/) -->
<svg height="288pt" version="1.1" viewBox="0 0 864 288" width="864pt" xmlns="http://www.w3.org/2000/svg" xmlns:xlink="http://www.w3.org/1999/xlink">
 <defs>
  <style type="text/css">
*{stroke-linecap:butt;stroke-linejoin:round;}
  </style>
 </defs>
 <g id="figure_1">
  <g id="patch_1">
   <path d="M 0 288 
L 864 288 
L 864 0 
L 0 0 
z
" style="fill:#ffffff;"/>
  </g>
  <g id="axes_1">
   <g id="patch_2">
    <path d="M 108 230.4 
L 412.363636 230.4 
L 412.363636 34.56 
L 108 34.56 
z
" style="fill:#eaeaf2;"/>
   </g>
   <g id="matplotlib.axis_1">
    <g id="xtick_1">
     <g id="line2d_1">
      <path clip-path="url(#p60404daf0c)" d="M 139.595292 230.4 
L 139.595292 34.56 
" style="fill:none;stroke:#ffffff;stroke-linecap:round;"/>
     </g>
     <g id="line2d_2"/>
     <g id="text_1">
      <!-- −0.04 -->
      <defs>
       <path d="M 4.9375 29.6875 
L 4.9375 36.8125 
L 53.515625 36.8125 
L 53.515625 29.6875 
z
" id="LiberationSans-2212"/>
       <path d="M 51.703125 34.421875 
Q 51.703125 24.515625 49.828125 17.75 
Q 47.953125 10.984375 44.703125 6.8125 
Q 41.453125 2.640625 37.0625 0.828125 
Q 32.671875 -0.984375 27.6875 -0.984375 
Q 22.65625 -0.984375 18.3125 0.828125 
Q 13.96875 2.640625 10.765625 6.78125 
Q 7.5625 10.9375 5.734375 17.703125 
Q 3.90625 24.46875 3.90625 34.421875 
Q 3.90625 44.828125 5.734375 51.640625 
Q 7.5625 58.453125 10.78125 62.5 
Q 14.015625 66.546875 18.40625 68.1875 
Q 22.796875 69.828125 27.984375 69.828125 
Q 32.90625 69.828125 37.21875 68.1875 
Q 41.546875 66.546875 44.765625 62.5 
Q 48 58.453125 49.84375 51.640625 
Q 51.703125 44.828125 51.703125 34.421875 
z
M 42.78125 34.421875 
Q 42.78125 42.625 41.796875 48.0625 
Q 40.828125 53.515625 38.921875 56.765625 
Q 37.015625 60.015625 34.25 61.359375 
Q 31.5 62.703125 27.984375 62.703125 
Q 24.265625 62.703125 21.4375 61.328125 
Q 18.609375 59.96875 16.671875 56.71875 
Q 14.75 53.46875 13.765625 48.015625 
Q 12.796875 42.578125 12.796875 34.421875 
Q 12.796875 26.515625 13.796875 21.09375 
Q 14.796875 15.671875 16.71875 12.375 
Q 18.65625 9.078125 21.4375 7.640625 
Q 24.21875 6.203125 27.78125 6.203125 
Q 31.25 6.203125 34.03125 7.640625 
Q 36.8125 9.078125 38.734375 12.375 
Q 40.671875 15.671875 41.71875 21.09375 
Q 42.78125 26.515625 42.78125 34.421875 
z
" id="LiberationSans-30"/>
       <path d="M 9.125 0 
L 9.125 10.6875 
L 18.65625 10.6875 
L 18.65625 0 
z
" id="LiberationSans-2e"/>
       <path d="M 43.015625 15.578125 
L 43.015625 0 
L 34.71875 0 
L 34.71875 15.578125 
L 2.296875 15.578125 
L 2.296875 22.40625 
L 33.796875 68.796875 
L 43.015625 68.796875 
L 43.015625 22.515625 
L 52.6875 22.515625 
L 52.6875 15.578125 
z
M 34.71875 58.890625 
Q 34.625 58.640625 34.234375 57.9375 
Q 33.84375 57.234375 33.34375 56.34375 
Q 32.859375 55.46875 32.34375 54.5625 
Q 31.84375 53.65625 31.453125 53.078125 
L 13.8125 27.09375 
Q 13.578125 26.703125 13.109375 26.0625 
Q 12.640625 25.4375 12.15625 24.78125 
Q 11.671875 24.125 11.171875 23.484375 
Q 10.6875 22.859375 10.40625 22.515625 
L 34.71875 22.515625 
z
" id="LiberationSans-34"/>
      </defs>
      <g style="fill:#262626;" transform="translate(126.94451 244.646875)scale(0.1 -0.1)">
       <use xlink:href="#LiberationSans-2212"/>
       <use x="58.398438" xlink:href="#LiberationSans-30"/>
       <use x="114.013672" xlink:href="#LiberationSans-2e"/>
       <use x="141.796875" xlink:href="#LiberationSans-30"/>
       <use x="197.412109" xlink:href="#LiberationSans-34"/>
      </g>
     </g>
    </g>
    <g id="xtick_2">
     <g id="line2d_3">
      <path clip-path="url(#p60404daf0c)" d="M 201.371291 230.4 
L 201.371291 34.56 
" style="fill:none;stroke:#ffffff;stroke-linecap:round;"/>
     </g>
     <g id="line2d_4"/>
     <g id="text_2">
      <!-- −0.02 -->
      <defs>
       <path d="M 5.03125 0 
L 5.03125 6.203125 
Q 7.515625 11.921875 11.109375 16.28125 
Q 14.703125 20.65625 18.65625 24.1875 
Q 22.609375 27.734375 26.484375 30.765625 
Q 30.375 33.796875 33.5 36.8125 
Q 36.625 39.84375 38.546875 43.15625 
Q 40.484375 46.484375 40.484375 50.6875 
Q 40.484375 53.609375 39.59375 55.828125 
Q 38.71875 58.0625 37.0625 59.5625 
Q 35.40625 61.078125 33.078125 61.828125 
Q 30.765625 62.59375 27.9375 62.59375 
Q 25.296875 62.59375 22.96875 61.859375 
Q 20.65625 61.140625 18.84375 59.671875 
Q 17.046875 58.203125 15.890625 56.03125 
Q 14.75 53.859375 14.40625 50.984375 
L 5.421875 51.8125 
Q 5.859375 55.515625 7.46875 58.78125 
Q 9.078125 62.0625 11.90625 64.53125 
Q 14.75 67 18.71875 68.40625 
Q 22.703125 69.828125 27.9375 69.828125 
Q 33.0625 69.828125 37.0625 68.609375 
Q 41.0625 67.390625 43.8125 64.984375 
Q 46.578125 62.59375 48.046875 59.078125 
Q 49.515625 55.5625 49.515625 50.984375 
Q 49.515625 47.515625 48.265625 44.390625 
Q 47.015625 41.265625 44.9375 38.421875 
Q 42.875 35.59375 40.140625 32.953125 
Q 37.40625 30.328125 34.421875 27.8125 
Q 31.453125 25.296875 28.421875 22.828125 
Q 25.390625 20.359375 22.71875 17.859375 
Q 20.0625 15.375 17.96875 12.8125 
Q 15.875 10.25 14.703125 7.46875 
L 50.59375 7.46875 
L 50.59375 0 
z
" id="LiberationSans-32"/>
      </defs>
      <g style="fill:#262626;" transform="translate(188.720509 244.646875)scale(0.1 -0.1)">
       <use xlink:href="#LiberationSans-2212"/>
       <use x="58.398438" xlink:href="#LiberationSans-30"/>
       <use x="114.013672" xlink:href="#LiberationSans-2e"/>
       <use x="141.796875" xlink:href="#LiberationSans-30"/>
       <use x="197.412109" xlink:href="#LiberationSans-32"/>
      </g>
     </g>
    </g>
    <g id="xtick_3">
     <g id="line2d_5">
      <path clip-path="url(#p60404daf0c)" d="M 263.14729 230.4 
L 263.14729 34.56 
" style="fill:none;stroke:#ffffff;stroke-linecap:round;"/>
     </g>
     <g id="line2d_6"/>
     <g id="text_3">
      <!-- 0.00 -->
      <g style="fill:#262626;" transform="translate(253.416821 244.646875)scale(0.1 -0.1)">
       <use xlink:href="#LiberationSans-30"/>
       <use x="55.615234" xlink:href="#LiberationSans-2e"/>
       <use x="83.398438" xlink:href="#LiberationSans-30"/>
       <use x="139.013672" xlink:href="#LiberationSans-30"/>
      </g>
     </g>
    </g>
    <g id="xtick_4">
     <g id="line2d_7">
      <path clip-path="url(#p60404daf0c)" d="M 324.923289 230.4 
L 324.923289 34.56 
" style="fill:none;stroke:#ffffff;stroke-linecap:round;"/>
     </g>
     <g id="line2d_8"/>
     <g id="text_4">
      <!-- 0.02 -->
      <g style="fill:#262626;" transform="translate(315.19282 244.646875)scale(0.1 -0.1)">
       <use xlink:href="#LiberationSans-30"/>
       <use x="55.615234" xlink:href="#LiberationSans-2e"/>
       <use x="83.398438" xlink:href="#LiberationSans-30"/>
       <use x="139.013672" xlink:href="#LiberationSans-32"/>
      </g>
     </g>
    </g>
    <g id="xtick_5">
     <g id="line2d_9">
      <path clip-path="url(#p60404daf0c)" d="M 386.699288 230.4 
L 386.699288 34.56 
" style="fill:none;stroke:#ffffff;stroke-linecap:round;"/>
     </g>
     <g id="line2d_10"/>
     <g id="text_5">
      <!-- 0.04 -->
      <g style="fill:#262626;" transform="translate(376.968819 244.646875)scale(0.1 -0.1)">
       <use xlink:href="#LiberationSans-30"/>
       <use x="55.615234" xlink:href="#LiberationSans-2e"/>
       <use x="83.398438" xlink:href="#LiberationSans-30"/>
       <use x="139.013672" xlink:href="#LiberationSans-34"/>
      </g>
     </g>
    </g>
    <g id="text_6">
     <!-- Return -->
     <defs>
      <path d="M 56.84375 0 
L 38.96875 28.5625 
L 17.53125 28.5625 
L 17.53125 0 
L 8.203125 0 
L 8.203125 68.796875 
L 40.578125 68.796875 
Q 46.4375 68.796875 50.953125 67.453125 
Q 55.46875 66.109375 58.546875 63.5625 
Q 61.625 61.03125 63.234375 57.375 
Q 64.84375 53.71875 64.84375 49.125 
Q 64.84375 45.84375 63.890625 42.671875 
Q 62.9375 39.5 60.890625 36.859375 
Q 58.84375 34.234375 55.65625 32.328125 
Q 52.484375 30.421875 48.046875 29.640625 
L 67.578125 0 
z
M 55.46875 49.03125 
Q 55.46875 52.15625 54.390625 54.4375 
Q 53.328125 56.734375 51.265625 58.265625 
Q 49.21875 59.8125 46.28125 60.5625 
Q 43.359375 61.328125 39.65625 61.328125 
L 17.53125 61.328125 
L 17.53125 35.9375 
L 40.046875 35.9375 
Q 44.046875 35.9375 46.96875 36.9375 
Q 49.90625 37.9375 51.78125 39.6875 
Q 53.65625 41.453125 54.5625 43.84375 
Q 55.46875 46.234375 55.46875 49.03125 
z
" id="LiberationSans-52"/>
      <path d="M 13.484375 24.5625 
Q 13.484375 20.40625 14.328125 16.90625 
Q 15.1875 13.421875 16.96875 10.90625 
Q 18.75 8.40625 21.53125 7 
Q 24.3125 5.609375 28.21875 5.609375 
Q 33.9375 5.609375 37.375 7.90625 
Q 40.828125 10.203125 42.046875 13.71875 
L 49.75 11.53125 
Q 48.921875 9.328125 47.4375 7.109375 
Q 45.953125 4.890625 43.453125 3.09375 
Q 40.96875 1.3125 37.234375 0.15625 
Q 33.5 -0.984375 28.21875 -0.984375 
Q 16.5 -0.984375 10.375 6 
Q 4.25 12.984375 4.25 26.765625 
Q 4.25 34.1875 6.09375 39.328125 
Q 7.953125 44.484375 11.171875 47.703125 
Q 14.40625 50.921875 18.703125 52.359375 
Q 23 53.8125 27.875 53.8125 
Q 34.515625 53.8125 38.984375 51.65625 
Q 43.453125 49.515625 46.15625 45.71875 
Q 48.875 41.9375 50.015625 36.8125 
Q 51.171875 31.6875 51.171875 25.734375 
L 51.171875 24.5625 
z
M 42.09375 31.296875 
Q 41.359375 39.65625 37.84375 43.484375 
Q 34.328125 47.3125 27.734375 47.3125 
Q 25.53125 47.3125 23.109375 46.609375 
Q 20.703125 45.90625 18.65625 44.09375 
Q 16.609375 42.28125 15.1875 39.171875 
Q 13.765625 36.078125 13.578125 31.296875 
z
" id="LiberationSans-65"/>
      <path d="M 27.046875 0.390625 
Q 25.046875 -0.140625 22.96875 -0.453125 
Q 20.90625 -0.78125 18.171875 -0.78125 
Q 7.625 -0.78125 7.625 11.1875 
L 7.625 46.4375 
L 1.515625 46.4375 
L 1.515625 52.828125 
L 7.953125 52.828125 
L 10.546875 64.65625 
L 16.40625 64.65625 
L 16.40625 52.828125 
L 26.171875 52.828125 
L 26.171875 46.4375 
L 16.40625 46.4375 
L 16.40625 13.09375 
Q 16.40625 9.28125 17.640625 7.734375 
Q 18.890625 6.203125 21.96875 6.203125 
Q 23.25 6.203125 24.4375 6.390625 
Q 25.640625 6.59375 27.046875 6.890625 
z
" id="LiberationSans-74"/>
      <path d="M 15.328125 52.828125 
L 15.328125 19.34375 
Q 15.328125 15.484375 15.890625 12.890625 
Q 16.453125 10.296875 17.71875 8.703125 
Q 19 7.125 21.0625 6.46875 
Q 23.140625 5.8125 26.21875 5.8125 
Q 29.34375 5.8125 31.859375 6.90625 
Q 34.375 8.015625 36.15625 10.078125 
Q 37.9375 12.15625 38.90625 15.203125 
Q 39.890625 18.265625 39.890625 22.21875 
L 39.890625 52.828125 
L 48.6875 52.828125 
L 48.6875 11.28125 
Q 48.6875 9.625 48.703125 7.78125 
Q 48.734375 5.953125 48.78125 4.3125 
Q 48.828125 2.6875 48.875 1.515625 
Q 48.921875 0.34375 48.96875 0 
L 40.671875 0 
Q 40.625 0.25 40.578125 1.3125 
Q 40.53125 2.390625 40.453125 3.78125 
Q 40.375 5.171875 40.328125 6.609375 
Q 40.28125 8.0625 40.28125 9.03125 
L 40.140625 9.03125 
Q 38.875 6.734375 37.359375 4.875 
Q 35.84375 3.03125 33.84375 1.734375 
Q 31.84375 0.4375 29.25 -0.265625 
Q 26.65625 -0.984375 23.25 -0.984375 
Q 18.84375 -0.984375 15.671875 0.09375 
Q 12.5 1.171875 10.453125 3.421875 
Q 8.40625 5.671875 7.453125 9.1875 
Q 6.5 12.703125 6.5 17.625 
L 6.5 52.828125 
z
" id="LiberationSans-75"/>
      <path d="M 6.9375 0 
L 6.9375 40.53125 
Q 6.9375 42.1875 6.90625 43.921875 
Q 6.890625 45.65625 6.828125 47.265625 
Q 6.78125 48.875 6.734375 50.28125 
Q 6.6875 51.703125 6.640625 52.828125 
L 14.9375 52.828125 
Q 14.984375 51.703125 15.0625 50.265625 
Q 15.140625 48.828125 15.203125 47.3125 
Q 15.28125 45.796875 15.296875 44.40625 
Q 15.328125 43.015625 15.328125 42.046875 
L 15.53125 42.046875 
Q 16.453125 45.0625 17.5 47.28125 
Q 18.5625 49.515625 19.96875 50.953125 
Q 21.390625 52.390625 23.34375 53.09375 
Q 25.296875 53.8125 28.078125 53.8125 
Q 29.15625 53.8125 30.125 53.640625 
Q 31.109375 53.46875 31.640625 53.328125 
L 31.640625 45.265625 
Q 30.765625 45.515625 29.59375 45.625 
Q 28.421875 45.75 26.953125 45.75 
Q 23.921875 45.75 21.796875 44.375 
Q 19.671875 43.015625 18.328125 40.59375 
Q 17 38.1875 16.359375 34.84375 
Q 15.71875 31.5 15.71875 27.546875 
L 15.71875 0 
z
" id="LiberationSans-72"/>
      <path d="M 40.28125 0 
L 40.28125 33.5 
Q 40.28125 37.359375 39.71875 39.9375 
Q 39.15625 42.53125 37.890625 44.109375 
Q 36.625 45.703125 34.546875 46.359375 
Q 32.46875 47.015625 29.390625 47.015625 
Q 26.265625 47.015625 23.75 45.921875 
Q 21.234375 44.828125 19.453125 42.75 
Q 17.671875 40.671875 16.6875 37.625 
Q 15.71875 34.578125 15.71875 30.609375 
L 15.71875 0 
L 6.9375 0 
L 6.9375 41.546875 
Q 6.9375 43.21875 6.90625 45.046875 
Q 6.890625 46.875 6.828125 48.5 
Q 6.78125 50.140625 6.734375 51.3125 
Q 6.6875 52.484375 6.640625 52.828125 
L 14.9375 52.828125 
Q 14.984375 52.59375 15.03125 51.515625 
Q 15.09375 50.4375 15.15625 49.046875 
Q 15.234375 47.65625 15.28125 46.21875 
Q 15.328125 44.78125 15.328125 43.796875 
L 15.484375 43.796875 
Q 16.75 46.09375 18.265625 47.953125 
Q 19.78125 49.8125 21.78125 51.09375 
Q 23.78125 52.390625 26.359375 53.09375 
Q 28.953125 53.8125 32.375 53.8125 
Q 36.765625 53.8125 39.9375 52.734375 
Q 43.109375 51.65625 45.15625 49.40625 
Q 47.21875 47.171875 48.171875 43.625 
Q 49.125 40.09375 49.125 35.203125 
L 49.125 0 
z
" id="LiberationSans-6e"/>
     </defs>
     <g style="fill:#262626;" transform="translate(243.674943 258.693437)scale(0.11 -0.11)">
      <use xlink:href="#LiberationSans-52"/>
      <use x="72.216797" xlink:href="#LiberationSans-65"/>
      <use x="127.832031" xlink:href="#LiberationSans-74"/>
      <use x="155.615234" xlink:href="#LiberationSans-75"/>
      <use x="211.230469" xlink:href="#LiberationSans-72"/>
      <use x="244.53125" xlink:href="#LiberationSans-6e"/>
     </g>
    </g>
   </g>
   <g id="matplotlib.axis_2">
    <g id="ytick_1">
     <g id="line2d_11">
      <path clip-path="url(#p60404daf0c)" d="M 108 230.4 
L 412.363636 230.4 
" style="fill:none;stroke:#ffffff;stroke-linecap:round;"/>
     </g>
     <g id="line2d_12"/>
     <g id="text_7">
      <!-- 0 -->
      <g style="fill:#262626;" transform="translate(95.439063 234.023437)scale(0.1 -0.1)">
       <use xlink:href="#LiberationSans-30"/>
      </g>
     </g>
    </g>
    <g id="ytick_2">
     <g id="line2d_13">
      <path clip-path="url(#p60404daf0c)" d="M 108 208.482647 
L 412.363636 208.482647 
" style="fill:none;stroke:#ffffff;stroke-linecap:round;"/>
     </g>
     <g id="line2d_14"/>
     <g id="text_8">
      <!-- 10 -->
      <defs>
       <path d="M 7.625 0 
L 7.625 7.46875 
L 25.140625 7.46875 
L 25.140625 60.40625 
L 9.625 49.3125 
L 9.625 57.625 
L 25.875 68.796875 
L 33.984375 68.796875 
L 33.984375 7.46875 
L 50.734375 7.46875 
L 50.734375 0 
z
" id="LiberationSans-31"/>
      </defs>
      <g style="fill:#262626;" transform="translate(89.878125 212.106084)scale(0.1 -0.1)">
       <use xlink:href="#LiberationSans-31"/>
       <use x="55.615234" xlink:href="#LiberationSans-30"/>
      </g>
     </g>
    </g>
    <g id="ytick_3">
     <g id="line2d_15">
      <path clip-path="url(#p60404daf0c)" d="M 108 186.565294 
L 412.363636 186.565294 
" style="fill:none;stroke:#ffffff;stroke-linecap:round;"/>
     </g>
     <g id="line2d_16"/>
     <g id="text_9">
      <!-- 20 -->
      <g style="fill:#262626;" transform="translate(89.878125 190.188731)scale(0.1 -0.1)">
       <use xlink:href="#LiberationSans-32"/>
       <use x="55.615234" xlink:href="#LiberationSans-30"/>
      </g>
     </g>
    </g>
    <g id="ytick_4">
     <g id="line2d_17">
      <path clip-path="url(#p60404daf0c)" d="M 108 164.64794 
L 412.363636 164.64794 
" style="fill:none;stroke:#ffffff;stroke-linecap:round;"/>
     </g>
     <g id="line2d_18"/>
     <g id="text_10">
      <!-- 30 -->
      <defs>
       <path d="M 51.21875 19 
Q 51.21875 14.265625 49.671875 10.546875 
Q 48.140625 6.84375 45.1875 4.265625 
Q 42.234375 1.703125 37.859375 0.359375 
Q 33.5 -0.984375 27.875 -0.984375 
Q 21.484375 -0.984375 17.109375 0.609375 
Q 12.75 2.203125 9.90625 4.8125 
Q 7.078125 7.421875 5.65625 10.765625 
Q 4.25 14.109375 3.8125 17.671875 
L 12.890625 18.5 
Q 13.28125 15.765625 14.328125 13.515625 
Q 15.375 11.28125 17.1875 9.671875 
Q 19 8.0625 21.625 7.171875 
Q 24.265625 6.296875 27.875 6.296875 
Q 34.515625 6.296875 38.296875 9.5625 
Q 42.09375 12.84375 42.09375 19.28125 
Q 42.09375 23.09375 40.40625 25.40625 
Q 38.71875 27.734375 36.203125 29.03125 
Q 33.6875 30.328125 30.734375 30.765625 
Q 27.78125 31.203125 25.296875 31.203125 
L 20.3125 31.203125 
L 20.3125 38.8125 
L 25.09375 38.8125 
Q 27.59375 38.8125 30.265625 39.328125 
Q 32.953125 39.84375 35.171875 41.1875 
Q 37.40625 42.53125 38.84375 44.828125 
Q 40.28125 47.125 40.28125 50.6875 
Q 40.28125 56.203125 37.03125 59.390625 
Q 33.796875 62.59375 27.390625 62.59375 
Q 21.578125 62.59375 17.984375 59.609375 
Q 14.40625 56.640625 13.8125 51.21875 
L 4.984375 51.90625 
Q 5.515625 56.453125 7.46875 59.8125 
Q 9.421875 63.1875 12.421875 65.40625 
Q 15.4375 67.625 19.28125 68.71875 
Q 23.140625 69.828125 27.484375 69.828125 
Q 33.25 69.828125 37.390625 68.375 
Q 41.546875 66.9375 44.1875 64.46875 
Q 46.828125 62.015625 48.0625 58.6875 
Q 49.3125 55.375 49.3125 51.609375 
Q 49.3125 48.578125 48.484375 45.9375 
Q 47.65625 43.3125 45.890625 41.203125 
Q 44.140625 39.109375 41.421875 37.59375 
Q 38.71875 36.078125 34.90625 35.296875 
L 34.90625 35.109375 
Q 39.0625 34.671875 42.140625 33.21875 
Q 45.21875 31.78125 47.21875 29.625 
Q 49.21875 27.484375 50.21875 24.75 
Q 51.21875 22.015625 51.21875 19 
z
" id="LiberationSans-33"/>
      </defs>
      <g style="fill:#262626;" transform="translate(89.878125 168.271378)scale(0.1 -0.1)">
       <use xlink:href="#LiberationSans-33"/>
       <use x="55.615234" xlink:href="#LiberationSans-30"/>
      </g>
     </g>
    </g>
    <g id="ytick_5">
     <g id="line2d_19">
      <path clip-path="url(#p60404daf0c)" d="M 108 142.730587 
L 412.363636 142.730587 
" style="fill:none;stroke:#ffffff;stroke-linecap:round;"/>
     </g>
     <g id="line2d_20"/>
     <g id="text_11">
      <!-- 40 -->
      <g style="fill:#262626;" transform="translate(89.878125 146.354025)scale(0.1 -0.1)">
       <use xlink:href="#LiberationSans-34"/>
       <use x="55.615234" xlink:href="#LiberationSans-30"/>
      </g>
     </g>
    </g>
    <g id="ytick_6">
     <g id="line2d_21">
      <path clip-path="url(#p60404daf0c)" d="M 108 120.813234 
L 412.363636 120.813234 
" style="fill:none;stroke:#ffffff;stroke-linecap:round;"/>
     </g>
     <g id="line2d_22"/>
     <g id="text_12">
      <!-- 50 -->
      <defs>
       <path d="M 51.421875 22.40625 
Q 51.421875 17.234375 49.859375 12.9375 
Q 48.296875 8.640625 45.21875 5.53125 
Q 42.140625 2.4375 37.578125 0.71875 
Q 33.015625 -0.984375 27 -0.984375 
Q 21.578125 -0.984375 17.546875 0.28125 
Q 13.53125 1.5625 10.734375 3.78125 
Q 7.953125 6 6.3125 8.984375 
Q 4.6875 11.96875 4 15.375 
L 12.890625 16.40625 
Q 13.421875 14.453125 14.390625 12.625 
Q 15.375 10.796875 17.0625 9.34375 
Q 18.75 7.90625 21.21875 7.046875 
Q 23.6875 6.203125 27.203125 6.203125 
Q 30.609375 6.203125 33.390625 7.25 
Q 36.1875 8.296875 38.15625 10.34375 
Q 40.140625 12.40625 41.203125 15.375 
Q 42.28125 18.359375 42.28125 22.21875 
Q 42.28125 25.390625 41.25 28.046875 
Q 40.234375 30.71875 38.328125 32.640625 
Q 36.421875 34.578125 33.65625 35.640625 
Q 30.90625 36.71875 27.390625 36.71875 
Q 25.203125 36.71875 23.34375 36.328125 
Q 21.484375 35.9375 19.890625 35.25 
Q 18.3125 34.578125 17.015625 33.671875 
Q 15.71875 32.765625 14.59375 31.78125 
L 6 31.78125 
L 8.296875 68.796875 
L 47.40625 68.796875 
L 47.40625 61.328125 
L 16.3125 61.328125 
L 14.984375 39.5 
Q 17.328125 41.3125 20.84375 42.59375 
Q 24.359375 43.890625 29.203125 43.890625 
Q 34.328125 43.890625 38.421875 42.328125 
Q 42.53125 40.765625 45.40625 37.90625 
Q 48.296875 35.0625 49.859375 31.109375 
Q 51.421875 27.15625 51.421875 22.40625 
z
" id="LiberationSans-35"/>
      </defs>
      <g style="fill:#262626;" transform="translate(89.878125 124.436671)scale(0.1 -0.1)">
       <use xlink:href="#LiberationSans-35"/>
       <use x="55.615234" xlink:href="#LiberationSans-30"/>
      </g>
     </g>
    </g>
    <g id="ytick_7">
     <g id="line2d_23">
      <path clip-path="url(#p60404daf0c)" d="M 108 98.895881 
L 412.363636 98.895881 
" style="fill:none;stroke:#ffffff;stroke-linecap:round;"/>
     </g>
     <g id="line2d_24"/>
     <g id="text_13">
      <!-- 60 -->
      <defs>
       <path d="M 51.21875 22.515625 
Q 51.21875 17.328125 49.78125 13 
Q 48.34375 8.6875 45.53125 5.578125 
Q 42.71875 2.484375 38.5625 0.75 
Q 34.421875 -0.984375 29 -0.984375 
Q 23 -0.984375 18.5 1.3125 
Q 14.015625 3.609375 11.03125 7.921875 
Q 8.0625 12.25 6.5625 18.53125 
Q 5.078125 24.8125 5.078125 32.8125 
Q 5.078125 42 6.765625 48.921875 
Q 8.453125 55.859375 11.625 60.5 
Q 14.796875 65.140625 19.359375 67.484375 
Q 23.921875 69.828125 29.6875 69.828125 
Q 33.203125 69.828125 36.28125 69.09375 
Q 39.359375 68.359375 41.875 66.71875 
Q 44.390625 65.09375 46.28125 62.40625 
Q 48.1875 59.71875 49.3125 55.8125 
L 40.921875 54.296875 
Q 39.546875 58.734375 36.546875 60.71875 
Q 33.546875 62.703125 29.59375 62.703125 
Q 25.984375 62.703125 23.046875 60.984375 
Q 20.125 59.28125 18.0625 55.875 
Q 16.015625 52.484375 14.90625 47.359375 
Q 13.8125 42.234375 13.8125 35.40625 
Q 16.21875 39.84375 20.5625 42.15625 
Q 24.90625 44.484375 30.515625 44.484375 
Q 35.203125 44.484375 39.015625 42.96875 
Q 42.828125 41.453125 45.53125 38.59375 
Q 48.25 35.75 49.734375 31.671875 
Q 51.21875 27.59375 51.21875 22.515625 
z
M 42.28125 22.125 
Q 42.28125 25.6875 41.40625 28.5625 
Q 40.53125 31.453125 38.765625 33.46875 
Q 37.015625 35.5 34.421875 36.59375 
Q 31.84375 37.703125 28.421875 37.703125 
Q 26.03125 37.703125 23.578125 36.984375 
Q 21.140625 36.28125 19.15625 34.6875 
Q 17.1875 33.109375 15.9375 30.515625 
Q 14.703125 27.9375 14.703125 24.21875 
Q 14.703125 20.40625 15.671875 17.109375 
Q 16.65625 13.8125 18.484375 11.375 
Q 20.3125 8.9375 22.890625 7.515625 
Q 25.484375 6.109375 28.71875 6.109375 
Q 31.890625 6.109375 34.40625 7.203125 
Q 36.921875 8.296875 38.671875 10.375 
Q 40.4375 12.453125 41.359375 15.421875 
Q 42.28125 18.40625 42.28125 22.125 
z
" id="LiberationSans-36"/>
      </defs>
      <g style="fill:#262626;" transform="translate(89.878125 102.519318)scale(0.1 -0.1)">
       <use xlink:href="#LiberationSans-36"/>
       <use x="55.615234" xlink:href="#LiberationSans-30"/>
      </g>
     </g>
    </g>
    <g id="ytick_8">
     <g id="line2d_25">
      <path clip-path="url(#p60404daf0c)" d="M 108 76.978527 
L 412.363636 76.978527 
" style="fill:none;stroke:#ffffff;stroke-linecap:round;"/>
     </g>
     <g id="line2d_26"/>
     <g id="text_14">
      <!-- 70 -->
      <defs>
       <path d="M 50.59375 61.671875 
Q 45.40625 53.765625 41.0625 46.453125 
Q 36.71875 39.15625 33.59375 31.75 
Q 30.46875 24.359375 28.734375 16.578125 
Q 27 8.796875 27 0 
L 17.828125 0 
Q 17.828125 8.25 19.78125 16.1875 
Q 21.734375 24.125 25.046875 31.765625 
Q 28.375 39.40625 32.765625 46.78125 
Q 37.15625 54.15625 42.09375 61.328125 
L 5.125 61.328125 
L 5.125 68.796875 
L 50.59375 68.796875 
z
" id="LiberationSans-37"/>
      </defs>
      <g style="fill:#262626;" transform="translate(89.878125 80.601965)scale(0.1 -0.1)">
       <use xlink:href="#LiberationSans-37"/>
       <use x="55.615234" xlink:href="#LiberationSans-30"/>
      </g>
     </g>
    </g>
    <g id="ytick_9">
     <g id="line2d_27">
      <path clip-path="url(#p60404daf0c)" d="M 108 55.061174 
L 412.363636 55.061174 
" style="fill:none;stroke:#ffffff;stroke-linecap:round;"/>
     </g>
     <g id="line2d_28"/>
     <g id="text_15">
      <!-- 80 -->
      <defs>
       <path d="M 51.265625 19.1875 
Q 51.265625 14.796875 49.875 11.109375 
Q 48.484375 7.421875 45.625 4.734375 
Q 42.78125 2.046875 38.328125 0.53125 
Q 33.890625 -0.984375 27.828125 -0.984375 
Q 21.78125 -0.984375 17.359375 0.53125 
Q 12.9375 2.046875 10.03125 4.703125 
Q 7.125 7.375 5.734375 11.0625 
Q 4.34375 14.75 4.34375 19.09375 
Q 4.34375 22.859375 5.484375 25.78125 
Q 6.640625 28.71875 8.5625 30.828125 
Q 10.5 32.953125 12.96875 34.25 
Q 15.4375 35.546875 18.0625 35.984375 
L 18.0625 36.1875 
Q 15.1875 36.859375 12.90625 38.375 
Q 10.640625 39.890625 9.09375 42.015625 
Q 7.5625 44.140625 6.75 46.71875 
Q 5.953125 49.3125 5.953125 52.203125 
Q 5.953125 55.8125 7.34375 59 
Q 8.734375 62.203125 11.46875 64.625 
Q 14.203125 67.046875 18.25 68.4375 
Q 22.3125 69.828125 27.640625 69.828125 
Q 33.25 69.828125 37.375 68.40625 
Q 41.5 67 44.203125 64.578125 
Q 46.921875 62.15625 48.234375 58.9375 
Q 49.5625 55.71875 49.5625 52.09375 
Q 49.5625 49.265625 48.75 46.671875 
Q 47.953125 44.09375 46.40625 41.96875 
Q 44.875 39.84375 42.59375 38.34375 
Q 40.328125 36.859375 37.359375 36.28125 
L 37.359375 36.078125 
Q 40.328125 35.59375 42.859375 34.296875 
Q 45.40625 33.015625 47.265625 30.890625 
Q 49.125 28.765625 50.1875 25.828125 
Q 51.265625 22.90625 51.265625 19.1875 
z
M 40.4375 51.609375 
Q 40.4375 54.203125 39.765625 56.34375 
Q 39.109375 58.5 37.59375 60.03125 
Q 36.078125 61.578125 33.640625 62.421875 
Q 31.203125 63.28125 27.640625 63.28125 
Q 24.171875 63.28125 21.78125 62.421875 
Q 19.390625 61.578125 17.84375 60.03125 
Q 16.3125 58.5 15.625 56.34375 
Q 14.9375 54.203125 14.9375 51.609375 
Q 14.9375 49.5625 15.46875 47.40625 
Q 16.015625 45.265625 17.421875 43.5 
Q 18.84375 41.75 21.328125 40.625 
Q 23.828125 39.5 27.734375 39.5 
Q 31.890625 39.5 34.40625 40.625 
Q 36.921875 41.75 38.25 43.5 
Q 39.59375 45.265625 40.015625 47.40625 
Q 40.4375 49.5625 40.4375 51.609375 
z
M 42.140625 20.015625 
Q 42.140625 22.515625 41.453125 24.828125 
Q 40.765625 27.15625 39.109375 28.9375 
Q 37.453125 30.71875 34.640625 31.8125 
Q 31.84375 32.90625 27.640625 32.90625 
Q 23.78125 32.90625 21.0625 31.8125 
Q 18.359375 30.71875 16.671875 28.90625 
Q 14.984375 27.09375 14.203125 24.71875 
Q 13.421875 22.359375 13.421875 19.828125 
Q 13.421875 16.65625 14.203125 14.03125 
Q 14.984375 11.421875 16.6875 9.546875 
Q 18.40625 7.671875 21.1875 6.640625 
Q 23.96875 5.609375 27.9375 5.609375 
Q 31.9375 5.609375 34.671875 6.640625 
Q 37.40625 7.671875 39.0625 9.546875 
Q 40.71875 11.421875 41.421875 14.078125 
Q 42.140625 16.75 42.140625 20.015625 
z
" id="LiberationSans-38"/>
      </defs>
      <g style="fill:#262626;" transform="translate(89.878125 58.684612)scale(0.1 -0.1)">
       <use xlink:href="#LiberationSans-38"/>
       <use x="55.615234" xlink:href="#LiberationSans-30"/>
      </g>
     </g>
    </g>
   </g>
   <g id="patch_3">
    <path clip-path="url(#p60404daf0c)" d="M 138.942182 230.4 
L 143.791767 230.4 
L 143.791767 229.241526 
L 138.942182 229.241526 
z
" style="fill:#4c72b0;opacity:0.4;"/>
   </g>
   <g id="patch_4">
    <path clip-path="url(#p60404daf0c)" d="M 143.791767 230.4 
L 148.641353 230.4 
L 148.641353 230.4 
L 143.791767 230.4 
z
" style="fill:#4c72b0;opacity:0.4;"/>
   </g>
   <g id="patch_5">
    <path clip-path="url(#p60404daf0c)" d="M 148.641353 230.4 
L 153.490938 230.4 
L 153.490938 229.241526 
L 148.641353 229.241526 
z
" style="fill:#4c72b0;opacity:0.4;"/>
   </g>
   <g id="patch_6">
    <path clip-path="url(#p60404daf0c)" d="M 153.490938 230.4 
L 158.340524 230.4 
L 158.340524 230.4 
L 153.490938 230.4 
z
" style="fill:#4c72b0;opacity:0.4;"/>
   </g>
   <g id="patch_7">
    <path clip-path="url(#p60404daf0c)" d="M 158.340524 230.4 
L 163.190109 230.4 
L 163.190109 229.241526 
L 158.340524 229.241526 
z
" style="fill:#4c72b0;opacity:0.4;"/>
   </g>
   <g id="patch_8">
    <path clip-path="url(#p60404daf0c)" d="M 163.190109 230.4 
L 168.039695 230.4 
L 168.039695 230.4 
L 163.190109 230.4 
z
" style="fill:#4c72b0;opacity:0.4;"/>
   </g>
   <g id="patch_9">
    <path clip-path="url(#p60404daf0c)" d="M 168.039695 230.4 
L 172.88928 230.4 
L 172.88928 229.241526 
L 168.039695 229.241526 
z
" style="fill:#4c72b0;opacity:0.4;"/>
   </g>
   <g id="patch_10">
    <path clip-path="url(#p60404daf0c)" d="M 172.88928 230.4 
L 177.738866 230.4 
L 177.738866 230.4 
L 172.88928 230.4 
z
" style="fill:#4c72b0;opacity:0.4;"/>
   </g>
   <g id="patch_11">
    <path clip-path="url(#p60404daf0c)" d="M 177.738866 230.4 
L 182.588451 230.4 
L 182.588451 230.4 
L 177.738866 230.4 
z
" style="fill:#4c72b0;opacity:0.4;"/>
   </g>
   <g id="patch_12">
    <path clip-path="url(#p60404daf0c)" d="M 182.588451 230.4 
L 187.438036 230.4 
L 187.438036 225.766105 
L 182.588451 225.766105 
z
" style="fill:#4c72b0;opacity:0.4;"/>
   </g>
   <g id="patch_13">
    <path clip-path="url(#p60404daf0c)" d="M 187.438036 230.4 
L 192.287622 230.4 
L 192.287622 226.924579 
L 187.438036 226.924579 
z
" style="fill:#4c72b0;opacity:0.4;"/>
   </g>
   <g id="patch_14">
    <path clip-path="url(#p60404daf0c)" d="M 192.287622 230.4 
L 197.137207 230.4 
L 197.137207 229.241526 
L 192.287622 229.241526 
z
" style="fill:#4c72b0;opacity:0.4;"/>
   </g>
   <g id="patch_15">
    <path clip-path="url(#p60404daf0c)" d="M 197.137207 230.4 
L 201.986793 230.4 
L 201.986793 223.449157 
L 197.137207 223.449157 
z
" style="fill:#4c72b0;opacity:0.4;"/>
   </g>
   <g id="patch_16">
    <path clip-path="url(#p60404daf0c)" d="M 201.986793 230.4 
L 206.836378 230.4 
L 206.836378 222.290683 
L 201.986793 222.290683 
z
" style="fill:#4c72b0;opacity:0.4;"/>
   </g>
   <g id="patch_17">
    <path clip-path="url(#p60404daf0c)" d="M 206.836378 230.4 
L 211.685964 230.4 
L 211.685964 226.924579 
L 206.836378 226.924579 
z
" style="fill:#4c72b0;opacity:0.4;"/>
   </g>
   <g id="patch_18">
    <path clip-path="url(#p60404daf0c)" d="M 211.685964 230.4 
L 216.535549 230.4 
L 216.535549 216.498314 
L 211.685964 216.498314 
z
" style="fill:#4c72b0;opacity:0.4;"/>
   </g>
   <g id="patch_19">
    <path clip-path="url(#p60404daf0c)" d="M 216.535549 230.4 
L 221.385135 230.4 
L 221.385135 213.022893 
L 216.535549 213.022893 
z
" style="fill:#4c72b0;opacity:0.4;"/>
   </g>
   <g id="patch_20">
    <path clip-path="url(#p60404daf0c)" d="M 221.385135 230.4 
L 226.23472 230.4 
L 226.23472 211.864419 
L 221.385135 211.864419 
z
" style="fill:#4c72b0;opacity:0.4;"/>
   </g>
   <g id="patch_21">
    <path clip-path="url(#p60404daf0c)" d="M 226.23472 230.4 
L 231.084305 230.4 
L 231.084305 211.864419 
L 226.23472 211.864419 
z
" style="fill:#4c72b0;opacity:0.4;"/>
   </g>
   <g id="patch_22">
    <path clip-path="url(#p60404daf0c)" d="M 231.084305 230.4 
L 235.933891 230.4 
L 235.933891 200.279681 
L 231.084305 200.279681 
z
" style="fill:#4c72b0;opacity:0.4;"/>
   </g>
   <g id="patch_23">
    <path clip-path="url(#p60404daf0c)" d="M 235.933891 230.4 
L 240.783476 230.4 
L 240.783476 194.487311 
L 235.933891 194.487311 
z
" style="fill:#4c72b0;opacity:0.4;"/>
   </g>
   <g id="patch_24">
    <path clip-path="url(#p60404daf0c)" d="M 240.783476 230.4 
L 245.633062 230.4 
L 245.633062 178.268678 
L 240.783476 178.268678 
z
" style="fill:#4c72b0;opacity:0.4;"/>
   </g>
   <g id="patch_25">
    <path clip-path="url(#p60404daf0c)" d="M 245.633062 230.4 
L 250.482647 230.4 
L 250.482647 178.268678 
L 245.633062 178.268678 
z
" style="fill:#4c72b0;opacity:0.4;"/>
   </g>
   <g id="patch_26">
    <path clip-path="url(#p60404daf0c)" d="M 250.482647 230.4 
L 255.332233 230.4 
L 255.332233 123.820408 
L 250.482647 123.820408 
z
" style="fill:#4c72b0;opacity:0.4;"/>
   </g>
   <g id="patch_27">
    <path clip-path="url(#p60404daf0c)" d="M 255.332233 230.4 
L 260.181818 230.4 
L 260.181818 78.639929 
L 255.332233 78.639929 
z
" style="fill:#4c72b0;opacity:0.4;"/>
   </g>
   <g id="patch_28">
    <path clip-path="url(#p60404daf0c)" d="M 260.181818 230.4 
L 265.031404 230.4 
L 265.031404 43.885714 
L 260.181818 43.885714 
z
" style="fill:#4c72b0;opacity:0.4;"/>
   </g>
   <g id="patch_29">
    <path clip-path="url(#p60404daf0c)" d="M 265.031404 230.4 
L 269.880989 230.4 
L 269.880989 77.481455 
L 265.031404 77.481455 
z
" style="fill:#4c72b0;opacity:0.4;"/>
   </g>
   <g id="patch_30">
    <path clip-path="url(#p60404daf0c)" d="M 269.880989 230.4 
L 274.730575 230.4 
L 274.730575 123.820408 
L 269.880989 123.820408 
z
" style="fill:#4c72b0;opacity:0.4;"/>
   </g>
   <g id="patch_31">
    <path clip-path="url(#p60404daf0c)" d="M 274.730575 230.4 
L 279.58016 230.4 
L 279.58016 101.809406 
L 274.730575 101.809406 
z
" style="fill:#4c72b0;opacity:0.4;"/>
   </g>
   <g id="patch_32">
    <path clip-path="url(#p60404daf0c)" d="M 279.58016 230.4 
L 284.429745 230.4 
L 284.429745 155.099201 
L 279.58016 155.099201 
z
" style="fill:#4c72b0;opacity:0.4;"/>
   </g>
   <g id="patch_33">
    <path clip-path="url(#p60404daf0c)" d="M 284.429745 230.4 
L 289.279331 230.4 
L 289.279331 175.95173 
L 284.429745 175.95173 
z
" style="fill:#4c72b0;opacity:0.4;"/>
   </g>
   <g id="patch_34">
    <path clip-path="url(#p60404daf0c)" d="M 289.279331 230.4 
L 294.128916 230.4 
L 294.128916 193.328838 
L 289.279331 193.328838 
z
" style="fill:#4c72b0;opacity:0.4;"/>
   </g>
   <g id="patch_35">
    <path clip-path="url(#p60404daf0c)" d="M 294.128916 230.4 
L 298.978502 230.4 
L 298.978502 193.328838 
L 294.128916 193.328838 
z
" style="fill:#4c72b0;opacity:0.4;"/>
   </g>
   <g id="patch_36">
    <path clip-path="url(#p60404daf0c)" d="M 298.978502 230.4 
L 303.828087 230.4 
L 303.828087 202.596628 
L 298.978502 202.596628 
z
" style="fill:#4c72b0;opacity:0.4;"/>
   </g>
   <g id="patch_37">
    <path clip-path="url(#p60404daf0c)" d="M 303.828087 230.4 
L 308.677673 230.4 
L 308.677673 208.388997 
L 303.828087 208.388997 
z
" style="fill:#4c72b0;opacity:0.4;"/>
   </g>
   <g id="patch_38">
    <path clip-path="url(#p60404daf0c)" d="M 308.677673 230.4 
L 313.527258 230.4 
L 313.527258 222.290683 
L 308.677673 222.290683 
z
" style="fill:#4c72b0;opacity:0.4;"/>
   </g>
   <g id="patch_39">
    <path clip-path="url(#p60404daf0c)" d="M 313.527258 230.4 
L 318.376844 230.4 
L 318.376844 219.973736 
L 313.527258 219.973736 
z
" style="fill:#4c72b0;opacity:0.4;"/>
   </g>
   <g id="patch_40">
    <path clip-path="url(#p60404daf0c)" d="M 318.376844 230.4 
L 323.226429 230.4 
L 323.226429 224.607631 
L 318.376844 224.607631 
z
" style="fill:#4c72b0;opacity:0.4;"/>
   </g>
   <g id="patch_41">
    <path clip-path="url(#p60404daf0c)" d="M 323.226429 230.4 
L 328.076014 230.4 
L 328.076014 226.924579 
L 323.226429 226.924579 
z
" style="fill:#4c72b0;opacity:0.4;"/>
   </g>
   <g id="patch_42">
    <path clip-path="url(#p60404daf0c)" d="M 328.076014 230.4 
L 332.9256 230.4 
L 332.9256 228.083052 
L 328.076014 228.083052 
z
" style="fill:#4c72b0;opacity:0.4;"/>
   </g>
   <g id="patch_43">
    <path clip-path="url(#p60404daf0c)" d="M 332.9256 230.4 
L 337.775185 230.4 
L 337.775185 226.924579 
L 332.9256 226.924579 
z
" style="fill:#4c72b0;opacity:0.4;"/>
   </g>
   <g id="patch_44">
    <path clip-path="url(#p60404daf0c)" d="M 337.775185 230.4 
L 342.624771 230.4 
L 342.624771 226.924579 
L 337.775185 226.924579 
z
" style="fill:#4c72b0;opacity:0.4;"/>
   </g>
   <g id="patch_45">
    <path clip-path="url(#p60404daf0c)" d="M 342.624771 230.4 
L 347.474356 230.4 
L 347.474356 230.4 
L 342.624771 230.4 
z
" style="fill:#4c72b0;opacity:0.4;"/>
   </g>
   <g id="patch_46">
    <path clip-path="url(#p60404daf0c)" d="M 347.474356 230.4 
L 352.323942 230.4 
L 352.323942 230.4 
L 347.474356 230.4 
z
" style="fill:#4c72b0;opacity:0.4;"/>
   </g>
   <g id="patch_47">
    <path clip-path="url(#p60404daf0c)" d="M 352.323942 230.4 
L 357.173527 230.4 
L 357.173527 230.4 
L 352.323942 230.4 
z
" style="fill:#4c72b0;opacity:0.4;"/>
   </g>
   <g id="patch_48">
    <path clip-path="url(#p60404daf0c)" d="M 357.173527 230.4 
L 362.023113 230.4 
L 362.023113 230.4 
L 357.173527 230.4 
z
" style="fill:#4c72b0;opacity:0.4;"/>
   </g>
   <g id="patch_49">
    <path clip-path="url(#p60404daf0c)" d="M 362.023113 230.4 
L 366.872698 230.4 
L 366.872698 230.4 
L 362.023113 230.4 
z
" style="fill:#4c72b0;opacity:0.4;"/>
   </g>
   <g id="patch_50">
    <path clip-path="url(#p60404daf0c)" d="M 366.872698 230.4 
L 371.722284 230.4 
L 371.722284 230.4 
L 366.872698 230.4 
z
" style="fill:#4c72b0;opacity:0.4;"/>
   </g>
   <g id="patch_51">
    <path clip-path="url(#p60404daf0c)" d="M 371.722284 230.4 
L 376.571869 230.4 
L 376.571869 230.4 
L 371.722284 230.4 
z
" style="fill:#4c72b0;opacity:0.4;"/>
   </g>
   <g id="patch_52">
    <path clip-path="url(#p60404daf0c)" d="M 376.571869 230.4 
L 381.421454 230.4 
L 381.421454 229.241526 
L 376.571869 229.241526 
z
" style="fill:#4c72b0;opacity:0.4;"/>
   </g>
   <g id="line2d_29">
    <path clip-path="url(#p60404daf0c)" d="M 121.834711 230.399999 
L 176.061215 230.302552 
L 184.403754 230.053307 
L 189.965447 229.64642 
L 194.136717 229.099447 
L 196.917563 228.561088 
L 199.698409 227.835867 
L 202.479256 226.874122 
L 205.260102 225.618756 
L 208.040949 224.006164 
L 210.821795 221.96803 
L 213.602641 219.43412 
L 216.383488 216.336129 
L 219.164334 212.61257 
L 221.94518 208.214538 
L 224.726027 203.112063 
L 227.506873 197.30062 
L 230.28772 190.807224 
L 233.068566 183.695472 
L 237.239836 172.105973 
L 248.363221 140.087625 
L 251.144067 133.092702 
L 253.924914 127.00715 
L 255.315337 124.378692 
L 256.70576 122.061569 
L 258.096183 120.07888 
L 259.486607 118.450665 
L 260.87703 117.193566 
L 262.267453 116.320546 
L 263.657876 115.840662 
L 265.048299 115.758914 
L 266.438723 116.076155 
L 267.829146 116.789077 
L 269.219569 117.890268 
L 270.609992 119.368342 
L 272.000415 121.208131 
L 273.390838 123.390951 
L 274.781262 125.894909 
L 276.171685 128.695276 
L 278.952531 135.074589 
L 281.733378 142.290409 
L 285.904647 154.122675 
L 294.247186 178.366644 
L 297.028033 185.854431 
L 299.808879 192.792529 
L 302.589725 199.089451 
L 305.370572 204.692835 
L 308.151418 209.585565 
L 310.932265 213.780345 
L 313.713111 217.313415 
L 316.493957 220.238038 
L 319.274804 222.618277 
L 322.05565 224.52347 
L 324.836497 226.02364 
L 327.617343 227.185954 
L 330.398189 228.072241 
L 333.179036 228.737465 
L 337.350305 229.422378 
L 341.521575 229.842877 
L 347.083268 230.149309 
L 355.425807 230.331841 
L 372.110885 230.396542 
L 398.528926 230.399989 
L 398.528926 230.399989 
" style="fill:none;stroke:#282828;stroke-linecap:round;stroke-width:1.75;"/>
   </g>
   <g id="patch_53">
    <path d="M 108 230.4 
L 108 34.56 
" style="fill:none;"/>
   </g>
   <g id="patch_54">
    <path d="M 412.363636 230.4 
L 412.363636 34.56 
" style="fill:none;"/>
   </g>
   <g id="patch_55">
    <path d="M 108 230.4 
L 412.363636 230.4 
" style="fill:none;"/>
   </g>
   <g id="patch_56">
    <path d="M 108 34.56 
L 412.363636 34.56 
" style="fill:none;"/>
   </g>
  </g>
  <g id="axes_2">
   <g id="patch_57">
    <path d="M 473.236364 230.4 
L 777.6 230.4 
L 777.6 34.56 
L 473.236364 34.56 
z
" style="fill:#eaeaf2;"/>
   </g>
   <g id="matplotlib.axis_3">
    <g id="xtick_6">
     <g id="line2d_30">
      <path clip-path="url(#pd7919d642d)" d="M 483.358549 230.4 
L 483.358549 34.56 
" style="fill:none;stroke:#ffffff;stroke-linecap:round;"/>
     </g>
     <g id="line2d_31"/>
     <g id="text_16">
      <!-- 2013-03 -->
      <defs>
       <path d="M 4.4375 22.65625 
L 4.4375 30.46875 
L 28.859375 30.46875 
L 28.859375 22.65625 
z
" id="LiberationSans-2d"/>
      </defs>
      <g style="fill:#262626;" transform="translate(450.541976 262.023634)rotate(-30)scale(0.1 -0.1)">
       <use xlink:href="#LiberationSans-32"/>
       <use x="55.615234" xlink:href="#LiberationSans-30"/>
       <use x="111.230469" xlink:href="#LiberationSans-31"/>
       <use x="166.845703" xlink:href="#LiberationSans-33"/>
       <use x="222.460938" xlink:href="#LiberationSans-2d"/>
       <use x="255.761719" xlink:href="#LiberationSans-30"/>
       <use x="311.376953" xlink:href="#LiberationSans-33"/>
      </g>
     </g>
    </g>
    <g id="xtick_7">
     <g id="line2d_32">
      <path clip-path="url(#pd7919d642d)" d="M 515.470309 230.4 
L 515.470309 34.56 
" style="fill:none;stroke:#ffffff;stroke-linecap:round;"/>
     </g>
     <g id="line2d_33"/>
     <g id="text_17">
      <!-- 2013-09 -->
      <defs>
       <path d="M 50.875 35.796875 
Q 50.875 26.609375 49.140625 19.703125 
Q 47.40625 12.796875 44.1875 8.203125 
Q 40.96875 3.609375 36.34375 1.3125 
Q 31.734375 -0.984375 25.984375 -0.984375 
Q 22.015625 -0.984375 18.84375 -0.171875 
Q 15.671875 0.640625 13.171875 2.34375 
Q 10.6875 4.046875 8.921875 6.78125 
Q 7.171875 9.515625 6.109375 13.375 
L 14.5 14.703125 
Q 15.875 10.25 18.78125 8.171875 
Q 21.6875 6.109375 26.125 6.109375 
Q 29.6875 6.109375 32.640625 7.78125 
Q 35.59375 9.46875 37.671875 12.84375 
Q 39.75 16.21875 40.921875 21.296875 
Q 42.09375 26.375 42.1875 33.203125 
Q 41.15625 30.90625 39.375 29.09375 
Q 37.59375 27.296875 35.328125 26.046875 
Q 33.0625 24.8125 30.421875 24.140625 
Q 27.78125 23.484375 25.09375 23.484375 
Q 20.40625 23.484375 16.625 25.171875 
Q 12.84375 26.859375 10.203125 29.875 
Q 7.5625 32.90625 6.125 37.171875 
Q 4.6875 41.453125 4.6875 46.6875 
Q 4.6875 52 6.21875 56.296875 
Q 7.765625 60.59375 10.6875 63.59375 
Q 13.625 66.609375 17.890625 68.21875 
Q 22.171875 69.828125 27.59375 69.828125 
Q 39.0625 69.828125 44.96875 61.328125 
Q 50.875 52.828125 50.875 35.796875 
z
M 41.3125 44.28125 
Q 41.3125 48.09375 40.40625 51.453125 
Q 39.5 54.828125 37.71875 57.3125 
Q 35.9375 59.8125 33.328125 61.25 
Q 30.71875 62.703125 27.296875 62.703125 
Q 24.125 62.703125 21.578125 61.578125 
Q 19.046875 60.453125 17.28125 58.375 
Q 15.53125 56.296875 14.578125 53.3125 
Q 13.625 50.34375 13.625 46.6875 
Q 13.625 43.21875 14.46875 40.234375 
Q 15.328125 37.25 17.03125 35.078125 
Q 18.75 32.90625 21.28125 31.65625 
Q 23.828125 30.421875 27.203125 30.421875 
Q 29.640625 30.421875 32.15625 31.25 
Q 34.671875 32.078125 36.6875 33.78125 
Q 38.71875 35.5 40.015625 38.109375 
Q 41.3125 40.71875 41.3125 44.28125 
z
" id="LiberationSans-39"/>
      </defs>
      <g style="fill:#262626;" transform="translate(482.653736 262.023634)rotate(-30)scale(0.1 -0.1)">
       <use xlink:href="#LiberationSans-32"/>
       <use x="55.615234" xlink:href="#LiberationSans-30"/>
       <use x="111.230469" xlink:href="#LiberationSans-31"/>
       <use x="166.845703" xlink:href="#LiberationSans-33"/>
       <use x="222.460938" xlink:href="#LiberationSans-2d"/>
       <use x="255.761719" xlink:href="#LiberationSans-30"/>
       <use x="311.376953" xlink:href="#LiberationSans-39"/>
      </g>
     </g>
    </g>
    <g id="xtick_8">
     <g id="line2d_34">
      <path clip-path="url(#pd7919d642d)" d="M 547.058507 230.4 
L 547.058507 34.56 
" style="fill:none;stroke:#ffffff;stroke-linecap:round;"/>
     </g>
     <g id="line2d_35"/>
     <g id="text_18">
      <!-- 2014-03 -->
      <g style="fill:#262626;" transform="translate(514.241934 262.023634)rotate(-30)scale(0.1 -0.1)">
       <use xlink:href="#LiberationSans-32"/>
       <use x="55.615234" xlink:href="#LiberationSans-30"/>
       <use x="111.230469" xlink:href="#LiberationSans-31"/>
       <use x="166.845703" xlink:href="#LiberationSans-34"/>
       <use x="222.460938" xlink:href="#LiberationSans-2d"/>
       <use x="255.761719" xlink:href="#LiberationSans-30"/>
       <use x="311.376953" xlink:href="#LiberationSans-33"/>
      </g>
     </g>
    </g>
    <g id="xtick_9">
     <g id="line2d_36">
      <path clip-path="url(#pd7919d642d)" d="M 579.170267 230.4 
L 579.170267 34.56 
" style="fill:none;stroke:#ffffff;stroke-linecap:round;"/>
     </g>
     <g id="line2d_37"/>
     <g id="text_19">
      <!-- 2014-09 -->
      <g style="fill:#262626;" transform="translate(546.353694 262.023634)rotate(-30)scale(0.1 -0.1)">
       <use xlink:href="#LiberationSans-32"/>
       <use x="55.615234" xlink:href="#LiberationSans-30"/>
       <use x="111.230469" xlink:href="#LiberationSans-31"/>
       <use x="166.845703" xlink:href="#LiberationSans-34"/>
       <use x="222.460938" xlink:href="#LiberationSans-2d"/>
       <use x="255.761719" xlink:href="#LiberationSans-30"/>
       <use x="311.376953" xlink:href="#LiberationSans-39"/>
      </g>
     </g>
    </g>
    <g id="xtick_10">
     <g id="line2d_38">
      <path clip-path="url(#pd7919d642d)" d="M 610.758465 230.4 
L 610.758465 34.56 
" style="fill:none;stroke:#ffffff;stroke-linecap:round;"/>
     </g>
     <g id="line2d_39"/>
     <g id="text_20">
      <!-- 2015-03 -->
      <g style="fill:#262626;" transform="translate(577.941893 262.023634)rotate(-30)scale(0.1 -0.1)">
       <use xlink:href="#LiberationSans-32"/>
       <use x="55.615234" xlink:href="#LiberationSans-30"/>
       <use x="111.230469" xlink:href="#LiberationSans-31"/>
       <use x="166.845703" xlink:href="#LiberationSans-35"/>
       <use x="222.460938" xlink:href="#LiberationSans-2d"/>
       <use x="255.761719" xlink:href="#LiberationSans-30"/>
       <use x="311.376953" xlink:href="#LiberationSans-33"/>
      </g>
     </g>
    </g>
    <g id="xtick_11">
     <g id="line2d_40">
      <path clip-path="url(#pd7919d642d)" d="M 642.870225 230.4 
L 642.870225 34.56 
" style="fill:none;stroke:#ffffff;stroke-linecap:round;"/>
     </g>
     <g id="line2d_41"/>
     <g id="text_21">
      <!-- 2015-09 -->
      <g style="fill:#262626;" transform="translate(610.053652 262.023634)rotate(-30)scale(0.1 -0.1)">
       <use xlink:href="#LiberationSans-32"/>
       <use x="55.615234" xlink:href="#LiberationSans-30"/>
       <use x="111.230469" xlink:href="#LiberationSans-31"/>
       <use x="166.845703" xlink:href="#LiberationSans-35"/>
       <use x="222.460938" xlink:href="#LiberationSans-2d"/>
       <use x="255.761719" xlink:href="#LiberationSans-30"/>
       <use x="311.376953" xlink:href="#LiberationSans-39"/>
      </g>
     </g>
    </g>
    <g id="xtick_12">
     <g id="line2d_42">
      <path clip-path="url(#pd7919d642d)" d="M 674.632944 230.4 
L 674.632944 34.56 
" style="fill:none;stroke:#ffffff;stroke-linecap:round;"/>
     </g>
     <g id="line2d_43"/>
     <g id="text_22">
      <!-- 2016-03 -->
      <g style="fill:#262626;" transform="translate(641.816371 262.023634)rotate(-30)scale(0.1 -0.1)">
       <use xlink:href="#LiberationSans-32"/>
       <use x="55.615234" xlink:href="#LiberationSans-30"/>
       <use x="111.230469" xlink:href="#LiberationSans-31"/>
       <use x="166.845703" xlink:href="#LiberationSans-36"/>
       <use x="222.460938" xlink:href="#LiberationSans-2d"/>
       <use x="255.761719" xlink:href="#LiberationSans-30"/>
       <use x="311.376953" xlink:href="#LiberationSans-33"/>
      </g>
     </g>
    </g>
    <g id="xtick_13">
     <g id="line2d_44">
      <path clip-path="url(#pd7919d642d)" d="M 706.744704 230.4 
L 706.744704 34.56 
" style="fill:none;stroke:#ffffff;stroke-linecap:round;"/>
     </g>
     <g id="line2d_45"/>
     <g id="text_23">
      <!-- 2016-09 -->
      <g style="fill:#262626;" transform="translate(673.928131 262.023634)rotate(-30)scale(0.1 -0.1)">
       <use xlink:href="#LiberationSans-32"/>
       <use x="55.615234" xlink:href="#LiberationSans-30"/>
       <use x="111.230469" xlink:href="#LiberationSans-31"/>
       <use x="166.845703" xlink:href="#LiberationSans-36"/>
       <use x="222.460938" xlink:href="#LiberationSans-2d"/>
       <use x="255.761719" xlink:href="#LiberationSans-30"/>
       <use x="311.376953" xlink:href="#LiberationSans-39"/>
      </g>
     </g>
    </g>
    <g id="xtick_14">
     <g id="line2d_46">
      <path clip-path="url(#pd7919d642d)" d="M 738.332902 230.4 
L 738.332902 34.56 
" style="fill:none;stroke:#ffffff;stroke-linecap:round;"/>
     </g>
     <g id="line2d_47"/>
     <g id="text_24">
      <!-- 2017-03 -->
      <g style="fill:#262626;" transform="translate(705.51633 262.023634)rotate(-30)scale(0.1 -0.1)">
       <use xlink:href="#LiberationSans-32"/>
       <use x="55.615234" xlink:href="#LiberationSans-30"/>
       <use x="111.230469" xlink:href="#LiberationSans-31"/>
       <use x="166.845703" xlink:href="#LiberationSans-37"/>
       <use x="222.460938" xlink:href="#LiberationSans-2d"/>
       <use x="255.761719" xlink:href="#LiberationSans-30"/>
       <use x="311.376953" xlink:href="#LiberationSans-33"/>
      </g>
     </g>
    </g>
    <g id="xtick_15">
     <g id="line2d_48">
      <path clip-path="url(#pd7919d642d)" d="M 770.444662 230.4 
L 770.444662 34.56 
" style="fill:none;stroke:#ffffff;stroke-linecap:round;"/>
     </g>
     <g id="line2d_49"/>
     <g id="text_25">
      <!-- 2017-09 -->
      <g style="fill:#262626;" transform="translate(737.628089 262.023634)rotate(-30)scale(0.1 -0.1)">
       <use xlink:href="#LiberationSans-32"/>
       <use x="55.615234" xlink:href="#LiberationSans-30"/>
       <use x="111.230469" xlink:href="#LiberationSans-31"/>
       <use x="166.845703" xlink:href="#LiberationSans-37"/>
       <use x="222.460938" xlink:href="#LiberationSans-2d"/>
       <use x="255.761719" xlink:href="#LiberationSans-30"/>
       <use x="311.376953" xlink:href="#LiberationSans-39"/>
      </g>
     </g>
    </g>
    <g id="text_26">
     <!-- Date -->
     <defs>
      <path d="M 67.4375 35.109375 
Q 67.4375 26.515625 64.84375 19.9375 
Q 62.25 13.375 57.75 8.953125 
Q 53.265625 4.546875 47.140625 2.265625 
Q 41.015625 0 33.9375 0 
L 8.203125 0 
L 8.203125 68.796875 
L 30.953125 68.796875 
Q 38.921875 68.796875 45.625 66.8125 
Q 52.34375 64.84375 57.171875 60.71875 
Q 62.015625 56.59375 64.71875 50.234375 
Q 67.4375 43.890625 67.4375 35.109375 
z
M 58.0625 35.109375 
Q 58.0625 42.09375 56.046875 47.046875 
Q 54.046875 52 50.4375 55.171875 
Q 46.828125 58.34375 41.796875 59.828125 
Q 36.765625 61.328125 30.765625 61.328125 
L 17.53125 61.328125 
L 17.53125 7.46875 
L 32.859375 7.46875 
Q 38.28125 7.46875 42.890625 9.21875 
Q 47.515625 10.984375 50.875 14.453125 
Q 54.25 17.921875 56.15625 23.09375 
Q 58.0625 28.265625 58.0625 35.109375 
z
" id="LiberationSans-44"/>
      <path d="M 20.21875 -0.984375 
Q 12.25 -0.984375 8.25 3.21875 
Q 4.25 7.421875 4.25 14.75 
Q 4.25 19.96875 6.21875 23.3125 
Q 8.203125 26.65625 11.390625 28.5625 
Q 14.59375 30.46875 18.6875 31.203125 
Q 22.796875 31.9375 27.046875 32.03125 
L 38.921875 32.234375 
L 38.921875 35.109375 
Q 38.921875 38.375 38.234375 40.671875 
Q 37.546875 42.96875 36.125 44.375 
Q 34.71875 45.796875 32.59375 46.453125 
Q 30.46875 47.125 27.59375 47.125 
Q 25.046875 47.125 23 46.75 
Q 20.953125 46.390625 19.4375 45.4375 
Q 17.921875 44.484375 16.984375 42.84375 
Q 16.0625 41.21875 15.765625 38.71875 
L 6.59375 39.546875 
Q 7.078125 42.671875 8.4375 45.28125 
Q 9.8125 47.90625 12.328125 49.796875 
Q 14.84375 51.703125 18.625 52.75 
Q 22.40625 53.8125 27.78125 53.8125 
Q 37.75 53.8125 42.765625 49.234375 
Q 47.796875 44.671875 47.796875 36.03125 
L 47.796875 13.28125 
Q 47.796875 9.375 48.828125 7.390625 
Q 49.859375 5.421875 52.734375 5.421875 
Q 53.46875 5.421875 54.203125 5.515625 
Q 54.9375 5.609375 55.609375 5.765625 
L 55.609375 0.296875 
Q 53.953125 -0.09375 52.3125 -0.28125 
Q 50.6875 -0.484375 48.828125 -0.484375 
Q 46.34375 -0.484375 44.5625 0.171875 
Q 42.78125 0.828125 41.65625 2.171875 
Q 40.53125 3.515625 39.9375 5.484375 
Q 39.359375 7.46875 39.203125 10.109375 
L 38.921875 10.109375 
Q 37.5 7.5625 35.8125 5.515625 
Q 34.125 3.46875 31.875 2.03125 
Q 29.640625 0.59375 26.78125 -0.1875 
Q 23.921875 -0.984375 20.21875 -0.984375 
z
M 22.21875 5.609375 
Q 26.421875 5.609375 29.5625 7.140625 
Q 32.71875 8.6875 34.78125 11.078125 
Q 36.859375 13.484375 37.890625 16.3125 
Q 38.921875 19.140625 38.921875 21.734375 
L 38.921875 26.078125 
L 29.296875 25.875 
Q 26.078125 25.828125 23.171875 25.40625 
Q 20.265625 25 18.0625 23.78125 
Q 15.875 22.5625 14.578125 20.359375 
Q 13.28125 18.171875 13.28125 14.59375 
Q 13.28125 10.296875 15.59375 7.953125 
Q 17.921875 5.609375 22.21875 5.609375 
z
" id="LiberationSans-61"/>
     </defs>
     <g style="fill:#262626;" transform="translate(613.801151 275.792199)scale(0.11 -0.11)">
      <use xlink:href="#LiberationSans-44"/>
      <use x="72.216797" xlink:href="#LiberationSans-61"/>
      <use x="127.832031" xlink:href="#LiberationSans-74"/>
      <use x="155.615234" xlink:href="#LiberationSans-65"/>
     </g>
    </g>
   </g>
   <g id="matplotlib.axis_4">
    <g id="ytick_10">
     <g id="line2d_50">
      <path clip-path="url(#pd7919d642d)" d="M 473.236364 221.018647 
L 777.6 221.018647 
" style="fill:none;stroke:#ffffff;stroke-linecap:round;"/>
     </g>
     <g id="line2d_51"/>
     <g id="text_27">
      <!-- −0.04 -->
      <g style="fill:#262626;" transform="translate(440.934801 224.642084)scale(0.1 -0.1)">
       <use xlink:href="#LiberationSans-2212"/>
       <use x="58.398438" xlink:href="#LiberationSans-30"/>
       <use x="114.013672" xlink:href="#LiberationSans-2e"/>
       <use x="141.796875" xlink:href="#LiberationSans-30"/>
       <use x="197.412109" xlink:href="#LiberationSans-34"/>
      </g>
     </g>
    </g>
    <g id="ytick_11">
     <g id="line2d_52">
      <path clip-path="url(#pd7919d642d)" d="M 473.236364 198.339648 
L 777.6 198.339648 
" style="fill:none;stroke:#ffffff;stroke-linecap:round;"/>
     </g>
     <g id="line2d_53"/>
     <g id="text_28">
      <!-- −0.03 -->
      <g style="fill:#262626;" transform="translate(440.934801 201.963086)scale(0.1 -0.1)">
       <use xlink:href="#LiberationSans-2212"/>
       <use x="58.398438" xlink:href="#LiberationSans-30"/>
       <use x="114.013672" xlink:href="#LiberationSans-2e"/>
       <use x="141.796875" xlink:href="#LiberationSans-30"/>
       <use x="197.412109" xlink:href="#LiberationSans-33"/>
      </g>
     </g>
    </g>
    <g id="ytick_12">
     <g id="line2d_54">
      <path clip-path="url(#pd7919d642d)" d="M 473.236364 175.660649 
L 777.6 175.660649 
" style="fill:none;stroke:#ffffff;stroke-linecap:round;"/>
     </g>
     <g id="line2d_55"/>
     <g id="text_29">
      <!-- −0.02 -->
      <g style="fill:#262626;" transform="translate(440.934801 179.284087)scale(0.1 -0.1)">
       <use xlink:href="#LiberationSans-2212"/>
       <use x="58.398438" xlink:href="#LiberationSans-30"/>
       <use x="114.013672" xlink:href="#LiberationSans-2e"/>
       <use x="141.796875" xlink:href="#LiberationSans-30"/>
       <use x="197.412109" xlink:href="#LiberationSans-32"/>
      </g>
     </g>
    </g>
    <g id="ytick_13">
     <g id="line2d_56">
      <path clip-path="url(#pd7919d642d)" d="M 473.236364 152.981651 
L 777.6 152.981651 
" style="fill:none;stroke:#ffffff;stroke-linecap:round;"/>
     </g>
     <g id="line2d_57"/>
     <g id="text_30">
      <!-- −0.01 -->
      <g style="fill:#262626;" transform="translate(440.934801 156.605088)scale(0.1 -0.1)">
       <use xlink:href="#LiberationSans-2212"/>
       <use x="58.398438" xlink:href="#LiberationSans-30"/>
       <use x="114.013672" xlink:href="#LiberationSans-2e"/>
       <use x="141.796875" xlink:href="#LiberationSans-30"/>
       <use x="197.412109" xlink:href="#LiberationSans-31"/>
      </g>
     </g>
    </g>
    <g id="ytick_14">
     <g id="line2d_58">
      <path clip-path="url(#pd7919d642d)" d="M 473.236364 130.302652 
L 777.6 130.302652 
" style="fill:none;stroke:#ffffff;stroke-linecap:round;"/>
     </g>
     <g id="line2d_59"/>
     <g id="text_31">
      <!-- 0.00 -->
      <g style="fill:#262626;" transform="translate(446.775426 133.926089)scale(0.1 -0.1)">
       <use xlink:href="#LiberationSans-30"/>
       <use x="55.615234" xlink:href="#LiberationSans-2e"/>
       <use x="83.398438" xlink:href="#LiberationSans-30"/>
       <use x="139.013672" xlink:href="#LiberationSans-30"/>
      </g>
     </g>
    </g>
    <g id="ytick_15">
     <g id="line2d_60">
      <path clip-path="url(#pd7919d642d)" d="M 473.236364 107.623653 
L 777.6 107.623653 
" style="fill:none;stroke:#ffffff;stroke-linecap:round;"/>
     </g>
     <g id="line2d_61"/>
     <g id="text_32">
      <!-- 0.01 -->
      <g style="fill:#262626;" transform="translate(446.775426 111.247091)scale(0.1 -0.1)">
       <use xlink:href="#LiberationSans-30"/>
       <use x="55.615234" xlink:href="#LiberationSans-2e"/>
       <use x="83.398438" xlink:href="#LiberationSans-30"/>
       <use x="139.013672" xlink:href="#LiberationSans-31"/>
      </g>
     </g>
    </g>
    <g id="ytick_16">
     <g id="line2d_62">
      <path clip-path="url(#pd7919d642d)" d="M 473.236364 84.944655 
L 777.6 84.944655 
" style="fill:none;stroke:#ffffff;stroke-linecap:round;"/>
     </g>
     <g id="line2d_63"/>
     <g id="text_33">
      <!-- 0.02 -->
      <g style="fill:#262626;" transform="translate(446.775426 88.568092)scale(0.1 -0.1)">
       <use xlink:href="#LiberationSans-30"/>
       <use x="55.615234" xlink:href="#LiberationSans-2e"/>
       <use x="83.398438" xlink:href="#LiberationSans-30"/>
       <use x="139.013672" xlink:href="#LiberationSans-32"/>
      </g>
     </g>
    </g>
    <g id="ytick_17">
     <g id="line2d_64">
      <path clip-path="url(#pd7919d642d)" d="M 473.236364 62.265656 
L 777.6 62.265656 
" style="fill:none;stroke:#ffffff;stroke-linecap:round;"/>
     </g>
     <g id="line2d_65"/>
     <g id="text_34">
      <!-- 0.03 -->
      <g style="fill:#262626;" transform="translate(446.775426 65.889093)scale(0.1 -0.1)">
       <use xlink:href="#LiberationSans-30"/>
       <use x="55.615234" xlink:href="#LiberationSans-2e"/>
       <use x="83.398438" xlink:href="#LiberationSans-30"/>
       <use x="139.013672" xlink:href="#LiberationSans-33"/>
      </g>
     </g>
    </g>
    <g id="ytick_18">
     <g id="line2d_66">
      <path clip-path="url(#pd7919d642d)" d="M 473.236364 39.586657 
L 777.6 39.586657 
" style="fill:none;stroke:#ffffff;stroke-linecap:round;"/>
     </g>
     <g id="line2d_67"/>
     <g id="text_35">
      <!-- 0.04 -->
      <g style="fill:#262626;" transform="translate(446.775426 43.210095)scale(0.1 -0.1)">
       <use xlink:href="#LiberationSans-30"/>
       <use x="55.615234" xlink:href="#LiberationSans-2e"/>
       <use x="83.398438" xlink:href="#LiberationSans-30"/>
       <use x="139.013672" xlink:href="#LiberationSans-34"/>
      </g>
     </g>
    </g>
   </g>
   <g id="line2d_68">
    <path clip-path="url(#pd7919d642d)" d="M 473.236364 73.409852 
L 473.410884 135.037563 
L 473.585405 119.295853 
L 474.108966 137.39665 
L 474.283486 137.667974 
L 474.632527 113.137599 
L 474.807048 130.410411 
L 475.330609 132.414304 
L 475.505129 127.744386 
L 475.67965 129.855938 
L 475.85417 117.541043 
L 476.028691 122.59748 
L 476.726772 120.282317 
L 477.075813 130.287652 
L 477.250334 117.986348 
L 477.773895 134.501292 
L 477.948415 118.75223 
L 478.122936 139.163892 
L 478.297456 136.123426 
L 478.471977 107.617953 
L 478.995538 156.623518 
L 479.170058 106.80124 
L 479.344579 129.05753 
L 479.519099 134.400817 
L 479.69362 117.507173 
L 480.217181 131.677683 
L 480.391701 126.687617 
L 480.566222 128.959857 
L 480.740742 128.736818 
L 480.915263 132.674031 
L 481.613344 113.724997 
L 481.787865 158.609923 
L 481.962385 144.642595 
L 482.136906 110.49433 
L 482.660467 172.211799 
L 482.834987 116.489154 
L 483.009508 101.623472 
L 483.184028 132.263145 
L 483.358549 125.038495 
L 483.88211 119.870026 
L 484.056631 108.710993 
L 484.231151 127.844418 
L 484.405671 126.186768 
L 484.580192 120.16258 
L 485.103753 122.945996 
L 485.278274 135.75955 
L 485.627314 117.631098 
L 485.801835 133.976136 
L 486.325396 142.834091 
L 486.499917 135.803375 
L 486.674437 115.164049 
L 486.848957 149.164602 
L 487.023478 114.090243 
L 487.547039 137.890205 
L 487.72156 112.715171 
L 487.89608 131.637363 
L 488.070601 121.121144 
L 488.768682 140.471045 
L 488.943203 118.602707 
L 489.117723 154.347229 
L 489.292244 121.139704 
L 489.466764 140.064022 
L 489.990325 116.053531 
L 490.164846 122.278673 
L 490.339366 102.82604 
L 490.688407 136.745297 
L 491.211968 182.995321 
L 491.386489 98.085227 
L 491.561009 163.031426 
L 491.73553 145.551005 
L 491.91005 110.324746 
L 492.433611 119.755107 
L 492.608132 106.795161 
L 492.782652 130.288273 
L 492.957173 121.170693 
L 493.131693 134.484233 
L 493.655254 114.063774 
L 493.829775 124.674138 
L 494.004295 151.510855 
L 494.178816 109.066028 
L 494.353336 106.53605 
L 494.876897 125.980123 
L 495.051418 118.471837 
L 495.225938 120.935004 
L 495.400459 138.680088 
L 495.574979 120.522688 
L 496.09854 130.205384 
L 496.273061 107.417123 
L 496.447581 118.733861 
L 496.622102 141.692797 
L 496.796622 107.062548 
L 497.320183 131.908027 
L 497.494704 126.399813 
L 497.669224 149.144532 
L 498.018265 131.553438 
L 498.716347 115.967343 
L 498.890867 146.343364 
L 499.065388 121.993917 
L 499.239908 162.984398 
L 499.76347 116.880223 
L 500.11251 161.771021 
L 500.287031 111.128795 
L 500.461551 101.387123 
L 500.985113 131.089326 
L 501.159633 153.44717 
L 501.334153 149.363844 
L 501.508674 97.018798 
L 501.683194 143.688707 
L 502.206756 113.205236 
L 502.381276 112.701563 
L 502.730317 187.744983 
L 502.904837 124.255933 
L 503.428399 158.014957 
L 503.602919 108.865428 
L 503.77744 108.656024 
L 503.95196 116.285464 
L 504.12648 140.051875 
L 504.650042 118.080486 
L 504.824562 131.538786 
L 504.999083 128.434565 
L 505.348123 107.283364 
L 505.871685 118.423835 
L 506.046205 113.965468 
L 506.220726 129.890856 
L 506.395246 99.769433 
L 506.569766 123.313598 
L 507.093328 127.186704 
L 507.267848 138.729386 
L 507.442369 124.020101 
L 507.616889 118.91702 
L 507.79141 126.654155 
L 508.314971 125.696633 
L 508.664012 138.962635 
L 508.838532 124.512227 
L 509.536614 138.791478 
L 509.711134 129.455031 
L 509.885655 130.612036 
L 510.060175 102.038749 
L 510.234696 126.585305 
L 510.758257 133.661255 
L 510.932777 143.319202 
L 511.107298 138.950439 
L 511.281818 121.507916 
L 511.456339 138.413451 
L 511.9799 132.918869 
L 512.15442 124.015558 
L 512.503461 162.925406 
L 512.677982 137.809554 
L 513.201543 143.723579 
L 513.376063 121.653079 
L 513.550584 143.448238 
L 513.725104 110.838534 
L 513.899625 121.368846 
L 514.423186 139.482746 
L 514.597706 166.592541 
L 514.772227 124.079812 
L 514.946747 125.854219 
L 515.121268 137.513138 
L 515.819349 120.878223 
L 515.99387 111.968524 
L 516.16839 127.560463 
L 516.342911 130.179211 
L 516.866472 107.752284 
L 517.215513 123.390921 
L 517.390033 137.982083 
L 517.564554 124.154372 
L 518.088115 117.427765 
L 518.262636 120.757357 
L 518.437156 102.851716 
L 518.786197 146.729174 
L 519.309758 141.031539 
L 519.484279 136.200375 
L 519.658799 136.524011 
L 519.833319 122.411799 
L 520.00784 139.560495 
L 520.531401 144.017731 
L 520.705922 112.234918 
L 521.054962 150.759047 
L 521.229483 114.362793 
L 521.927565 158.444454 
L 522.276606 81.32594 
L 522.451126 116.090641 
L 522.974687 121.08037 
L 523.149208 146.379317 
L 523.323728 99.158027 
L 523.498249 115.059384 
L 523.672769 115.499149 
L 524.19633 130.094613 
L 524.370851 117.327733 
L 524.545371 141.042866 
L 524.719892 122.92554 
L 524.894412 120.357424 
L 525.417973 127.28903 
L 525.592494 117.673486 
L 525.767014 141.387805 
L 525.941535 139.026743 
L 526.116055 123.727523 
L 526.639616 122.219405 
L 526.814137 136.674387 
L 526.988657 120.649408 
L 527.163178 160.398672 
L 527.337698 100.05293 
L 528.03578 135.684845 
L 528.2103 112.017136 
L 528.384821 119.358682 
L 528.559341 120.747658 
L 529.082902 138.705341 
L 529.257423 134.940632 
L 529.431943 138.562879 
L 529.606464 111.942402 
L 529.780984 119.078384 
L 530.304545 133.169598 
L 530.479066 129.962935 
L 530.653586 124.673728 
L 531.002627 132.085217 
L 531.700709 137.555296 
L 531.875229 133.260771 
L 532.04975 140.165785 
L 532.22427 104.958428 
L 532.922352 137.525289 
L 533.096872 156.114522 
L 533.445913 130.532652 
L 533.969475 116.014537 
L 534.143995 137.346309 
L 534.318515 92.857571 
L 534.493036 131.618254 
L 534.667556 119.400506 
L 535.191118 118.273645 
L 535.365638 123.699652 
L 535.714679 119.565722 
L 535.889199 131.066121 
L 536.412761 130.709218 
L 536.587281 121.340238 
L 536.936322 150.490166 
L 537.110842 131.057909 
L 537.634404 136.006254 
L 537.808924 116.551592 
L 537.983445 130.783972 
L 538.157965 129.512859 
L 538.332485 125.077342 
L 538.856047 159.005117 
L 539.030567 105.90033 
L 539.554128 139.153768 
L 540.25221 124.020768 
L 540.426731 128.99929 
L 540.775771 178.147224 
L 541.299333 141.388649 
L 541.473853 116.418852 
L 541.648374 153.575169 
L 541.822894 104.893001 
L 541.997415 145.012908 
L 542.520976 182.683439 
L 542.695496 113.0393 
L 542.870017 134.907129 
L 543.044537 102.264482 
L 543.219058 100.334184 
L 543.742619 126.746574 
L 543.917139 105.352633 
L 544.09166 130.913394 
L 544.26618 117.164228 
L 545.138782 127.67687 
L 545.313303 145.148011 
L 545.487823 116.664995 
L 545.662344 134.658305 
L 546.185905 116.315481 
L 546.360425 133.36112 
L 546.534946 130.253439 
L 546.709466 119.108567 
L 546.883987 124.000557 
L 547.407548 147.098415 
L 547.582068 95.938701 
L 547.756589 130.42365 
L 547.931109 126.40882 
L 548.10563 129.082647 
L 548.629191 131.353492 
L 548.803711 141.857822 
L 548.978232 129.610661 
L 549.152752 156.996041 
L 549.327273 136.711207 
L 549.850834 108.604026 
L 550.025354 113.988101 
L 550.199875 144.251426 
L 550.374395 116.644602 
L 550.548916 136.963429 
L 551.072477 141.36225 
L 551.246997 120.336885 
L 551.421518 146.234505 
L 551.770559 119.803434 
L 552.29412 112.40241 
L 552.468641 114.394042 
L 552.817681 132.858767 
L 552.992202 158.915708 
L 553.515763 154.814822 
L 553.864804 105.675438 
L 554.039324 178.168874 
L 554.213845 151.920409 
L 554.737406 111.742821 
L 554.911927 115.0293 
L 555.086447 106.639683 
L 555.260967 127.211677 
L 556.13357 121.041028 
L 556.30809 135.327789 
L 556.482611 126.412097 
L 556.657131 148.739192 
L 557.355213 119.531352 
L 557.529733 123.527188 
L 557.878774 133.362854 
L 558.402335 126.062887 
L 558.576856 150.779591 
L 558.751376 117.600701 
L 558.925897 133.420037 
L 559.623978 108.471267 
L 559.973019 140.989199 
L 560.14754 151.6343 
L 560.32206 121.820792 
L 560.845621 121.59978 
L 561.020142 145.088462 
L 561.194662 111.970445 
L 561.369183 124.951669 
L 561.543703 120.688133 
L 562.241785 116.763403 
L 562.416305 132.830664 
L 562.590826 118.163131 
L 562.765346 126.125225 
L 563.288907 128.652615 
L 563.463428 131.162841 
L 563.637948 126.016601 
L 563.812469 115.552045 
L 563.986989 119.831569 
L 564.685071 130.860587 
L 565.034112 146.436808 
L 565.208632 123.204898 
L 565.732193 128.405882 
L 565.906714 125.380827 
L 566.081234 112.864219 
L 566.255755 127.407307 
L 566.430275 126.382443 
L 566.953837 130.603087 
L 567.128357 144.944455 
L 567.302877 119.222697 
L 567.477398 132.977819 
L 567.651918 125.973129 
L 568.17548 131.147051 
L 568.35 115.208479 
L 568.52452 128.809022 
L 568.699041 117.9096 
L 569.571643 146.345236 
L 569.746163 119.794301 
L 569.920684 139.690914 
L 570.095204 126.969198 
L 570.618766 119.344475 
L 570.793286 134.688691 
L 570.967807 120.794969 
L 571.142327 157.301106 
L 571.316847 107.141477 
L 571.840409 135.570862 
L 572.014929 118.954963 
L 572.53849 141.32679 
L 573.062052 129.64924 
L 573.236572 140.594537 
L 573.411093 130.164512 
L 573.585613 176.118611 
L 573.760133 136.79614 
L 574.283695 114.056972 
L 574.458215 152.375394 
L 574.632736 130.267186 
L 574.807256 142.939652 
L 574.981776 104.300221 
L 575.679858 134.017432 
L 575.854379 115.142269 
L 576.028899 120.468135 
L 576.20342 130.441844 
L 576.726981 111.035747 
L 577.076022 124.690171 
L 577.250542 123.622446 
L 577.425063 134.826149 
L 577.948624 119.470359 
L 578.123144 127.920157 
L 578.297665 130.189289 
L 578.472185 134.13842 
L 578.646706 122.784758 
L 579.344787 131.536876 
L 579.519308 132.070354 
L 579.693828 133.785238 
L 579.868349 118.910429 
L 580.56643 145.194866 
L 580.740951 122.048758 
L 580.915471 128.30346 
L 581.089992 143.865613 
L 581.613553 131.913776 
L 581.788073 113.392041 
L 581.962594 127.366164 
L 582.137114 119.236985 
L 582.311635 131.38531 
L 582.835196 148.549273 
L 583.009716 143.441162 
L 583.184237 112.60855 
L 583.358757 167.271492 
L 583.533278 110.936462 
L 584.056839 136.085912 
L 584.231359 136.629677 
L 584.40588 160.549873 
L 584.754921 105.120719 
L 585.278482 133.855058 
L 585.453003 164.869116 
L 585.627523 91.043156 
L 585.802043 177.651522 
L 585.976564 156.422236 
L 586.500125 167.961205 
L 586.674646 126.724768 
L 586.849166 148.748164 
L 587.198207 101.269421 
L 587.721768 109.662232 
L 587.896289 86.338573 
L 588.070809 146.917515 
L 588.245329 102.570079 
L 588.41985 114.362286 
L 588.943411 133.710618 
L 589.117932 103.386389 
L 589.292452 133.446678 
L 589.641493 103.851876 
L 590.339575 136.729547 
L 590.514095 117.411204 
L 590.688616 121.756289 
L 590.863136 129.509964 
L 591.386697 123.237402 
L 591.735738 131.893272 
L 591.910259 129.101335 
L 592.084779 129.757809 
L 592.60834 128.635544 
L 592.782861 118.689078 
L 592.957381 133.709688 
L 593.306422 118.456929 
L 593.829983 123.816618 
L 594.004504 132.912305 
L 594.179024 123.947877 
L 594.528065 136.075964 
L 595.051626 145.844093 
L 595.226147 115.869358 
L 595.400667 121.780624 
L 595.575188 132.939248 
L 595.749708 126.529249 
L 596.273269 146.819816 
L 596.44779 130.842077 
L 596.62231 167.691523 
L 596.796831 120.039421 
L 596.971351 167.3748 
L 597.494912 144.732814 
L 597.669433 149.637088 
L 597.843953 84.608839 
L 598.018474 76.482271 
L 598.192994 119.961849 
L 598.716555 121.677324 
L 599.065596 130.618585 
L 599.414637 122.809261 
L 599.938198 128.349076 
L 600.287239 153.808037 
L 600.63628 131.073786 
L 601.159842 172.139085 
L 601.334362 150.562379 
L 601.508882 104.079525 
L 601.683403 90.092405 
L 601.857923 149.44219 
L 602.381485 148.733005 
L 602.556005 136.15811 
L 602.905046 151.37349 
L 603.079566 100.060449 
L 603.777648 126.790236 
L 603.952168 119.59711 
L 604.126689 95.934188 
L 604.301209 142.791197 
L 604.824771 124.485107 
L 604.999291 160.870059 
L 605.173812 161.117748 
L 605.348332 108.781377 
L 605.522852 159.960203 
L 606.046414 101.093983 
L 606.220934 97.789499 
L 606.395455 139.747789 
L 606.569975 107.082054 
L 606.744495 138.068004 
L 607.268057 139.955377 
L 607.442577 106.219869 
L 607.617098 130.368499 
L 607.791618 108.53468 
L 607.966138 121.080329 
L 608.66422 126.682404 
L 609.013261 132.712572 
L 609.187781 116.450676 
L 609.711343 130.9907 
L 609.885863 124.054651 
L 610.060384 132.039902 
L 610.234904 133.652609 
L 610.409425 137.017184 
L 610.932986 116.454315 
L 611.107506 140.61904 
L 611.282027 140.277241 
L 611.456547 127.591683 
L 611.631068 162.677731 
L 612.154629 121.374696 
L 612.329149 169.09921 
L 612.67819 101.902417 
L 612.852711 144.121504 
L 613.376272 99.81548 
L 613.550792 137.845001 
L 613.725313 102.894852 
L 613.899833 141.380184 
L 614.074354 109.954188 
L 614.772435 144.269164 
L 614.946956 163.563505 
L 615.295997 124.937343 
L 615.819558 102.719587 
L 615.994078 150.338835 
L 616.343119 122.311814 
L 617.041201 115.363831 
L 617.215721 134.983671 
L 617.564762 120.215994 
L 617.739283 118.533665 
L 618.262844 140.71641 
L 618.611885 118.657011 
L 618.786405 132.068772 
L 618.960926 156.101609 
L 619.484487 109.454419 
L 619.659008 133.663005 
L 619.833528 118.794006 
L 620.008048 124.961882 
L 620.182569 125.199273 
L 620.70613 139.714239 
L 620.880651 124.030991 
L 621.229691 153.391127 
L 621.404212 105.664695 
L 621.927773 123.643116 
L 622.102294 157.308811 
L 622.625855 99.985031 
L 623.149416 141.87474 
L 623.498457 130.994365 
L 623.672977 105.987126 
L 623.847498 128.560636 
L 624.371059 123.400724 
L 624.54558 131.762231 
L 624.7201 132.413952 
L 624.894621 125.006776 
L 625.069141 135.374549 
L 625.767223 153.741862 
L 625.941743 109.617321 
L 626.290784 144.677769 
L 626.814345 125.636804 
L 626.988866 132.591201 
L 627.163386 125.502349 
L 627.337907 149.943939 
L 627.512427 133.562112 
L 628.035988 145.033933 
L 628.210509 129.354068 
L 628.385029 103.154775 
L 628.73407 146.220757 
L 629.257631 140.810488 
L 629.432152 117.4352 
L 629.606672 125.817462 
L 629.781193 107.954766 
L 629.955713 142.362471 
L 630.479274 116.522057 
L 630.828315 147.040809 
L 631.177356 131.187487 
L 631.700917 178.125787 
L 631.875438 124.281464 
L 632.049958 114.626709 
L 632.224479 131.001325 
L 632.92256 139.077684 
L 633.097081 116.553372 
L 633.271601 168.387415 
L 633.620642 102.491427 
L 634.144204 105.343804 
L 634.493244 131.97014 
L 634.667765 112.198612 
L 634.842285 127.795326 
L 635.365847 128.554246 
L 635.540367 139.98839 
L 635.714887 135.724215 
L 636.063928 154.707569 
L 636.58749 143.437772 
L 636.76201 102.384638 
L 637.285571 135.460092 
L 637.809133 136.56363 
L 637.983653 135.410505 
L 638.158173 123.24985 
L 638.332694 147.954161 
L 639.030776 101.439462 
L 639.205296 152.081442 
L 639.379817 128.149045 
L 639.554337 133.196551 
L 639.728857 121.448018 
L 640.252419 118.514354 
L 640.77598 178.667795 
L 640.9505 203.712852 
L 641.474062 221.498182 
L 641.648582 161.178408 
L 641.823103 43.461818 
L 641.997623 75.856603 
L 642.172143 128.922519 
L 642.695705 149.414422 
L 642.870225 198.391016 
L 643.044746 89.190909 
L 643.393786 165.337869 
L 644.091868 74.118524 
L 644.266389 162.041992 
L 644.440909 118.364256 
L 644.61543 120.149249 
L 645.138991 139.5966 
L 645.313511 101.387636 
L 645.488032 110.645084 
L 645.837073 167.203045 
L 646.360634 120.029306 
L 646.535154 158.413113 
L 646.709675 134.953534 
L 646.884195 137.942418 
L 647.058716 131.35927 
L 647.582277 189.270795 
L 647.931318 87.448647 
L 648.105838 125.830492 
L 648.280359 98.067193 
L 648.80392 89.197888 
L 648.97844 138.455048 
L 649.152961 112.15147 
L 649.327481 110.390989 
L 649.502002 128.658768 
L 650.025563 127.411841 
L 650.200083 145.835099 
L 650.374604 141.023992 
L 650.549124 96.865754 
L 650.723645 119.960889 
L 651.421726 133.527834 
L 651.596247 143.552742 
L 651.770767 92.903061 
L 651.945288 105.423895 
L 652.468849 134.645528 
L 652.643369 136.102547 
L 652.81789 103.608363 
L 652.99241 131.322925 
L 653.166931 141.23729 
L 653.690492 103.532642 
L 654.039533 138.357476 
L 654.214053 132.871706 
L 654.388574 131.09116 
L 654.912135 152.689751 
L 655.086656 126.879358 
L 655.261176 137.63547 
L 655.435696 162.255463 
L 655.610217 155.863336 
L 656.133778 96.752923 
L 656.308299 133.342266 
L 656.482819 93.940892 
L 656.657339 132.851183 
L 656.83186 121.67793 
L 657.355421 133.104923 
L 657.529942 127.532979 
L 657.704462 130.595531 
L 658.053503 128.956786 
L 658.577064 140.852469 
L 658.751585 106.208622 
L 658.926105 155.377897 
L 659.100626 163.136913 
L 659.275146 84.223788 
L 659.798707 146.209801 
L 659.973228 145.069067 
L 660.147748 147.922162 
L 660.322269 125.202471 
L 660.496789 174.78494 
L 661.194871 106.347778 
L 661.369391 97.620773 
L 661.543912 164.672167 
L 661.718432 171.028453 
L 662.241993 112.730269 
L 662.416514 110.394809 
L 662.591034 102.313147 
L 662.765555 133.9311 
L 663.463636 135.248797 
L 663.638157 106.322641 
L 663.812677 146.729955 
L 663.987198 151.749013 
L 664.685279 165.278298 
L 664.8598 125.74371 
L 665.208841 184.700082 
L 665.383361 155.017176 
L 665.906922 128.368341 
L 666.081443 112.675368 
L 666.255963 187.640548 
L 666.430484 92.750627 
L 666.605004 179.823998 
L 667.303086 129.096855 
L 667.477606 156.979428 
L 667.826647 84.761574 
L 668.350209 166.048258 
L 668.524729 98.449459 
L 668.699249 155.074746 
L 669.04829 74.83288 
L 669.571852 131.308091 
L 669.746372 173.213515 
L 669.920892 119.009372 
L 670.095413 126.842816 
L 670.269933 172.608415 
L 670.793495 162.631697 
L 670.968015 131.808176 
L 671.142535 130.731213 
L 671.317056 158.373463 
L 671.491576 86.464113 
L 672.189658 93.150511 
L 672.364178 93.23131 
L 672.538699 140.908785 
L 673.236781 97.75663 
L 673.411301 158.725283 
L 673.760342 104.710839 
L 673.934862 134.547855 
L 674.458424 148.795406 
L 674.632944 76.806555 
L 674.807465 121.036127 
L 674.981985 122.381707 
L 675.156505 122.817585 
L 675.680067 128.296416 
L 675.854587 155.938439 
L 676.029108 118.873179 
L 676.203628 129.94933 
L 676.378148 93.420827 
L 676.90171 133.164216 
L 677.07623 134.472483 
L 677.250751 117.637048 
L 677.425271 115.394424 
L 677.599791 120.333039 
L 678.123353 128.068562 
L 678.297873 132.293353 
L 678.472394 144.831974 
L 678.646914 131.16024 
L 679.344996 129.066403 
L 679.519516 110.394999 
L 679.868557 134.933346 
L 680.043078 115.990029 
L 680.566639 137.590502 
L 680.741159 153.426836 
L 680.91568 106.596753 
L 681.0902 157.626477 
L 681.264721 123.99176 
L 681.788282 136.52474 
L 681.962802 108.495084 
L 682.137323 107.646174 
L 682.311843 129.910504 
L 682.486364 132.536011 
L 683.009925 115.516566 
L 683.533486 142.112883 
L 683.708007 130.194113 
L 684.231568 134.415918 
L 684.406088 126.059411 
L 684.580609 126.565167 
L 684.755129 151.334329 
L 685.453211 112.659283 
L 685.627731 150.066265 
L 685.802252 143.807049 
L 686.151293 123.114292 
L 686.674854 128.594441 
L 686.849374 102.166257 
L 687.023895 152.091552 
L 687.198415 130.687015 
L 687.372936 149.612536 
L 687.896497 108.192949 
L 688.071018 151.747604 
L 688.245538 129.837375 
L 688.420058 138.724713 
L 688.594579 116.691944 
L 689.11814 135.037202 
L 689.292661 99.484982 
L 689.641701 130.779967 
L 689.816222 120.601268 
L 690.514304 132.583635 
L 690.863344 123.905595 
L 691.037865 136.915989 
L 691.561426 119.223216 
L 691.735947 127.3802 
L 691.910467 122.80928 
L 692.259508 151.207092 
L 692.783069 148.782177 
L 692.95759 134.386018 
L 693.13211 134.481051 
L 693.306631 123.20845 
L 693.481151 137.703453 
L 694.004712 117.168376 
L 694.353753 134.051329 
L 694.528274 100.194995 
L 694.702794 213.264227 
L 695.226355 171.719598 
L 695.400876 90.355588 
L 695.575396 91.99954 
L 695.749917 99.74528 
L 695.924437 125.887717 
L 696.622519 145.885457 
L 696.797039 118.195045 
L 696.97156 132.280165 
L 697.14608 95.970761 
L 697.669641 122.585398 
L 697.844162 114.461728 
L 698.018682 129.997033 
L 698.193203 118.406559 
L 698.367723 132.410391 
L 698.891284 124.90627 
L 699.065805 133.559821 
L 699.240325 120.638657 
L 699.414846 138.51034 
L 699.589366 119.998162 
L 700.112927 137.142681 
L 700.287448 129.570727 
L 700.461968 133.022456 
L 700.636489 126.662853 
L 700.811009 126.60602 
L 701.33457 133.184233 
L 701.509091 144.776255 
L 701.683611 123.206296 
L 701.858132 129.820611 
L 702.032652 110.87424 
L 702.556214 132.360946 
L 702.730734 129.418811 
L 702.905254 136.808796 
L 703.079775 119.590419 
L 703.254295 132.108724 
L 703.777857 123.977443 
L 703.952377 142.762816 
L 704.126897 126.068831 
L 704.301418 125.319618 
L 704.475938 133.571398 
L 704.9995 131.580572 
L 705.17402 125.880549 
L 705.34854 142.218323 
L 705.523061 133.400966 
L 705.697581 133.88608 
L 706.221143 118.47685 
L 706.395663 134.737738 
L 706.570183 135.697285 
L 706.744704 130.39651 
L 706.919224 120.795068 
L 707.617306 123.550564 
L 707.966347 135.349836 
L 708.140867 186.609486 
L 708.664429 97.258473 
L 708.838949 164.18904 
L 709.18799 107.490944 
L 709.36251 138.874016 
L 709.886072 130.344842 
L 710.060592 129.624337 
L 710.235113 105.677795 
L 710.409633 115.609491 
L 710.584153 143.350545 
L 711.107715 149.862948 
L 711.282235 115.734808 
L 711.456756 118.322298 
L 711.631276 151.541824 
L 711.805796 112.303708 
L 712.503878 141.569311 
L 712.678399 120.579063 
L 713.02744 137.693256 
L 713.551001 119.880903 
L 713.725521 158.707141 
L 713.900042 127.703792 
L 714.074562 137.342387 
L 714.249083 129.84548 
L 714.772644 137.203005 
L 714.947164 116.374332 
L 715.296205 133.424804 
L 715.470726 130.493485 
L 715.994287 119.555994 
L 716.168807 138.931915 
L 716.343328 134.25317 
L 716.517848 137.086385 
L 716.692369 137.362942 
L 717.21593 130.57998 
L 717.39045 145.747093 
L 717.564971 145.150331 
L 717.914012 134.08442 
L 718.437573 80.45376 
L 718.612093 121.764285 
L 718.786614 105.319195 
L 719.135655 133.475281 
L 719.659216 130.564616 
L 719.833736 113.400096 
L 720.008257 133.89391 
L 720.182777 119.721834 
L 720.357298 135.722142 
L 720.880859 113.443759 
L 721.055379 125.396979 
L 721.2299 128.470873 
L 721.578941 121.442544 
L 722.102502 142.250831 
L 722.277023 127.276361 
L 722.451543 136.328304 
L 722.626063 138.289568 
L 722.800584 129.40246 
L 723.324145 117.138793 
L 723.498666 122.580262 
L 723.673186 100.644511 
L 723.847706 125.410759 
L 724.022227 116.873468 
L 724.545788 132.883708 
L 724.720309 115.519385 
L 724.894829 148.786707 
L 725.069349 121.512935 
L 725.24387 134.276368 
L 725.941952 122.068106 
L 726.116472 135.88256 
L 726.290992 134.531631 
L 726.465513 127.465662 
L 727.163595 125.209291 
L 727.338115 149.334053 
L 727.512636 130.967935 
L 727.687156 140.843476 
L 728.385238 111.137159 
L 728.559758 117.362097 
L 728.734279 132.051129 
L 728.908799 122.340534 
L 729.43236 138.364822 
L 729.781401 123.894378 
L 729.955922 135.172088 
L 730.130442 126.111274 
L 730.828524 137.042656 
L 731.003044 126.306158 
L 731.177565 138.503011 
L 731.352085 122.681183 
L 731.875646 136.411807 
L 732.050167 115.463465 
L 732.224687 112.17294 
L 732.399208 131.971043 
L 732.573728 132.268558 
L 733.097289 143.972812 
L 733.27181 132.321767 
L 733.44633 129.626094 
L 733.620851 129.009616 
L 733.795371 113.886466 
L 734.318932 135.105151 
L 734.493453 129.788285 
L 734.667973 128.730811 
L 734.842494 117.293834 
L 735.017014 122.229593 
L 735.540575 118.436697 
L 735.715096 121.232578 
L 735.889616 119.008763 
L 736.064137 132.263232 
L 736.238657 126.499046 
L 736.936739 116.627556 
L 737.111259 132.758303 
L 737.4603 126.918378 
L 737.983862 127.995143 
L 738.158382 136.157703 
L 738.332902 99.501825 
L 738.507423 143.631365 
L 738.681943 129.160197 
L 739.205505 137.747311 
L 739.380025 136.919535 
L 739.554545 135.48895 
L 739.903586 122.901724 
L 740.427148 129.471318 
L 740.601668 137.978924 
L 740.776188 111.388641 
L 740.950709 133.994872 
L 741.125229 133.285347 
L 741.648791 134.865476 
L 741.823311 158.61873 
L 741.997832 126.020624 
L 742.172352 132.708513 
L 742.346872 132.217559 
L 742.870434 132.616153 
L 743.044954 113.916375 
L 743.219475 127.842578 
L 743.393995 123.655866 
L 743.568515 135.422649 
L 744.092077 134.02989 
L 744.266597 129.034066 
L 744.441118 137.241375 
L 744.615638 125.930934 
L 744.790158 132.179277 
L 745.31372 128.743584 
L 745.837281 145.810598 
L 746.535363 110.852086 
L 746.709883 136.896805 
L 746.884404 134.198507 
L 747.058924 113.227973 
L 747.233445 137.196361 
L 747.757006 105.850753 
L 748.106047 131.404446 
L 748.280567 129.049031 
L 748.455088 134.645634 
L 748.978649 126.377389 
L 749.153169 127.607607 
L 749.32769 133.187805 
L 749.50221 128.982885 
L 749.676731 121.048806 
L 750.374812 132.629006 
L 750.549333 127.74001 
L 750.723853 135.212999 
L 750.898374 133.65809 
L 751.421935 119.495786 
L 751.596455 131.861 
L 751.770976 171.908337 
L 751.945496 121.956692 
L 752.120017 115.006341 
L 752.643578 118.63008 
L 752.818098 126.138368 
L 752.992619 124.664576 
L 753.167139 120.251066 
L 753.34166 129.598465 
L 754.039741 133.036267 
L 754.214262 131.346055 
L 754.388782 113.1968 
L 754.563303 121.90944 
L 755.261384 136.614011 
L 755.435905 126.748787 
L 755.784946 132.185766 
L 756.308507 132.523476 
L 756.483028 120.094021 
L 756.657548 132.562222 
L 756.832068 135.387533 
L 757.53015 111.450545 
L 757.704671 145.541035 
L 757.879191 131.624416 
L 758.053711 131.336555 
L 758.228232 126.765412 
L 758.751793 129.586559 
L 758.926314 148.68531 
L 759.100834 110.414301 
L 759.275354 149.890995 
L 759.449875 126.828099 
L 759.973436 125.067958 
L 760.322477 127.009154 
L 760.496997 151.650365 
L 760.671518 115.827299 
L 761.3696 132.078389 
L 761.54412 113.794493 
L 761.718641 126.055262 
L 761.893161 119.728305 
L 762.416722 130.422656 
L 762.591243 128.947177 
L 762.765763 118.150659 
L 762.940284 130.651163 
L 763.638365 132.71638 
L 763.812886 123.682862 
L 764.161927 132.509685 
L 764.336447 133.346209 
L 764.860008 131.954615 
L 765.034529 124.755095 
L 765.38357 135.260376 
L 765.55809 126.022396 
L 766.081651 126.570041 
L 766.256172 135.784965 
L 766.430692 131.12743 
L 766.605213 163.369128 
L 766.779733 127.411631 
L 767.303294 107.638051 
L 767.477815 131.434181 
L 767.652335 127.084285 
L 767.826856 165.585146 
L 768.001376 134.468906 
L 768.524937 127.667408 
L 768.699458 107.869277 
L 768.873978 138.148611 
L 769.048499 135.012211 
L 769.223019 126.511922 
L 769.74658 129.198291 
L 769.921101 128.392021 
L 770.095621 119.860035 
L 770.270142 117.365024 
L 770.444662 125.810899 
L 771.142744 147.492105 
L 771.317264 123.21809 
L 771.666305 133.681732 
L 772.189867 105.85248 
L 772.364387 122.686358 
L 772.713428 132.800344 
L 772.887948 126.117294 
L 773.41151 127.003171 
L 773.76055 128.864471 
L 773.935071 137.22103 
L 774.109591 128.833996 
L 774.633153 135.347647 
L 774.807673 130.138991 
L 774.982193 121.056827 
L 775.156714 127.572348 
L 775.331234 121.915362 
L 775.854796 121.533774 
L 776.203837 127.476977 
L 776.378357 117.532326 
L 776.552877 132.738855 
L 777.076439 134.398624 
L 777.250959 125.041759 
L 777.42548 126.216163 
L 777.6 134.131268 
L 777.6 134.131268 
" style="fill:none;stroke:#4c72b0;stroke-linecap:round;stroke-width:1.75;"/>
   </g>
   <g id="patch_58">
    <path d="M 473.236364 230.4 
L 473.236364 34.56 
" style="fill:none;"/>
   </g>
   <g id="patch_59">
    <path d="M 777.6 230.4 
L 777.6 34.56 
" style="fill:none;"/>
   </g>
   <g id="patch_60">
    <path d="M 473.236364 230.4 
L 777.6 230.4 
" style="fill:none;"/>
   </g>
   <g id="patch_61">
    <path d="M 473.236364 34.56 
L 777.6 34.56 
" style="fill:none;"/>
   </g>
  </g>
 </g>
 <defs>
  <clipPath id="p60404daf0c">
   <rect height="195.84" width="304.363636" x="108" y="34.56"/>
  </clipPath>
  <clipPath id="pd7919d642d">
   <rect height="195.84" width="304.363636" x="473.236364" y="34.56"/>
  </clipPath>
 </defs>
</svg>
