<?xml version="1.0" encoding="utf-8" standalone="no"?>
<!DOCTYPE svg PUBLIC "-//W3C//DTD SVG 1.1//EN"
  "http://www.w3.org/Graphics/SVG/1.1/DTD/svg11.dtd">
<!-- Created with matplotlib (http://matplotlib.org/) -->
<svg height="360pt" version="1.1" viewBox="0 0 504 360" width="504pt" xmlns="http://www.w3.org/2000/svg" xmlns:xlink="http://www.w3.org/1999/xlink">
 <defs>
  <style type="text/css">
*{stroke-linecap:butt;stroke-linejoin:round;}
  </style>
 </defs>
 <g id="figure_1">
  <g id="patch_1">
   <path d="M 0 360 
L 504 360 
L 504 0 
L 0 0 
z
" style="fill:#ffffff;"/>
  </g>
  <g id="axes_1">
   <g id="patch_2">
    <path d="M 63 315 
L 453.6 315 
L 453.6 43.2 
L 63 43.2 
z
" style="fill:#eaeaf2;"/>
   </g>
   <g id="matplotlib.axis_1">
    <g id="xtick_1">
     <g id="line2d_1">
      <path clip-path="url(#p3228b854ad)" d="M 194.052017 315 
L 194.052017 43.2 
" style="fill:none;stroke:#ffffff;stroke-linecap:round;"/>
     </g>
     <g id="line2d_2"/>
     <g id="text_1">
      <!-- $-VaR_{t+1}^p$ -->
      <defs>
       <path d="M 10.59375 35.5 
L 73.1875 35.5 
L 73.1875 27.203125 
L 10.59375 27.203125 
z
" id="DejaVuSans-2212"/>
       <path d="M 20.609375 0 
L 7.8125 72.90625 
L 17.484375 72.90625 
L 28.078125 10.203125 
L 63.484375 72.90625 
L 74.21875 72.90625 
L 32.078125 0 
z
" id="DejaVuSans-Oblique-56"/>
       <path d="M 53.71875 31.203125 
L 47.609375 0 
L 38.625 0 
L 40.28125 8.296875 
Q 36.328125 3.421875 31.265625 1 
Q 26.21875 -1.421875 20.015625 -1.421875 
Q 13.03125 -1.421875 8.5625 2.84375 
Q 4.109375 7.125 4.109375 13.8125 
Q 4.109375 23.390625 11.75 28.953125 
Q 19.390625 34.515625 32.8125 34.515625 
L 45.3125 34.515625 
L 45.796875 36.921875 
Q 45.90625 37.3125 45.953125 37.765625 
Q 46 38.234375 46 39.203125 
Q 46 43.5625 42.453125 45.96875 
Q 38.921875 48.390625 32.515625 48.390625 
Q 28.125 48.390625 23.5 47.265625 
Q 18.890625 46.140625 14.015625 43.890625 
L 15.578125 52.203125 
Q 20.65625 54.109375 25.515625 55.046875 
Q 30.375 56 34.90625 56 
Q 44.578125 56 49.625 51.796875 
Q 54.6875 47.609375 54.6875 39.59375 
Q 54.6875 37.984375 54.4375 35.8125 
Q 54.203125 33.640625 53.71875 31.203125 
z
M 44 27.484375 
L 35.015625 27.484375 
Q 23.96875 27.484375 18.671875 24.53125 
Q 13.375 21.578125 13.375 15.375 
Q 13.375 11.078125 16.078125 8.640625 
Q 18.796875 6.203125 23.578125 6.203125 
Q 30.90625 6.203125 36.375 11.453125 
Q 41.84375 16.703125 43.609375 25.484375 
z
" id="DejaVuSans-Oblique-61"/>
       <path d="M 25.203125 64.796875 
L 20.21875 38.921875 
L 32.90625 38.921875 
Q 40.375 38.921875 44.984375 43.046875 
Q 49.609375 47.171875 49.609375 53.8125 
Q 49.609375 59.125 46.5 61.953125 
Q 43.40625 64.796875 37.59375 64.796875 
z
M 43.3125 35.015625 
Q 46.4375 34.28125 48.515625 31.390625 
Q 50.59375 28.515625 53.328125 19.921875 
L 59.515625 0 
L 49.125 0 
L 43.40625 18.703125 
Q 41.21875 25.921875 38.328125 28.359375 
Q 35.453125 30.8125 29.5 30.8125 
L 18.609375 30.8125 
L 12.59375 0 
L 2.6875 0 
L 16.890625 72.90625 
L 39.109375 72.90625 
Q 49.21875 72.90625 54.609375 68.328125 
Q 60.015625 63.765625 60.015625 55.171875 
Q 60.015625 47.5625 55.421875 41.984375 
Q 50.828125 36.421875 43.3125 35.015625 
z
" id="DejaVuSans-Oblique-52"/>
       <path d="M 49.609375 33.6875 
Q 49.609375 40.875 46.484375 44.671875 
Q 43.359375 48.484375 37.5 48.484375 
Q 33.5 48.484375 29.859375 46.4375 
Q 26.21875 44.390625 23.390625 40.484375 
Q 20.609375 36.625 18.9375 31.15625 
Q 17.28125 25.6875 17.28125 20.3125 
Q 17.28125 13.484375 20.40625 9.796875 
Q 23.53125 6.109375 29.296875 6.109375 
Q 33.546875 6.109375 37.1875 8.109375 
Q 40.828125 10.109375 43.40625 13.921875 
Q 46.1875 17.921875 47.890625 23.34375 
Q 49.609375 28.765625 49.609375 33.6875 
z
M 21.78125 46.390625 
Q 25.390625 51.125 30.296875 53.5625 
Q 35.203125 56 41.21875 56 
Q 49.609375 56 54.25 50.5 
Q 58.890625 45.015625 58.890625 35.109375 
Q 58.890625 27 56 19.65625 
Q 53.125 12.3125 47.703125 6.5 
Q 44.09375 2.640625 39.546875 0.609375 
Q 35.015625 -1.421875 29.984375 -1.421875 
Q 24.171875 -1.421875 20.21875 1 
Q 16.265625 3.421875 14.3125 8.203125 
L 8.6875 -20.796875 
L -0.296875 -20.796875 
L 14.40625 54.6875 
L 23.390625 54.6875 
z
" id="DejaVuSans-Oblique-70"/>
       <path d="M 42.28125 54.6875 
L 40.921875 47.703125 
L 23 47.703125 
L 17.1875 18.015625 
Q 16.890625 16.359375 16.75 15.234375 
Q 16.609375 14.109375 16.609375 13.484375 
Q 16.609375 10.359375 18.484375 8.9375 
Q 20.359375 7.515625 24.515625 7.515625 
L 33.59375 7.515625 
L 32.078125 0 
L 23.484375 0 
Q 15.484375 0 11.546875 3.125 
Q 7.625 6.25 7.625 12.59375 
Q 7.625 13.71875 7.765625 15.0625 
Q 7.90625 16.40625 8.203125 18.015625 
L 14.015625 47.703125 
L 6.390625 47.703125 
L 7.8125 54.6875 
L 15.28125 54.6875 
L 18.3125 70.21875 
L 27.296875 70.21875 
L 24.3125 54.6875 
z
" id="DejaVuSans-Oblique-74"/>
       <path d="M 46 62.703125 
L 46 35.5 
L 73.1875 35.5 
L 73.1875 27.203125 
L 46 27.203125 
L 46 0 
L 37.796875 0 
L 37.796875 27.203125 
L 10.59375 27.203125 
L 10.59375 35.5 
L 37.796875 35.5 
L 37.796875 62.703125 
z
" id="DejaVuSans-2b"/>
       <path d="M 12.40625 8.296875 
L 28.515625 8.296875 
L 28.515625 63.921875 
L 10.984375 60.40625 
L 10.984375 69.390625 
L 28.421875 72.90625 
L 38.28125 72.90625 
L 38.28125 8.296875 
L 54.390625 8.296875 
L 54.390625 0 
L 12.40625 0 
z
" id="DejaVuSans-31"/>
      </defs>
      <g style="fill:#262626;" transform="translate(171.852017 331)scale(0.1 -0.1)">
       <use transform="translate(0 0.051563)" xlink:href="#DejaVuSans-2212"/>
       <use transform="translate(83.789062 0.051563)" xlink:href="#DejaVuSans-Oblique-56"/>
       <use transform="translate(152.197266 0.051563)" xlink:href="#DejaVuSans-Oblique-61"/>
       <use transform="translate(213.476562 0.051563)" xlink:href="#DejaVuSans-Oblique-52"/>
       <use transform="translate(289.975755 50.8)scale(0.7)" xlink:href="#DejaVuSans-Oblique-70"/>
       <use transform="translate(282.958984 -27.292187)scale(0.7)" xlink:href="#DejaVuSans-Oblique-74"/>
       <use transform="translate(324.042969 -27.292187)scale(0.7)" xlink:href="#DejaVuSans-2b"/>
       <use transform="translate(396.333008 -27.292187)scale(0.7)" xlink:href="#DejaVuSans-31"/>
      </g>
     </g>
    </g>
    <g id="xtick_2">
     <g id="line2d_3">
      <path clip-path="url(#p3228b854ad)" d="M 258.3 315 
L 258.3 43.2 
" style="fill:none;stroke:#ffffff;stroke-linecap:round;"/>
     </g>
     <g id="line2d_4"/>
     <g id="text_2">
      <!-- 0 -->
      <defs>
       <path d="M 51.703125 34.421875 
Q 51.703125 24.515625 49.828125 17.75 
Q 47.953125 10.984375 44.703125 6.8125 
Q 41.453125 2.640625 37.0625 0.828125 
Q 32.671875 -0.984375 27.6875 -0.984375 
Q 22.65625 -0.984375 18.3125 0.828125 
Q 13.96875 2.640625 10.765625 6.78125 
Q 7.5625 10.9375 5.734375 17.703125 
Q 3.90625 24.46875 3.90625 34.421875 
Q 3.90625 44.828125 5.734375 51.640625 
Q 7.5625 58.453125 10.78125 62.5 
Q 14.015625 66.546875 18.40625 68.1875 
Q 22.796875 69.828125 27.984375 69.828125 
Q 32.90625 69.828125 37.21875 68.1875 
Q 41.546875 66.546875 44.765625 62.5 
Q 48 58.453125 49.84375 51.640625 
Q 51.703125 44.828125 51.703125 34.421875 
z
M 42.78125 34.421875 
Q 42.78125 42.625 41.796875 48.0625 
Q 40.828125 53.515625 38.921875 56.765625 
Q 37.015625 60.015625 34.25 61.359375 
Q 31.5 62.703125 27.984375 62.703125 
Q 24.265625 62.703125 21.4375 61.328125 
Q 18.609375 59.96875 16.671875 56.71875 
Q 14.75 53.46875 13.765625 48.015625 
Q 12.796875 42.578125 12.796875 34.421875 
Q 12.796875 26.515625 13.796875 21.09375 
Q 14.796875 15.671875 16.71875 12.375 
Q 18.65625 9.078125 21.4375 7.640625 
Q 24.21875 6.203125 27.78125 6.203125 
Q 31.25 6.203125 34.03125 7.640625 
Q 36.8125 9.078125 38.734375 12.375 
Q 40.671875 15.671875 41.71875 21.09375 
Q 42.78125 26.515625 42.78125 34.421875 
z
" id="LiberationSans-30"/>
      </defs>
      <g style="fill:#262626;" transform="translate(255.519531 329.246875)scale(0.1 -0.1)">
       <use xlink:href="#LiberationSans-30"/>
      </g>
     </g>
    </g>
    <g id="text_3">
     <!-- $R_{t+1}$ -->
     <g style="fill:#262626;" transform="translate(245.595 345.771563)scale(0.11 -0.11)">
      <use transform="translate(0 0.09375)" xlink:href="#DejaVuSans-Oblique-52"/>
      <use transform="translate(69.482422 -16.3125)scale(0.7)" xlink:href="#DejaVuSans-Oblique-74"/>
      <use transform="translate(110.566406 -16.3125)scale(0.7)" xlink:href="#DejaVuSans-2b"/>
      <use transform="translate(182.856445 -16.3125)scale(0.7)" xlink:href="#DejaVuSans-31"/>
     </g>
    </g>
   </g>
   <g id="matplotlib.axis_2">
    <g id="text_4">
     <!-- $f(R_{t+1})$ -->
     <defs>
      <path d="M 47.796875 75.984375 
L 46.390625 68.5 
L 37.796875 68.5 
Q 32.90625 68.5 30.6875 66.578125 
Q 28.46875 64.65625 27.390625 59.515625 
L 26.421875 54.6875 
L 41.21875 54.6875 
L 39.890625 47.703125 
L 25.09375 47.703125 
L 15.828125 0 
L 6.78125 0 
L 16.109375 47.703125 
L 7.515625 47.703125 
L 8.796875 54.6875 
L 17.390625 54.6875 
L 18.109375 58.5 
Q 19.96875 68.171875 24.625 72.078125 
Q 29.296875 75.984375 39.3125 75.984375 
z
" id="DejaVuSans-Oblique-66"/>
      <path d="M 31 75.875 
Q 24.46875 64.65625 21.28125 53.65625 
Q 18.109375 42.671875 18.109375 31.390625 
Q 18.109375 20.125 21.3125 9.0625 
Q 24.515625 -2 31 -13.1875 
L 23.1875 -13.1875 
Q 15.875 -1.703125 12.234375 9.375 
Q 8.59375 20.453125 8.59375 31.390625 
Q 8.59375 42.28125 12.203125 53.3125 
Q 15.828125 64.359375 23.1875 75.875 
z
" id="DejaVuSans-28"/>
      <path d="M 8.015625 75.875 
L 15.828125 75.875 
Q 23.140625 64.359375 26.78125 53.3125 
Q 30.421875 42.28125 30.421875 31.390625 
Q 30.421875 20.453125 26.78125 9.375 
Q 23.140625 -1.703125 15.828125 -13.1875 
L 8.015625 -13.1875 
Q 14.5 -2 17.703125 9.0625 
Q 20.90625 20.125 20.90625 31.390625 
Q 20.90625 42.671875 17.703125 53.65625 
Q 14.5 64.65625 8.015625 75.875 
z
" id="DejaVuSans-29"/>
     </defs>
     <g style="fill:#262626;" transform="translate(56.7175 198.02)rotate(-90)scale(0.11 -0.11)">
      <use transform="translate(0 0.015625)" xlink:href="#DejaVuSans-Oblique-66"/>
      <use transform="translate(35.205078 0.015625)" xlink:href="#DejaVuSans-28"/>
      <use transform="translate(74.21875 0.015625)" xlink:href="#DejaVuSans-Oblique-52"/>
      <use transform="translate(143.701172 -16.390625)scale(0.7)" xlink:href="#DejaVuSans-Oblique-74"/>
      <use transform="translate(184.785156 -16.390625)scale(0.7)" xlink:href="#DejaVuSans-2b"/>
      <use transform="translate(257.075195 -16.390625)scale(0.7)" xlink:href="#DejaVuSans-31"/>
      <use transform="translate(304.345703 0.015625)" xlink:href="#DejaVuSans-29"/>
     </g>
    </g>
   </g>
   <g id="patch_3">
    <path clip-path="url(#p3228b854ad)" d="M 63 315 
L 63 314.999034 
L 65.674531 314.998643 
L 68.349062 314.998102 
L 71.023593 314.997359 
L 73.698124 314.996341 
L 76.372655 314.994954 
L 79.047186 314.993075 
L 81.721717 314.990541 
L 84.396248 314.987139 
L 87.070779 314.982596 
L 89.74531 314.976559 
L 92.419841 314.968574 
L 95.094372 314.958067 
L 97.768903 314.944308 
L 100.443434 314.926381 
L 103.117964 314.903138 
L 105.792495 314.873154 
L 108.467026 314.834665 
L 111.141557 314.785504 
L 113.816088 314.723028 
L 116.490619 314.644028 
L 119.16515 314.544635 
L 121.839681 314.420214 
L 124.514212 314.265249 
L 127.188743 314.073222 
L 129.863274 313.836476 
L 132.537805 313.546086 
L 135.212336 313.191719 
L 137.886867 312.761501 
L 140.561398 312.241888 
L 143.235929 311.617556 
L 145.91046 310.871302 
L 148.584991 309.983978 
L 151.259522 308.934458 
L 153.934053 307.699651 
L 156.608584 306.254564 
L 159.283115 304.572429 
L 161.957646 302.624902 
L 164.632177 300.382337 
L 167.306708 297.814147 
L 169.981239 294.88926 
L 172.65577 291.57666 
L 175.330301 287.846023 
L 178.004832 283.66845 
L 180.679363 279.017268 
L 183.353893 273.868909 
L 186.028424 268.203848 
L 188.702955 262.007565 
L 191.377486 255.271523 
L 194.052017 247.994134 
L 194.052017 315 
z
" style="fill:#b2b2b2;stroke:#808080;stroke-linejoin:miter;stroke-width:0.3;"/>
   </g>
   <g id="line2d_5">
    <path clip-path="url(#p3228b854ad)" d="M 63 314.999034 
L 66.945455 314.998408 
L 70.890909 314.997401 
L 74.836364 314.995802 
L 78.781818 314.993288 
L 82.727273 314.989377 
L 86.672727 314.983358 
L 90.618182 314.974192 
L 94.563636 314.960385 
L 98.509091 314.939808 
L 102.454545 314.909472 
L 106.4 314.865229 
L 110.345455 314.8014 
L 114.290909 314.710311 
L 118.236364 314.581735 
L 122.181818 314.40222 
L 126.127273 314.154333 
L 130.072727 313.815796 
L 134.018182 313.358569 
L 137.963636 312.747901 
L 141.909091 311.94141 
L 145.854545 310.888277 
L 149.8 309.52864 
L 153.745455 307.793313 
L 157.690909 305.60396 
L 161.636364 302.873849 
L 165.581818 299.509339 
L 169.527273 295.412193 
L 173.472727 290.482818 
L 177.418182 284.62445 
L 181.363636 277.748254 
L 185.309091 269.779226 
L 189.254545 260.662678 
L 193.2 250.371014 
L 197.145455 238.910395 
L 201.090909 226.326839 
L 205.036364 212.711236 
L 208.981818 198.20277 
L 212.927273 182.990242 
L 216.872727 167.310915 
L 220.818182 151.446575 
L 224.763636 135.716732 
L 228.709091 120.46903 
L 232.654545 106.067201 
L 236.6 92.877083 
L 240.545455 81.251416 
L 244.490909 71.514286 
L 248.436364 63.946166 
L 252.381818 58.770513 
L 256.327273 56.142811 
L 260.272727 56.142811 
L 264.218182 58.770513 
L 268.163636 63.946166 
L 272.109091 71.514286 
L 276.054545 81.251416 
L 280 92.877083 
L 283.945455 106.067201 
L 287.890909 120.46903 
L 291.836364 135.716732 
L 295.781818 151.446575 
L 299.727273 167.310915 
L 303.672727 182.990242 
L 307.618182 198.20277 
L 311.563636 212.711236 
L 315.509091 226.326839 
L 319.454545 238.910395 
L 323.4 250.371014 
L 327.345455 260.662678 
L 331.290909 269.779226 
L 335.236364 277.748254 
L 339.181818 284.62445 
L 343.127273 290.482818 
L 347.072727 295.412193 
L 351.018182 299.509339 
L 354.963636 302.873849 
L 358.909091 305.60396 
L 362.854545 307.793313 
L 366.8 309.52864 
L 370.745455 310.888277 
L 374.690909 311.94141 
L 378.636364 312.747901 
L 382.581818 313.358569 
L 386.527273 313.815796 
L 390.472727 314.154333 
L 394.418182 314.40222 
L 398.363636 314.581735 
L 402.309091 314.710311 
L 406.254545 314.8014 
L 410.2 314.865229 
L 414.145455 314.909472 
L 418.090909 314.939808 
L 422.036364 314.960385 
L 425.981818 314.974192 
L 429.927273 314.983358 
L 433.872727 314.989377 
L 437.818182 314.993288 
L 441.763636 314.995802 
L 445.709091 314.997401 
L 449.654545 314.998408 
L 453.6 314.999034 
" style="fill:none;stroke:#0000ff;stroke-linecap:round;stroke-width:2;"/>
   </g>
   <g id="patch_4">
    <path d="M 63 315 
L 63 43.2 
" style="fill:none;"/>
   </g>
   <g id="patch_5">
    <path d="M 453.6 315 
L 453.6 43.2 
" style="fill:none;"/>
   </g>
   <g id="patch_6">
    <path d="M 63 315 
L 453.6 315 
" style="fill:none;"/>
   </g>
   <g id="patch_7">
    <path d="M 63 43.2 
L 453.6 43.2 
" style="fill:none;"/>
   </g>
   <g id="patch_8">
    <path d="M 161.294079 254.451633 
Q 168.469933 271.046786 175.645787 287.64194 
L 180.923515 285.359815 
Q 180.551757 292.058822 180.18 298.75783 
Q 175.044563 294.440169 169.909126 290.122509 
L 175.186854 287.840385 
Q 168.011 271.245232 160.835147 254.650078 
L 161.294079 254.451633 
z
" style="fill:#4c72b0;stroke:#000000;stroke-linecap:round;stroke-width:0.3;"/>
   </g>
   <g id="text_5">
    <!-- $p\%$ -->
    <defs>
     <path d="M 72.703125 32.078125 
Q 68.453125 32.078125 66.03125 28.46875 
Q 63.625 24.859375 63.625 18.40625 
Q 63.625 12.0625 66.03125 8.421875 
Q 68.453125 4.78125 72.703125 4.78125 
Q 76.859375 4.78125 79.265625 8.421875 
Q 81.6875 12.0625 81.6875 18.40625 
Q 81.6875 24.8125 79.265625 28.4375 
Q 76.859375 32.078125 72.703125 32.078125 
z
M 72.703125 38.28125 
Q 80.421875 38.28125 84.953125 32.90625 
Q 89.5 27.546875 89.5 18.40625 
Q 89.5 9.28125 84.9375 3.921875 
Q 80.375 -1.421875 72.703125 -1.421875 
Q 64.890625 -1.421875 60.34375 3.921875 
Q 55.8125 9.28125 55.8125 18.40625 
Q 55.8125 27.59375 60.375 32.9375 
Q 64.9375 38.28125 72.703125 38.28125 
z
M 22.3125 68.015625 
Q 18.109375 68.015625 15.6875 64.375 
Q 13.28125 60.75 13.28125 54.390625 
Q 13.28125 47.953125 15.671875 44.328125 
Q 18.0625 40.71875 22.3125 40.71875 
Q 26.5625 40.71875 28.96875 44.328125 
Q 31.390625 47.953125 31.390625 54.390625 
Q 31.390625 60.6875 28.953125 64.34375 
Q 26.515625 68.015625 22.3125 68.015625 
z
M 66.40625 74.21875 
L 74.21875 74.21875 
L 28.609375 -1.421875 
L 20.796875 -1.421875 
z
M 22.3125 74.21875 
Q 30.03125 74.21875 34.609375 68.875 
Q 39.203125 63.53125 39.203125 54.390625 
Q 39.203125 45.171875 34.640625 39.84375 
Q 30.078125 34.515625 22.3125 34.515625 
Q 14.546875 34.515625 10.03125 39.859375 
Q 5.515625 45.21875 5.515625 54.390625 
Q 5.515625 63.484375 10.046875 68.84375 
Q 14.59375 74.21875 22.3125 74.21875 
z
" id="DejaVuSans-25"/>
    </defs>
    <g style="fill:#262626;" transform="translate(141.12 250.031318)scale(0.12 -0.12)">
     <use transform="translate(0 0.78125)" xlink:href="#DejaVuSans-Oblique-70"/>
     <use transform="translate(63.476562 0.78125)" xlink:href="#DejaVuSans-25"/>
    </g>
   </g>
  </g>
 </g>
 <defs>
  <clipPath id="p3228b854ad">
   <rect height="271.8" width="390.6" x="63" y="43.2"/>
  </clipPath>
 </defs>
</svg>
