<?xml version="1.0" encoding="UTF-8" standalone="no"?>
<svg
   xmlns:dc="http://purl.org/dc/elements/1.1/"
   xmlns:cc="http://creativecommons.org/ns#"
   xmlns:rdf="http://www.w3.org/1999/02/22-rdf-syntax-ns#"
   xmlns:svg="http://www.w3.org/2000/svg"
   xmlns="http://www.w3.org/2000/svg"
   viewBox="0 0 272.12534 45.354267"
   height="45.354267"
   width="272.12534"
   xml:space="preserve"
   id="svg2"
   version="1.1"><metadata
     id="metadata8"><rdf:RDF><cc:Work
         rdf:about=""><dc:format>image/svg+xml</dc:format><dc:type
           rdf:resource="http://purl.org/dc/dcmitype/StillImage" /></cc:Work></rdf:RDF></metadata><defs
     id="defs6"><clipPath
       id="clipPath20"
       clipPathUnits="userSpaceOnUse"><path
         id="path18"
         d="M 0,0 H 204.094 V 34.016 H 0 Z" /></clipPath><clipPath
       id="clipPath34"
       clipPathUnits="userSpaceOnUse"><path
         id="path32"
         d="M 0,0 H 204.094 V 34.016 H 0 Z" /></clipPath></defs><g
     transform="matrix(1.3333333,0,0,-1.3333333,0,45.354267)"
     id="g10"><path
       id="path12"
       style="fill:#b2b204;fill-opacity:1;fill-rule:nonzero;stroke:none"
       d="M 55.59,1.487 H 203.239 V 32.529 H 55.59 Z" /><g
       id="g14"><g
         clip-path="url(#clipPath20)"
         id="g16"><g
           transform="translate(66.8548,15.6149)"
           id="g22"><path
             id="path24"
             style="fill:#ffffff;fill-opacity:1;fill-rule:nonzero;stroke:none"
             d="m 0,0 h 1.75 c 1.856,0 3.817,-0.371 3.817,-2.784 0,-2.147 -2.094,-2.571 -3.817,-2.571 H 0 Z m 0,7.317 h 1.432 c 1.696,0 3.579,-0.159 3.579,-2.306 0,-1.909 -1.936,-2.254 -3.5,-2.254 H 0 Z M -3.712,-8.272 h 6.469 c 2.333,0 6.522,0.69 6.522,5.356 0,2.28 -1.723,3.976 -4.242,4.215 v 0.053 c 2.201,0.398 3.685,1.935 3.685,4.136 0,4.056 -3.579,4.746 -5.965,4.746 H -3.712 Z M 28.951,5.382 h -3.553 v -6.681 c 0,-1.75 -0.557,-4.534 -3.128,-4.534 -2.28,0 -2.307,2.254 -2.307,3.924 v 7.291 h -3.552 v -8.616 c 0,-3.076 1.405,-5.356 4.639,-5.356 1.856,0 3.394,0.849 4.481,2.174 h 0.053 v -1.856 h 3.367 z M 45.202,5.196 c -1.113,0.239 -2.2,0.504 -3.87,0.504 -2.784,0 -5.356,-1.299 -5.356,-4.242 0,-4.931 6.177,-3.102 6.177,-5.779 0,-1.326 -1.431,-1.671 -2.333,-1.671 -1.219,0 -2.386,0.345 -3.499,0.902 l -0.212,-2.917 c 1.299,-0.344 2.677,-0.583 4.029,-0.583 2.89,0 5.727,1.273 5.727,4.454 0,4.931 -6.177,3.553 -6.177,5.727 0,1.166 1.14,1.511 2.094,1.511 1.299,0 2.095,-0.212 3.182,-0.583 z m 7.741,-13.468 h 3.553 V 5.382 h -3.553 z m 0,16.146 h 3.553 v 3.394 H 52.943 Z M 64.476,-8.272 h 3.552 v 6.681 c 0,1.75 0.557,4.534 3.129,4.534 2.28,0 2.306,-2.254 2.306,-3.924 v -7.291 h 3.553 v 8.617 c 0,3.075 -1.405,5.355 -4.64,5.355 -1.855,0 -3.367,-0.61 -4.48,-2.174 h -0.053 v 1.856 h -3.367 z m 22.959,8.166 c 0.159,1.829 1.166,3.208 3.155,3.208 1.988,0 2.784,-1.485 2.89,-3.208 z m 8.431,-4.507 c -1.326,-0.742 -2.811,-1.379 -4.534,-1.379 -2.2,0 -3.738,1.246 -3.897,3.447 h 9.438 c 0,4.772 -1.431,8.245 -6.495,8.245 -4.242,0 -6.337,-3.261 -6.337,-7.211 0,-4.481 2.625,-7.079 7.132,-7.079 1.909,0 3.394,0.371 4.693,1.087 z m 16.384,9.809 c -1.114,0.239 -2.201,0.504 -3.871,0.504 -2.783,0 -5.355,-1.299 -5.355,-4.242 0,-4.931 6.177,-3.102 6.177,-5.779 0,-1.326 -1.432,-1.671 -2.333,-1.671 -1.219,0 -2.386,0.345 -3.499,0.902 l -0.213,-2.917 c 1.3,-0.344 2.678,-0.583 4.03,-0.583 2.89,0 5.727,1.273 5.727,4.454 0,4.931 -6.177,3.553 -6.177,5.727 0,1.166 1.14,1.511 2.094,1.511 1.299,0 2.094,-0.212 3.181,-0.583 z m 16.013,0 c -1.114,0.239 -2.201,0.504 -3.871,0.504 -2.784,0 -5.355,-1.299 -5.355,-4.242 0,-4.931 6.177,-3.102 6.177,-5.779 0,-1.326 -1.432,-1.671 -2.333,-1.671 -1.22,0 -2.386,0.345 -3.5,0.902 l -0.212,-2.917 c 1.299,-0.344 2.678,-0.583 4.03,-0.583 2.89,0 5.727,1.273 5.727,4.454 0,4.931 -6.178,3.553 -6.178,5.727 0,1.166 1.14,1.511 2.095,1.511 1.299,0 2.094,-0.212 3.181,-0.583 z" /></g></g></g><path
       id="path26"
       style="fill:#231f20;fill-opacity:1;fill-rule:nonzero;stroke:none"
       d="M 0.994,1.487 H 53.011 V 32.528 H 0.994 Z" /><g
       id="g28"><g
         clip-path="url(#clipPath34)"
         id="g30"><g
           transform="translate(10.1065,23.9302)"
           id="g36"><path
             id="path38"
             style="fill:#ffffff;fill-opacity:1;fill-rule:nonzero;stroke:none"
             d="m 0,0 h -1.407 l 0.696,1.988 h 0.014 z m -3.104,-1.862 h 1 l 0.421,1.104 h 1.952 l 0.414,-1.104 h 1.069 l -1.89,4.815 h -1.09 z m 5.202,0 h 0.924 v 3.96 L 3.036,2.112 4.333,-1.862 H 5.258 L 6.555,2.112 H 6.569 V -1.862 H 7.493 V 2.953 H 5.948 L 4.802,-0.696 H 4.789 L 3.643,2.953 H 2.098 Z m 8.638,4.726 C 10.385,2.981 9.998,3.036 9.584,3.036 8.735,3.036 7.901,2.643 7.901,1.567 c 0,-1.594 2.111,-1.215 2.111,-2.133 0,-0.434 -0.49,-0.621 -0.856,-0.621 -0.38,0 -0.759,0.118 -1.09,0.297 L 7.977,-1.759 c 0.475,-0.117 0.71,-0.186 1.234,-0.186 0.974,0 1.808,0.4 1.808,1.455 0,1.615 -2.112,1.263 -2.112,2.098 0,0.525 0.429,0.67 0.76,0.67 0.338,0 0.676,-0.076 0.979,-0.207 z m 1.76,-4.726 h 0.965 v 4.057 h 1.38 V 2.953 H 11.116 V 2.195 h 1.38 z m 2.684,0 h 2.856 v 0.758 h -1.891 v 1.353 h 1.719 v 0.758 h -1.719 v 1.188 h 1.877 V 2.953 H 15.18 Z m 4.305,4.057 h 0.318 c 0.483,0 1.021,-0.048 1.021,-0.628 0,-0.601 -0.545,-0.67 -1.021,-0.67 H 19.485 Z M 18.52,-1.862 h 0.965 v 2.001 h 0.311 c 0.407,0 0.531,-0.138 0.669,-0.497 l 0.58,-1.504 h 1.076 L 21.348,0.022 C 21.252,0.235 21.1,0.497 20.838,0.518 v 0.014 c 0.614,0.082 0.993,0.551 0.993,1.118 0,1.338 -1.234,1.303 -2.27,1.303 H 18.52 Z m 3.954,0 h 1.317 c 1.477,0 2.78,0.496 2.78,2.408 0,1.911 -1.303,2.407 -2.78,2.407 h -1.317 z m 0.965,4.057 h 0.538 c 0.808,0 1.588,-0.6 1.588,-1.649 0,-1.05 -0.78,-1.65 -1.588,-1.65 H 23.439 Z M 29.373,0 h -1.408 l 0.697,1.988 h 0.014 z m -3.105,-1.862 h 1.001 l 0.421,1.104 h 1.952 l 0.414,-1.104 h 1.069 l -1.89,4.815 h -1.09 z m 5.134,0 h 0.924 v 3.96 l 0.013,0.014 1.298,-3.974 h 0.925 l 1.297,3.974 h 0.014 v -3.974 h 0.924 v 4.815 h -1.545 l -1.146,-3.649 h -0.014 l -1.145,3.649 h -1.545 z" /></g><g
           transform="translate(17.0155,16.7502)"
           id="g40"><path
             id="path42"
             style="fill:#ffffff;fill-opacity:1;fill-rule:nonzero;stroke:none"
             d="m 0,0 h 0.456 c 0.483,0 0.994,-0.097 0.994,-0.725 0,-0.559 -0.546,-0.67 -0.994,-0.67 H 0 Z m 0,1.904 h 0.373 c 0.442,0 0.932,-0.041 0.932,-0.6 0,-0.497 -0.504,-0.587 -0.911,-0.587 L 0,0.717 Z m -0.965,-4.057 h 1.683 c 0.608,0 1.697,0.179 1.697,1.394 0,0.593 -0.448,1.035 -1.103,1.097 V 0.351 C 1.884,0.455 2.27,0.855 2.27,1.428 2.27,2.483 1.339,2.663 0.718,2.663 h -1.683 z m 4.25,1.738 c 0,-1.29 0.731,-1.821 1.966,-1.821 1.236,0 1.966,0.531 1.966,1.821 V 2.663 H 6.252 v -2.781 c 0,-0.821 -0.262,-1.359 -1.001,-1.359 -0.738,0 -1.001,0.538 -1.001,1.359 V 2.663 H 3.285 Z m 7.693,2.988 C 10.626,2.69 10.24,2.745 9.826,2.745 8.977,2.745 8.143,2.352 8.143,1.276 c 0,-1.594 2.111,-1.214 2.111,-2.132 0,-0.435 -0.49,-0.621 -0.856,-0.621 -0.38,0 -0.759,0.117 -1.09,0.296 L 8.219,-2.05 c 0.475,-0.117 0.71,-0.186 1.234,-0.186 0.973,0 1.808,0.4 1.808,1.456 0,1.615 -2.112,1.263 -2.112,2.098 0,0.524 0.428,0.669 0.76,0.669 0.338,0 0.676,-0.076 0.979,-0.207 z m 1.215,-4.726 h 0.965 v 4.815 h -0.965 z m 2.022,0 h 0.923 v 3.602 h 0.014 l 1.843,-3.602 h 1.179 v 4.816 h -0.923 v -3.602 h -0.014 l -1.836,3.602 h -1.186 z m 5.03,0 H 22.1 v 0.758 h -1.89 v 1.354 h 1.718 V 0.717 H 20.21 v 1.187 h 1.877 v 0.759 h -2.842 z m 6.513,4.726 c -0.352,0.117 -0.738,0.172 -1.152,0.172 -0.849,0 -1.684,-0.393 -1.684,-1.469 0,-1.594 2.112,-1.214 2.112,-2.132 0,-0.435 -0.491,-0.621 -0.857,-0.621 -0.379,0 -0.758,0.117 -1.089,0.296 l -0.09,-0.869 c 0.476,-0.117 0.71,-0.186 1.235,-0.186 0.973,0 1.807,0.4 1.807,1.456 0,1.615 -2.111,1.263 -2.111,2.098 0,0.524 0.428,0.669 0.759,0.669 0.339,0 0.677,-0.076 0.98,-0.207 z m 3.905,0 c -0.352,0.117 -0.738,0.172 -1.152,0.172 -0.849,0 -1.683,-0.393 -1.683,-1.469 0,-1.594 2.111,-1.214 2.111,-2.132 0,-0.435 -0.49,-0.621 -0.856,-0.621 -0.38,0 -0.759,0.117 -1.09,0.296 L 26.904,-2.05 c 0.475,-0.117 0.71,-0.186 1.234,-0.186 0.973,0 1.808,0.4 1.808,1.456 0,1.615 -2.112,1.263 -2.112,2.098 0,0.524 0.428,0.669 0.76,0.669 0.338,0 0.676,-0.076 0.979,-0.207 z" /></g><g
           transform="translate(22.6188,11.8837)"
           id="g44"><path
             id="path46"
             style="fill:#ffffff;fill-opacity:1;fill-rule:nonzero;stroke:none"
             d="m 0,0 c -0.352,0.117 -0.738,0.172 -1.152,0.172 -0.849,0 -1.683,-0.393 -1.683,-1.469 0,-1.594 2.111,-1.214 2.111,-2.132 0,-0.435 -0.49,-0.622 -0.856,-0.622 -0.38,0 -0.759,0.118 -1.09,0.297 l -0.089,-0.869 c 0.475,-0.117 0.71,-0.186 1.234,-0.186 0.973,0 1.808,0.4 1.808,1.456 0,1.615 -2.112,1.263 -2.112,2.098 0,0.524 0.428,0.669 0.76,0.669 0.338,0 0.676,-0.076 0.979,-0.207 z M 4.692,-3.85 C 4.464,-3.968 4.016,-4.051 3.636,-4.051 c -1.028,0 -1.635,0.739 -1.635,1.719 0,0.987 0.621,1.746 1.614,1.746 0.345,0 0.677,-0.048 1.042,-0.255 l 0.069,0.813 c -0.352,0.138 -0.773,0.2 -1.09,0.2 -1.635,0 -2.642,-0.923 -2.642,-2.573 0,-1.629 1.083,-2.408 2.642,-2.408 0.366,0 0.745,0.069 1.097,0.152 z m 0.891,-0.876 h 0.965 v 2.112 H 8.481 V -4.726 H 9.446 V 0.089 H 8.481 V -1.856 H 6.548 V 0.089 H 5.583 Z m 4.747,2.422 c 0,-1.477 0.813,-2.505 2.359,-2.505 1.525,0 2.359,1.048 2.359,2.505 0,1.456 -0.848,2.476 -2.359,2.476 -1.532,0 -2.359,-0.999 -2.359,-2.476 m 1.006,0 c 0,0.849 0.394,1.718 1.353,1.718 0.959,0 1.353,-0.869 1.353,-1.718 0,-0.87 -0.366,-1.747 -1.353,-1.747 -0.987,0 -1.353,0.877 -1.353,1.747 m 4.362,0 c 0,-1.477 0.813,-2.505 2.359,-2.505 1.525,0 2.36,1.048 2.36,2.505 0,1.456 -0.848,2.476 -2.36,2.476 -1.532,0 -2.359,-0.999 -2.359,-2.476 m 1.006,0 c 0,0.849 0.394,1.718 1.353,1.718 0.96,0 1.353,-0.869 1.353,-1.718 0,-0.87 -0.366,-1.747 -1.353,-1.747 -0.987,0 -1.353,0.877 -1.353,1.747 m 4.666,-2.422 h 2.835 v 0.758 h -1.87 V 0.089 H 21.37 Z" /></g></g></g></g></svg>